<?xml version="1.0" standalone="no"?>
<!DOCTYPE svg PUBLIC "-//W3C//DTD SVG 1.1//EN" "http://www.w3.org/Graphics/SVG/1.1/DTD/svg11.dtd" >
<svg xmlns="http://www.w3.org/2000/svg">
<metadata></metadata>
<defs>
<font id="retina_display_condensedbold" horiz-adv-x="960" >
<font-face units-per-em="2048" ascent="1638" descent="-410" />
<missing-glyph horiz-adv-x="366" />
<glyph horiz-adv-x="0" />
<glyph horiz-adv-x="682" />
<glyph unicode=" "  horiz-adv-x="366" />
<glyph unicode="&#x09;" horiz-adv-x="366" />
<glyph unicode="&#xa0;" horiz-adv-x="366" />
<glyph unicode="!" horiz-adv-x="452" d="M70 967v467h313v-467l-80 -561h-153zM78 0v297h297v-297h-297z" />
<glyph unicode="&#x22;" horiz-adv-x="786" d="M41 905l100 529h283v-4l-256 -560zM381 905l100 529h283v-4l-256 -560z" />
<glyph unicode="#" horiz-adv-x="1126" d="M35 389v178l231 -10l53 332l-208 8v180l237 -10l62 377h163l-61 -383l211 -8l63 391h164l-63 -397l203 -9v-178l-232 8l-53 -331l211 -9v-178l-240 10l-59 -370h-164l59 377l-211 8l-61 -385h-164l62 391zM430 551l211 -8l53 331l-211 9z" />
<glyph unicode="$" d="M10 117l84 245q147 -91 295 -114l39 358q-185 67 -266.5 163.5t-81.5 256.5q0 169 108.5 281t305.5 125l16 155h166l-19 -162q129 -19 263 -84l-80 -243q-132 69 -234 86l-35 -332q193 -73 277 -167t84 -259q0 -188 -116.5 -299.5t-311.5 -126.5l-21 -199h-166l23 205 q-168 23 -330 111zM350 1051q0 -47 25 -82t86 -68l31 289q-68 -9 -105 -47t-37 -92zM506 244q74 11 116 50t42 103q0 49 -27 86t-96 74z" />
<glyph unicode="%" horiz-adv-x="1218" d="M37 1079q0 173 76 270t194 97q119 0 196 -97t77 -270t-77 -270.5t-196 -97.5q-118 0 -194 97.5t-76 270.5zM145 35l426 704l373 719l129 -59l-428 -705l-371 -719zM219 1079q0 -211 88 -211q90 0 90 211t-90 211q-88 0 -88 -211zM639 354q0 173 77 271t195 98t194.5 -98 t76.5 -271t-76.5 -269.5t-194.5 -96.5q-119 0 -195.5 96.5t-76.5 269.5zM823 354q0 -211 88 -211t88 211t-88 211t-88 -211z" />
<glyph unicode="&#x26;" horiz-adv-x="1126" d="M27 389q0 138 65.5 255.5t186.5 203.5q-47 81 -68 145.5t-21 132.5q0 146 98 233t277 87q187 0 367 -94l-98 -260q-147 82 -232 82q-50 0 -78 -28t-28 -75q0 -59 53 -141l205 -332q39 103 53 209h268v-2q-50 -277 -160 -465l211 -340h-313l-86 129q-133 -145 -328 -145 q-164 0 -268 107t-104 298zM319 412q0 -79 34.5 -123.5t86.5 -44.5q45 0 80.5 22t71.5 76l-176 287q-97 -97 -97 -217z" />
<glyph unicode="'" horiz-adv-x="448" d="M41 905l100 529h287v-4l-256 -562z" />
<glyph unicode="(" horiz-adv-x="671" d="M59 621q0 535 459 866l131 -152q-158 -155 -234.5 -323.5t-76.5 -390.5t76.5 -392t234.5 -323l-131 -154q-459 334 -459 869z" />
<glyph unicode=")" horiz-adv-x="671" d="M25 -94q156 153 232.5 323t76.5 392q0 223 -76 392.5t-233 321.5l129 152q460 -332 460 -866t-460 -869z" />
<glyph unicode="*" horiz-adv-x="579" d="M43 1204l45 139l162 -110l-10 -33zM94 1053l156 121l26 -21l-63 -186zM217 1438h148l-58 -189h-35zM303 1153l27 21l157 -121l-118 -86zM330 1233l162 110l45 -139l-197 -4z" />
<glyph unicode="+" horiz-adv-x="913" d="M61 612v228h277v288h237v-288h277v-228h-277v-288h-237v288h-277z" />
<glyph unicode="," horiz-adv-x="393" d="M-37 -213q59 117 82 234t23 313h282v-31q0 -99 -20.5 -186.5t-59.5 -160t-83.5 -130t-104.5 -115.5z" />
<glyph unicode="-" horiz-adv-x="598" d="M49 489v265h500v-265h-500z" />
<glyph unicode="." horiz-adv-x="393" d="M51 0v334h291v-334h-291z" />
<glyph unicode="/" horiz-adv-x="671" d="M-68 -266l566 1894h221l-565 -1894h-222z" />
<glyph unicode="0" horiz-adv-x="1069" d="M47 717q0 189 36.5 332t102.5 230.5t153.5 131t195.5 43.5q107 0 194 -43.5t153 -131t102 -230.5t36 -332q0 -190 -36 -333t-102 -230.5t-153 -130.5t-194 -43q-108 0 -195.5 43t-153.5 130.5t-102.5 230.5t-36.5 333zM356 719q0 -178 22.5 -286t60.5 -150.5t96 -42.5 q59 0 96.5 41.5t58.5 148t21 285.5q0 178 -22 286t-60 150.5t-97 42.5q-58 0 -95.5 -41.5t-59 -148.5t-21.5 -285z" />
<glyph unicode="1" horiz-adv-x="765" d="M35 1343l336 99h184v-1190h186v-252h-694v252h201v876l-162 -43z" />
<glyph unicode="2" horiz-adv-x="929" d="M25 233l438 566q104 126 104 229q0 62 -35.5 101.5t-97.5 39.5q-117 0 -278 -145l-127 242q199 184 448 184q190 0 297 -103t107 -278q0 -123 -47.5 -226t-157.5 -227l-268 -348h487v-268h-834z" />
<glyph unicode="3" horiz-adv-x="913" d="M25 1325q226 125 456 125q180 0 283.5 -81.5t103.5 -227.5q0 -131 -76.5 -218.5t-234.5 -152.5q166 -25 245 -99t79 -210q0 -118 -64.5 -207t-182 -143.5t-266 -84t-333.5 -36.5v256q280 17 404 70.5t124 154.5q0 75 -77.5 111.5t-268.5 40.5l-29 200q200 70 282.5 130.5 t82.5 133.5q0 51 -35.5 81t-99.5 30q-128 0 -307 -98z" />
<glyph unicode="4" horiz-adv-x="989" d="M20 524l445 918h387v-924h119v-248h-119v-270h-293v270h-522zM268 512h297v614z" />
<glyph unicode="5" horiz-adv-x="937" d="M53 236q194 23 315 68t170.5 103.5t49.5 137.5q0 64 -35 99.5t-94 35.5q-50 0 -92 -19.5t-97 -62.5l-200 80l36 756h775v-252h-519l-18 -310q107 56 219 56q151 0 241.5 -94.5t90.5 -264.5q0 -139 -52.5 -243t-158 -174.5t-252 -112.5t-344.5 -62z" />
<glyph unicode="6" horiz-adv-x="974" d="M47 551q0 320 131.5 536t415.5 381l174 -227q-319 -184 -395 -375q122 66 233 66q147 0 240.5 -113.5t93.5 -318.5q0 -246 -120 -384.5t-326 -138.5q-207 0 -327 147t-120 427zM342 502q0 -133 40 -203t118 -70q67 0 106 62t39 178q0 225 -162 225q-63 0 -135 -37 q-6 -65 -6 -155z" />
<glyph unicode="7" horiz-adv-x="907" d="M41 1163v271h840v-285l-508 -1169l-291 92l487 1091h-528z" />
<glyph unicode="8" horiz-adv-x="997" d="M39 395q0 133 54 217t163 133q-93 51 -141.5 127.5t-48.5 200.5q0 163 116 270t316 107q201 0 316.5 -106.5t115.5 -270.5q0 -124 -48.5 -200.5t-140.5 -127.5q110 -48 163.5 -132t53.5 -218q0 -184 -125.5 -297.5t-334.5 -113.5q-210 0 -334.5 113t-124.5 298zM330 424 q0 -100 46 -156.5t122 -56.5t123 56.5t47 156.5q0 102 -45.5 161.5t-124.5 59.5q-78 0 -123 -59.5t-45 -161.5zM348 1040q0 -92 40.5 -144t109.5 -52t110 52t41 144q0 86 -41 135.5t-110 49.5q-68 0 -109 -49.5t-41 -135.5z" />
<glyph unicode="9" horiz-adv-x="974" d="M33 934q0 245 120 383.5t326 138.5q208 0 327.5 -146.5t119.5 -426.5q0 -320 -131.5 -536.5t-415.5 -381.5l-174 228q321 181 393 374q-120 -65 -231 -65q-147 0 -240.5 113.5t-93.5 318.5zM328 965q0 -226 161 -226q70 0 136 37q6 64 6 156q0 133 -40 202.5t-118 69.5 q-67 0 -106 -61.5t-39 -177.5z" />
<glyph unicode=":" horiz-adv-x="393" d="M51 0v334h291v-334h-291zM51 725v334h291v-334h-291z" />
<glyph unicode=";" horiz-adv-x="393" d="M-43 -213q57 117 79.5 234t22.5 313h287v-31q0 -99 -21 -186.5t-60.5 -160t-84 -129.5t-104.5 -116zM55 725v334h291v-334h-291z" />
<glyph unicode="&#x3c;" horiz-adv-x="913" d="M66 623v208l768 361v-252l-512 -213l512 -211v-256z" />
<glyph unicode="=" horiz-adv-x="913" d="M72 426v221h770v-221h-770zM72 805v223h770v-223h-770z" />
<glyph unicode="&#x3e;" horiz-adv-x="913" d="M80 260v254l514 213l-514 211v254l770 -361v-208z" />
<glyph unicode="?" horiz-adv-x="860" d="M10 1280q212 172 445 172q174 0 277.5 -99.5t103.5 -267.5q0 -152 -82.5 -255.5t-251.5 -198.5l-31 -225h-158l-43 368q156 94 215.5 155.5t59.5 133.5q0 59 -35 93t-96 34q-127 0 -287 -127zM244 0v297h295v-297h-295z" />
<glyph unicode="@" horiz-adv-x="1288" d="M55 406q0 184 41.5 351t116.5 296.5t175.5 225t222 146t251.5 50.5q192 0 289.5 -97t97.5 -266q0 -98 -30 -254l-146 -731h-162l-34 94q-96 -96 -195 -96q-104 0 -170 84.5t-66 247.5q0 158 58.5 291t168 213.5t247.5 80.5q39 0 79 -8q9 56 9 84q0 187 -193 187 q-113 0 -220.5 -70.5t-188.5 -189.5t-130 -286t-49 -349q0 -291 130 -431.5t374 -140.5q106 0 209 27l-39 -148q-101 -24 -211 -24q-145 0 -261 43.5t-200 130.5t-129 223.5t-45 315.5zM698 479q0 -74 28.5 -112.5t74.5 -38.5q36 0 61 22l99 492q-15 6 -33 6 q-65 0 -118.5 -54t-82.5 -138t-29 -177z" />
<glyph unicode="A" horiz-adv-x="1148" d="M10 0l375 1444h379l375 -1444h-322l-61 270h-371l-59 -270h-316zM444 535h254l-127 563z" />
<glyph unicode="B" horiz-adv-x="1064" d="M88 0v1434h438q232 0 353.5 -94.5t121.5 -266.5q0 -251 -247 -330q280 -71 280 -331q0 -207 -141 -309.5t-395 -102.5h-410zM393 240h117q98 0 153.5 49.5t55.5 148.5q0 90 -58 139.5t-163 49.5h-105v-387zM393 852h101q93 0 144.5 47.5t51.5 136.5q0 75 -46.5 116.5 t-137.5 41.5h-113v-342z" />
<glyph unicode="C" horiz-adv-x="972" d="M47 715q0 353 160 543t440 190q157 0 291 -51l-47 -285q-111 47 -215 47q-148 0 -228.5 -114t-80.5 -326q0 -220 80 -332.5t235 -112.5q100 0 213 45l47 -276q-137 -57 -301 -57q-282 0 -438 183t-156 546z" />
<glyph unicode="D" horiz-adv-x="1142" d="M88 0v1434h354q115 0 213 -25.5t180 -81t139.5 -138t89.5 -202t32 -268.5t-32 -269.5t-90 -203.5t-140.5 -139t-181.5 -81.5t-216 -25.5h-348zM397 268h60q153 0 236 103t83 344q0 242 -83 346t-236 104h-60v-897z" />
<glyph unicode="E" horiz-adv-x="987" d="M88 0v1434h836v-273h-531v-291h471v-268h-471v-330h541v-272h-846z" />
<glyph unicode="F" horiz-adv-x="933" d="M88 0v1434h823v-277h-514v-338h410v-276h-410v-543h-309z" />
<glyph unicode="G" horiz-adv-x="1116" d="M47 715q0 182 46 324t128.5 231t191.5 134.5t238 45.5q196 0 361 -84l-97 -266q-133 65 -253 65q-146 0 -220.5 -115t-74.5 -339q0 -248 68 -356.5t220 -108.5q43 0 93 20v316h-189v249h483v-733q-188 -112 -409 -112q-284 0 -435 182.5t-151 546.5z" />
<glyph unicode="H" horiz-adv-x="1161" d="M88 0v1434h311v-551h363v551h311v-1434h-311v590h-363v-590h-311z" />
<glyph unicode="I" horiz-adv-x="495" d="M92 0v1434h311v-1434h-311z" />
<glyph unicode="J" horiz-adv-x="798" d="M8 23l49 266q79 -27 150 -27q199 0 199 232v940h311v-920v-14q0 -257 -111 -383q-114 -129 -346 -129q-139 0 -252 35z" />
<glyph unicode="K" horiz-adv-x="1097" d="M88 0v1434h309v-627h4l338 627h353v-2l-396 -695l406 -735v-2h-352l-349 662h-4v-662h-309z" />
<glyph unicode="L" horiz-adv-x="874" d="M88 0v1434h309v-1151h455v-283h-764z" />
<glyph unicode="M" horiz-adv-x="1523" d="M57 0l56 1434h428l209 -930l208 930h453l55 -1434h-303l-33 1016l-235 -1016h-293l-235 1016l-33 -1016h-277z" />
<glyph unicode="N" horiz-adv-x="1167" d="M88 0v1434h356l373 -932l-6 241v691h268v-1434h-348l-379 948h-2l6 -241v-707h-268z" />
<glyph unicode="O" horiz-adv-x="1175" d="M47 717q0 353 146.5 545t394.5 192q246 0 393 -191.5t147 -545.5q0 -352 -147.5 -544.5t-392.5 -192.5q-246 0 -393.5 192t-147.5 545zM367 719q0 -237 57.5 -354t165.5 -117q219 0 219 467q0 235 -58 353t-165 118q-219 0 -219 -467z" />
<glyph unicode="P" horiz-adv-x="1015" d="M88 0v1434h375q261 0 395.5 -125t134.5 -371q0 -136 -39 -238t-109.5 -163.5t-163.5 -92t-208 -30.5h-76v-414h-309zM397 666h64q223 0 223 262q0 133 -54.5 191.5t-164.5 58.5h-68v-512z" />
<glyph unicode="Q" horiz-adv-x="1175" d="M47 717q0 353 146.5 545t394.5 192q246 0 393 -191.5t147 -543.5q0 -380 -172 -574l220 -288v-2h-365l-104 143q-58 -12 -119 -12q-246 0 -393.5 189.5t-147.5 541.5zM367 719q0 -237 57.5 -354t165.5 -117q219 0 219 467q0 235 -58 353t-165 118q-219 0 -219 -467z" />
<glyph unicode="R" horiz-adv-x="1095" d="M88 0v1434h418q255 0 386.5 -108.5t131.5 -315.5q0 -89 -25.5 -160.5t-70 -119t-92 -78t-103.5 -50.5q62 -25 102 -67.5t80 -126.5l191 -404v-4h-344l-160 362q-36 71 -76.5 101.5t-101.5 30.5h-33v-494h-303zM391 745h86q108 0 169 57t61 169q0 209 -220 209h-96v-435z " />
<glyph unicode="S" horiz-adv-x="999" d="M23 92l81 264q195 -102 381 -102q86 0 133.5 36t47.5 101q0 60 -46 106t-180 117q-195 91 -277.5 185t-82.5 243q0 185 122 296.5t335 111.5q202 0 385 -88l-82 -264q-161 82 -308 82q-74 0 -113.5 -32t-39.5 -85q0 -52 42 -90t175 -105q203 -96 286 -192.5t83 -251.5 q0 -213 -128 -326.5t-358 -113.5q-116 0 -236.5 30t-219.5 78z" />
<glyph unicode="T" horiz-adv-x="997" d="M20 1153v281h957v-281h-324v-1153h-311v1153h-322z" />
<glyph unicode="U" horiz-adv-x="1138" d="M80 487v947h311v-965q0 -111 48 -164t132 -53q83 0 131 52.5t48 162.5v967h309v-945q0 -108 -24 -193.5t-67 -144t-104.5 -96.5t-134.5 -55.5t-160 -17.5q-110 0 -197 28t-153.5 87t-102.5 157.5t-36 232.5z" />
<glyph unicode="V" horiz-adv-x="1130" d="M10 1434h332l227 -996l228 996h325l-377 -1444h-358z" />
<glyph unicode="W" horiz-adv-x="1673" d="M18 1434h316l151 -942l195 942h332l188 -942l154 942h301l-275 -1440h-342l-204 971l-207 -971h-334z" />
<glyph unicode="X" horiz-adv-x="1087" d="M8 0v2l344 739l-329 691v2h329l195 -447l192 447h326v-2l-328 -691l342 -739v-2h-329l-207 483l-209 -483h-326z" />
<glyph unicode="Y" horiz-adv-x="1079" d="M-6 1432v2h325l222 -562l221 562h323v-2l-391 -902v-530h-311v530z" />
<glyph unicode="Z" horiz-adv-x="1003" d="M45 0v264l545 901h-514v269h878v-265l-540 -901h540v-268h-909z" />
<glyph unicode="[" horiz-adv-x="688" d="M96 -217v1683l551 -32v-193l-303 12v-1257l303 12v-192z" />
<glyph unicode="\" horiz-adv-x="671" d="M-47 1628h221l565 -1894h-221z" />
<glyph unicode="]" horiz-adv-x="688" d="M43 8l301 -12v1257l-301 -12v193l551 32v-1683l-551 33v192z" />
<glyph unicode="_" horiz-adv-x="872" d="M-4 -100h881v-107h-881v107z" />
<glyph unicode="`" horiz-adv-x="1013" d="M248 1370h336l145 -235h-186z" />
<glyph unicode="a" horiz-adv-x="907" d="M33 319q0 160 86 246q91 88 270 88q87 0 162 -16v61q0 69 -34.5 103.5t-113.5 34.5q-113 0 -243 -60l-72 215q181 82 369 82q195 0 287 -87t92 -263v-539l22 -184h-252l-37 94q-118 -106 -254 -106q-130 0 -206 83t-76 248zM307 336q0 -150 127 -150q59 0 117 39v254 q-50 8 -92 8q-81 0 -117 -36q-35 -35 -35 -115z" />
<glyph unicode="b" horiz-adv-x="956" d="M76 0v1477h291v-492q90 86 208 86q156 0 248 -137t92 -404t-94.5 -404.5t-253.5 -137.5q-119 0 -221 98l-37 -86h-233zM367 264q49 -39 108 -39q162 0 162 305q0 304 -160 304q-60 0 -110 -43v-527z" />
<glyph unicode="c" horiz-adv-x="757" d="M37 528q0 254 122 400.5t341 146.5q119 0 227 -43l-43 -252q-91 37 -162 37q-100 0 -154.5 -78.5t-54.5 -206.5q0 -138 54.5 -214t158.5 -76q70 0 164 37l41 -244q-120 -51 -248 -51q-211 0 -328.5 142.5t-117.5 401.5z" />
<glyph unicode="d" horiz-adv-x="956" d="M41 528q0 268 98 405.5t264 137.5q97 0 187 -49v455h291v-1477h-234l-39 90q-106 -102 -229 -102q-155 0 -246.5 136.5t-91.5 403.5zM317 528q0 -303 162 -303q61 0 111 43v527q-49 39 -111 39q-162 0 -162 -306z" />
<glyph unicode="e" horiz-adv-x="892" d="M37 526q0 265 116.5 409t297.5 144q185 0 296 -144.5t111 -414.5v-96h-549q7 -112 66 -164.5t157 -52.5q115 0 230 59l65 -205q-151 -77 -327 -77q-80 0 -147 17t-126.5 56.5t-100.5 101t-65 155t-24 212.5zM309 600h281q-3 122 -38.5 189t-100.5 67q-66 0 -102.5 -68 t-39.5 -188z" />
<glyph unicode="f" horiz-adv-x="638" d="M20 809v240h117v88q0 348 342 348q110 0 213 -29l-39 -219q-59 16 -110 16q-119 0 -119 -129v-75h205v-240h-205v-809h-287v809h-117z" />
<glyph unicode="g" horiz-adv-x="956" d="M41 543q0 254 94.5 391t251.5 137q121 0 223 -98l37 86h234v-950q0 -118 -32 -202.5t-94 -134t-142.5 -72t-186.5 -22.5q-175 0 -328 39l15 213q157 -45 282 -45q95 0 146 41.5t51 136.5v39q-86 -79 -205 -79q-160 0 -253 133t-93 387zM317 543q0 -289 162 -289 q61 0 111 43v498q-49 39 -111 39q-162 0 -162 -291z" />
<glyph unicode="h" d="M76 0v1477h291v-500q125 94 247 94q134 0 205.5 -79t71.5 -228v-764h-291v692q0 125 -106 125q-68 0 -127 -49v-768h-291z" />
<glyph unicode="i" horiz-adv-x="446" d="M74 1157v234h301v-234h-301zM78 0v1059h291v-1059h-291z" />
<glyph unicode="j" horiz-adv-x="446" d="M-72 -160q88 78 120 147.5t32 196.5v875h289v-877q0 -102 -13.5 -174t-47.5 -130.5t-78 -102t-119 -99.5zM74 1157v234h301v-234h-301z" />
<glyph unicode="k" horiz-adv-x="919" d="M76 0v1477h291v-869h2l231 451h318v-2l-281 -504l289 -551v-2h-322l-235 500h-2v-500h-291z" />
<glyph unicode="l" horiz-adv-x="446" d="M78 0v1477h291v-1477h-291z" />
<glyph unicode="m" horiz-adv-x="1466" d="M76 0v1059h233l39 -94q133 106 262 106q158 0 224 -113q147 113 286 113q133 0 206 -77t73 -226v-768h-291v696q0 121 -102 121q-60 0 -129 -49q4 -8 4 -27v-741h-289v696q0 121 -103 121q-63 0 -122 -49v-768h-291z" />
<glyph unicode="n" d="M76 0v1059h233l39 -94q133 106 266 106q134 0 205.5 -79t71.5 -228v-764h-291v692q0 125 -106 125q-68 0 -127 -49v-768h-291z" />
<glyph unicode="o" horiz-adv-x="925" d="M37 526q0 134 33.5 240.5t92 174t135.5 103t167 35.5q183 0 303.5 -144t120.5 -405q0 -263 -120 -406.5t-306 -143.5t-306 142.5t-120 403.5zM311 530q0 -150 41 -226.5t113 -76.5q70 0 110.5 76t40.5 223q0 151 -41 228t-112 77q-72 0 -112 -76t-40 -225z" />
<glyph unicode="p" horiz-adv-x="956" d="M76 -313v1372h233l39 -90q106 102 227 102q155 0 247.5 -137.5t92.5 -403.5q0 -268 -98 -405t-264 -137q-100 0 -186 49v-350h-291zM367 264q49 -39 108 -39q162 0 162 305q0 304 -160 304q-60 0 -110 -43v-527z" />
<glyph unicode="q" horiz-adv-x="956" d="M41 528q0 268 94 405.5t252 137.5q121 0 223 -98l37 86h234v-1372h-291v387q-93 -86 -209 -86q-156 0 -248 136.5t-92 403.5zM317 528q0 -303 162 -303q61 0 111 43v527q-49 39 -111 39q-162 0 -162 -306z" />
<glyph unicode="r" horiz-adv-x="655" d="M76 0v1059h229l49 -164q113 180 276 180h5v-309q-151 -6 -268 -92v-674h-291z" />
<glyph unicode="s" horiz-adv-x="823" d="M16 76l74 237q80 -42 170 -68t154 -26q52 0 80 21t28 57q0 35 -32.5 60t-135.5 67q-161 62 -227 131t-66 199q0 148 96 234.5t269 86.5q177 0 340 -78l-72 -231q-159 74 -266 74q-46 0 -72 -19.5t-26 -50.5q0 -33 32 -57t134 -64q168 -61 232.5 -134t64.5 -200 q0 -164 -99.5 -247.5t-275.5 -83.5q-220 0 -402 92z" />
<glyph unicode="t" horiz-adv-x="675" d="M20 819v240h111v276h289v-276h219v-240h-219v-461q0 -125 127 -125q45 0 92 13l2 -238q-75 -20 -178 -20q-169 0 -250.5 76.5t-81.5 250.5v504h-111z" />
<glyph unicode="u" d="M70 295v764h290v-694q0 -125 107 -125q63 0 127 49v770h291v-1059h-234l-41 94q-129 -106 -266 -106q-132 0 -203 79t-71 228z" />
<glyph unicode="v" horiz-adv-x="905" d="M6 1059h291l160 -721l157 721h283l-285 -1069h-317z" />
<glyph unicode="w" horiz-adv-x="1357" d="M12 1059h283l106 -662l138 662h284l138 -664l110 664h275l-220 -1063h-303l-145 647l-143 -647h-304z" />
<glyph unicode="x" horiz-adv-x="897" d="M6 0v2l266 543l-256 512v2h303l130 -301l131 301h301v-2l-260 -512l268 -543v-2h-303l-140 326l-139 -326h-301z" />
<glyph unicode="y" horiz-adv-x="905" d="M10 1059h291l162 -717l153 717h283l-233 -873q-33 -123 -70.5 -199.5t-101.5 -135t-148 -94.5t-221 -72l-74 233q152 49 240 131z" />
<glyph unicode="z" horiz-adv-x="829" d="M35 0v238l414 583h-390v238h732v-236l-416 -585h413v-238h-753z" />
<glyph unicode="{" horiz-adv-x="931" d="M41 545v160l18 2q158 20 242 84t84 159q0 65 -40.5 116t-117.5 97l23 158q122 53 287.5 97t336.5 65l25 -193q-215 -23 -373 -78q71 -49 108.5 -106t37.5 -139q0 -118 -91.5 -204.5t-242.5 -137.5q151 -51 242.5 -137.5t91.5 -204.5q0 -82 -37.5 -139.5t-108.5 -106.5 q158 -55 373 -78l-25 -192q-355 44 -624 161l-23 160q77 46 117.5 96.5t40.5 114.5q0 95 -84 159.5t-242 84.5z" />
<glyph unicode="|" horiz-adv-x="483" d="M135 -266v1894h211v-1894h-211z" />
<glyph unicode="}" horiz-adv-x="931" d="M33 -41q215 23 373 78q-70 48 -107 105.5t-37 140.5q0 118 91.5 204.5t242.5 137.5q-151 51 -242.5 137.5t-91.5 204.5q0 82 36.5 139.5t107.5 105.5q-158 55 -373 78l26 193q169 -21 335.5 -65t287.5 -97l25 -158q-78 -46 -119 -97t-41 -116q0 -95 83.5 -159t241.5 -84 l19 -2v-160l-19 -2q-157 -20 -241 -84.5t-84 -159.5q0 -64 41 -114.5t119 -96.5l-25 -160q-121 -53 -287 -96.5t-336 -64.5z" />
<glyph unicode="&#xa1;" horiz-adv-x="452" d="M70 0v467l80 561h153l80 -561v-467h-313zM78 1137v297h297v-297h-297z" />
<glyph unicode="&#xa2;" horiz-adv-x="831" d="M43 729q0 204 112 340.5t316 153.5l23 221h161l-24 -230q74 -14 157 -53l-61 -221q-79 39 -139 49l-56 -526q81 2 195 55l64 -217q-132 -60 -267 -68l-24 -243h-162l27 258q-150 38 -236 165.5t-86 315.5zM309 729q0 -171 99 -235l53 491q-72 -23 -112 -90.5t-40 -165.5z " />
<glyph unicode="&#xa3;" horiz-adv-x="944" d="M45 217q107 110 133 318l4 49h-127v241h156l20 183q24 211 134 321q119 119 335 119q101 0 203 -27l-35 -276q-68 22 -143 22q-92 0 -143 -51q-52 -54 -64 -160l-16 -131h276v-241h-303l-8 -72q-15 -156 -92 -248h512v-264h-799z" />
<glyph unicode="&#xa5;" horiz-adv-x="1058" d="M0 1434h326l204 -557l207 557h320l-346 -772h247v-175h-276v-127h276v-172h-276v-188h-307v188h-277v172h277v127h-277v175h248z" />
<glyph unicode="&#xa7;" horiz-adv-x="993" d="M37 717q0 90 44.5 155t137.5 125q-65 71 -65 174q0 121 96.5 199t257.5 78q184 0 350 -72l-70 -221q-164 68 -280 68q-45 0 -68.5 -15t-23.5 -41t36.5 -49.5t172.5 -79.5q189 -75 260 -145.5t71 -175.5q0 -89 -45 -155t-137 -126q68 -71 68 -174q0 -121 -97.5 -198.5 t-259.5 -77.5q-178 0 -350 71l70 224q71 -31 148.5 -50.5t131.5 -19.5q45 0 69 15t24 40q0 19 -13 32.5t-56 35.5t-140 63q-188 74 -260 145t-72 175zM301 750q0 -39 38 -69.5t167 -84.5l88 -39q52 34 75 64t23 65q0 39 -37.5 68t-165.5 84q-19 7 -50 21t-40 18 q-52 -34 -75 -63.5t-23 -63.5z" />
<glyph unicode="&#xa8;" horiz-adv-x="1013" d="M250 1135v225h213v-225h-213zM553 1135v225h211v-225h-211z" />
<glyph unicode="&#xa9;" horiz-adv-x="1267" d="M61 717q0 173 44.5 314t122 234t181.5 143t224 50q121 0 225.5 -50t182 -143t121.5 -234t44 -314q0 -172 -44 -313t-121.5 -234.5t-182 -144t-225.5 -50.5q-120 0 -224 50.5t-181.5 144t-122 234.5t-44.5 313zM139 717q0 -313 140 -492.5t354 -179.5q105 0 195 45 t157 129t105 212t38 286t-38 286t-105 212t-157 129t-195 45q-214 0 -354 -179.5t-140 -492.5zM342 721q0 194 93 300.5t247 106.5q96 0 174 -38l-33 -160q-64 31 -121 31q-76 0 -119.5 -63t-43.5 -173q0 -118 43.5 -179t126.5 -61q52 0 116 31l35 -156q-84 -43 -180 -43 q-156 0 -247 104t-91 300z" />
<glyph unicode="&#xaa;" horiz-adv-x="692" d="M57 580v102h574v-102h-574zM72 989q0 98 59.5 150.5t167.5 52.5q63 0 111 -10v30q0 43 -22 64.5t-71 21.5q-79 0 -163 -38l-45 135q118 49 241 49q131 0 190.5 -54.5t59.5 -168.5v-314l16 -112h-167l-25 57q-78 -64 -166 -64q-85 0 -135.5 52.5t-50.5 148.5zM252 997 q0 -44 23.5 -66t60.5 -22q33 0 74 25v149q-32 4 -64 4q-45 0 -69.5 -23.5t-24.5 -66.5z" />
<glyph unicode="&#xab;" d="M55 541v159l363 363l100 -76l-225 -366l225 -365l-100 -76zM449 541v159l362 363l100 -76l-223 -366l223 -365l-100 -76z" />
<glyph unicode="&#xad;" horiz-adv-x="598" d="M49 489v265h500v-265h-500z" />
<glyph unicode="&#xae;" horiz-adv-x="651" d="M47 1133q0 139 79 227t200 88t199.5 -88t78.5 -227t-78.5 -226.5t-199.5 -87.5t-200 88t-79 226zM88 1133q0 -123 66.5 -200t171.5 -77q104 0 170.5 77t66.5 200q0 124 -66 200t-171 76t-171.5 -76t-66.5 -200zM197 971v338h122q73 0 110.5 -26.5t37.5 -72.5 q0 -70 -84 -96q31 -12 51 -45l58 -96v-2h-107l-51 90q-14 22 -37 22h-8v-112h-92zM289 1151h20q62 0 62 45q0 41 -58 41h-24v-86z" />
<glyph unicode="&#xaf;" horiz-adv-x="1013" d="M246 1145v145h522v-145h-522z" />
<glyph unicode="&#xb0;" horiz-adv-x="712" d="M49 1128q0 135 90 227.5t217 92.5q130 0 219 -90.5t89 -224.5q0 -137 -89.5 -229.5t-218.5 -92.5t-218 91t-89 226zM207 1130q0 -75 42.5 -124.5t106.5 -49.5q66 0 108 48.5t42 125.5q0 75 -42.5 124t-107.5 49t-107 -49t-42 -124z" />
<glyph unicode="&#xb4;" horiz-adv-x="1013" d="M285 1135l145 235h336l-295 -235h-186z" />
<glyph unicode="&#xb6;" horiz-adv-x="935" d="M29 1010q0 200 126.5 312t346.5 112h340v-1434h-191v1255h-162v-661q-204 -5 -332 106.5t-128 309.5z" />
<glyph unicode="&#xb7;" horiz-adv-x="393" d="M51 561v332h291v-332h-291z" />
<glyph unicode="&#xb8;" horiz-adv-x="1013" d="M377 -240q85 9 116 21.5t31 34.5q0 42 -80 22l-38 47l81 140h123l-53 -84q66 -8 97.5 -32.5t31.5 -70.5q0 -76 -78 -117t-219 -49z" />
<glyph unicode="&#xba;" horiz-adv-x="698" d="M61 1114q0 157 82.5 244.5t206.5 87.5t206.5 -87.5t82.5 -242.5q0 -158 -82.5 -246t-208.5 -88q-124 0 -205.5 87.5t-81.5 244.5zM72 580v102h557v-102h-557zM248 1116q0 -89 28 -134.5t74 -45.5t73.5 45.5t27.5 132.5q0 88 -28 134t-75 46q-46 0 -73 -45.5t-27 -132.5z " />
<glyph unicode="&#xbb;" d="M47 256l225 365l-225 364l100 78l365 -363v-157l-365 -363zM442 256l224 365l-224 364l99 78l364 -363v-157l-364 -363z" />
<glyph unicode="&#xbf;" horiz-adv-x="860" d="M25 348q0 79 22 144.5t67.5 120.5t103.5 99t140 91l31 225h158l43 -369q-157 -94 -216 -155t-59 -133q0 -59 35 -93t96 -34q127 0 287 127l117 -217q-212 -172 -444 -172q-174 0 -277.5 99t-103.5 267zM322 1137v297h294v-297h-294z" />
<glyph unicode="&#xc0;" horiz-adv-x="1148" d="M10 0l375 1444h379l375 -1444h-322l-61 270h-371l-59 -270h-316zM199 1706h350l149 -199h-217zM444 535h254l-127 563z" />
<glyph unicode="&#xc1;" horiz-adv-x="1148" d="M10 0l375 1444h379l375 -1444h-322l-61 270h-371l-59 -270h-316zM444 535h254l-127 563zM449 1507l151 199h348l-280 -199h-219z" />
<glyph unicode="&#xc2;" horiz-adv-x="1148" d="M10 0l375 1444h379l375 -1444h-322l-61 270h-371l-59 -270h-316zM285 1507v2l166 207h243l168 -207v-2h-186l-105 86l-104 -86h-182zM444 535h254l-127 563z" />
<glyph unicode="&#xc3;" horiz-adv-x="1148" d="M10 0l375 1444h379l375 -1444h-322l-61 270h-371l-59 -270h-316zM238 1536q41 122 88 170.5t108 48.5q35 0 67 -10.5t87 -38.5q83 -41 121 -41q28 0 47.5 18.5t44.5 73.5l127 -37q-41 -122 -88.5 -171.5t-108.5 -49.5q-62 0 -153 47q-87 43 -121 43q-27 0 -46.5 -19 t-45.5 -73zM444 535h254l-127 563z" />
<glyph unicode="&#xc4;" horiz-adv-x="1148" d="M10 0l375 1444h379l375 -1444h-322l-61 270h-371l-59 -270h-316zM309 1507v211h213v-211h-213zM444 535h254l-127 563zM623 1507v211h213v-211h-213z" />
<glyph unicode="&#xc5;" horiz-adv-x="1148" d="M10 0l375 1448q-18 38 -18 80q0 83 59 133.5t149 50.5t149.5 -50.5t59.5 -133.5q0 -40 -20 -82l375 -1446h-322l-61 270h-371l-59 -270h-316zM444 535h254l-127 563zM455 1528q0 -50 33.5 -80.5t86.5 -30.5q52 0 86.5 30.5t34.5 80.5q0 49 -34.5 78.5t-86.5 29.5 q-53 0 -86.5 -29.5t-33.5 -78.5z" />
<glyph unicode="&#xc6;" horiz-adv-x="1693" d="M-2 0l616 1434h1018v-273h-524v-291h465v-268h-465v-330h534v-272h-833v276h-385l-115 -276h-311zM535 539h274v641h-8z" />
<glyph unicode="&#xc7;" horiz-adv-x="974" d="M47 715q0 353 160 543t440 190q157 0 291 -51l-47 -285q-111 47 -215 47q-148 0 -228.5 -114t-80.5 -326q0 -220 80 -332.5t235 -112.5q100 0 213 45l47 -276q-137 -57 -301 -57h-10l-29 -45q66 -8 97.5 -32.5t31.5 -70.5q0 -76 -78 -117t-219 -49l-12 88q85 9 116 21.5 t31 34.5q0 42 -80 22l-38 47l65 111q-225 38 -347 218.5t-122 500.5z" />
<glyph unicode="&#xc8;" horiz-adv-x="987" d="M88 0v1434h836v-273h-531v-291h471v-268h-471v-330h541v-272h-846zM135 1694h350l150 -199h-217z" />
<glyph unicode="&#xc9;" horiz-adv-x="987" d="M88 0v1434h836v-273h-531v-291h471v-268h-471v-330h541v-272h-846zM385 1495l152 199h348l-281 -199h-219z" />
<glyph unicode="&#xca;" horiz-adv-x="987" d="M88 0v1434h836v-273h-531v-291h471v-268h-471v-330h541v-272h-846zM221 1495v2l166 207h244l168 -207v-2h-187l-104 86l-105 -86h-182z" />
<glyph unicode="&#xcb;" horiz-adv-x="987" d="M88 0v1434h836v-273h-531v-291h471v-268h-471v-330h541v-272h-846zM246 1495v211h213v-211h-213zM559 1495v211h213v-211h-213z" />
<glyph unicode="&#xcc;" horiz-adv-x="495" d="M-127 1694h350l150 -199h-217zM92 0v1434h311v-1434h-311z" />
<glyph unicode="&#xcd;" horiz-adv-x="495" d="M92 0v1434h311v-1434h-311zM125 1495l151 199h349l-281 -199h-219z" />
<glyph unicode="&#xce;" horiz-adv-x="495" d="M-39 1495v2l166 207h244l168 -207v-2h-187l-104 86l-105 -86h-182zM92 0v1434h311v-1434h-311z" />
<glyph unicode="&#xcf;" horiz-adv-x="495" d="M-14 1495v211h213v-211h-213zM92 0v1434h311v-1434h-311zM299 1495v211h213v-211h-213z" />
<glyph unicode="&#xd0;" horiz-adv-x="1163" d="M20 606v246h89v582h354q145 0 262 -41.5t205.5 -125.5t137 -223.5t48.5 -324.5q0 -186 -48.5 -326t-137.5 -225t-207 -126.5t-264 -41.5h-350v606h-89zM416 268h61q155 0 237.5 103t82.5 344q0 243 -82.5 346.5t-237.5 103.5h-61v-313h168v-244h-168v-340z" />
<glyph unicode="&#xd1;" horiz-adv-x="1167" d="M88 0v1434h356l373 -932l-6 241v691h268v-1434h-348l-379 948h-2l6 -241v-707h-268zM254 1528q40 122 88 170.5t109 48.5q35 0 66.5 -10.5t86.5 -38.5q83 -41 121 -41q28 0 47.5 18.5t44.5 73.5l127 -37q-41 -123 -88 -172t-108 -49q-63 0 -154 47q-87 43 -121 43 q-27 0 -46.5 -19t-45.5 -73z" />
<glyph unicode="&#xd2;" horiz-adv-x="1175" d="M47 717q0 353 146.5 545t394.5 192q246 0 393 -191.5t147 -545.5q0 -352 -147.5 -544.5t-392.5 -192.5q-246 0 -393.5 192t-147.5 545zM213 1706h350l150 -199h-217zM367 719q0 -237 57.5 -354t165.5 -117q219 0 219 467q0 235 -58 353t-165 118q-219 0 -219 -467z" />
<glyph unicode="&#xd3;" horiz-adv-x="1175" d="M47 717q0 353 146.5 545t394.5 192q246 0 393 -191.5t147 -545.5q0 -352 -147.5 -544.5t-392.5 -192.5q-246 0 -393.5 192t-147.5 545zM367 719q0 -237 57.5 -354t165.5 -117q219 0 219 467q0 235 -58 353t-165 118q-219 0 -219 -467zM463 1507l151 199h349l-281 -199 h-219z" />
<glyph unicode="&#xd4;" horiz-adv-x="1175" d="M47 717q0 353 146.5 545t394.5 192q246 0 393 -191.5t147 -545.5q0 -352 -147.5 -544.5t-392.5 -192.5q-246 0 -393.5 192t-147.5 545zM299 1507v2l166 207h244l168 -207v-2h-187l-104 86l-105 -86h-182zM367 719q0 -237 57.5 -354t165.5 -117q219 0 219 467 q0 235 -58 353t-165 118q-219 0 -219 -467z" />
<glyph unicode="&#xd5;" horiz-adv-x="1175" d="M47 717q0 353 146.5 545t394.5 192q246 0 393 -191.5t147 -545.5q0 -352 -147.5 -544.5t-392.5 -192.5q-246 0 -393.5 192t-147.5 545zM250 1536q41 122 88 170.5t108 48.5q35 0 67 -10.5t87 -38.5q83 -41 121 -41q28 0 47.5 18.5t44.5 73.5l127 -37 q-41 -122 -88.5 -171.5t-108.5 -49.5q-62 0 -153 47q-87 43 -121 43q-27 0 -46.5 -19t-45.5 -73zM367 719q0 -237 57.5 -354t165.5 -117q219 0 219 467q0 235 -58 353t-165 118q-219 0 -219 -467z" />
<glyph unicode="&#xd6;" horiz-adv-x="1175" d="M47 717q0 353 146.5 545t394.5 192q246 0 393 -191.5t147 -545.5q0 -352 -147.5 -544.5t-392.5 -192.5q-246 0 -393.5 192t-147.5 545zM324 1507v211h213v-211h-213zM367 719q0 -237 57.5 -354t165.5 -117q219 0 219 467q0 235 -58 353t-165 118q-219 0 -219 -467z M637 1507v211h213v-211h-213z" />
<glyph unicode="&#xd7;" horiz-adv-x="913" d="M53 483l246 242l-246 242l162 163l242 -245l241 245l162 -161l-246 -244l246 -240l-162 -163l-241 245l-242 -245z" />
<glyph unicode="&#xd8;" horiz-adv-x="1175" d="M47 717q0 353 146.5 545t394.5 192q148 0 266 -74l80 148h182l-143 -256q155 -195 155 -555q0 -352 -147.5 -544.5t-392.5 -192.5q-153 0 -266 73l-80 -147h-183l142 258q-154 193 -154 553zM362 719q0 -153 25 -262l334 663q-56 68 -135 68q-108 0 -166 -116t-58 -353z M453 311q51 -65 137 -65q223 0 223 469q0 151 -29 264z" />
<glyph unicode="&#xd9;" horiz-adv-x="1138" d="M80 487v947h311v-965q0 -111 48 -164t132 -53q83 0 131 52.5t48 162.5v967h309v-945q0 -108 -24 -193.5t-67 -144t-104.5 -96.5t-134.5 -55.5t-160 -17.5q-110 0 -197 28t-153.5 87t-102.5 157.5t-36 232.5zM195 1694h350l149 -199h-217z" />
<glyph unicode="&#xda;" horiz-adv-x="1138" d="M80 487v947h311v-965q0 -111 48 -164t132 -53q83 0 131 52.5t48 162.5v967h309v-945q0 -108 -24 -193.5t-67 -144t-104.5 -96.5t-134.5 -55.5t-160 -17.5q-110 0 -197 28t-153.5 87t-102.5 157.5t-36 232.5zM444 1495l152 199h348l-280 -199h-220z" />
<glyph unicode="&#xdb;" horiz-adv-x="1138" d="M80 487v947h311v-965q0 -111 48 -164t132 -53q83 0 131 52.5t48 162.5v967h309v-945q0 -108 -24 -193.5t-67 -144t-104.5 -96.5t-134.5 -55.5t-160 -17.5q-110 0 -197 28t-153.5 87t-102.5 157.5t-36 232.5zM281 1495v2l165 207h244l168 -207v-2h-186l-105 86l-104 -86 h-182z" />
<glyph unicode="&#xdc;" horiz-adv-x="1138" d="M80 487v947h311v-965q0 -111 48 -164t132 -53q83 0 131 52.5t48 162.5v967h309v-945q0 -108 -24 -193.5t-67 -144t-104.5 -96.5t-134.5 -55.5t-160 -17.5q-110 0 -197 28t-153.5 87t-102.5 157.5t-36 232.5zM305 1495v211h213v-211h-213zM618 1495v211h213v-211h-213z " />
<glyph unicode="&#xdd;" horiz-adv-x="1079" d="M-6 1432v2h325l222 -562l221 562h323v-2l-391 -902v-530h-311v530zM414 1495l151 199h348l-280 -199h-219z" />
<glyph unicode="&#xde;" horiz-adv-x="1028" d="M88 0v1434h309v-199h70q258 0 392 -125.5t134 -372.5q0 -136 -38.5 -237.5t-109.5 -163t-164 -91.5t-208 -30h-76v-215h-309zM397 467h64q223 0 223 260q0 133 -54.5 191.5t-164.5 58.5h-68v-510z" />
<glyph unicode="&#xdf;" horiz-adv-x="1089" d="M20 809v240h123v20q0 190 107.5 303t329.5 113q198 0 308.5 -104t110.5 -275q0 -237 -202 -363q126 -67 193 -165.5t67 -243.5q0 -169 -93 -257.5t-247 -88.5q-108 0 -203 28l18 228q74 -23 119 -23q121 0 121 129q0 81 -58 154.5t-177 130.5v192q91 57 134.5 120.5 t43.5 146.5q0 70 -35.5 110.5t-99.5 40.5q-70 0 -110 -48t-40 -140v-1057h-287v809h-123z" />
<glyph unicode="&#xe0;" horiz-adv-x="907" d="M33 319q0 160 86 246q91 88 270 88q87 0 162 -16v61q0 69 -34.5 103.5t-113.5 34.5q-113 0 -243 -60l-72 215q181 82 369 82q195 0 287 -87t92 -263v-539l22 -184h-252l-37 94q-118 -106 -254 -106q-130 0 -206 83t-76 248zM86 1372h336l145 -235h-186zM307 336 q0 -150 127 -150q59 0 117 39v254q-50 8 -92 8q-81 0 -117 -36q-35 -35 -35 -115z" />
<glyph unicode="&#xe1;" horiz-adv-x="907" d="M33 319q0 160 86 246q91 88 270 88q87 0 162 -16v61q0 69 -34.5 103.5t-113.5 34.5q-113 0 -243 -60l-72 215q181 82 369 82q195 0 287 -87t92 -263v-539l22 -184h-252l-37 94q-118 -106 -254 -106q-130 0 -206 83t-76 248zM307 336q0 -150 127 -150q59 0 117 39v254 q-50 8 -92 8q-81 0 -117 -36q-35 -35 -35 -115zM348 1137l146 235h335l-294 -235h-187z" />
<glyph unicode="&#xe2;" horiz-adv-x="907" d="M33 319q0 160 86 246q91 88 270 88q87 0 162 -16v61q0 69 -34.5 103.5t-113.5 34.5q-113 0 -243 -60l-72 215q181 82 369 82q195 0 287 -87t92 -263v-539l22 -184h-252l-37 94q-118 -106 -254 -106q-130 0 -206 83t-76 248zM174 1137v2l176 237h215l176 -237v-2h-176 l-108 106l-111 -106h-172zM307 336q0 -150 127 -150q59 0 117 39v254q-50 8 -92 8q-81 0 -117 -36q-35 -35 -35 -115z" />
<glyph unicode="&#xe3;" horiz-adv-x="907" d="M33 319q0 160 86 246q91 88 270 88q87 0 162 -16v61q0 69 -34.5 103.5t-113.5 34.5q-113 0 -243 -60l-72 215q181 82 369 82q195 0 287 -87t92 -263v-539l22 -184h-252l-37 94q-118 -106 -254 -106q-130 0 -206 83t-76 248zM129 1163q42 132 88.5 184t106.5 52 q33 0 64.5 -10.5t86.5 -40.5q83 -45 117 -45q27 0 45.5 19.5t44.5 78.5l125 -39q-42 -130 -88.5 -182t-106.5 -52q-32 0 -62 10.5t-87 39.5q-86 45 -119 45q-27 0 -46 -19.5t-44 -79.5zM307 336q0 -150 127 -150q59 0 117 39v254q-50 8 -92 8q-81 0 -117 -36 q-35 -35 -35 -115z" />
<glyph unicode="&#xe4;" horiz-adv-x="907" d="M33 319q0 160 86 246q91 88 270 88q87 0 162 -16v61q0 69 -34.5 103.5t-113.5 34.5q-113 0 -243 -60l-72 215q181 82 369 82q195 0 287 -87t92 -263v-539l22 -184h-252l-37 94q-118 -106 -254 -106q-130 0 -206 83t-76 248zM201 1137v225h213v-225h-213zM307 336 q0 -150 127 -150q59 0 117 39v254q-50 8 -92 8q-81 0 -117 -36q-35 -35 -35 -115zM504 1137v225h211v-225h-211z" />
<glyph unicode="&#xe5;" horiz-adv-x="907" d="M33 319q0 160 86 246q91 88 270 88q87 0 162 -16v61q0 69 -34.5 103.5t-113.5 34.5q-113 0 -243 -60l-72 215q181 82 369 82q195 0 287 -87t92 -263v-539l22 -184h-252l-37 94q-118 -106 -254 -106q-130 0 -206 83t-76 248zM262 1319q0 82 55.5 137t141.5 55 q84 0 140 -55t56 -137t-56 -137.5t-140 -55.5q-86 0 -141.5 55.5t-55.5 137.5zM307 336q0 -150 127 -150q59 0 117 39v254q-50 8 -92 8q-81 0 -117 -36q-35 -35 -35 -115zM346 1319q0 -51 32 -84t81 -33q47 0 78.5 33t31.5 84t-31.5 84t-78.5 33q-49 0 -81 -33t-32 -84z" />
<glyph unicode="&#xe6;" horiz-adv-x="1400" d="M33 319q0 160 86 246q91 88 270 88q87 0 162 -16v61q0 69 -34.5 103.5t-113.5 34.5q-113 0 -243 -60l-72 215q181 82 363 82q204 0 270 -110q96 116 258 116q171 0 279 -145t108 -414v-96h-549q7 -112 66.5 -165.5t156.5 -53.5q111 0 230 61l65 -205q-151 -77 -327 -77 q-210 0 -324 114q-163 -110 -324 -110q-152 0 -239.5 82t-87.5 249zM307 336q0 -73 34 -108t95 -35q78 0 152 55q-37 93 -43 231q-50 8 -86 8q-81 0 -117 -36q-35 -35 -35 -115zM817 600h281q-3 122 -39 189t-101 67q-66 0 -101 -67.5t-40 -188.5z" />
<glyph unicode="&#xe7;" horiz-adv-x="757" d="M37 528q0 254 122 400.5t341 146.5q119 0 227 -43l-43 -252q-91 37 -162 37q-100 0 -154.5 -78.5t-54.5 -206.5q0 -138 54.5 -214t158.5 -76q70 0 164 37l41 -244q-102 -43 -213 -49l-26 -45q66 -8 97.5 -32.5t31.5 -70.5q0 -76 -78 -117t-219 -49l-13 88 q85 9 116.5 21.5t31.5 34.5q0 42 -80 22l-39 47l61 105q-174 26 -269 166t-95 372z" />
<glyph unicode="&#xe8;" horiz-adv-x="892" d="M37 526q0 265 116.5 409t297.5 144q185 0 296 -144.5t111 -414.5v-96h-549q7 -112 66 -164.5t157 -52.5q115 0 230 59l65 -205q-151 -77 -327 -77q-80 0 -147 17t-126.5 56.5t-100.5 101t-65 155t-24 212.5zM80 1372h336l145 -235h-186zM309 600h281q-3 122 -38.5 189 t-100.5 67q-66 0 -102.5 -68t-39.5 -188z" />
<glyph unicode="&#xe9;" horiz-adv-x="892" d="M37 526q0 265 116.5 409t297.5 144q185 0 296 -144.5t111 -414.5v-96h-549q7 -112 66 -164.5t157 -52.5q115 0 230 59l65 -205q-151 -77 -327 -77q-80 0 -147 17t-126.5 56.5t-100.5 101t-65 155t-24 212.5zM309 600h281q-3 122 -38.5 189t-100.5 67q-66 0 -102.5 -68 t-39.5 -188zM342 1137l145 235h336l-295 -235h-186z" />
<glyph unicode="&#xea;" horiz-adv-x="892" d="M37 526q0 265 116.5 409t297.5 144q185 0 296 -144.5t111 -414.5v-96h-549q7 -112 66 -164.5t157 -52.5q115 0 230 59l65 -205q-151 -77 -327 -77q-80 0 -147 17t-126.5 56.5t-100.5 101t-65 155t-24 212.5zM170 1137v2l176 237h215l176 -237v-2h-176l-108 106l-111 -106 h-172zM309 600h281q-3 122 -38.5 189t-100.5 67q-66 0 -102.5 -68t-39.5 -188z" />
<glyph unicode="&#xeb;" horiz-adv-x="892" d="M37 526q0 265 116.5 409t297.5 144q185 0 296 -144.5t111 -414.5v-96h-549q7 -112 66 -164.5t157 -52.5q115 0 230 59l65 -205q-151 -77 -327 -77q-80 0 -147 17t-126.5 56.5t-100.5 101t-65 155t-24 212.5zM197 1137v225h213v-225h-213zM309 600h281q-3 122 -38.5 189 t-100.5 67q-66 0 -102.5 -68t-39.5 -188zM500 1137v225h211v-225h-211z" />
<glyph unicode="&#xec;" horiz-adv-x="446" d="M-150 1370h336l146 -235h-187zM78 0v1059h291v-1059h-291z" />
<glyph unicode="&#xed;" horiz-adv-x="446" d="M78 0v1059h291v-1059h-291zM115 1135l145 235h336l-295 -235h-186z" />
<glyph unicode="&#xee;" horiz-adv-x="446" d="M-59 1135v2l176 237h215l176 -237v-2h-176l-109 106l-110 -106h-172zM78 0v1059h291v-1059h-291z" />
<glyph unicode="&#xef;" horiz-adv-x="446" d="M-33 1135v225h213v-225h-213zM78 0v1059h291v-1059h-291zM270 1135v225h211v-225h-211z" />
<glyph unicode="&#xf0;" horiz-adv-x="919" d="M37 494q0 221 95.5 352t262.5 131q84 0 174 -39q-29 107 -106 184l-64 -67h-219l154 159q-49 27 -152 76l135 201q109 -42 189 -90l69 76h238l-174 -174q121 -114 177 -280.5t56 -410.5q0 -309 -108 -470.5t-315 -161.5q-185 0 -298.5 135t-113.5 379zM311 487 q0 -129 37.5 -196.5t104.5 -67.5q149 0 149 342q0 58 -4 144q-68 41 -131 41q-74 0 -115 -67.5t-41 -195.5z" />
<glyph unicode="&#xf1;" d="M76 0v1059h233l39 -94q133 106 266 106q134 0 205.5 -79t71.5 -228v-764h-291v692q0 125 -106 125q-68 0 -127 -49v-768h-291zM154 1163q42 132 88 184t106 52q34 0 66 -11t86 -40q83 -45 116 -45q27 0 46.5 20t44.5 78l124 -39q-42 -131 -88 -182.5t-106 -51.5 q-33 0 -63.5 10.5t-86.5 39.5q-86 45 -118 45q-27 0 -46 -19.5t-44 -79.5z" />
<glyph unicode="&#xf2;" horiz-adv-x="925" d="M37 526q0 134 33.5 240.5t92 174t135.5 103t167 35.5q183 0 303.5 -144t120.5 -405q0 -263 -120 -406.5t-306 -143.5t-306 142.5t-120 403.5zM90 1372h336l145 -235h-186zM311 530q0 -150 41 -226.5t113 -76.5q70 0 110.5 76t40.5 223q0 151 -41 228t-112 77 q-72 0 -112 -76t-40 -225z" />
<glyph unicode="&#xf3;" horiz-adv-x="925" d="M37 526q0 134 33.5 240.5t92 174t135.5 103t167 35.5q183 0 303.5 -144t120.5 -405q0 -263 -120 -406.5t-306 -143.5t-306 142.5t-120 403.5zM311 530q0 -150 41 -226.5t113 -76.5q70 0 110.5 76t40.5 223q0 151 -41 228t-112 77q-72 0 -112 -76t-40 -225zM354 1137 l146 235h336l-295 -235h-187z" />
<glyph unicode="&#xf4;" horiz-adv-x="925" d="M37 526q0 134 33.5 240.5t92 174t135.5 103t167 35.5q183 0 303.5 -144t120.5 -405q0 -263 -120 -406.5t-306 -143.5t-306 142.5t-120 403.5zM180 1137v2l176 237h215l177 -237v-2h-177l-108 106l-111 -106h-172zM311 530q0 -150 41 -226.5t113 -76.5q70 0 110.5 76 t40.5 223q0 151 -41 228t-112 77q-72 0 -112 -76t-40 -225z" />
<glyph unicode="&#xf5;" horiz-adv-x="925" d="M37 526q0 134 33.5 240.5t92 174t135.5 103t167 35.5q183 0 303.5 -144t120.5 -405q0 -263 -120 -406.5t-306 -143.5t-306 142.5t-120 403.5zM135 1163q42 132 88.5 184t106.5 52q33 0 64.5 -10.5t86.5 -40.5q83 -45 117 -45q27 0 45.5 19.5t44.5 78.5l125 -39 q-42 -130 -88.5 -182t-106.5 -52q-32 0 -62 10.5t-87 39.5q-86 45 -119 45q-27 0 -46 -19.5t-44 -79.5zM311 530q0 -150 41 -226.5t113 -76.5q70 0 110.5 76t40.5 223q0 151 -41 228t-112 77q-72 0 -112 -76t-40 -225z" />
<glyph unicode="&#xf6;" horiz-adv-x="925" d="M37 526q0 134 33.5 240.5t92 174t135.5 103t167 35.5q183 0 303.5 -144t120.5 -405q0 -263 -120 -406.5t-306 -143.5t-306 142.5t-120 403.5zM207 1137v225h213v-225h-213zM311 530q0 -150 41 -226.5t113 -76.5q70 0 110.5 76t40.5 223q0 151 -41 228t-112 77 q-72 0 -112 -76t-40 -225zM510 1137v225h211v-225h-211z" />
<glyph unicode="&#xf7;" horiz-adv-x="913" d="M61 612v228l396 -4l395 4v-228l-395 4zM332 266v232h250v-232h-250zM332 954v232h250v-232h-250z" />
<glyph unicode="&#xf8;" horiz-adv-x="925" d="M37 526q0 134 33.5 240.5t92 174t135.5 103t167 35.5q99 0 184 -45l62 117h166l-113 -211q125 -147 125 -410t-120 -406.5t-306 -143.5q-101 0 -189 45l-59 -119h-164l109 211q-123 149 -123 409zM309 530q0 -84 17 -161l213 436q-37 29 -76 29q-72 0 -113 -77t-41 -227z M385 254q37 -29 80 -29q71 0 112 76.5t41 224.5q0 98 -18 166z" />
<glyph unicode="&#xf9;" d="M70 295v764h290v-694q0 -125 107 -125q63 0 127 49v770h291v-1059h-234l-41 94q-129 -106 -266 -106q-132 0 -203 79t-71 228zM104 1370h336l146 -235h-187z" />
<glyph unicode="&#xfa;" d="M70 295v764h290v-694q0 -125 107 -125q63 0 127 49v770h291v-1059h-234l-41 94q-129 -106 -266 -106q-132 0 -203 79t-71 228zM367 1135l145 235h336l-295 -235h-186z" />
<glyph unicode="&#xfb;" d="M70 295v764h290v-694q0 -125 107 -125q63 0 127 49v770h291v-1059h-234l-41 94q-129 -106 -266 -106q-132 0 -203 79t-71 228zM195 1135v2l176 237h215l176 -237v-2h-176l-109 106l-110 -106h-172z" />
<glyph unicode="&#xfc;" d="M70 295v764h290v-694q0 -125 107 -125q63 0 127 49v770h291v-1059h-234l-41 94q-129 -106 -266 -106q-132 0 -203 79t-71 228zM221 1135v225h213v-225h-213zM524 1135v225h211v-225h-211z" />
<glyph unicode="&#xfd;" horiz-adv-x="905" d="M10 1059h291l162 -717l153 717h283l-233 -873q-33 -123 -70.5 -199.5t-101.5 -135t-148 -94.5t-221 -72l-74 233q152 49 240 131zM344 1135l145 235h336l-295 -235h-186z" />
<glyph unicode="&#xfe;" horiz-adv-x="956" d="M76 -313v1790h291v-492q90 86 208 86q156 0 248 -137t92 -404q0 -268 -98 -405t-264 -137q-100 0 -186 49v-350h-291zM367 264q49 -39 108 -39q162 0 162 305q0 304 -160 304q-60 0 -110 -43v-527z" />
<glyph unicode="&#xff;" horiz-adv-x="905" d="M10 1059h291l162 -717l153 717h283l-233 -873q-33 -123 -70.5 -199.5t-101.5 -135t-148 -94.5t-221 -72l-74 233q152 49 240 131zM199 1135v225h213v-225h-213zM502 1135v225h211v-225h-211z" />
<glyph unicode="&#x152;" horiz-adv-x="1636" d="M47 715q0 149 32 269.5t89.5 203.5t140 139t181.5 81.5t215 25.5h868v-273h-522v-291h462v-268h-462v-330h532v-272h-885q-115 0 -212.5 25.5t-179.5 81t-139 138t-88.5 202t-31.5 268.5zM367 719q0 -246 82.5 -352.5t236.5 -106.5h57v914h-57q-154 0 -236.5 -105 t-82.5 -350z" />
<glyph unicode="&#x153;" horiz-adv-x="1470" d="M37 526q0 264 119 408.5t301 144.5q190 0 295 -153q102 153 286 153q183 0 291.5 -144t108.5 -415v-96h-551q7 -112 67 -165.5t156 -53.5q110 0 229 61l68 -205q-154 -77 -322 -77q-230 0 -335 147q-106 -151 -295 -151q-87 0 -162 35t-132.5 101.5t-90.5 172t-33 237.5z M311 530q0 -150 41 -226.5t113 -76.5q70 0 110.5 76t40.5 223q0 151 -41 228t-114 77q-71 0 -110.5 -76t-39.5 -225zM887 600h282q-10 256 -139 256q-66 0 -102 -68t-41 -188z" />
<glyph unicode="&#x178;" horiz-adv-x="1079" d="M-6 1432v2h325l222 -562l221 562h323v-2l-391 -902v-530h-311v530zM274 1495v211h213v-211h-213zM588 1495v211h213v-211h-213z" />
<glyph unicode="&#x2c6;" horiz-adv-x="1013" d="M223 1135v2l176 237h215l177 -237v-2h-177l-108 106l-111 -106h-172z" />
<glyph unicode="&#x2dc;" horiz-adv-x="1013" d="M168 1161q42 132 88 184t106 52q34 0 66 -11t86 -40q85 -46 117 -46q27 0 45.5 20t44.5 79l125 -39q-42 -130 -88.5 -182t-106.5 -52q-32 0 -62 10.5t-87 39.5q-86 45 -119 45q-27 0 -46 -19.5t-44 -79.5z" />
<glyph unicode="&#x2000;" horiz-adv-x="878" />
<glyph unicode="&#x2001;" horiz-adv-x="1757" />
<glyph unicode="&#x2002;" horiz-adv-x="878" />
<glyph unicode="&#x2003;" horiz-adv-x="1757" />
<glyph unicode="&#x2004;" horiz-adv-x="585" />
<glyph unicode="&#x2005;" horiz-adv-x="439" />
<glyph unicode="&#x2006;" horiz-adv-x="292" />
<glyph unicode="&#x2007;" horiz-adv-x="292" />
<glyph unicode="&#x2008;" horiz-adv-x="219" />
<glyph unicode="&#x2009;" horiz-adv-x="351" />
<glyph unicode="&#x200a;" horiz-adv-x="97" />
<glyph unicode="&#x2010;" horiz-adv-x="598" d="M49 489v265h500v-265h-500z" />
<glyph unicode="&#x2011;" horiz-adv-x="598" d="M49 489v265h500v-265h-500z" />
<glyph unicode="&#x2012;" horiz-adv-x="598" d="M49 489v265h500v-265h-500z" />
<glyph unicode="&#x2013;" horiz-adv-x="858" d="M49 492v260h758v-260h-758z" />
<glyph unicode="&#x2014;" horiz-adv-x="1390" d="M49 492v260h1292v-260h-1292z" />
<glyph unicode="&#x2018;" horiz-adv-x="430" d="M29 1405v29h284q0 -194 23 -311t80 -234l-119 -78q-60 60 -104 116.5t-83.5 129.5t-60 160.5t-20.5 187.5z" />
<glyph unicode="&#x2019;" horiz-adv-x="430" d="M14 889q58 116 80.5 232.5t22.5 312.5h284v-29q0 -100 -20.5 -187.5t-60 -160.5t-83.5 -129.5t-104 -116.5z" />
<glyph unicode="&#x201a;" horiz-adv-x="387" d="M-43 -213q58 117 81 233.5t23 313.5h283v-31q0 -99 -20.5 -186.5t-59.5 -160t-83.5 -130t-104.5 -115.5z" />
<glyph unicode="&#x201c;" horiz-adv-x="749" d="M29 1399v35h256q0 -194 23.5 -312.5t82.5 -240.5l-102 -70q-135 136 -197.5 268.5t-62.5 319.5zM373 1399v35h256q0 -194 23.5 -312.5t82.5 -240.5l-102 -70q-135 136 -197.5 268.5t-62.5 319.5z" />
<glyph unicode="&#x201d;" horiz-adv-x="749" d="M16 881q59 123 83 241.5t24 311.5h256v-35q0 -187 -62.5 -319.5t-197.5 -268.5zM360 881q59 123 83 241.5t24 311.5h256v-35q0 -187 -62.5 -319.5t-197.5 -268.5z" />
<glyph unicode="&#x201e;" horiz-adv-x="708" d="M-41 -221q59 123 83 241.5t24 313.5h256v-37q0 -187 -63 -319t-198 -267zM303 -221q60 122 84.5 241t24.5 314h256v-37q0 -187 -63 -319.5t-199 -266.5z" />
<glyph unicode="&#x2022;" horiz-adv-x="880" d="M131 727q0 127 90.5 218t218.5 91q127 0 217.5 -90.5t90.5 -218.5t-90.5 -218.5t-217.5 -90.5q-128 0 -218.5 91t-90.5 218z" />
<glyph unicode="&#x2026;" horiz-adv-x="1132" d="M51 0v313h277v-313h-277zM428 0v313h277v-313h-277zM805 0v313h278v-313h-278z" />
<glyph unicode="&#x202f;" horiz-adv-x="351" />
<glyph unicode="&#x2039;" horiz-adv-x="565" d="M55 541v159l363 363l100 -76l-225 -366l225 -365l-100 -76z" />
<glyph unicode="&#x203a;" horiz-adv-x="565" d="M47 256l225 365l-225 364l100 78l365 -363v-157l-365 -363z" />
<glyph unicode="&#x205f;" horiz-adv-x="439" />
<glyph unicode="&#x20ac;" horiz-adv-x="1013" d="M31 471v174h108v70v67h-108v174h129q46 239 193.5 364.5t394.5 125.5q111 0 221 -29l-27 -272q-97 29 -180 29q-115 0 -188.5 -52.5t-106.5 -165.5h393v-174h-418q-2 -20 -2 -65q0 -49 2 -72h418v-174h-389q66 -211 287 -211q70 0 184 29l29 -273q-118 -28 -223 -28 q-247 0 -394.5 123t-193.5 360h-129z" />
<glyph unicode="&#x2122;" horiz-adv-x="942" d="M37 1337v97h338v-97h-117v-348h-104v348h-117zM416 989l18 445h139l76 -287l78 287h137l21 -445h-101l-12 281l-76 -281h-96l-78 287l-8 -287h-98z" />
<glyph unicode="&#x25fc;" horiz-adv-x="1054" d="M0 0v1055h1055v-1055h-1055z" />
<glyph unicode="&#xfb01;" horiz-adv-x="1085" d="M20 809v240h117v88q0 348 342 348q83 0 166 -17v-229q-61 14 -102 14q-119 0 -119 -129v-75h205v-240h-205v-809h-287v809h-117zM711 1157v234h301v-234h-301zM717 0v1059h289v-1059h-289z" />
<glyph unicode="&#xfb02;" horiz-adv-x="1085" d="M20 809v240h117v88q0 348 342 348q83 0 166 -17v-229q-61 14 -102 14q-119 0 -119 -129v-75h205v-240h-205v-809h-287v809h-117zM717 0v1477h289v-1477h-289z" />
</font>
</defs>
</svg>
