<?xml version="1.0" standalone="no"?>
<!DOCTYPE svg PUBLIC "-//W3C//DTD SVG 1.1//EN" "http://www.w3.org/Graphics/SVG/1.1/DTD/svg11.dtd" >
<svg xmlns="http://www.w3.org/2000/svg">
<metadata></metadata>
<defs>
<font id="retina_display_condensedSBd" horiz-adv-x="1163" >
<font-face units-per-em="2048" ascent="1638" descent="-410" />
<missing-glyph horiz-adv-x="370" />
<glyph horiz-adv-x="0" />
<glyph horiz-adv-x="682" />
<glyph unicode=" "  horiz-adv-x="370" />
<glyph unicode="&#x09;" horiz-adv-x="370" />
<glyph unicode="&#xa0;" horiz-adv-x="370" />
<glyph unicode="!" horiz-adv-x="405" d="M86 954v480h231v-480l-57 -592h-115zM90 0v236h225v-236h-225z" />
<glyph unicode="&#x22;" horiz-adv-x="714" d="M49 950l107 484h221v-4l-232 -506zM350 950l107 484h221v-4l-232 -506z" />
<glyph unicode="#" horiz-adv-x="1093" d="M39 414v139l233 -10l60 364l-217 11v139l239 -10l64 397h131l-66 -404l232 -8l67 412h129l-67 -418l211 -8v-139l-234 10l-59 -367l217 -8v-139l-240 10l-63 -395h-131l65 399l-231 10l-66 -409h-131l68 413zM401 539l232 -11l59 365l-231 10z" />
<glyph unicode="$" horiz-adv-x="946" d="M23 117l67 184q144 -95 295 -117l45 459q-180 71 -257 164t-77 244q0 161 106 266.5t292 114.5l16 159h131l-18 -164q126 -18 262 -88l-64 -182q-134 72 -233 90l-43 -422q189 -76 269.5 -170.5t80.5 -248.5q0 -180 -115.5 -287.5t-302.5 -118.5l-18 -199h-131l20 205 q-172 21 -325 111zM297 1069q0 -67 35.5 -114t120.5 -89l39 385q-91 -6 -143 -57t-52 -125zM479 180q96 8 154.5 63t58.5 144q0 65 -36.5 115t-133.5 100z" />
<glyph unicode="%" horiz-adv-x="1200" d="M51 1081q0 168 72 266.5t182 98.5q109 0 180.5 -99t71.5 -266t-71.5 -265.5t-180.5 -98.5q-110 0 -182 98t-72 266zM160 25l407 710l369 721l104 -47l-409 -711l-367 -721zM195 1081q0 -119 29 -180t81 -61q51 0 81 61.5t30 179.5t-30 180t-81 62q-52 0 -81 -61.5 t-29 -180.5zM643 352q0 167 71.5 266t180.5 99t181.5 -99t72.5 -266t-72.5 -265.5t-181.5 -98.5t-180.5 98.5t-71.5 265.5zM784 352q0 -118 30 -179.5t81 -61.5q52 0 81.5 61t29.5 180t-29.5 180.5t-81.5 61.5q-51 0 -81 -62t-30 -180z" />
<glyph unicode="&#x26;" horiz-adv-x="1110" d="M45 379q0 142 68.5 263.5t193.5 203.5q-90 153 -90 284q0 144 92 230t254 86q166 0 330 -88l-76 -195q-135 80 -229 80q-67 0 -106.5 -41t-39.5 -108q0 -49 17.5 -94t56.5 -105l236 -365q57 126 86 275h202v-2q-63 -285 -163 -463l217 -338v-2h-234l-119 172 q-145 -188 -346 -188q-154 0 -252 105t-98 290zM262 395q0 -100 46 -158.5t114 -58.5q60 0 111 37.5t100 120.5l-223 350q-75 -62 -111.5 -138t-36.5 -153z" />
<glyph unicode="'" horiz-adv-x="415" d="M49 950l107 484h223v-4l-232 -508z" />
<glyph unicode="(" horiz-adv-x="663" d="M76 621q0 532 456 866l97 -113q-171 -160 -257.5 -339t-86.5 -414t86.5 -414t257.5 -338l-97 -115q-456 334 -456 867z" />
<glyph unicode=")" horiz-adv-x="663" d="M33 -131q172 158 259 337.5t87 414.5t-86.5 414t-259.5 339l98 113q457 -337 457 -866q0 -530 -457 -867z" />
<glyph unicode="*" horiz-adv-x="579" d="M49 1217l37 116l164 -102l-8 -27zM104 1049l148 125l22 -15l-71 -182zM229 1438h121l-47 -189h-27zM305 1159l21 15l149 -125l-98 -72zM330 1231l164 102l36 -116l-192 -13z" />
<glyph unicode="+" horiz-adv-x="892" d="M66 641v172h290v303h181v-303h290v-172h-290v-303h-181v303h-290z" />
<glyph unicode="," horiz-adv-x="342" d="M-29 -213q57 106 80 207.5t23 265.5h215v-27q0 -157 -59.5 -274t-170.5 -229z" />
<glyph unicode="-" horiz-adv-x="583" d="M55 524v199h473v-199h-473z" />
<glyph unicode="." horiz-adv-x="342" d="M59 0v260h224v-260h-224z" />
<glyph unicode="/" horiz-adv-x="649" d="M-53 -266l565 1894h170l-567 -1894h-168z" />
<glyph unicode="0" horiz-adv-x="1050" d="M66 717q0 368 125.5 552.5t332.5 184.5q101 0 183.5 -44t144.5 -132t96.5 -231t34.5 -330t-34.5 -330t-96.5 -231t-144.5 -132t-183.5 -44q-207 0 -332.5 184.5t-125.5 552.5zM297 719q0 -545 229 -545q228 0 228 541q0 284 -61 414.5t-169 130.5q-227 0 -227 -541z" />
<glyph unicode="1" horiz-adv-x="731" d="M51 1337l307 105h140v-1254h198v-188h-639v188h213v1018l-176 -59z" />
<glyph unicode="2" horiz-adv-x="915" d="M37 170l455 598q124 157 124 287q0 79 -46.5 131.5t-125.5 52.5q-72 0 -141 -38t-151 -118l-99 174q184 191 420 191q177 0 276 -100t99 -265q0 -121 -47 -224t-152 -226l-323 -434h542v-199h-800z" />
<glyph unicode="3" horiz-adv-x="899" d="M37 1323q217 127 428 127q169 0 267.5 -82t98.5 -219q0 -130 -85.5 -223t-251.5 -162q175 -26 263.5 -101t88.5 -214q0 -111 -59.5 -197t-168 -141.5t-253 -86t-322.5 -36.5v192q567 29 567 275q0 94 -90.5 141.5t-294.5 54.5l-22 154q207 70 301 144t94 163 q0 68 -47 108t-131 40q-138 0 -316 -107z" />
<glyph unicode="4" horiz-adv-x="972" d="M31 494l491 948h285v-948h133v-187h-133v-307h-219v307h-545zM223 489h371v705z" />
<glyph unicode="5" horiz-adv-x="921" d="M70 168q565 77 565 381q0 81 -46 127.5t-124 46.5q-58 0 -109 -22t-114 -68l-150 59l37 742h723v-191h-533l-22 -399q117 65 240 65q148 0 236.5 -90.5t88.5 -251.5q0 -260 -196 -403t-570 -187z" />
<glyph unicode="6" horiz-adv-x="954" d="M66 543q0 314 131 536.5t413 388.5l127 -168q-350 -209 -426 -464q127 77 252 77q151 0 244.5 -113.5t93.5 -318.5q0 -231 -113 -366t-303 -135q-195 0 -307 147.5t-112 415.5zM287 512q0 -162 52.5 -253t152.5 -91q85 0 137.5 78.5t52.5 214.5q0 138 -54 206t-151 68 q-85 0 -182 -59q-8 -65 -8 -164z" />
<glyph unicode="7" horiz-adv-x="890" d="M53 1233v201h797v-211l-522 -1241l-215 69l505 1182h-565z" />
<glyph unicode="8" horiz-adv-x="978" d="M55 389q0 260 228 359q-93 50 -145 128.5t-52 202.5q0 159 110 265t293 106q185 0 295.5 -106t110.5 -265q0 -124 -52 -202t-145 -129q226 -98 226 -359q0 -179 -120.5 -292t-314.5 -113q-196 0 -315 112.5t-119 292.5zM272 410q0 -115 60 -184.5t157 -69.5q96 0 157 70 t61 184q0 117 -60.5 188.5t-157.5 71.5t-157 -71.5t-60 -188.5zM297 1057q0 -106 54 -170t138 -64q85 0 140 64t55 170q0 99 -54 160t-141 61t-139.5 -61t-52.5 -160z" />
<glyph unicode="9" horiz-adv-x="954" d="M53 952q0 231 113 366.5t303 135.5q195 0 307.5 -148t112.5 -415q0 -314 -131.5 -537t-413.5 -389l-127 168q353 212 424 463q-131 -76 -250 -76q-151 0 -244.5 113.5t-93.5 318.5zM272 973q0 -138 54 -206.5t151 -68.5q89 0 182 60q9 106 9 164q0 162 -52.5 253 t-152.5 91q-85 0 -138 -78.5t-53 -214.5z" />
<glyph unicode=":" horiz-adv-x="342" d="M59 0v260h224v-260h-224zM59 793v260h224v-260h-224z" />
<glyph unicode=";" horiz-adv-x="342" d="M-33 -213q56 106 78.5 207.5t22.5 265.5h217v-27q0 -157 -59.5 -274t-170.5 -229zM63 793v260h224v-260h-224z" />
<glyph unicode="&#x3c;" horiz-adv-x="892" d="M70 649v156l737 356v-192l-539 -242l539 -240v-194z" />
<glyph unicode="=" horiz-adv-x="892" d="M78 465v168h737v-168h-737zM78 821v168h737v-168h-737z" />
<glyph unicode="&#x3e;" horiz-adv-x="892" d="M86 293v192l539 242l-539 240v194l737 -356v-156z" />
<glyph unicode="?" horiz-adv-x="837" d="M23 1278q192 174 415 174q162 0 261.5 -96t99.5 -258q0 -77 -22 -142t-67.5 -120.5t-103 -101t-141.5 -97.5l-27 -275h-116l-33 383q161 97 227 171t66 165q0 79 -48 126.5t-126 47.5q-140 0 -293 -137zM268 0v236h226v-236h-226z" />
<glyph unicode="@" horiz-adv-x="1269" d="M66 385q0 234 64.5 439t172.5 346.5t251 223t298 81.5q182 0 274.5 -94.5t92.5 -256.5q0 -90 -29 -245l-152 -748h-118l-23 94q-103 -96 -201 -96q-103 0 -167 82t-64 240q0 160 59 294.5t166 214.5t238 80q49 0 100 -14q8 58 8 102q0 101 -53.5 157t-163.5 56 q-93 0 -184.5 -46.5t-169 -134t-137 -203t-93.5 -263t-34 -305.5q0 -293 128 -436t367 -143q118 0 213 28l-32 -119q-89 -26 -209 -26q-283 0 -442.5 175t-159.5 517zM653 467q0 -91 33.5 -136.5t91.5 -45.5q57 0 111 51l108 543q-27 12 -65 12q-78 0 -142.5 -60.5 t-100.5 -158t-36 -205.5z" />
<glyph unicode="A" horiz-adv-x="1122" d="M27 0l397 1448h274l396 -1448h-240l-78 305h-438l-76 -305h-235zM389 504h338l-168 676z" />
<glyph unicode="B" horiz-adv-x="1048" d="M111 0v1434h405q215 0 332 -92.5t117 -258.5q0 -255 -265 -340q301 -73 301 -342q0 -196 -136 -298.5t-367 -102.5h-387zM338 180h170q117 0 187.5 63t70.5 177q0 109 -77 171t-212 62h-139v-473zM338 825h135q117 0 188.5 63t71.5 169q0 92 -60 143t-171 51h-164v-426z " />
<glyph unicode="C" horiz-adv-x="956" d="M63 715q0 342 154.5 537.5t423.5 195.5q145 0 270 -51l-39 -211q-111 49 -213 49q-169 0 -264.5 -139.5t-95.5 -376.5q0 -247 94.5 -383.5t272.5 -136.5q95 0 213 47l39 -205q-137 -55 -281 -55q-270 0 -422 189t-152 540z" />
<glyph unicode="D" horiz-adv-x="1120" d="M111 0v1434h319q138 0 251 -42.5t198 -128t131.5 -224t46.5 -320.5q0 -183 -46.5 -322t-131.5 -225t-199 -129t-254 -43h-315zM340 199h102q177 0 278 127t101 389q0 264 -102 392t-281 128h-98v-1036z" />
<glyph unicode="E" horiz-adv-x="968" d="M111 0v1434h790v-203h-563v-395h500v-199h-500v-434h573v-203h-800z" />
<glyph unicode="F" horiz-adv-x="915" d="M111 0v1434h778v-205h-549v-441h430v-204h-430v-584h-229z" />
<glyph unicode="G" horiz-adv-x="1105" d="M63 715q0 174 44 314t122 231.5t184 140.5t232 49q173 0 340 -80l-74 -199q-139 68 -260 68q-167 0 -259.5 -142t-92.5 -384q0 -263 88.5 -398t261.5 -135q78 0 146 37v389h-234v189h453v-701q-173 -108 -381 -108q-270 0 -420 187t-150 542z" />
<glyph unicode="H" horiz-adv-x="1146" d="M111 0v1434h231v-588h465v588h231v-1434h-231v629h-465v-629h-231z" />
<glyph unicode="I" horiz-adv-x="462" d="M115 0v1434h231v-1434h-231z" />
<glyph unicode="J" horiz-adv-x="770" d="M14 20l39 199q76 -26 156 -26q111 0 168 70.5t57 209.5v961h232v-949v-14q0 -483 -422 -483q-121 0 -230 32z" />
<glyph unicode="K" horiz-adv-x="1050" d="M111 0v1434h229v-643h8l426 643h264v-2l-471 -695l482 -735v-2h-267l-434 680h-8v-680h-229z" />
<glyph unicode="L" horiz-adv-x="856" d="M111 0v1434h229v-1223h494v-211h-723z" />
<glyph unicode="M" horiz-adv-x="1499" d="M84 0l55 1434h316l286 -1061l287 1061h332l57 -1434h-225l-39 1120l-303 -1120h-217l-305 1120l-37 -1120h-207z" />
<glyph unicode="N" horiz-adv-x="1148" d="M111 0v1434h264l467 -1053l-4 162v891h202v-1434h-258l-475 1071l4 -164v-907h-200z" />
<glyph unicode="O" d="M63 715q0 346 142.5 542.5t376.5 196.5q232 0 375 -195.5t143 -539.5q0 -345 -143 -542t-375 -197q-233 0 -376 195.5t-143 539.5zM299 719q0 -258 76.5 -398.5t208.5 -140.5q129 0 203.5 139.5t74.5 395.5t-75.5 397t-206.5 141t-206 -139t-75 -395z" />
<glyph unicode="P" horiz-adv-x="993" d="M111 0v1434h335q243 0 376.5 -121t133.5 -355q0 -130 -39 -228.5t-109.5 -158t-162 -89t-203.5 -29.5h-102v-453h-229zM340 641h96q136 0 213.5 77.5t77.5 231.5q0 291 -283 291h-104v-600z" />
<glyph unicode="Q" d="M63 717q0 344 142.5 540.5t376.5 196.5q232 0 375 -195.5t143 -539.5q0 -196 -49 -347t-138 -245l220 -277v-2h-273l-123 162q-80 -26 -155 -26q-234 0 -376.5 194t-142.5 539zM299 719q0 -258 76.5 -398.5t208.5 -140.5q129 0 203.5 139.5t74.5 395.5t-75.5 397 t-206.5 141t-206 -139t-75 -395z" />
<glyph unicode="R" horiz-adv-x="1075" d="M111 0v1434h385q233 0 359 -107.5t126 -306.5q0 -90 -27.5 -163t-75.5 -121t-98.5 -78.5t-109.5 -49.5q58 -23 97 -64t85 -126l221 -414v-4h-256l-194 377q-47 85 -94 119t-117 34h-76v-530h-225zM336 719h119q131 0 210.5 72t79.5 202q0 122 -67.5 186t-196.5 64h-145 v-524z" />
<glyph unicode="S" horiz-adv-x="985" d="M39 96l65 197q189 -107 373 -107q105 0 168.5 52t63.5 139q0 76 -54 135t-204 139q-130 64 -204 121t-112.5 129t-38.5 168q0 170 116 274.5t310 104.5q189 0 365 -86l-66 -197q-157 82 -303 82q-93 0 -146 -46t-53 -118q0 -67 51 -117t197 -124q201 -99 282 -196.5 t81 -244.5q0 -197 -123.5 -307t-335.5 -110q-213 0 -432 112z" />
<glyph unicode="T" horiz-adv-x="970" d="M27 1227v207h917v-207h-344v-1227h-229v1227h-344z" />
<glyph unicode="U" horiz-adv-x="1126" d="M102 481v953h232v-965q0 -141 61.5 -213t167.5 -72t169 72.5t63 210.5v967h229v-953q0 -250 -124.5 -373.5t-338.5 -123.5q-212 0 -335.5 123.5t-123.5 373.5z" />
<glyph unicode="V" horiz-adv-x="1101" d="M29 1434h245l281 -1106l279 1106h241l-393 -1448h-260z" />
<glyph unicode="W" horiz-adv-x="1656" d="M37 1434h233l199 -1069l244 1069h245l238 -1069l201 1069h225l-293 -1442h-250l-254 1091l-252 -1091h-245z" />
<glyph unicode="X" horiz-adv-x="1056" d="M27 0v2l360 737l-344 693v2h246l241 -508l240 508h244v-2l-342 -693l358 -737v-2h-246l-258 549l-258 -549h-241z" />
<glyph unicode="Y" horiz-adv-x="1044" d="M4 1432v2h244l276 -629l275 629h241v-2l-403 -879v-553h-229v553z" />
<glyph unicode="Z" horiz-adv-x="983" d="M55 0v193l596 1042h-563v199h836v-193l-594 -1042h594v-199h-869z" />
<glyph unicode="[" horiz-adv-x="684" d="M119 -219v1685l514 -32v-146l-328 17v-1362l328 16v-145z" />
<glyph unicode="\" horiz-adv-x="649" d="M-33 1628h168l567 -1894h-167z" />
<glyph unicode="]" horiz-adv-x="684" d="M51 -41l328 -16v1362l-328 -17v146l516 32v-1685l-516 33v145z" />
<glyph unicode="_" horiz-adv-x="856" d="M-4 -109h864v-90h-864v90z" />
<glyph unicode="`" horiz-adv-x="1001" d="M281 1380h258l157 -235h-143z" />
<glyph unicode="a" horiz-adv-x="878" d="M45 311q0 155 86 244q90 90 287 90q91 0 157 -16v94q0 82 -40.5 124t-128.5 42q-110 0 -244 -62l-56 162q170 76 336 76q177 0 261.5 -80t84.5 -246v-555l19 -184h-182l-35 102q-123 -114 -262 -114q-128 0 -205.5 82t-77.5 241zM250 324q0 -91 42.5 -138t117.5 -47 q79 0 165 70v297q-68 10 -112 10q-115 0 -166 -51q-47 -47 -47 -141z" />
<glyph unicode="b" horiz-adv-x="921" d="M94 0v1477h215v-500q95 88 215 88q156 0 249 -138.5t93 -396.5q0 -263 -94.5 -403.5t-251.5 -140.5q-119 0 -225 98l-31 -84h-170zM309 225q68 -61 148 -61q96 2 149 93t53 271q0 178 -53 268.5t-151 90.5q-78 0 -146 -64v-598z" />
<glyph unicode="c" horiz-adv-x="737" d="M51 524q0 249 114.5 397t321.5 148q109 0 209 -41l-34 -190q-77 36 -160 36q-117 0 -181.5 -96t-64.5 -250q0 -163 64.5 -256.5t185.5 -93.5q81 0 160 37l34 -182q-99 -47 -225 -47q-201 0 -312.5 143t-111.5 395z" />
<glyph unicode="d" horiz-adv-x="921" d="M53 524q0 263 98 402t261 139q106 0 200 -64v476h215v-1477h-172l-30 88q-110 -102 -230 -102q-155 0 -248.5 139.5t-93.5 398.5zM260 526q0 -178 54 -270t151 -92q78 0 147 65v598q-71 60 -142 60h-7q-95 0 -149 -91.5t-54 -269.5z" />
<glyph unicode="e" horiz-adv-x="864" d="M51 522q0 258 109 404.5t278 146.5q172 0 276.5 -145.5t104.5 -407.5v-74h-565q6 -144 74.5 -219t177.5 -75q110 0 227 63l53 -154q-139 -77 -303 -77q-91 0 -166.5 29t-136.5 90.5t-95 168t-34 250.5zM254 584h364q-5 152 -52 236.5t-128 84.5q-82 0 -130.5 -88 t-53.5 -233z" />
<glyph unicode="f" horiz-adv-x="602" d="M31 866v181h127v108q0 160 77.5 245t235.5 85q101 0 184 -27l-30 -166q-67 19 -113 19q-72 0 -107.5 -43t-35.5 -121v-100h221v-181h-219v-866h-213v866h-127z" />
<glyph unicode="g" horiz-adv-x="921" d="M53 537q0 251 95.5 390.5t252.5 139.5q116 0 226 -98l28 84h172v-967q0 -214 -107.5 -309.5t-307.5 -95.5q-160 0 -299 38l12 162q137 -43 266 -43q110 0 165.5 51.5t55.5 163.5v53q-95 -88 -213 -88q-157 0 -251.5 136t-94.5 383zM260 539q0 -166 54.5 -256t150.5 -90 q78 0 147 65v569q-71 60 -142 60h-7q-94 0 -148.5 -90t-54.5 -258z" />
<glyph unicode="h" horiz-adv-x="929" d="M94 0v1477h215v-510q125 98 258 98q134 0 205.5 -79t71.5 -228v-758h-215v707q0 170 -146 170q-89 0 -174 -70v-807h-215z" />
<glyph unicode="i" horiz-adv-x="409" d="M92 1176v196h227v-196h-227zM98 0v1053h215v-1053h-215z" />
<glyph unicode="j" horiz-adv-x="409" d="M-57 -197q88 78 121.5 149.5t33.5 203.5v897h215v-897q0 -96 -12.5 -165t-44 -124t-72 -96.5t-108.5 -92.5zM92 1176v196h227v-196h-227z" />
<glyph unicode="k" horiz-adv-x="858" d="M94 0v1477h215v-885h8l289 461h240v-2l-330 -502l340 -547v-2h-244l-297 508h-6v-508h-215z" />
<glyph unicode="l" horiz-adv-x="409" d="M98 0v1477h215v-1477h-215z" />
<glyph unicode="m" horiz-adv-x="1445" d="M94 0v1053h170l33 -95q66 51 128.5 79t137.5 28q161 0 225 -119q147 119 295 119q131 0 203 -77.5t72 -227.5v-760h-215v711q0 81 -36.5 123.5t-105.5 42.5q-85 0 -176 -74q9 -27 9 -60v-743h-216v711q0 166 -141 166q-83 0 -168 -70v-807h-215z" />
<glyph unicode="n" horiz-adv-x="929" d="M94 0v1053h170l33 -95q134 107 270 107q134 0 205.5 -79t71.5 -228v-758h-215v707q0 170 -146 170q-89 0 -174 -70v-807h-215z" />
<glyph unicode="o" horiz-adv-x="901" d="M51 524q0 256 114 402.5t288 146.5q172 0 284.5 -145.5t112.5 -399.5q0 -256 -113 -402t-286 -146q-174 0 -287 145t-113 399zM254 528q0 -170 54.5 -266t144.5 -96q88 0 141 95t53 263q0 171 -53.5 268t-142.5 97t-143 -96t-54 -265z" />
<glyph unicode="p" horiz-adv-x="921" d="M94 -313v1366h170l33 -88q110 102 229 102q155 0 247.5 -139.5t92.5 -397.5q0 -263 -97.5 -403.5t-260.5 -140.5q-107 0 -199 65v-364h-215zM309 225q68 -61 148 -61q96 2 149 93t53 271q0 178 -53 268.5t-151 90.5q-78 0 -146 -64v-598z" />
<glyph unicode="q" horiz-adv-x="921" d="M53 524q0 262 95.5 402.5t252.5 140.5q116 0 226 -98l28 84h172v-1366h-215v391q-100 -92 -215 -92q-158 0 -251 139t-93 399zM260 526q0 -178 54 -270t151 -92q78 0 147 65v598q-71 60 -142 60h-7q-95 0 -149 -91.5t-54 -269.5z" />
<glyph unicode="r" horiz-adv-x="618" d="M94 0v1053h168l37 -164q121 178 297 178v-227q-163 -8 -287 -119v-721h-215z" />
<glyph unicode="s" horiz-adv-x="798" d="M31 76l59 176q76 -40 159.5 -65t147.5 -25q68 0 109 33t41 86q0 50 -38.5 85.5t-150.5 84.5q-78 33 -127.5 61.5t-86 66t-52.5 83.5t-16 108q0 136 90 217.5t244 81.5q162 0 311 -78l-57 -172q-140 72 -252 72q-62 0 -99 -30.5t-37 -78.5q0 -46 38.5 -79t148.5 -80 q162 -66 224.5 -138t62.5 -190q0 -151 -95.5 -231t-255.5 -80q-197 0 -368 92z" />
<glyph unicode="t" horiz-adv-x="649" d="M31 872v181h121v282h213v-282h239v-181h-239v-553q0 -147 143 -147q46 0 96 12l2 -178q-62 -18 -155 -18q-152 0 -225.5 72t-73.5 229v583h-121z" />
<glyph unicode="u" horiz-adv-x="929" d="M86 297v756h217v-707q0 -170 146 -170q89 0 174 70v807h215v-1053h-172l-33 96q-131 -108 -271 -108q-132 0 -204 80t-72 229z" />
<glyph unicode="v" horiz-adv-x="868" d="M23 1053h215l200 -807l199 807h209l-295 -1065h-232z" />
<glyph unicode="w" horiz-adv-x="1335" d="M29 1053h209l147 -762l180 762h211l176 -762l152 762h205l-236 -1059h-223l-184 745l-181 -745h-225z" />
<glyph unicode="x" horiz-adv-x="856" d="M23 0v2l276 541l-266 508v2h227l168 -351l172 351h223v-2l-268 -508l279 -541v-2h-226l-182 379l-180 -379h-223z" />
<glyph unicode="y" horiz-adv-x="874" d="M27 1053h217l200 -791l199 791h209l-256 -901q-61 -214 -159 -309t-318 -160l-58 176q169 57 256 182z" />
<glyph unicode="z" horiz-adv-x="796" d="M45 0v174l449 700h-424v179h675v-172l-446 -703h446v-178h-700z" />
<glyph unicode="{" horiz-adv-x="913" d="M49 561v125h25q161 13 251.5 89t90.5 186q0 137 -168 239l20 125q266 119 580 158l22 -148q-201 -22 -395 -94q154 -110 154 -268q0 -123 -87.5 -212t-232.5 -138q145 -47 232.5 -136.5t87.5 -212.5q0 -158 -154 -268q194 -72 395 -94l-22 -148q-314 39 -580 158l-20 123 q168 106 168 242q0 110 -90.5 184.5t-251.5 89.5h-25z" />
<glyph unicode="|" horiz-adv-x="464" d="M152 -266v1894h161v-1894h-161z" />
<glyph unicode="}" horiz-adv-x="913" d="M43 -88q201 22 395 94q-73 52 -113 116t-40 152q0 123 87 212.5t232 138.5q-145 47 -232 136t-87 212q0 88 40 152t113 116q-194 72 -395 94l23 148q313 -39 579 -158l21 -125q-168 -102 -168 -239q0 -110 90.5 -186t251.5 -89h24v-125h-24q-161 -15 -251.5 -89.5 t-90.5 -184.5q0 -136 168 -242l-21 -123q-266 -119 -579 -158z" />
<glyph unicode="&#xa1;" horiz-adv-x="405" d="M86 0v479l57 592h115l59 -592v-479h-231zM88 1198v236h225v-236h-225z" />
<glyph unicode="&#xa2;" horiz-adv-x="806" d="M59 731q0 197 107.5 327.5t290.5 143.5l24 242h127l-24 -248q76 -10 170 -55l-52 -166q-87 46 -147 53l-61 -598q97 0 208 57l52 -161q-134 -67 -267 -70l-26 -266h-127l28 278q-139 37 -221 160t-82 303zM258 731q0 -103 35.5 -175t99.5 -103l60 573q-90 -19 -142.5 -98 t-52.5 -197z" />
<glyph unicode="&#xa3;" horiz-adv-x="927" d="M55 162q59 64 93.5 143.5t48.5 202.5l10 106h-141v183h157l23 221q21 211 129 319q111 111 303 111q104 0 199 -31l-31 -205q-83 27 -152 27q-101 0 -159 -61q-61 -61 -74 -197l-19 -184h310v-183h-328l-12 -122q-10 -104 -36 -171t-73 -124h561v-197h-776z" />
<glyph unicode="&#xa5;" horiz-adv-x="1011" d="M14 1434h242l250 -631l254 631h237l-356 -787h264v-135h-287v-156h287v-135h-287v-221h-227v221h-285v135h285v156h-285v135h261z" />
<glyph unicode="&#xa7;" horiz-adv-x="983" d="M55 723q0 90 51.5 158t155.5 131q-88 74 -88 184q0 108 91.5 180t240.5 72q164 0 323 -68l-55 -168q-153 66 -270 66q-61 0 -96 -23.5t-35 -60.5t42 -68t189 -98q188 -80 256 -148.5t68 -168.5q0 -90 -52 -158t-157 -131q88 -76 88 -184t-90.5 -179t-239.5 -71 q-163 0 -323 65l53 170q147 -65 270 -65q63 0 98 23t35 59q0 25 -16 44.5t-65.5 47.5t-151.5 74q-186 80 -254 149t-68 168zM252 745q0 -34 16 -58.5t66 -55.5t147 -74l97 -45q78 45 114.5 87t36.5 91q0 33 -15.5 57.5t-65 56.5t-146.5 75q-40 16 -96 43q-154 -87 -154 -177 z" />
<glyph unicode="&#xa8;" horiz-adv-x="1001" d="M283 1145v196h170v-196h-170zM549 1145v196h168v-196h-168z" />
<glyph unicode="&#xa9;" horiz-adv-x="1282" d="M74 717q0 172 44 313.5t121 234.5t180.5 143t221.5 50t221.5 -50t180.5 -143t121 -234.5t44 -313.5t-44.5 -313t-121 -234.5t-180 -144t-221.5 -50.5t-221.5 50.5t-180 144t-121 234.5t-44.5 313zM139 717q0 -160 39 -290t107.5 -215t159.5 -131t196 -46t196 46 t159.5 131t107.5 215t39 290t-39 290t-107.5 215t-159.5 131t-196 46t-196 -46t-159.5 -131t-107.5 -215t-39 -290zM360 721q0 187 89 295t237 108q88 0 168 -39l-29 -124q-62 32 -125 32q-88 0 -139 -72.5t-51 -195.5q0 -130 51 -201t144 -71q60 0 122 32l31 -123 q-85 -40 -172 -40q-151 0 -238.5 104t-87.5 295z" />
<glyph unicode="&#xaa;" horiz-adv-x="679" d="M68 590v86h540v-86h-540zM82 987q0 96 61 149.5t174 53.5q68 0 113 -10v51q0 98 -106 98q-80 0 -166 -39l-37 107q115 47 225 47q232 0 232 -207v-330l14 -112h-125l-27 63q-80 -70 -172 -70q-84 0 -135 52t-51 147zM221 993q0 -52 27.5 -79t73.5 -27q55 0 108 41v170 q-30 6 -82 6q-62 0 -94.5 -29.5t-32.5 -81.5z" />
<glyph unicode="&#xab;" horiz-adv-x="927" d="M63 563v117l357 375l78 -60l-246 -372l246 -373l-78 -60zM432 563v117l356 375l76 -60l-243 -372l243 -373l-76 -60z" />
<glyph unicode="&#xad;" horiz-adv-x="583" d="M55 524v199h473v-199h-473z" />
<glyph unicode="&#xae;" horiz-adv-x="659" d="M57 1133q0 140 77.5 227.5t195.5 87.5q117 0 194.5 -88t77.5 -227q0 -138 -77.5 -226t-194.5 -88q-118 0 -195.5 88t-77.5 226zM94 1133q0 -125 67 -203t169 -78t168.5 78t66.5 203t-66.5 202.5t-168.5 77.5t-169 -77.5t-67 -202.5zM211 973v334h113q66 0 101.5 -26 t35.5 -71q0 -70 -84 -96q26 -10 47 -43l63 -96v-2h-86l-57 90q-16 27 -45 27h-14v-117h-74zM285 1147h26q34 0 53 14t19 39q0 47 -64 47h-34v-100z" />
<glyph unicode="&#xaf;" horiz-adv-x="1001" d="M260 1157v117h479v-117h-479z" />
<glyph unicode="&#xb0;" horiz-adv-x="716" d="M61 1139q0 131 86.5 220t210.5 89q125 0 211 -88.5t86 -218.5q0 -132 -86 -222t-211 -90t-211 89t-86 221zM186 1139q0 -83 49 -138t123 -55q75 0 123.5 55t48.5 138t-49 137.5t-123 54.5t-123 -54.5t-49 -137.5z" />
<glyph unicode="&#xb4;" horiz-adv-x="1001" d="M305 1145l158 235h258l-275 -235h-141z" />
<glyph unicode="&#xb6;" horiz-adv-x="913" d="M41 1016q0 196 120 307t326 111h314v-1434h-150v1294h-170v-688q-195 -3 -317.5 106t-122.5 304z" />
<glyph unicode="&#xb7;" horiz-adv-x="342" d="M59 598v260h224v-260h-224z" />
<glyph unicode="&#xb8;" horiz-adv-x="1001" d="M379 -236q84 10 115.5 24t31.5 38q0 42 -86 27l-30 38l71 129h103l-49 -83q120 -9 120 -95q0 -130 -264 -153z" />
<glyph unicode="&#xba;" horiz-adv-x="684" d="M72 1114q0 153 76.5 242.5t193.5 89.5t193.5 -89.5t76.5 -242.5t-76.5 -242.5t-193.5 -89.5q-118 0 -194 89t-76 243zM82 590v86h520v-86h-520zM215 1114q0 -99 35 -156t92 -57q56 0 91.5 57.5t35.5 155.5t-35.5 155.5t-91.5 57.5q-58 0 -92.5 -57t-34.5 -156z" />
<glyph unicode="&#xbb;" horiz-adv-x="927" d="M63 250l244 373l-244 372l76 60l359 -375v-115l-359 -375zM430 250l246 373l-246 372l78 60l356 -375v-115l-356 -375z" />
<glyph unicode="&#xbf;" horiz-adv-x="837" d="M37 336q0 77 22 142t67.5 120.5t103 101t141.5 97.5l26 274h117l33 -383q-161 -97 -227 -171t-66 -165q0 -79 48 -126.5t126 -47.5q140 0 293 137l92 -159q-192 -174 -416 -174q-162 0 -261 96t-99 258zM342 1198v236h225v-236h-225z" />
<glyph unicode="&#xc0;" horiz-adv-x="1122" d="M27 0l397 1448h274l396 -1448h-240l-78 305h-438l-76 -305h-235zM221 1716h273l165 -196h-167zM389 504h338l-168 676z" />
<glyph unicode="&#xc1;" horiz-adv-x="1122" d="M27 0l397 1448h274l396 -1448h-240l-78 305h-438l-76 -305h-235zM389 504h338l-168 676zM461 1520l168 196h270l-270 -196h-168z" />
<glyph unicode="&#xc2;" horiz-adv-x="1122" d="M27 0l397 1448h274l396 -1448h-240l-78 305h-438l-76 -305h-235zM299 1520l168 204h186l166 -204h-145l-117 100l-115 -100h-143zM389 504h338l-168 676z" />
<glyph unicode="&#xc3;" horiz-adv-x="1122" d="M27 0l397 1448h274l396 -1448h-240l-78 305h-438l-76 -305h-235zM258 1544q39 107 80.5 151t97.5 44q30 0 58 -10t81 -39q51 -27 72 -36t41 -9q24 0 42.5 19.5t43.5 76.5l103 -31q-39 -109 -80 -153t-97 -44q-30 0 -59 10.5t-82 39.5q-77 43 -110 43q-24 0 -43 -19.5 t-44 -75.5zM389 504h338l-168 676z" />
<glyph unicode="&#xc4;" horiz-adv-x="1122" d="M27 0l397 1448h274l396 -1448h-240l-78 305h-438l-76 -305h-235zM334 1520v182h172v-182h-172zM389 504h338l-168 676zM614 1520v182h170v-182h-170z" />
<glyph unicode="&#xc5;" horiz-adv-x="1122" d="M27 0l387 1421q-41 41 -41 107q0 74 54 122t134 48t134.5 -48t54.5 -122q0 -63 -43 -109l387 -1419h-240l-78 305h-438l-76 -305h-235zM389 504h338l-168 676zM449 1528q0 -45 32 -75t80 -30t80.5 30t32.5 75t-32.5 74.5t-80.5 29.5t-80 -29.5t-32 -74.5z" />
<glyph unicode="&#xc6;" horiz-adv-x="1656" d="M8 0l647 1434h934v-203h-559v-395h496v-199h-496v-434h569v-203h-792v301h-432l-133 -301h-234zM461 498h346v747h-14z" />
<glyph unicode="&#xc7;" horiz-adv-x="958" d="M63 715q0 342 154.5 537.5t423.5 195.5q145 0 270 -51l-39 -211q-111 49 -213 49q-169 0 -264.5 -139.5t-95.5 -376.5q0 -247 94.5 -383.5t272.5 -136.5q95 0 213 47l39 -205q-137 -55 -281 -55h-19l-28 -49q121 -9 121 -95q0 -130 -265 -153l-12 75q84 10 116 24t32 38 q0 42 -86 27l-31 38l57 105q-219 37 -339 222t-120 497z" />
<glyph unicode="&#xc8;" horiz-adv-x="968" d="M111 0v1434h790v-203h-563v-395h500v-199h-500v-434h573v-203h-800zM170 1704h272l166 -197h-168z" />
<glyph unicode="&#xc9;" horiz-adv-x="968" d="M111 0v1434h790v-203h-563v-395h500v-199h-500v-434h573v-203h-800zM410 1507l168 197h270l-270 -197h-168z" />
<glyph unicode="&#xca;" horiz-adv-x="968" d="M111 0v1434h790v-203h-563v-395h500v-199h-500v-434h573v-203h-800zM248 1507l168 205h186l166 -205h-145l-117 101l-115 -101h-143z" />
<glyph unicode="&#xcb;" horiz-adv-x="968" d="M111 0v1434h790v-203h-563v-395h500v-199h-500v-434h573v-203h-800zM283 1507v183h172v-183h-172zM563 1507v183h170v-183h-170z" />
<glyph unicode="&#xcc;" horiz-adv-x="462" d="M-109 1704h273l166 -197h-168zM115 0v1434h231v-1434h-231z" />
<glyph unicode="&#xcd;" horiz-adv-x="462" d="M115 0v1434h231v-1434h-231zM133 1507l168 197h270l-270 -197h-168z" />
<glyph unicode="&#xce;" horiz-adv-x="462" d="M-29 1507l168 205h187l166 -205h-146l-117 101l-114 -101h-144zM115 0v1434h231v-1434h-231z" />
<glyph unicode="&#xcf;" horiz-adv-x="462" d="M6 1507v183h172v-183h-172zM115 0v1434h231v-1434h-231zM287 1507v183h170v-183h-170z" />
<glyph unicode="&#xd0;" horiz-adv-x="1138" d="M23 639v186h106v609h320q138 0 251 -42.5t197.5 -128t131 -224t46.5 -320.5q0 -183 -46.5 -322t-131.5 -225t-199 -129t-254 -43h-315v639h-106zM356 199h105q177 0 278 127t101 389q0 264 -102 392t-281 128h-101v-412h207v-182h-207v-442z" />
<glyph unicode="&#xd1;" horiz-adv-x="1148" d="M111 0v1434h264l467 -1053l-4 162v891h202v-1434h-258l-475 1071l4 -164v-907h-200zM276 1532q38 107 80.5 150.5t98.5 43.5q30 0 58 -10t81 -39q51 -27 72 -36t41 -9q24 0 42 20t44 77l102 -31q-39 -109 -79.5 -153t-96.5 -44q-30 0 -59.5 10.5t-81.5 38.5 q-77 43 -111 43q-24 0 -42.5 -19t-43.5 -75z" />
<glyph unicode="&#xd2;" d="M63 715q0 346 142.5 542.5t376.5 196.5q232 0 375 -195.5t143 -539.5q0 -345 -143 -542t-375 -197q-233 0 -376 195.5t-143 539.5zM242 1716h272l166 -196h-168zM299 719q0 -258 76.5 -398.5t208.5 -140.5q129 0 203.5 139.5t74.5 395.5t-75.5 397t-206.5 141t-206 -139 t-75 -395z" />
<glyph unicode="&#xd3;" d="M63 715q0 346 142.5 542.5t376.5 196.5q232 0 375 -195.5t143 -539.5q0 -345 -143 -542t-375 -197q-233 0 -376 195.5t-143 539.5zM299 719q0 -258 76.5 -398.5t208.5 -140.5q129 0 203.5 139.5t74.5 395.5t-75.5 397t-206.5 141t-206 -139t-75 -395zM481 1520l168 196 h271l-271 -196h-168z" />
<glyph unicode="&#xd4;" d="M63 715q0 346 142.5 542.5t376.5 196.5q232 0 375 -195.5t143 -539.5q0 -345 -143 -542t-375 -197q-233 0 -376 195.5t-143 539.5zM299 719q0 -258 76.5 -398.5t208.5 -140.5q129 0 203.5 139.5t74.5 395.5t-75.5 397t-206.5 141t-206 -139t-75 -395zM319 1520l168 204 h187l166 -204h-146l-116 100l-115 -100h-144z" />
<glyph unicode="&#xd5;" d="M63 715q0 346 142.5 542.5t376.5 196.5q232 0 375 -195.5t143 -539.5q0 -345 -143 -542t-375 -197q-233 0 -376 195.5t-143 539.5zM279 1544q39 107 80.5 151t97.5 44q30 0 58 -10t81 -39q51 -27 72 -36t41 -9q24 0 42.5 19.5t43.5 76.5l102 -31q-39 -109 -79.5 -153 t-96.5 -44q-30 0 -59 10.5t-82 39.5q-77 43 -111 43q-24 0 -42.5 -19t-43.5 -76zM299 719q0 -258 76.5 -398.5t208.5 -140.5q129 0 203.5 139.5t74.5 395.5t-75.5 397t-206.5 141t-206 -139t-75 -395z" />
<glyph unicode="&#xd6;" d="M63 715q0 346 142.5 542.5t376.5 196.5q232 0 375 -195.5t143 -539.5q0 -345 -143 -542t-375 -197q-233 0 -376 195.5t-143 539.5zM299 719q0 -258 76.5 -398.5t208.5 -140.5q129 0 203.5 139.5t74.5 395.5t-75.5 397t-206.5 141t-206 -139t-75 -395zM354 1520v182h172 v-182h-172zM635 1520v182h170v-182h-170z" />
<glyph unicode="&#xd7;" horiz-adv-x="892" d="M72 473l254 254l-254 250l123 125l251 -256l252 256l123 -123l-254 -252l254 -252l-123 -125l-252 256l-251 -256z" />
<glyph unicode="&#xd8;" d="M63 715q0 346 142.5 542.5t376.5 196.5q154 0 270 -90l88 164h145l-141 -256q156 -199 156 -553q0 -345 -143 -542t-375 -197q-156 0 -273 88l-86 -162h-145l137 256q-152 198 -152 553zM297 719q0 -213 53 -346l402 794q-69 88 -172 88q-131 0 -207 -140t-76 -396z M408 266q73 -88 176 -88q130 0 206 140t76 397q0 210 -55 348z" />
<glyph unicode="&#xd9;" horiz-adv-x="1126" d="M102 481v953h232v-965q0 -141 61.5 -213t167.5 -72t169 72.5t63 210.5v967h229v-953q0 -250 -124.5 -373.5t-338.5 -123.5q-212 0 -335.5 123.5t-123.5 373.5zM223 1700h273l166 -197h-168z" />
<glyph unicode="&#xda;" horiz-adv-x="1126" d="M102 481v953h232v-965q0 -141 61.5 -213t167.5 -72t169 72.5t63 210.5v967h229v-953q0 -250 -124.5 -373.5t-338.5 -123.5q-212 0 -335.5 123.5t-123.5 373.5zM463 1503l168 197h270l-270 -197h-168z" />
<glyph unicode="&#xdb;" horiz-adv-x="1126" d="M102 481v953h232v-965q0 -141 61.5 -213t167.5 -72t169 72.5t63 210.5v967h229v-953q0 -250 -124.5 -373.5t-338.5 -123.5q-212 0 -335.5 123.5t-123.5 373.5zM301 1503l168 205h186l166 -205h-145l-117 101l-115 -101h-143z" />
<glyph unicode="&#xdc;" horiz-adv-x="1126" d="M102 481v953h232v-965q0 -141 61.5 -213t167.5 -72t169 72.5t63 210.5v967h229v-953q0 -250 -124.5 -373.5t-338.5 -123.5q-212 0 -335.5 123.5t-123.5 373.5zM336 1503v183h172v-183h-172zM616 1503v183h170v-183h-170z" />
<glyph unicode="&#xdd;" horiz-adv-x="1044" d="M4 1432v2h244l276 -629l275 629h241v-2l-403 -879v-553h-229v553zM424 1503l168 197h270l-270 -197h-168z" />
<glyph unicode="&#xde;" horiz-adv-x="1007" d="M111 0v1434h229v-217h106q243 0 376.5 -122t133.5 -356q0 -129 -39 -227t-109.5 -157.5t-162 -89t-203.5 -29.5h-102v-236h-229zM340 424h96q136 0 213.5 77t77.5 230q0 293 -283 293h-104v-600z" />
<glyph unicode="&#xdf;" horiz-adv-x="1058" d="M31 866v181h131v28q0 184 99.5 296t297.5 112q180 0 282.5 -100.5t102.5 -260.5q0 -245 -227 -379q291 -145 291 -428q0 -156 -88 -241.5t-230 -85.5q-105 0 -205 35l21 172q84 -33 141 -33q69 0 109.5 45t40.5 121q0 207 -279 334v145q215 121 215 305q0 85 -47 139 t-127 54q-88 0 -136 -62.5t-48 -175.5v-1067h-213v866h-131z" />
<glyph unicode="&#xe0;" horiz-adv-x="878" d="M45 311q0 155 86 244q90 90 287 90q91 0 157 -16v94q0 82 -40.5 124t-128.5 42q-110 0 -244 -62l-56 162q170 76 336 76q177 0 261.5 -80t84.5 -246v-555l19 -184h-182l-35 102q-123 -114 -262 -114q-128 0 -205.5 82t-77.5 241zM115 1382h258l157 -235h-143zM250 324 q0 -91 42.5 -138t117.5 -47q79 0 165 70v297q-68 10 -112 10q-115 0 -166 -51q-47 -47 -47 -141z" />
<glyph unicode="&#xe1;" horiz-adv-x="878" d="M45 311q0 155 86 244q90 90 287 90q91 0 157 -16v94q0 82 -40.5 124t-128.5 42q-110 0 -244 -62l-56 162q170 76 336 76q177 0 261.5 -80t84.5 -246v-555l19 -184h-182l-35 102q-123 -114 -262 -114q-128 0 -205.5 82t-77.5 241zM250 324q0 -91 42.5 -138t117.5 -47 q79 0 165 70v297q-68 10 -112 10q-115 0 -166 -51q-47 -47 -47 -141zM356 1147l158 235h258l-274 -235h-142z" />
<glyph unicode="&#xe2;" horiz-adv-x="878" d="M45 311q0 155 86 244q90 90 287 90q91 0 157 -16v94q0 82 -40.5 124t-128.5 42q-110 0 -244 -62l-56 162q170 76 336 76q177 0 261.5 -80t84.5 -246v-555l19 -184h-182l-35 102q-123 -114 -262 -114q-128 0 -205.5 82t-77.5 241zM190 1147v2l170 237h164l172 -237v-2 h-135l-119 125l-120 -125h-132zM250 324q0 -91 42.5 -138t117.5 -47q79 0 165 70v297q-68 10 -112 10q-115 0 -166 -51q-47 -47 -47 -141z" />
<glyph unicode="&#xe3;" horiz-adv-x="878" d="M45 311q0 155 86 244q90 90 287 90q91 0 157 -16v94q0 82 -40.5 124t-128.5 42q-110 0 -244 -62l-56 162q170 76 336 76q177 0 261.5 -80t84.5 -246v-555l19 -184h-182l-35 102q-123 -114 -262 -114q-128 0 -205.5 82t-77.5 241zM147 1169q38 115 79 161t96 46 q30 0 58.5 -10.5t80.5 -40.5q76 -45 108 -45q24 0 42.5 20t43.5 78l99 -30q-39 -115 -79.5 -161t-94.5 -46q-30 0 -58 10.5t-80 40.5q-78 45 -108 45q-25 0 -43 -19.5t-43 -78.5zM250 324q0 -91 42.5 -138t117.5 -47q79 0 165 70v297q-68 10 -112 10q-115 0 -166 -51 q-47 -47 -47 -141z" />
<glyph unicode="&#xe4;" horiz-adv-x="878" d="M45 311q0 155 86 244q90 90 287 90q91 0 157 -16v94q0 82 -40.5 124t-128.5 42q-110 0 -244 -62l-56 162q170 76 336 76q177 0 261.5 -80t84.5 -246v-555l19 -184h-182l-35 102q-123 -114 -262 -114q-128 0 -205.5 82t-77.5 241zM225 1147v196h170v-196h-170zM250 324 q0 -91 42.5 -138t117.5 -47q79 0 165 70v297q-68 10 -112 10q-115 0 -166 -51q-47 -47 -47 -141zM492 1147v196h167v-196h-167z" />
<glyph unicode="&#xe5;" horiz-adv-x="878" d="M45 311q0 155 86 244q90 90 287 90q91 0 157 -16v94q0 82 -40.5 124t-128.5 42q-110 0 -244 -62l-56 162q170 76 336 76q177 0 261.5 -80t84.5 -246v-555l19 -184h-182l-35 102q-123 -114 -262 -114q-128 0 -205.5 82t-77.5 241zM250 324q0 -91 42.5 -138t117.5 -47 q79 0 165 70v297q-68 10 -112 10q-115 0 -166 -51q-47 -47 -47 -141zM268 1309q0 73 50 122.5t124 49.5q75 0 125.5 -50t50.5 -122q0 -73 -50.5 -122.5t-125.5 -49.5t-124.5 49t-49.5 123zM340 1309q0 -46 29.5 -77.5t72.5 -31.5q44 0 73.5 31.5t29.5 77.5t-29.5 77 t-73.5 31q-43 0 -72.5 -31t-29.5 -77z" />
<glyph unicode="&#xe6;" horiz-adv-x="1384" d="M45 311q0 155 86 244q90 90 287 90q91 0 157 -16v94q0 82 -40.5 124t-128.5 42q-110 0 -244 -62l-56 162q170 76 332 76q214 0 273 -137q94 145 262 145q163 0 264.5 -145.5t101.5 -407.5v-74h-565q6 -144 74.5 -219t177.5 -75q110 0 227 63l54 -154q-139 -77 -303 -77 q-203 0 -314 131q-169 -127 -330 -127q-144 0 -229.5 81.5t-85.5 241.5zM250 324q0 -88 44 -134.5t118 -46.5q98 0 206 90q-47 120 -47 273q-73 10 -108 10q-115 0 -166 -51q-47 -47 -47 -141zM774 584h365q-5 151 -52.5 236t-128.5 85q-82 0 -130.5 -88t-53.5 -233z" />
<glyph unicode="&#xe7;" horiz-adv-x="737" d="M51 524q0 249 114.5 397t321.5 148q109 0 209 -41l-34 -190q-77 36 -160 36q-117 0 -181.5 -96t-64.5 -250q0 -163 64.5 -256.5t185.5 -93.5q81 0 160 37l34 -182q-86 -41 -204 -47l-29 -49q121 -9 121 -95q0 -130 -264 -153l-13 75q84 10 116 24t32 38q0 42 -86 27 l-31 38l55 101q-166 26 -256 165.5t-90 366.5z" />
<glyph unicode="&#xe8;" horiz-adv-x="864" d="M51 522q0 258 109 404.5t278 146.5q172 0 276.5 -145.5t104.5 -407.5v-74h-565q6 -144 74.5 -219t177.5 -75q110 0 227 63l53 -154q-139 -77 -303 -77q-91 0 -166.5 29t-136.5 90.5t-95 168t-34 250.5zM113 1382h258l157 -235h-143zM254 584h364q-5 152 -52 236.5 t-128 84.5q-82 0 -130.5 -88t-53.5 -233z" />
<glyph unicode="&#xe9;" horiz-adv-x="864" d="M51 522q0 258 109 404.5t278 146.5q172 0 276.5 -145.5t104.5 -407.5v-74h-565q6 -144 74.5 -219t177.5 -75q110 0 227 63l53 -154q-139 -77 -303 -77q-91 0 -166.5 29t-136.5 90.5t-95 168t-34 250.5zM254 584h364q-5 152 -52 236.5t-128 84.5q-82 0 -130.5 -88 t-53.5 -233zM354 1147l158 235h258l-274 -235h-142z" />
<glyph unicode="&#xea;" horiz-adv-x="864" d="M51 522q0 258 109 404.5t278 146.5q172 0 276.5 -145.5t104.5 -407.5v-74h-565q6 -144 74.5 -219t177.5 -75q110 0 227 63l53 -154q-139 -77 -303 -77q-91 0 -166.5 29t-136.5 90.5t-95 168t-34 250.5zM188 1147v2l170 237h164l172 -237v-2h-135l-119 125l-121 -125h-131 zM254 584h364q-5 152 -52 236.5t-128 84.5q-82 0 -130.5 -88t-53.5 -233z" />
<glyph unicode="&#xeb;" horiz-adv-x="864" d="M51 522q0 258 109 404.5t278 146.5q172 0 276.5 -145.5t104.5 -407.5v-74h-565q6 -144 74.5 -219t177.5 -75q110 0 227 63l53 -154q-139 -77 -303 -77q-91 0 -166.5 29t-136.5 90.5t-95 168t-34 250.5zM223 1147v196h170v-196h-170zM254 584h364q-5 152 -52 236.5 t-128 84.5q-82 0 -130.5 -88t-53.5 -233zM489 1147v196h168v-196h-168z" />
<glyph unicode="&#xec;" horiz-adv-x="409" d="M-125 1380h258l158 -235h-144zM98 0v1053h215v-1053h-215z" />
<glyph unicode="&#xed;" horiz-adv-x="409" d="M98 0v1053h215v-1053h-215zM121 1145l158 235h258l-275 -235h-141z" />
<glyph unicode="&#xee;" horiz-adv-x="409" d="M-47 1145v2l170 237h164l172 -237v-2h-135l-119 125l-121 -125h-131zM98 0v1053h215v-1053h-215z" />
<glyph unicode="&#xef;" horiz-adv-x="409" d="M-12 1145v196h170v-196h-170zM98 0v1053h215v-1053h-215zM254 1145v196h168v-196h-168z" />
<glyph unicode="&#xf0;" horiz-adv-x="892" d="M51 492q0 218 94.5 351.5t255.5 133.5q97 0 197 -49q-40 142 -133 235l-90 -92h-174l168 170q-65 45 -181 96l101 152q119 -49 211 -111l92 99h188l-182 -181q121 -118 178.5 -286t57.5 -404q0 -297 -101.5 -460.5t-294.5 -163.5q-173 0 -280 136.5t-107 373.5zM254 487 q0 -151 50.5 -238t135.5 -87q93 0 143 106t50 305q0 93 -6 170q-94 64 -176 64q-91 0 -144 -86.5t-53 -233.5z" />
<glyph unicode="&#xf1;" horiz-adv-x="929" d="M94 0v1053h170l33 -95q134 107 270 107q134 0 205.5 -79t71.5 -228v-758h-215v707q0 170 -146 170q-89 0 -174 -70v-807h-215zM172 1169q39 115 79.5 161t94.5 46q30 0 58.5 -10.5t80.5 -40.5q76 -45 109 -45q24 0 42.5 20t43.5 78l98 -30q-39 -115 -79.5 -161t-94.5 -46 q-30 0 -57 10.5t-80 40.5q-78 45 -109 45q-25 0 -43 -19.5t-43 -78.5z" />
<glyph unicode="&#xf2;" horiz-adv-x="901" d="M51 524q0 256 114 402.5t288 146.5q172 0 284.5 -145.5t112.5 -399.5q0 -256 -113 -402t-286 -146q-174 0 -287 145t-113 399zM123 1382h258l158 -235h-144zM254 528q0 -170 54.5 -266t144.5 -96q88 0 141 95t53 263q0 171 -53.5 268t-142.5 97t-143 -96t-54 -265z" />
<glyph unicode="&#xf3;" horiz-adv-x="901" d="M51 524q0 256 114 402.5t288 146.5q172 0 284.5 -145.5t112.5 -399.5q0 -256 -113 -402t-286 -146q-174 0 -287 145t-113 399zM254 528q0 -170 54.5 -266t144.5 -96q88 0 141 95t53 263q0 171 -53.5 268t-142.5 97t-143 -96t-54 -265zM365 1147l157 235h258l-274 -235 h-141z" />
<glyph unicode="&#xf4;" horiz-adv-x="901" d="M51 524q0 256 114 402.5t288 146.5q172 0 284.5 -145.5t112.5 -399.5q0 -256 -113 -402t-286 -146q-174 0 -287 145t-113 399zM199 1147v2l170 237h163l173 -237v-2h-136l-118 125l-121 -125h-131zM254 528q0 -170 54.5 -266t144.5 -96q88 0 141 95t53 263 q0 171 -53.5 268t-142.5 97t-143 -96t-54 -265z" />
<glyph unicode="&#xf5;" horiz-adv-x="901" d="M51 524q0 256 114 402.5t288 146.5q172 0 284.5 -145.5t112.5 -399.5q0 -256 -113 -402t-286 -146q-174 0 -287 145t-113 399zM156 1169q39 115 79.5 161t94.5 46q30 0 58.5 -10.5t80.5 -40.5q76 -45 109 -45q24 0 42.5 20t43.5 78l98 -30q-39 -115 -79.5 -161t-94.5 -46 q-30 0 -57 10.5t-80 40.5q-78 45 -109 45q-25 0 -43 -19.5t-43 -78.5zM254 528q0 -170 54.5 -266t144.5 -96q88 0 141 95t53 263q0 171 -53.5 268t-142.5 97t-143 -96t-54 -265z" />
<glyph unicode="&#xf6;" horiz-adv-x="901" d="M51 524q0 256 114 402.5t288 146.5q172 0 284.5 -145.5t112.5 -399.5q0 -256 -113 -402t-286 -146q-174 0 -287 145t-113 399zM233 1147v196h170v-196h-170zM254 528q0 -170 54.5 -266t144.5 -96q88 0 141 95t53 263q0 171 -53.5 268t-142.5 97t-143 -96t-54 -265z M500 1147v196h168v-196h-168z" />
<glyph unicode="&#xf7;" horiz-adv-x="892" d="M66 641v172l380 -2l381 2v-172l-381 2zM346 303v193h201v-193h-201zM346 958v191h201v-191h-201z" />
<glyph unicode="&#xf8;" horiz-adv-x="901" d="M51 524q0 256 114 402.5t288 146.5q98 0 188 -55l66 129h133l-111 -211q121 -150 121 -408q0 -256 -113 -402t-286 -146q-109 0 -191 55l-65 -129h-132l109 209q-121 146 -121 409zM254 528q0 -141 35 -231l268 547q-48 45 -106 45q-89 0 -143 -96t-54 -265zM344 211 q47 -47 109 -47q88 0 142 95.5t54 264.5q0 137 -37 232z" />
<glyph unicode="&#xf9;" horiz-adv-x="929" d="M86 297v756h217v-707q0 -170 146 -170q89 0 174 70v807h215v-1053h-172l-33 96q-131 -108 -271 -108q-132 0 -204 80t-72 229zM133 1376h258l158 -235h-143z" />
<glyph unicode="&#xfa;" horiz-adv-x="929" d="M86 297v756h217v-707q0 -170 146 -170q89 0 174 70v807h215v-1053h-172l-33 96q-131 -108 -271 -108q-132 0 -204 80t-72 229zM375 1141l157 235h259l-275 -235h-141z" />
<glyph unicode="&#xfb;" horiz-adv-x="929" d="M86 297v756h217v-707q0 -170 146 -170q89 0 174 70v807h215v-1053h-172l-33 96q-131 -108 -271 -108q-132 0 -204 80t-72 229zM211 1141v2l170 237h164l172 -237v-2h-135l-119 125l-121 -125h-131z" />
<glyph unicode="&#xfc;" horiz-adv-x="929" d="M86 297v756h217v-707q0 -170 146 -170q89 0 174 70v807h215v-1053h-172l-33 96q-131 -108 -271 -108q-132 0 -204 80t-72 229zM246 1141v196h170v-196h-170zM512 1141v196h168v-196h-168z" />
<glyph unicode="&#xfd;" horiz-adv-x="874" d="M27 1053h217l200 -791l199 791h209l-256 -901q-61 -214 -159 -309t-318 -160l-58 176q169 57 256 182zM352 1141l158 235h258l-274 -235h-142z" />
<glyph unicode="&#xfe;" horiz-adv-x="921" d="M94 -313v1790h215v-500q95 88 215 88q156 0 249 -138.5t93 -396.5q0 -263 -97.5 -403.5t-260.5 -140.5q-107 0 -199 65v-364h-215zM309 225q68 -61 148 -61q96 2 149 93t53 271q0 178 -53 268.5t-151 90.5q-78 0 -146 -64v-598z" />
<glyph unicode="&#xff;" horiz-adv-x="874" d="M27 1053h217l200 -791l199 791h209l-256 -901q-61 -214 -159 -309t-318 -160l-58 176q169 57 256 182zM223 1141v196h170v-196h-170zM489 1141v196h168v-196h-168z" />
<glyph unicode="&#x152;" horiz-adv-x="1636" d="M63 715q0 182 47 321.5t132.5 225.5t199.5 129t254 43h871v-203h-559v-395h497v-199h-497v-434h571v-203h-887q-139 0 -252.5 42.5t-198.5 128t-131.5 224t-46.5 320.5zM299 719q0 -266 102.5 -395t280.5 -129h98v1044h-100q-178 0 -279.5 -127.5t-101.5 -392.5z" />
<glyph unicode="&#x153;" horiz-adv-x="1460" d="M51 524q0 256 112 402.5t283 146.5q97 0 175 -49.5t127 -142.5q97 192 292 192q171 0 273 -145t102 -408v-74h-565q6 -144 74.5 -219t177.5 -75q110 0 227 63l53 -154q-139 -77 -297 -77q-239 0 -340 186q-49 -93 -126.5 -141.5t-174.5 -48.5q-170 0 -281.5 145 t-111.5 399zM254 528q0 -170 54.5 -266t144.5 -96q88 0 141 94.5t53 263.5q0 171 -53.5 268t-142.5 97t-143 -96t-54 -265zM850 584h364q-5 152 -52 236.5t-128 84.5q-82 0 -130.5 -88t-53.5 -233z" />
<glyph unicode="&#x178;" horiz-adv-x="1044" d="M4 1432v2h244l276 -629l275 629h241v-2l-403 -879v-553h-229v553zM295 1503v183h172v-183h-172zM575 1503v183h170v-183h-170z" />
<glyph unicode="&#x2c6;" horiz-adv-x="1001" d="M248 1145v2l170 237h164l172 -237v-2h-136l-118 125l-121 -125h-131z" />
<glyph unicode="&#x2dc;" horiz-adv-x="1001" d="M197 1167q39 115 79.5 161t94.5 46q30 0 58.5 -10.5t80.5 -40.5q76 -45 108 -45q24 0 43 20t44 78l98 -30q-39 -115 -79.5 -161t-94.5 -46q-30 0 -57 10.5t-80 40.5q-78 45 -109 45q-25 0 -43 -19.5t-43 -78.5z" />
<glyph unicode="&#x2000;" horiz-adv-x="870" />
<glyph unicode="&#x2001;" horiz-adv-x="1741" />
<glyph unicode="&#x2002;" horiz-adv-x="870" />
<glyph unicode="&#x2003;" horiz-adv-x="1741" />
<glyph unicode="&#x2004;" horiz-adv-x="580" />
<glyph unicode="&#x2005;" horiz-adv-x="435" />
<glyph unicode="&#x2006;" horiz-adv-x="290" />
<glyph unicode="&#x2007;" horiz-adv-x="290" />
<glyph unicode="&#x2008;" horiz-adv-x="217" />
<glyph unicode="&#x2009;" horiz-adv-x="348" />
<glyph unicode="&#x200a;" horiz-adv-x="96" />
<glyph unicode="&#x2010;" horiz-adv-x="583" d="M55 524v199h473v-199h-473z" />
<glyph unicode="&#x2011;" horiz-adv-x="583" d="M55 524v199h473v-199h-473z" />
<glyph unicode="&#x2012;" horiz-adv-x="583" d="M55 524v199h473v-199h-473z" />
<glyph unicode="&#x2013;" horiz-adv-x="849" d="M55 524v197h740v-197h-740z" />
<glyph unicode="&#x2014;" horiz-adv-x="1376" d="M55 524v197h1266v-197h-1266z" />
<glyph unicode="&#x2018;" horiz-adv-x="376" d="M39 1409v27h217q0 -166 22 -267.5t78 -205.5l-88 -58q-110 112 -169.5 229.5t-59.5 274.5z" />
<glyph unicode="&#x2019;" horiz-adv-x="376" d="M20 963q57 105 79 206t22 267h217v-27q0 -157 -59.5 -274.5t-169.5 -229.5z" />
<glyph unicode="&#x201a;" horiz-adv-x="337" d="M-33 -213q57 106 80 207.5t23 265.5h215v-27q0 -157 -59.5 -274t-170.5 -229z" />
<glyph unicode="&#x201c;" horiz-adv-x="659" d="M39 1405v31h199q0 -165 22.5 -268.5t79.5 -211.5l-76 -51q-116 118 -170.5 231.5t-54.5 268.5zM338 1405v31h197q0 -164 23.5 -267.5t80.5 -212.5l-76 -51q-116 118 -170.5 231.5t-54.5 268.5z" />
<glyph unicode="&#x201d;" horiz-adv-x="659" d="M25 956q57 109 80.5 212.5t23.5 267.5h197v-31q0 -155 -54.5 -268.5t-169.5 -231.5zM324 956q57 109 80.5 212.5t23.5 267.5h197v-31q0 -155 -55 -268.5t-171 -231.5z" />
<glyph unicode="&#x201e;" horiz-adv-x="624" d="M-31 -219q57 109 80 212t23 267h196v-31q0 -155 -54 -268.5t-169 -230.5zM270 -219q58 108 81.5 211t23.5 268h196v-31q0 -155 -54 -268t-169 -231z" />
<glyph unicode="&#x2022;" horiz-adv-x="835" d="M141 727q0 116 81 197.5t196 81.5t196.5 -81.5t81.5 -197.5q0 -115 -81 -196.5t-197 -81.5q-115 0 -196 81t-81 197z" />
<glyph unicode="&#x2026;" horiz-adv-x="991" d="M59 0v246h213v-246h-213zM389 0v246h213v-246h-213zM719 0v246h213v-246h-213z" />
<glyph unicode="&#x202f;" horiz-adv-x="348" />
<glyph unicode="&#x2039;" horiz-adv-x="561" d="M63 563v117l357 375l78 -60l-246 -372l246 -373l-78 -60z" />
<glyph unicode="&#x203a;" horiz-adv-x="561" d="M63 250l244 373l-244 372l76 60l359 -375v-115l-359 -375z" />
<glyph unicode="&#x205f;" horiz-adv-x="435" />
<glyph unicode="&#x20ac;" horiz-adv-x="989" d="M39 489v136h117q-2 29 -2 90q0 57 2 86h-117v137h133q42 246 183.5 377t373.5 131q101 0 207 -29l-25 -203q-101 27 -174 27q-273 0 -338 -303h430v-137h-448q-2 -27 -2 -84q0 -63 2 -92h448v-136h-428q65 -296 332 -296q85 0 178 26l25 -201q-99 -30 -209 -30 q-231 0 -372.5 128.5t-182.5 372.5h-133z" />
<glyph unicode="&#x2122;" horiz-adv-x="935" d="M41 1358v76h324v-76h-119v-367h-84v367h-121zM418 991l18 443h111l98 -322l98 322h111l18 -443h-77l-15 316l-96 -316h-80l-98 316l-10 -316h-78z" />
<glyph unicode="&#x25fc;" horiz-adv-x="1054" d="M0 0v1055h1055v-1055h-1055z" />
<glyph unicode="&#xfb01;" horiz-adv-x="1013" d="M31 866v181h127v108q0 160 77.5 245t235.5 85q69 0 145 -17v-174q-56 17 -104 17q-72 0 -107.5 -43t-35.5 -121v-100h221v-181h-219v-866h-213v866h-127zM694 1176v196h228v-196h-228zM700 0v1053h215v-1053h-215z" />
<glyph unicode="&#xfb02;" horiz-adv-x="1013" d="M31 866v181h127v108q0 160 77.5 245t235.5 85q69 0 145 -17v-174q-56 17 -104 17q-72 0 -107.5 -43t-35.5 -121v-100h221v-181h-219v-866h-213v866h-127zM700 0v1477h215v-1477h-215z" />
</font>
</defs>
</svg>
