<?xml version="1.0" standalone="no"?>
<!DOCTYPE svg PUBLIC "-//W3C//DTD SVG 1.1//EN" "http://www.w3.org/Graphics/SVG/1.1/DTD/svg11.dtd" >
<svg xmlns="http://www.w3.org/2000/svg">
<metadata></metadata>
<defs>
<font id="retina_display_condensedblack" horiz-adv-x="929" >
<font-face units-per-em="2048" ascent="1638" descent="-410" />
<missing-glyph horiz-adv-x="364" />
<glyph horiz-adv-x="0" />
<glyph horiz-adv-x="682" />
<glyph unicode=" "  horiz-adv-x="364" />
<glyph unicode="&#x09;" horiz-adv-x="364" />
<glyph unicode="&#xa0;" horiz-adv-x="364" />
<glyph unicode="!" horiz-adv-x="487" d="M57 977v457h373v-457l-94 -539h-184zM70 0v342h348v-342h-348z" />
<glyph unicode="&#x22;" horiz-adv-x="839" d="M37 872l96 562h326v-4l-273 -599zM403 872l97 562h325v-4l-272 -599z" />
<glyph unicode="#" horiz-adv-x="1150" d="M35 373v207l229 -11l49 308l-204 8v207l237 -11l57 363h189l-60 -369l199 -8l60 377h188l-61 -383l198 -8v-207l-231 8l-49 -305l206 -8v-207l-239 8l-55 -352h-189l57 360l-198 8l-58 -368h-188l59 375zM451 563l198 -8l49 307l-198 6z" />
<glyph unicode="$" horiz-adv-x="970" d="M0 117l96 293q162 -93 297 -117l33 285q-189 64 -273.5 163.5t-84.5 266.5q0 178 110 293.5t318 132.5l16 151h190l-18 -160q130 -19 262 -82l-94 -288q-129 65 -229 84l-31 -267q197 -71 283 -164.5t86 -265.5q0 -193 -119 -308.5t-322 -133.5l-20 -201h-191l23 207 q-175 28 -332 111zM387 1038q0 -35 17.5 -59.5t62.5 -50.5l25 217q-52 -9 -78.5 -37.5t-26.5 -69.5zM526 289q115 22 115 119q0 37 -18.5 63t-69.5 53z" />
<glyph unicode="%" horiz-adv-x="1232" d="M25 1077q0 176 80.5 272.5t205.5 96.5q124 0 204.5 -96.5t80.5 -272.5t-80.5 -272t-204.5 -96q-126 0 -206 96t-80 272zM135 43l440 698l375 717l146 -65l-439 -701l-374 -717zM238 1077q0 -106 18 -148t55 -42q36 0 54 42.5t18 147.5q0 104 -18 146.5t-54 42.5 q-37 0 -55 -42.5t-18 -146.5zM637 356q0 177 81 274t206 97q124 0 204 -97.5t80 -273.5t-80 -272t-204 -96q-126 0 -206.5 96t-80.5 272zM850 356q0 -105 18.5 -146.5t55.5 -41.5q36 0 53.5 41.5t17.5 146.5q0 106 -17.5 148.5t-53.5 42.5q-37 0 -55.5 -42.5t-18.5 -148.5z " />
<glyph unicode="&#x26;" horiz-adv-x="1140" d="M14 397q0 275 246 451q-47 84 -66.5 147t-19.5 129q0 147 101 234.5t292 87.5q197 0 391 -96l-112 -310q-151 82 -232 82q-37 0 -57 -17.5t-20 -47.5q0 -42 34 -103l183 -303q27 81 32 156h316q-40 -273 -156 -471l203 -336h-369l-63 98q-125 -114 -314 -114 q-172 0 -280.5 109t-108.5 304zM360 426q0 -64 27 -99.5t66 -35.5q63 0 110 57l-143 236q-60 -73 -60 -158z" />
<glyph unicode="'" horiz-adv-x="473" d="M37 872l96 562h330v-4l-273 -601z" />
<glyph unicode="(" horiz-adv-x="679" d="M45 621q0 273 115 486t348 380l156 -180q-147 -151 -217 -312.5t-70 -373.5q0 -214 69.5 -376.5t217.5 -310.5l-156 -182q-233 168 -348 382.5t-115 486.5z" />
<glyph unicode=")" horiz-adv-x="679" d="M16 -66q147 149 217 311.5t70 375.5q0 214 -69.5 376t-217.5 310l156 180q233 -167 348 -380t115 -486q0 -272 -115 -486.5t-348 -382.5z" />
<glyph unicode="*" horiz-adv-x="581" d="M39 1196l51 156l160 -119l-10 -37h-201zM86 1057l162 117l33 -23l-62 -190zM209 1438h166l-64 -191h-41zM303 1151l31 23l162 -117l-134 -96zM332 1233l160 119l51 -156h-201z" />
<glyph unicode="+" d="M57 594v266h269v279h278v-279h268v-266h-268v-279h-278v279h-269z" />
<glyph unicode="," horiz-adv-x="430" d="M-41 -213q58 124 81 252.5t23 347.5h334v-33q0 -112 -23 -210.5t-67 -179t-92.5 -142t-114.5 -125.5z" />
<glyph unicode="-" horiz-adv-x="610" d="M45 463v315h520v-315h-520z" />
<glyph unicode="." horiz-adv-x="430" d="M43 0v387h344v-387h-344z" />
<glyph unicode="/" horiz-adv-x="690" d="M-80 -266l567 1894h261l-568 -1894h-260z" />
<glyph unicode="0" horiz-adv-x="1081" d="M35 717q0 190 37.5 333.5t106.5 231t160 131t202 43.5q112 0 203.5 -43.5t160 -131t106.5 -231t38 -333.5q0 -153 -25 -276.5t-69.5 -209t-108 -143.5t-140 -84.5t-165.5 -26.5q-112 0 -202.5 43.5t-159.5 131t-106.5 231.5t-37.5 334zM401 719q0 -168 16 -263.5t46 -132 t80 -36.5q49 0 78 35.5t44 130t15 262.5t-15.5 263.5t-45 132t-78.5 36.5q-50 0 -79.5 -35.5t-45 -130t-15.5 -262.5z" />
<glyph unicode="1" horiz-adv-x="792" d="M23 1350l358 92h215v-1143h176v-299h-733v299h192v772l-149 -31z" />
<glyph unicode="2" horiz-adv-x="940" d="M10 1270q211 182 469 182q201 0 312.5 -104.5t111.5 -288.5q0 -126 -47.5 -229t-161.5 -226l-225 -287h446v-317h-860l-41 279l430 544q86 103 86 187q0 48 -27 77t-77 29q-106 0 -268 -135z" />
<glyph unicode="3" horiz-adv-x="923" d="M16 1329q237 121 478 121q188 0 294.5 -81.5t106.5 -235.5q0 -128 -71 -212t-222 -147q161 -25 233 -97t72 -206q0 -99 -45.5 -178t-123.5 -132.5t-191 -90.5t-239.5 -55.5t-278.5 -24.5v305q276 19 388.5 61t112.5 127q0 61 -68 88.5t-251 30.5l-35 236 q197 69 270.5 119.5t73.5 111.5q0 40 -26.5 62t-75.5 22q-121 0 -303 -92z" />
<glyph unicode="4" horiz-adv-x="1003" d="M12 547l410 895h465v-903h104v-295h-104v-244h-348v244h-506zM303 530h244v549z" />
<glyph unicode="5" horiz-adv-x="950" d="M41 283q148 16 251 41.5t159 60t80 72.5t24 86q0 50 -27.5 77t-72.5 27q-42 0 -78.5 -17.5t-83.5 -56.5l-240 93l37 768h813v-299h-510l-14 -240q95 45 203 45q155 0 246.5 -96t91.5 -273q0 -143 -53.5 -248.5t-162.5 -175t-261 -109.5t-361 -58z" />
<glyph unicode="6" horiz-adv-x="989" d="M33 555q0 219 61 387t180 293t310 233l207 -268q-291 -159 -371 -311q111 57 217 57q145 0 238.5 -113.5t93.5 -320.5q0 -255 -125 -395t-344 -140q-218 0 -342.5 145t-124.5 433zM383 496q0 -114 30 -168t93 -54q115 0 115 203q0 103 -34.5 146t-99.5 43q-49 0 -100 -23 q-4 -78 -4 -147z" />
<glyph unicode="7" horiz-adv-x="919" d="M31 1114v320h870v-340l-493 -1117l-347 111l474 1026h-504z" />
<glyph unicode="8" horiz-adv-x="1009" d="M27 399q0 131 51.5 213.5t159.5 130.5q-93 55 -139 129t-46 197q0 166 120 274.5t331 108.5q213 0 333.5 -108.5t120.5 -274.5q0 -123 -46 -197t-140 -129q110 -50 160.5 -131t50.5 -213q0 -188 -130 -302.5t-349 -114.5q-220 0 -348.5 114.5t-128.5 302.5zM371 434 q0 -89 36 -136.5t97 -47.5q63 0 99 47.5t36 136.5q0 91 -34.5 141t-100.5 50q-64 0 -98.5 -50t-34.5 -141zM387 1030q0 -84 30.5 -127t86.5 -43q58 0 88.5 43t30.5 127q0 74 -31.5 115t-87.5 41q-55 0 -86 -41t-31 -115z" />
<glyph unicode="9" horiz-adv-x="989" d="M18 922q0 255 125 394.5t344 139.5q218 0 342.5 -144.5t124.5 -432.5q0 -219 -61 -387t-180 -293.5t-310 -233.5l-206 268q288 158 368 312q-113 -58 -215 -58q-145 0 -238.5 114t-93.5 321zM367 956q0 -103 34 -145.5t99 -42.5q50 0 98 20q6 58 6 150q0 114 -30 167.5 t-93 53.5q-114 0 -114 -203z" />
<glyph unicode=":" horiz-adv-x="430" d="M43 0v387h344v-387h-344zM43 676v387h344v-387h-344z" />
<glyph unicode=";" horiz-adv-x="430" d="M-49 -213q58 123 80 251.5t22 348.5h338v-33q0 -112 -23.5 -210.5t-68 -179t-93 -142t-114.5 -125.5zM49 676v387h342v-387h-342z" />
<glyph unicode="&#x3c;" d="M61 602v248l793 367v-297l-496 -193l496 -190v-299z" />
<glyph unicode="=" d="M66 397v260h796v-260h-796zM66 795v260h796v-260h-796z" />
<glyph unicode="&#x3e;" d="M76 238v297l493 192l-493 191v299l792 -367v-248z" />
<glyph unicode="?" horiz-adv-x="878" d="M2 1282q226 172 465 172q183 0 289 -101.5t106 -275.5q0 -80 -22.5 -146t-68 -120t-103 -97.5t-138.5 -86.5l-34 -189h-189l-49 359q151 88 205.5 141t54.5 111q0 94 -102 94q-119 0 -279 -121zM227 0v342h346v-342h-346z" />
<glyph unicode="@" horiz-adv-x="1300" d="M49 420q0 226 65 424t175.5 335.5t261.5 216.5t319 79q200 0 301 -99.5t101 -273.5q0 -89 -31 -258l-143 -719h-193l-43 92q-48 -49 -92 -72.5t-98 -23.5q-105 0 -171.5 86.5t-66.5 255.5q0 155 58 287t169 213t252 81q32 0 68 -4q4 23 4 72q0 166 -174 166 q-146 0 -276 -115t-208.5 -313t-78.5 -426q0 -565 508 -565q106 0 205 26l-41 -170q-96 -22 -211 -22q-307 0 -483.5 182t-176.5 545zM733 489q0 -64 23 -96.5t61 -32.5q21 0 25 2l90 453h-8q-84 0 -137.5 -99t-53.5 -227z" />
<glyph unicode="A" horiz-adv-x="1169" d="M-4 0l362 1442h453l363 -1442h-383l-50 244h-319l-49 -244h-377zM483 557h195l-96 481z" />
<glyph unicode="B" horiz-adv-x="1077" d="M72 0v1434h463q244 0 369.5 -95t125.5 -274q0 -248 -237 -322q266 -70 266 -325q0 -213 -145.5 -315.5t-415.5 -102.5h-426zM436 283h78q168 0 168 168q0 75 -42.5 115t-125.5 40h-78v-323zM436 872h72q149 0 149 148q0 131 -149 131h-72v-279z" />
<glyph unicode="C" horiz-adv-x="987" d="M35 715q0 361 164 548t452 187q166 0 305 -53l-51 -340q-116 49 -217 49q-132 0 -202 -96.5t-70 -290.5q0 -199 69.5 -295t208.5 -96q95 0 213 47l54 -330q-146 -61 -316 -61q-290 0 -450 180.5t-160 550.5z" />
<glyph unicode="D" horiz-adv-x="1157" d="M72 0v1434h381q119 0 218.5 -24.5t184 -79.5t143 -137t91 -202.5t32.5 -271.5q0 -152 -33 -272.5t-92 -203.5t-144 -138t-186 -80t-221 -25h-374zM440 317h29q52 0 91.5 10.5t74.5 37.5t57.5 71.5t35.5 114.5t13 164q0 95 -12.5 165.5t-35 115t-57.5 72t-75 38t-92 10.5 h-29v-799z" />
<glyph unicode="E" horiz-adv-x="999" d="M72 0v1434h868v-322h-504v-217h449v-320h-449v-251h516v-324h-880z" />
<glyph unicode="F" horiz-adv-x="948" d="M72 0v1434h854v-328h-486v-264h394v-330h-394v-512h-368z" />
<glyph unicode="G" horiz-adv-x="1122" d="M35 715q0 188 48 331.5t133.5 230.5t196 130t242.5 43q200 0 377 -86l-112 -317q-130 65 -250 65q-130 0 -192 -96t-62 -307q0 -159 24.5 -249t76.5 -127.5t142 -37.5q35 0 54 8v260h-154v297h504v-760q-208 -114 -430 -114q-292 0 -445 180t-153 549z" />
<glyph unicode="H" horiz-adv-x="1173" d="M72 0v1434h370v-523h289v523h371v-1434h-371v561h-289v-561h-370z" />
<glyph unicode="I" horiz-adv-x="520" d="M76 0v1434h370v-1434h-370z" />
<glyph unicode="J" horiz-adv-x="819" d="M4 23l55 315q81 -23 148 -23q178 0 178 195v924h371v-899v-14q0 -272 -117 -401q-120 -132 -367 -132q-146 0 -268 35z" />
<glyph unicode="K" horiz-adv-x="1132" d="M72 0v1434h368v-617l275 617h415v-2l-339 -695l352 -735v-2h-416l-287 649v-649h-368z" />
<glyph unicode="L" horiz-adv-x="888" d="M72 0v1434h368v-1096h428v-338h-796z" />
<glyph unicode="M" horiz-adv-x="1542" d="M39 0l55 1434h512l150 -824l151 824h541l57 -1434h-360l-33 930l-182 -930h-350l-185 938l-30 -938h-326z" />
<glyph unicode="N" horiz-adv-x="1181" d="M72 0v1434h424l303 -842l-6 297v545h317v-1434h-418l-307 858h-2l8 -297v-561h-319z" />
<glyph unicode="O" horiz-adv-x="1185" d="M35 717q0 359 150 548t409 189q256 0 406.5 -188.5t150.5 -548.5q0 -358 -151.5 -547.5t-407.5 -189.5q-255 0 -406 190t-151 547zM416 719q0 -221 44 -320.5t134 -99.5t133 97.5t43 318.5q0 220 -44.5 320t-133.5 100q-91 0 -133.5 -97t-42.5 -319z" />
<glyph unicode="P" horiz-adv-x="1034" d="M72 0v1434h405q543 0 543 -510q0 -140 -39 -245t-110 -168t-164.5 -93.5t-210.5 -30.5h-56v-387h-368zM438 686h41q93 0 133.5 54t40.5 171q0 121 -41 170t-133 49h-41v-444z" />
<glyph unicode="Q" horiz-adv-x="1185" d="M35 717q0 357 150.5 547t408.5 190q255 0 406 -189t151 -546q0 -363 -164 -561l219 -297v-4h-430l-96 137q-44 -6 -88 -6q-256 0 -406.5 185.5t-150.5 543.5zM416 719q0 -221 44 -320.5t134 -99.5t133 97.5t43 318.5q0 220 -44.5 320t-133.5 100q-91 0 -133.5 -97 t-42.5 -319z" />
<glyph unicode="R" horiz-adv-x="1112" d="M72 0v1434h442q270 0 406.5 -109.5t136.5 -320.5q0 -298 -277 -408q64 -24 105 -69t78 -128l165 -395v-4h-405l-135 350q-50 114 -154 117v-467h-362zM434 764h60q93 0 138.5 46.5t45.5 145.5q0 90 -44 133.5t-140 43.5h-60v-369z" />
<glyph unicode="S" horiz-adv-x="1009" d="M10 88l92 313q91 -44 195 -71t195 -27q141 0 141 98q0 47 -39.5 85t-161.5 102q-195 88 -279.5 184.5t-84.5 251.5q0 197 126 312.5t353 115.5q106 0 212.5 -25t188.5 -65l-94 -313q-159 81 -311 81q-119 0 -119 -81q0 -40 34 -69t158 -91q204 -92 288.5 -190t84.5 -259 q0 -223 -130.5 -340.5t-373.5 -117.5q-118 0 -245.5 30t-229.5 76z" />
<glyph unicode="T" horiz-adv-x="1015" d="M16 1102v332h983v-332h-305v-1102h-370v1102h-308z" />
<glyph unicode="U" horiz-adv-x="1148" d="M63 494v940h371v-965q0 -168 141 -168q142 0 142 168v965h368v-938q0 -139 -38 -240.5t-108 -160t-160.5 -86t-205.5 -27.5q-114 0 -204 27.5t-160 86t-108 159.5t-38 239z" />
<glyph unicode="V" horiz-adv-x="1153" d="M-4 1434h395l189 -906l190 906h387l-364 -1442h-433z" />
<glyph unicode="W" horiz-adv-x="1685" d="M4 1434h377l115 -848l161 848h396l149 -840l121 840h358l-264 -1438h-405l-174 887l-172 -887h-398z" />
<glyph unicode="X" horiz-adv-x="1110" d="M-6 0v2l334 739l-320 691v2h391l160 -402l158 402h387v-2l-320 -691l332 -739v-2h-393l-170 438l-170 -438h-389z" />
<glyph unicode="Y" horiz-adv-x="1103" d="M-16 1432v2h387l182 -512l182 512h383v-2l-381 -916v-516h-370v516z" />
<glyph unicode="Z" horiz-adv-x="1017" d="M39 0v315l504 801h-475v318h909v-316l-502 -801h502v-317h-938z" />
<glyph unicode="[" horiz-adv-x="692" d="M80 -217v1685l577 -34v-226l-284 11v-1186l284 10v-225z" />
<glyph unicode="\" horiz-adv-x="690" d="M-57 1628h260l565 -1894h-260z" />
<glyph unicode="]" horiz-adv-x="692" d="M35 43l284 -10v1186l-284 -11v226l577 34v-1685l-577 35v225z" />
<glyph unicode="_" horiz-adv-x="886" d="M-4 -94h895v-119h-895v119z" />
<glyph unicode="`" horiz-adv-x="1024" d="M225 1364h393l136 -236h-219z" />
<glyph unicode="a" d="M25 324q0 163 84 247q91 91 260 91q70 0 163 -19v39q0 58 -30 87.5t-101 29.5q-113 0 -243 -60l-82 254q187 84 391 84q210 0 307.5 -90t97.5 -276v-527l23 -184h-303l-37 88q-59 -50 -117 -75t-131 -25q-132 0 -207 84t-75 252zM348 344q0 -67 26.5 -96t76.5 -29 q33 0 81 19v223q-69 6 -77 6q-54 0 -78 -27q-29 -26 -29 -96z" />
<glyph unicode="b" horiz-adv-x="980" d="M61 0v1477h347v-484q85 82 204 82q156 0 247 -135t91 -408q0 -271 -94 -407.5t-252 -136.5q-121 0 -221 100l-41 -88h-281zM408 293q38 -23 81 -23q68 0 100 60.5t32 201.5q0 142 -31 202.5t-98 60.5q-43 0 -84 -29v-473z" />
<glyph unicode="c" horiz-adv-x="774" d="M27 530q0 258 127 404.5t356 146.5q116 0 240 -43l-50 -301q-91 37 -163 37q-90 0 -136.5 -65t-46.5 -174q0 -246 187 -246q70 0 166 39l47 -291q-132 -53 -265 -53q-219 0 -340.5 141t-121.5 405z" />
<glyph unicode="d" horiz-adv-x="980" d="M31 530q0 272 99 408.5t267 136.5q98 0 178 -39v441h345v-1477h-279l-45 92q-49 -49 -101.5 -76.5t-125.5 -27.5q-155 0 -246.5 135.5t-91.5 406.5zM360 532q0 -142 31.5 -202t97.5 -60q50 0 86 29v471q-41 25 -83 25q-68 0 -100 -61t-32 -202z" />
<glyph unicode="e" horiz-adv-x="913" d="M29 528q0 138 33 245.5t92 174t136.5 101t168.5 34.5q194 0 312 -143.5t118 -419.5v-114h-539q13 -160 201 -160q114 0 231 57l76 -242q-157 -77 -346 -77q-483 0 -483 544zM350 612h219q-6 207 -108 207q-105 0 -111 -207z" />
<glyph unicode="f" horiz-adv-x="663" d="M12 766v285h113v71q0 180 87 271.5t273 91.5q129 0 234 -31l-45 -258q-59 16 -109 16q-102 0 -102 -104v-57h194v-285h-192v-766h-340v766h-113z" />
<glyph unicode="g" horiz-adv-x="980" d="M31 545q0 257 94.5 393.5t253.5 136.5q115 0 221 -98l41 86h279v-938q0 -124 -34.5 -212t-100 -138.5t-151 -73.5t-198.5 -23q-192 0 -348 39l16 248q163 -45 293 -45q86 0 132 33t46 117v30q-82 -75 -198 -75q-161 0 -253.5 131t-92.5 389zM360 547q0 -132 31.5 -190 t97.5 -58q50 0 86 29v442q-41 25 -83 25q-67 0 -99.5 -58.5t-32.5 -189.5z" />
<glyph unicode="h" horiz-adv-x="980" d="M61 0v1477h347v-492q121 90 241 90q134 0 205.5 -78.5t71.5 -226.5v-770h-346v682q0 92 -78 92q-46 0 -94 -33v-741h-347z" />
<glyph unicode="i" horiz-adv-x="473" d="M59 1145v258h355v-258h-355zM63 0v1063h347v-1063h-347z" />
<glyph unicode="j" horiz-adv-x="473" d="M-82 -133q86 78 117 147t31 191v858h344v-862q0 -105 -14 -179.5t-49.5 -135.5t-83.5 -106.5t-128 -103.5zM59 1145v258h355v-258h-355z" />
<glyph unicode="k" horiz-adv-x="966" d="M61 0v1477h347v-856l188 442h373l-244 -506l252 -555v-2h-379l-190 494v-494h-347z" />
<glyph unicode="l" horiz-adv-x="473" d="M63 0v1477h347v-1477h-347z" />
<glyph unicode="m" horiz-adv-x="1482" d="M61 0v1063h281l45 -94q129 106 258 106q156 0 221 -106q139 106 283 106q134 0 206 -76.5t72 -226.5v-772h-346v686q0 88 -73 88q-42 0 -93 -33v-741h-344v686q0 88 -73 88q-42 0 -90 -33v-741h-347z" />
<glyph unicode="n" horiz-adv-x="980" d="M61 0v1063h281l45 -94q129 106 262 106q134 0 205.5 -78.5t71.5 -226.5v-770h-346v682q0 92 -78 92q-46 0 -94 -33v-741h-347z" />
<glyph unicode="o" horiz-adv-x="944" d="M29 528q0 137 35 245t96 174.5t140.5 101t172.5 34.5t172.5 -34.5t141 -100.5t96.5 -173t35 -243q0 -137 -35 -244t-97 -173.5t-141.5 -100.5t-171.5 -34q-94 0 -173.5 34t-140.5 100t-95.5 172.5t-34.5 241.5zM352 532q0 -258 123 -258q119 0 119 254q0 263 -123 263 q-119 0 -119 -259z" />
<glyph unicode="p" horiz-adv-x="980" d="M61 -313v1376h281l43 -90q102 102 229 102q155 0 245.5 -135.5t90.5 -407.5q0 -271 -99 -407.5t-267 -136.5q-90 0 -176 39v-340h-347zM408 293q38 -23 81 -23q68 0 100 60.5t32 201.5q0 142 -31 202.5t-98 60.5q-43 0 -84 -29v-473z" />
<glyph unicode="q" horiz-adv-x="980" d="M31 530q0 271 94.5 408t253.5 137q115 0 221 -98l41 86h279v-1376h-345v383q-93 -82 -204 -82q-157 0 -248.5 135t-91.5 407zM360 532q0 -142 31.5 -202t97.5 -60q50 0 86 29v471q-41 25 -83 25q-68 0 -100 -61t-32 -202z" />
<glyph unicode="r" horiz-adv-x="684" d="M61 0v1063h275l57 -164q117 184 271 184v-370q-145 -6 -256 -74v-639h-347z" />
<glyph unicode="s" horiz-adv-x="841" d="M4 76l84 280q89 -41 182.5 -67.5t155.5 -26.5q78 0 78 47q0 24 -27 41t-125 53q-83 31 -134.5 58.5t-92 66.5t-57.5 90t-17 123q0 158 99.5 249t285.5 91q194 0 361 -80l-82 -274q-158 74 -275 74q-69 0 -69 -41q0 -22 25.5 -38t123.5 -52q172 -58 237.5 -132.5 t65.5 -207.5q0 -174 -102.5 -261t-288.5 -87q-232 0 -428 94z" />
<glyph unicode="t" horiz-adv-x="694" d="M12 778v285h107v272h342v-272h205v-285h-205v-391q0 -108 114 -108q47 0 91 12v-283q-75 -20 -193 -20q-185 0 -269.5 80t-84.5 266v444h-107z" />
<glyph unicode="u" horiz-adv-x="980" d="M57 295v768h344v-684q0 -90 80 -90q44 0 92 33v741h347v-1063h-281l-45 94q-64 -51 -124.5 -78.5t-137.5 -27.5q-134 0 -204.5 79t-70.5 228z" />
<glyph unicode="v" horiz-adv-x="931" d="M-4 1063h344l131 -655l129 655h336l-281 -1071h-379z" />
<glyph unicode="w" horiz-adv-x="1376" d="M2 1063h334l78 -580l106 580h340l107 -582l82 582h325l-209 -1065h-362l-117 571l-115 -571h-362z" />
<glyph unicode="x" horiz-adv-x="925" d="M-4 0v2l258 545l-250 516h361l98 -264l102 264h357l-252 -516l260 -545v-2h-361l-108 287l-107 -287h-358z" />
<glyph unicode="y" d="M-2 1063h346l133 -664l121 664h336l-217 -852q-35 -132 -73 -211.5t-106.5 -141t-161 -98.5t-247.5 -75l-84 278q139 38 227 94z" />
<glyph unicode="z" horiz-adv-x="851" d="M27 0v285l391 497h-367v281h770v-283l-391 -497h391v-283h-794z" />
<glyph unicode="{" horiz-adv-x="946" d="M37 532v187l12 2q313 49 313 223q0 57 -39 102.5t-112 88.5l27 186q125 52 300 96.5t355 65.5l27 -228q-213 -17 -355 -63q69 -47 103 -99t34 -130q0 -213 -344 -338q157 -54 250.5 -137.5t93.5 -198.5q0 -77 -34 -129.5t-103 -100.5q156 -47 355 -63l-27 -227 q-180 21 -355.5 65t-299.5 96l-27 187q75 46 113 90t38 100q0 173 -313 225h-12z" />
<glyph unicode="|" horiz-adv-x="495" d="M125 -266v1894h248v-1894h-248z" />
<glyph unicode="}" horiz-adv-x="946" d="M27 -4q198 16 354 63q-68 49 -102.5 101.5t-34.5 128.5q0 217 346 338q-346 121 -346 336q0 78 34.5 130t102.5 99q-142 46 -354 63l28 228q179 -21 354 -65.5t300 -96.5l26 -186q-73 -43 -112 -88.5t-39 -102.5q0 -174 313 -223l12 -2v-187h-12q-313 -52 -313 -225 q0 -56 38 -100t113 -90l-26 -187q-124 -52 -299.5 -96t-354.5 -65z" />
<glyph unicode="&#xa1;" horiz-adv-x="487" d="M57 0v457l95 538h184l94 -538v-457h-373zM70 1092v342h348v-342h-348z" />
<glyph unicode="&#xa2;" horiz-adv-x="849" d="M31 729q0 210 116 349.5t332 156.5l23 209h186l-24 -217q56 -11 153 -49l-72 -263q-83 37 -131 48l-53 -476q67 2 184 56l70 -258q-141 -60 -264 -68l-25 -227h-186l27 243q-157 40 -246.5 171t-89.5 325zM346 729q0 -143 74 -205l47 430q-121 -50 -121 -225z" />
<glyph unicode="&#xa3;" horiz-adv-x="956" d="M39 258q96 96 127 295v8h-119v285h154l20 155q28 217 135 324q123 123 361 123q116 0 207 -25l-39 -327q-68 20 -137 20q-88 0 -132 -47q-43 -46 -55 -131l-12 -92h250v-285h-287l-4 -33q-16 -136 -82 -217h479v-311h-817z" />
<glyph unicode="&#xa5;" horiz-adv-x="1091" d="M-8 1434h385l172 -504l172 504h381l-342 -762h239v-201h-270v-106h270v-201h-270v-164h-364v164h-271v201h271v106h-271v201h240z" />
<glyph unicode="&#xa7;" horiz-adv-x="1003" d="M27 715q0 88 39.5 152t121.5 122q-51 66 -51 164q0 130 101.5 212.5t271.5 82.5q193 0 371 -74l-82 -262q-172 72 -289 72q-61 0 -61 -35q0 -20 30.5 -37t159.5 -68q191 -73 264.5 -144t73.5 -179q0 -89 -40.5 -154t-123.5 -123q53 -67 53 -163q0 -128 -101.5 -211.5 t-270.5 -83.5q-194 0 -371 75l80 261q176 -72 289 -72q63 0 63 35q0 20 -31.5 37.5t-161.5 68.5q-189 71 -262 142.5t-73 181.5zM338 752q0 -31 32 -53.5t152 -71.5q6 -2 84 -37q60 48 60 92q0 22 -12.5 36.5t-50.5 34.5t-124 56q-28 9 -82 35q-59 -45 -59 -92z" />
<glyph unicode="&#xa8;" horiz-adv-x="1024" d="M225 1128v246h244v-246h-244zM555 1128v246h244v-246h-244z" />
<glyph unicode="&#xa9;" horiz-adv-x="1257" d="M53 717q0 173 44.5 314t122 234t182.5 143t227 50t227.5 -50t183 -143t122 -234t44.5 -314q0 -172 -44.5 -313t-122 -234.5t-183 -144t-227.5 -50.5t-227 50.5t-182.5 144t-122 234.5t-44.5 313zM139 717q0 -310 138 -487t352 -177q104 0 193 44.5t155 127t103.5 209.5 t37.5 283q0 157 -37.5 283.5t-103.5 209t-155 126.5t-193 44t-193 -44t-155.5 -126.5t-104 -209t-37.5 -283.5zM328 721q0 199 96 304t256 105q103 0 180 -36l-39 -189q-60 31 -116 31q-69 0 -107.5 -55t-38.5 -156q0 -215 154 -215q46 0 110 31l39 -185q-84 -41 -184 -41 q-163 0 -256.5 101.5t-93.5 304.5z" />
<glyph unicode="&#xaa;" horiz-adv-x="702" d="M49 571v115h600v-115h-600zM63 993q0 98 59 149.5t165 51.5q46 0 108 -12v18q0 76 -82 76q-70 0 -161 -37l-54 156q122 49 256 49q139 0 201.5 -57t62.5 -177v-303l17 -112h-199l-24 53q-75 -60 -162 -60q-86 0 -136.5 52.5t-50.5 152.5zM274 1001q0 -73 72 -73 q26 0 49 10v133q-16 4 -49 4q-72 0 -72 -74z" />
<glyph unicode="&#xab;" horiz-adv-x="983" d="M49 524v191l367 354l116 -90l-208 -358l208 -359l-116 -90zM461 524v191l368 354l117 -90l-209 -358l209 -359l-117 -90z" />
<glyph unicode="&#xad;" horiz-adv-x="610" d="M45 463v315h520v-315h-520z" />
<glyph unicode="&#xae;" horiz-adv-x="645" d="M39 1133q0 139 80.5 227t204.5 88q122 0 202 -88t80 -227q0 -137 -80 -225.5t-202 -88.5q-124 0 -204.5 88.5t-80.5 225.5zM82 1133q0 -121 67.5 -197t174.5 -76q106 0 172.5 76t66.5 197q0 123 -66.5 198.5t-172.5 75.5q-108 0 -175 -75.5t-67 -198.5zM186 971v340h129 q79 0 118.5 -27t39.5 -74q0 -70 -84 -96q34 -12 53 -47l52 -94v-2h-121l-45 88q-10 18 -33 18h-2v-106h-107zM293 1155h16q51 0 51 39q0 18 -11.5 26.5t-39.5 8.5h-16v-74z" />
<glyph unicode="&#xaf;" horiz-adv-x="1024" d="M236 1137v166h555v-166h-555z" />
<glyph unicode="&#xb0;" horiz-adv-x="710" d="M41 1122q0 140 91.5 234t223.5 94t223 -93t91 -231q0 -140 -91.5 -234.5t-224.5 -94.5q-131 0 -222 93t-91 232zM221 1124q0 -70 38 -114.5t97 -44.5q58 0 95.5 44t37.5 113q0 70 -38 115t-95 45q-59 0 -97 -44.5t-38 -113.5z" />
<glyph unicode="&#xb4;" horiz-adv-x="1024" d="M272 1128l136 236h391l-310 -236h-217z" />
<glyph unicode="&#xb6;" horiz-adv-x="954" d="M20 1006q0 201 131.5 314.5t360.5 113.5h362v-1434h-223v1229h-153v-645q-212 -5 -345 108.5t-133 313.5z" />
<glyph unicode="&#xb7;" horiz-adv-x="430" d="M43 535v385h344v-385h-344z" />
<glyph unicode="&#xb8;" horiz-adv-x="1024" d="M377 -242q86 7 116.5 18t30.5 31q0 43 -75 19l-48 53l91 148h139l-56 -86q69 -7 101.5 -33.5t32.5 -73.5q0 -160 -320 -176z" />
<glyph unicode="&#xba;" horiz-adv-x="710" d="M53 1114q0 160 86.5 246t216.5 86q129 0 215 -85.5t86 -244.5q0 -160 -86.5 -246t-216.5 -86q-129 0 -215 85.5t-86 244.5zM63 571v115h584v-115h-584zM272 1116q0 -155 84 -155q80 0 80 153q0 156 -82 156t-82 -154z" />
<glyph unicode="&#xbb;" horiz-adv-x="983" d="M37 260l209 361l-209 358l117 90l368 -354v-189l-368 -354zM451 260l208 361l-208 358l116 90l367 -354v-189l-367 -354z" />
<glyph unicode="&#xbf;" horiz-adv-x="878" d="M14 356q0 80 22.5 146t68 120.5t103.5 98t138 86.5l35 188h188l49 -358q-151 -88 -205.5 -141t-54.5 -111q0 -94 103 -94q118 0 278 121l135 -260q-226 -172 -464 -172q-183 0 -289.5 101.5t-106.5 274.5zM303 1092v342h346v-342h-346z" />
<glyph unicode="&#xc0;" horiz-adv-x="1169" d="M-4 0l362 1442h453l363 -1442h-383l-50 244h-319l-49 -244h-377zM184 1702h406l137 -201h-254zM483 557h195l-96 481z" />
<glyph unicode="&#xc1;" horiz-adv-x="1169" d="M-4 0l362 1442h453l363 -1442h-383l-50 244h-319l-49 -244h-377zM440 1501l140 201h405l-291 -201h-254zM483 557h195l-96 481z" />
<glyph unicode="&#xc2;" horiz-adv-x="1169" d="M-4 0l362 1442h453l363 -1442h-383l-50 244h-319l-49 -244h-377zM274 1501v2l166 211h287l166 -211v-2h-215l-96 76l-97 -76h-211zM483 557h195l-96 481z" />
<glyph unicode="&#xc3;" horiz-adv-x="1169" d="M-4 0l362 1442h453l363 -1442h-383l-50 244h-319l-49 -244h-377zM221 1532q44 132 95.5 183.5t117.5 51.5q38 0 72.5 -9.5t91.5 -35.5q44 -19 58 -25t34 -12t35 -6q29 0 49.5 18.5t44.5 71.5l148 -40q-45 -133 -96.5 -186.5t-116.5 -53.5q-36 0 -70 10t-94 37 q-89 41 -127 41q-29 0 -49 -18t-45 -72zM483 557h195l-96 481z" />
<glyph unicode="&#xc4;" horiz-adv-x="1169" d="M-4 0l362 1442h453l363 -1442h-383l-50 244h-319l-49 -244h-377zM293 1501v232h244v-232h-244zM483 557h195l-96 481zM631 1501v232h243v-232h-243z" />
<glyph unicode="&#xc5;" horiz-adv-x="1169" d="M-4 0l369 1479h2q-7 24 -7 47q0 89 65 143.5t161 54.5t159.5 -54.5t63.5 -143.5q0 -26 -6 -47h2l369 -1479h-383l-50 244h-319l-49 -244h-377zM459 1526q0 -50 36 -81.5t91 -31.5t91 31.5t36 81.5q0 52 -36 83t-91 31t-91 -31t-36 -83zM483 557h195l-96 481z" />
<glyph unicode="&#xc6;" horiz-adv-x="1722" d="M-10 0l592 1434h1081v-322h-498v-217h441v-320h-441v-251h508v-324h-864v258h-348l-103 -258h-368zM586 569h223v555z" />
<glyph unicode="&#xc7;" horiz-adv-x="987" d="M35 715q0 361 164 548t452 187q166 0 305 -53l-51 -340q-116 49 -217 49q-132 0 -202 -96.5t-70 -290.5q0 -199 69.5 -295t208.5 -96q95 0 213 47l54 -330q-146 -61 -316 -61h-6l-27 -43q133 -14 133 -107q0 -160 -319 -176l-12 100q86 7 116.5 18t30.5 31q0 19 -19 24.5 t-57 -5.5l-47 53l70 117q-226 38 -349.5 217t-123.5 502z" />
<glyph unicode="&#xc8;" horiz-adv-x="999" d="M72 0v1434h868v-322h-504v-217h449v-320h-449v-251h516v-324h-880zM111 1688h405l137 -201h-254z" />
<glyph unicode="&#xc9;" horiz-adv-x="999" d="M72 0v1434h868v-322h-504v-217h449v-320h-449v-251h516v-324h-880zM367 1487l139 201h405l-290 -201h-254z" />
<glyph unicode="&#xca;" horiz-adv-x="999" d="M72 0v1434h868v-322h-504v-217h449v-320h-449v-251h516v-324h-880zM203 1487v2l166 211h286l166 -211v-2h-215l-96 76l-96 -76h-211z" />
<glyph unicode="&#xcb;" horiz-adv-x="999" d="M72 0v1434h868v-322h-504v-217h449v-320h-449v-251h516v-324h-880zM221 1487v231h244v-231h-244zM559 1487v231h244v-231h-244z" />
<glyph unicode="&#xcc;" horiz-adv-x="520" d="M-139 1688h405l137 -201h-253zM76 0v1434h370v-1434h-370z" />
<glyph unicode="&#xcd;" horiz-adv-x="520" d="M76 0v1434h370v-1434h-370zM119 1487l139 201h406l-291 -201h-254z" />
<glyph unicode="&#xce;" horiz-adv-x="520" d="M-49 1487v2l166 211h286l166 -211v-2h-215l-96 76l-96 -76h-211zM76 0v1434h370v-1434h-370z" />
<glyph unicode="&#xcf;" horiz-adv-x="520" d="M-31 1487v231h244v-231h-244zM76 0v1434h370v-1434h-370zM307 1487v231h244v-231h-244z" />
<glyph unicode="&#xd0;" horiz-adv-x="1179" d="M18 584v288h76v562h381q119 0 218.5 -24.5t184 -79.5t143 -137t91.5 -202.5t33 -271.5q0 -152 -33 -272.5t-92 -203.5t-144 -138t-186 -80t-221 -25h-375v584h-76zM459 317h33q66 0 113.5 18t85 61t56.5 122.5t19 196.5q0 118 -19 198t-56.5 123.5t-85 61.5t-113.5 18 h-33v-244h139v-288h-139v-267z" />
<glyph unicode="&#xd1;" horiz-adv-x="1181" d="M72 0v1434h424l303 -842l-6 297v545h317v-1434h-418l-307 858h-2l8 -297v-561h-319zM236 1524q44 132 95.5 183.5t117.5 51.5q38 0 72 -9.5t91 -35.5q44 -19 58 -25t34 -12t35 -6q29 0 50 18.5t45 71.5l147 -41q-45 -133 -96.5 -186t-116.5 -53q-36 0 -70 10t-94 37 q-89 41 -127 41q-29 0 -49 -18t-45 -72z" />
<glyph unicode="&#xd2;" horiz-adv-x="1185" d="M35 717q0 359 150 548t409 189q256 0 406.5 -188.5t150.5 -548.5q0 -358 -151.5 -547.5t-407.5 -189.5q-255 0 -406 190t-151 547zM193 1702h405l137 -201h-254zM416 719q0 -221 44 -320.5t134 -99.5t133 97.5t43 318.5q0 220 -44.5 320t-133.5 100q-91 0 -133.5 -97 t-42.5 -319z" />
<glyph unicode="&#xd3;" horiz-adv-x="1185" d="M35 717q0 359 150 548t409 189q256 0 406.5 -188.5t150.5 -548.5q0 -358 -151.5 -547.5t-407.5 -189.5q-255 0 -406 190t-151 547zM416 719q0 -221 44 -320.5t134 -99.5t133 97.5t43 318.5q0 220 -44.5 320t-133.5 100q-91 0 -133.5 -97t-42.5 -319zM449 1501l139 201 h405l-291 -201h-253z" />
<glyph unicode="&#xd4;" horiz-adv-x="1185" d="M35 717q0 359 150 548t409 189q256 0 406.5 -188.5t150.5 -548.5q0 -358 -151.5 -547.5t-407.5 -189.5q-255 0 -406 190t-151 547zM283 1501v2l166 211h286l166 -211v-2h-215l-96 76l-96 -76h-211zM416 719q0 -221 44 -320.5t134 -99.5t133 97.5t43 318.5 q0 220 -44.5 320t-133.5 100q-91 0 -133.5 -97t-42.5 -319z" />
<glyph unicode="&#xd5;" horiz-adv-x="1185" d="M35 717q0 359 150 548t409 189q256 0 406.5 -188.5t150.5 -548.5q0 -358 -151.5 -547.5t-407.5 -189.5q-255 0 -406 190t-151 547zM229 1532q44 132 95.5 183.5t117.5 51.5q38 0 72.5 -9.5t91.5 -35.5q44 -19 58 -25t34 -12t35 -6q29 0 49.5 18.5t44.5 71.5l148 -40 q-45 -133 -96.5 -186.5t-116.5 -53.5q-36 0 -70 10t-94 37q-89 41 -127 41q-29 0 -49 -18t-45 -72zM416 719q0 -221 44 -320.5t134 -99.5t133 97.5t43 318.5q0 220 -44.5 320t-133.5 100q-91 0 -133.5 -97t-42.5 -319z" />
<glyph unicode="&#xd6;" horiz-adv-x="1185" d="M35 717q0 359 150 548t409 189q256 0 406.5 -188.5t150.5 -548.5q0 -358 -151.5 -547.5t-407.5 -189.5q-255 0 -406 190t-151 547zM301 1501v232h244v-232h-244zM416 719q0 -221 44 -320.5t134 -99.5t133 97.5t43 318.5q0 220 -44.5 320t-133.5 100q-91 0 -133.5 -97 t-42.5 -319zM639 1501v232h244v-232h-244z" />
<glyph unicode="&#xd7;" d="M39 492l240 233l-240 233l192 193l234 -240l233 240l193 -190l-240 -236l240 -233l-193 -191l-233 240l-236 -240z" />
<glyph unicode="&#xd8;" horiz-adv-x="1185" d="M35 717q0 359 150 548t409 189q149 0 260 -63l76 137h209l-146 -256q158 -194 158 -555q0 -358 -151.5 -547.5t-407.5 -189.5q-151 0 -262 63l-74 -137h-209l143 258q-155 195 -155 553zM412 719q0 -101 10 -189l276 557q-43 52 -106 52q-92 0 -136 -98.5t-44 -321.5z M485 348q42 -53 109 -53q92 0 136 98t44 322q0 111 -12 190z" />
<glyph unicode="&#xd9;" horiz-adv-x="1148" d="M63 494v940h371v-965q0 -168 141 -168q142 0 142 168v965h368v-938q0 -139 -38 -240.5t-108 -160t-160.5 -86t-205.5 -27.5q-114 0 -204 27.5t-160 86t-108 159.5t-38 239zM174 1688h406l137 -201h-254z" />
<glyph unicode="&#xda;" horiz-adv-x="1148" d="M63 494v940h371v-965q0 -168 141 -168q142 0 142 168v965h368v-938q0 -139 -38 -240.5t-108 -160t-160.5 -86t-205.5 -27.5q-114 0 -204 27.5t-160 86t-108 159.5t-38 239zM432 1487l139 201h406l-291 -201h-254z" />
<glyph unicode="&#xdb;" horiz-adv-x="1148" d="M63 494v940h371v-965q0 -168 141 -168q142 0 142 168v965h368v-938q0 -139 -38 -240.5t-108 -160t-160.5 -86t-205.5 -27.5q-114 0 -204 27.5t-160 86t-108 159.5t-38 239zM264 1487v2l166 211h287l166 -211v-2h-215l-97 76l-96 -76h-211z" />
<glyph unicode="&#xdc;" horiz-adv-x="1148" d="M63 494v940h371v-965q0 -168 141 -168q142 0 142 168v965h368v-938q0 -139 -38 -240.5t-108 -160t-160.5 -86t-205.5 -27.5q-114 0 -204 27.5t-160 86t-108 159.5t-38 239zM283 1487v231h243v-231h-243zM621 1487v231h243v-231h-243z" />
<glyph unicode="&#xdd;" horiz-adv-x="1103" d="M-16 1432v2h387l182 -512l182 512h383v-2l-381 -916v-516h-370v516zM408 1487l139 201h405l-290 -201h-254z" />
<glyph unicode="&#xde;" horiz-adv-x="1044" d="M72 0v1434h368v-187h41q539 0 539 -510q0 -140 -39 -244.5t-110 -167.5t-164.5 -93.5t-210.5 -30.5h-56v-201h-368zM438 500h41q93 0 133.5 54t40.5 171q0 121 -41 170t-133 49h-41v-444z" />
<glyph unicode="&#xdf;" horiz-adv-x="1114" d="M12 766v285h119v14q0 193 112.5 306.5t348.5 113.5q216 0 332 -105t116 -286q0 -229 -186 -351q115 -64 176.5 -159t61.5 -238q0 -178 -97 -268t-260 -90q-113 0 -198 24l16 269q66 -17 102 -17q101 0 101 103q0 68 -51 132.5t-156 116.5v226q80 54 116.5 109t36.5 128 q0 60 -28 92.5t-80 32.5q-123 0 -123 -155v-1049h-340v766h-119z" />
<glyph unicode="&#xe0;" d="M25 324q0 163 84 247q91 91 260 91q70 0 163 -19v39q0 58 -30 87.5t-101 29.5q-113 0 -243 -60l-82 254q187 84 391 84q210 0 307.5 -90t97.5 -276v-527l23 -184h-303l-37 88q-59 -50 -117 -75t-131 -25q-132 0 -207 84t-75 252zM66 1368h393l135 -235h-219zM348 344 q0 -67 26.5 -96t76.5 -29q33 0 81 19v223q-69 6 -77 6q-54 0 -78 -27q-29 -26 -29 -96z" />
<glyph unicode="&#xe1;" d="M25 324q0 163 84 247q91 91 260 91q70 0 163 -19v39q0 58 -30 87.5t-101 29.5q-113 0 -243 -60l-82 254q187 84 391 84q210 0 307.5 -90t97.5 -276v-527l23 -184h-303l-37 88q-59 -50 -117 -75t-131 -25q-132 0 -207 84t-75 252zM344 1133l135 235h391l-309 -235h-217z M348 344q0 -67 26.5 -96t76.5 -29q33 0 81 19v223q-69 6 -77 6q-54 0 -78 -27q-29 -26 -29 -96z" />
<glyph unicode="&#xe2;" d="M25 324q0 163 84 247q91 91 260 91q70 0 163 -19v39q0 58 -30 87.5t-101 29.5q-113 0 -243 -60l-82 254q187 84 391 84q210 0 307.5 -90t97.5 -276v-527l23 -184h-303l-37 88q-59 -50 -117 -75t-131 -25q-132 0 -207 84t-75 252zM164 1133v2l180 237h252l178 -237v-2 h-205l-102 90l-102 -90h-201zM348 344q0 -67 26.5 -96t76.5 -29q33 0 81 19v223q-69 6 -77 6q-54 0 -78 -27q-29 -26 -29 -96z" />
<glyph unicode="&#xe3;" d="M25 324q0 163 84 247q91 91 260 91q70 0 163 -19v39q0 58 -30 87.5t-101 29.5q-113 0 -243 -60l-82 254q187 84 391 84q210 0 307.5 -90t97.5 -276v-527l23 -184h-303l-37 88q-59 -50 -117 -75t-131 -25q-132 0 -207 84t-75 252zM115 1161q43 144 93.5 200t115.5 56 q36 0 68 -10t91 -39q86 -45 125 -45q29 0 48 19t44 77l144 -43q-45 -144 -94.5 -200t-114.5 -56q-36 0 -68.5 10.5t-91.5 38.5q-86 45 -125 45q-29 0 -48 -19t-44 -77zM348 344q0 -67 26.5 -96t76.5 -29q33 0 81 19v223q-69 6 -77 6q-54 0 -78 -27q-29 -26 -29 -96z" />
<glyph unicode="&#xe4;" d="M25 324q0 163 84 247q91 91 260 91q70 0 163 -19v39q0 58 -30 87.5t-101 29.5q-113 0 -243 -60l-82 254q187 84 391 84q210 0 307.5 -90t97.5 -276v-527l23 -184h-303l-37 88q-59 -50 -117 -75t-131 -25q-132 0 -207 84t-75 252zM182 1133v245h244v-245h-244zM348 344 q0 -67 26.5 -96t76.5 -29q33 0 81 19v223q-69 6 -77 6q-54 0 -78 -27q-29 -26 -29 -96zM512 1133v245h244v-245h-244z" />
<glyph unicode="&#xe5;" d="M25 324q0 163 84 247q91 91 260 91q70 0 163 -19v39q0 58 -30 87.5t-101 29.5q-113 0 -243 -60l-82 254q187 84 391 84q210 0 307.5 -90t97.5 -276v-527l23 -184h-303l-37 88q-59 -50 -117 -75t-131 -25q-132 0 -207 84t-75 252zM256 1329q0 89 61 148t152 59 q92 0 152.5 -59t60.5 -148q0 -88 -60.5 -147.5t-152.5 -59.5q-91 0 -152 59.5t-61 147.5zM348 344q0 -67 26.5 -96t76.5 -29q33 0 81 19v223q-69 6 -77 6q-54 0 -78 -27q-29 -26 -29 -96zM352 1329q0 -54 33 -88.5t84 -34.5t84 34.5t33 88.5t-33 89.5t-84 35.5t-84 -35.5 t-33 -89.5z" />
<glyph unicode="&#xe6;" horiz-adv-x="1413" d="M25 324q0 163 84 247q91 91 260 91q70 0 163 -19v39q0 58 -30 87.5t-101 29.5q-113 0 -243 -60l-82 254q187 84 385 84q196 0 268 -94q95 100 256 100q85 0 157.5 -35t128 -103t87 -177t31.5 -248v-114h-541q9 -87 61 -123.5t142 -36.5q114 0 231 57l76 -242 q-157 -77 -348 -77q-211 0 -330 102q-164 -98 -320 -98q-155 0 -245 83t-90 253zM348 344q0 -59 28.5 -88t76.5 -29q51 0 112 35q-31 86 -37 199q-69 6 -73 6q-54 0 -78 -27q-29 -26 -29 -96zM848 612h221q-6 207 -108 207q-104 0 -113 -207z" />
<glyph unicode="&#xe7;" horiz-adv-x="774" d="M27 530q0 258 127 404.5t356 146.5q116 0 240 -43l-50 -301q-91 37 -163 37q-90 0 -136.5 -65t-46.5 -174q0 -246 187 -246q70 0 166 39l47 -291q-99 -42 -215 -51l-29 -45q133 -14 133 -107q0 -160 -319 -176l-13 100q86 7 117 18t31 31q0 19 -19 24.5t-57 -5.5l-47 53 l67 111q-180 27 -278 165t-98 375z" />
<glyph unicode="&#xe8;" horiz-adv-x="913" d="M29 528q0 138 33 245.5t92 174t136.5 101t168.5 34.5q194 0 312 -143.5t118 -419.5v-114h-539q13 -160 201 -160q114 0 231 57l76 -242q-157 -77 -346 -77q-483 0 -483 544zM57 1368h394l135 -235h-219zM350 612h219q-6 207 -108 207q-105 0 -111 -207z" />
<glyph unicode="&#xe9;" horiz-adv-x="913" d="M29 528q0 138 33 245.5t92 174t136.5 101t168.5 34.5q194 0 312 -143.5t118 -419.5v-114h-539q13 -160 201 -160q114 0 231 57l76 -242q-157 -77 -346 -77q-483 0 -483 544zM336 1133l135 235h391l-309 -235h-217zM350 612h219q-6 207 -108 207q-105 0 -111 -207z" />
<glyph unicode="&#xea;" horiz-adv-x="913" d="M29 528q0 138 33 245.5t92 174t136.5 101t168.5 34.5q194 0 312 -143.5t118 -419.5v-114h-539q13 -160 201 -160q114 0 231 57l76 -242q-157 -77 -346 -77q-483 0 -483 544zM156 1133v2l180 237h252l178 -237v-2h-205l-102 90l-103 -90h-200zM350 612h219 q-6 207 -108 207q-105 0 -111 -207z" />
<glyph unicode="&#xeb;" horiz-adv-x="913" d="M29 528q0 138 33 245.5t92 174t136.5 101t168.5 34.5q194 0 312 -143.5t118 -419.5v-114h-539q13 -160 201 -160q114 0 231 57l76 -242q-157 -77 -346 -77q-483 0 -483 544zM174 1133v245h244v-245h-244zM350 612h219q-6 207 -108 207q-105 0 -111 -207zM504 1133v245 h244v-245h-244z" />
<glyph unicode="&#xec;" horiz-adv-x="473" d="M-168 1364h393l135 -236h-219zM63 0v1063h347v-1063h-347z" />
<glyph unicode="&#xed;" horiz-adv-x="473" d="M63 0v1063h347v-1063h-347zM113 1128l135 236h391l-309 -236h-217z" />
<glyph unicode="&#xee;" horiz-adv-x="473" d="M-70 1128v2l181 238h251l179 -238v-2h-205l-103 91l-102 -91h-201zM63 0v1063h347v-1063h-347z" />
<glyph unicode="&#xef;" horiz-adv-x="473" d="M-51 1128v246h244v-246h-244zM63 0v1063h347v-1063h-347zM279 1128v246h243v-246h-243z" />
<glyph unicode="&#xf0;" horiz-adv-x="937" d="M27 496q0 221 96.5 350t267.5 129q74 0 156 -29q-23 83 -84 144l-45 -50h-252l143 154q-23 12 -71 33.5t-60 27.5l162 236q108 -41 170 -76l53 62h273l-168 -172q122 -109 176.5 -274t54.5 -415q0 -316 -112.5 -476t-329.5 -160q-194 0 -312 133.5t-118 382.5zM352 487 q0 -219 109 -219q59 0 89 65t30 226q0 86 -2 125q-54 23 -99 23q-127 0 -127 -220z" />
<glyph unicode="&#xf1;" horiz-adv-x="980" d="M61 0v1063h281l45 -94q129 106 262 106q134 0 205.5 -78.5t71.5 -226.5v-770h-346v682q0 92 -78 92q-46 0 -94 -33v-741h-347zM139 1161q43 144 93.5 200t115.5 56q36 0 68.5 -10.5t91.5 -38.5q86 -45 125 -45q29 0 48 19t44 77l143 -43q-45 -144 -94.5 -200t-114.5 -56 q-36 0 -68 10t-91 39q-86 45 -125 45q-29 0 -48 -19t-44 -77z" />
<glyph unicode="&#xf2;" horiz-adv-x="944" d="M29 528q0 137 35 245t96 174.5t140.5 101t172.5 34.5t172.5 -34.5t141 -100.5t96.5 -173t35 -243q0 -137 -35 -244t-97 -173.5t-141.5 -100.5t-171.5 -34q-94 0 -173.5 34t-140.5 100t-95.5 172.5t-34.5 241.5zM70 1368h393l135 -235h-219zM352 532q0 -258 123 -258 q119 0 119 254q0 263 -123 263q-119 0 -119 -259z" />
<glyph unicode="&#xf3;" horiz-adv-x="944" d="M29 528q0 137 35 245t96 174.5t140.5 101t172.5 34.5t172.5 -34.5t141 -100.5t96.5 -173t35 -243q0 -137 -35 -244t-97 -173.5t-141.5 -100.5t-171.5 -34q-94 0 -173.5 34t-140.5 100t-95.5 172.5t-34.5 241.5zM348 1133l135 235h391l-309 -235h-217zM352 532 q0 -258 123 -258q119 0 119 254q0 263 -123 263q-119 0 -119 -259z" />
<glyph unicode="&#xf4;" horiz-adv-x="944" d="M29 528q0 137 35 245t96 174.5t140.5 101t172.5 34.5t172.5 -34.5t141 -100.5t96.5 -173t35 -243q0 -137 -35 -244t-97 -173.5t-141.5 -100.5t-171.5 -34q-94 0 -173.5 34t-140.5 100t-95.5 172.5t-34.5 241.5zM168 1133v2l180 237h252l178 -237v-2h-205l-102 90 l-102 -90h-201zM352 532q0 -258 123 -258q119 0 119 254q0 263 -123 263q-119 0 -119 -259z" />
<glyph unicode="&#xf5;" horiz-adv-x="944" d="M29 528q0 137 35 245t96 174.5t140.5 101t172.5 34.5t172.5 -34.5t141 -100.5t96.5 -173t35 -243q0 -137 -35 -244t-97 -173.5t-141.5 -100.5t-171.5 -34q-94 0 -173.5 34t-140.5 100t-95.5 172.5t-34.5 241.5zM119 1161q43 144 93.5 200t115.5 56q36 0 68 -10t91 -39 q86 -45 125 -45q29 0 48.5 19t44.5 77l143 -43q-45 -144 -94.5 -200t-114.5 -56q-36 0 -68.5 10.5t-91.5 38.5q-86 45 -125 45q-29 0 -48 -19t-44 -77zM352 532q0 -258 123 -258q119 0 119 254q0 263 -123 263q-119 0 -119 -259z" />
<glyph unicode="&#xf6;" horiz-adv-x="944" d="M29 528q0 137 35 245t96 174.5t140.5 101t172.5 34.5t172.5 -34.5t141 -100.5t96.5 -173t35 -243q0 -137 -35 -244t-97 -173.5t-141.5 -100.5t-171.5 -34q-94 0 -173.5 34t-140.5 100t-95.5 172.5t-34.5 241.5zM186 1133v245h244v-245h-244zM352 532q0 -258 123 -258 q119 0 119 254q0 263 -123 263q-119 0 -119 -259zM516 1133v245h244v-245h-244z" />
<glyph unicode="&#xf7;" d="M57 594v266l408 -6l407 6v-266l-407 4zM322 240v260h286v-260h-286zM322 952v260h286v-260h-286z" />
<glyph unicode="&#xf8;" horiz-adv-x="944" d="M29 528q0 137 35 245t96 174.5t140.5 101t172.5 34.5q95 0 184 -39l58 111h190l-114 -213q127 -147 127 -410q0 -137 -35 -244t-97 -173.5t-141.5 -100.5t-171.5 -34q-102 0 -186 38l-58 -112h-188l113 215q-125 144 -125 407zM348 532q0 -60 6 -106l170 350 q-24 17 -53 17q-123 0 -123 -261zM416 287q23 -17 59 -17q121 0 121 258q0 62 -6 109z" />
<glyph unicode="&#xf9;" horiz-adv-x="980" d="M57 295v768h344v-684q0 -90 80 -90q44 0 92 33v741h347v-1063h-281l-45 94q-64 -51 -124.5 -78.5t-137.5 -27.5q-134 0 -204.5 79t-70.5 228zM84 1364h393l135 -236h-219z" />
<glyph unicode="&#xfa;" horiz-adv-x="980" d="M57 295v768h344v-684q0 -90 80 -90q44 0 92 33v741h347v-1063h-281l-45 94q-64 -51 -124.5 -78.5t-137.5 -27.5q-134 0 -204.5 79t-70.5 228zM365 1128l135 236h391l-309 -236h-217z" />
<glyph unicode="&#xfb;" horiz-adv-x="980" d="M57 295v768h344v-684q0 -90 80 -90q44 0 92 33v741h347v-1063h-281l-45 94q-64 -51 -124.5 -78.5t-137.5 -27.5q-134 0 -204.5 79t-70.5 228zM182 1128v2l180 238h252l179 -238v-2h-205l-103 91l-102 -91h-201z" />
<glyph unicode="&#xfc;" horiz-adv-x="980" d="M57 295v768h344v-684q0 -90 80 -90q44 0 92 33v741h347v-1063h-281l-45 94q-64 -51 -124.5 -78.5t-137.5 -27.5q-134 0 -204.5 79t-70.5 228zM201 1128v246h243v-246h-243zM530 1128v246h244v-246h-244z" />
<glyph unicode="&#xfd;" d="M-2 1063h346l133 -664l121 664h336l-217 -852q-35 -132 -73 -211.5t-106.5 -141t-161 -98.5t-247.5 -75l-84 278q139 38 227 94zM342 1128l135 236h391l-309 -236h-217z" />
<glyph unicode="&#xfe;" horiz-adv-x="980" d="M61 -313v1790h347v-484q85 82 204 82q156 0 247 -135t91 -408q0 -271 -99 -407.5t-267 -136.5q-90 0 -176 39v-340h-347zM408 293q38 -23 81 -23q68 0 100 60.5t32 201.5q0 142 -31 202.5t-98 60.5q-43 0 -84 -29v-473z" />
<glyph unicode="&#xff;" d="M-2 1063h346l133 -664l121 664h336l-217 -852q-35 -132 -73 -211.5t-106.5 -141t-161 -98.5t-247.5 -75l-84 278q139 38 227 94zM180 1128v246h244v-246h-244zM510 1128v246h244v-246h-244z" />
<glyph unicode="&#x152;" horiz-adv-x="1636" d="M35 715q0 189 50 329.5t142.5 224.5t213.5 124.5t272 40.5h864v-322h-496v-217h441v-320h-441v-251h506v-324h-882q-118 0 -217.5 24.5t-184 79.5t-143.5 137t-92 202.5t-33 271.5zM416 719q0 -97 13 -168.5t35.5 -117.5t57.5 -74t74.5 -39t91.5 -11h29v815h-27 q-66 0 -113.5 -18t-85 -62t-56.5 -125t-19 -200z" />
<glyph unicode="&#x153;" horiz-adv-x="1478" d="M29 528q0 137 34 245t94 174.5t137.5 101t168.5 34.5q183 0 291 -129q102 129 282 129q191 0 304.5 -143t113.5 -420v-114h-539q13 -160 201 -160q115 0 232 57l75 -242q-157 -77 -338 -77q-225 0 -333 125q-108 -129 -289 -129q-91 0 -168.5 34t-137.5 100t-94 172.5 t-34 241.5zM352 532q0 -258 123 -258q119 0 119 254q0 263 -123 263q-119 0 -119 -259zM915 612h220q-6 207 -109 207q-105 0 -111 -207z" />
<glyph unicode="&#x178;" horiz-adv-x="1103" d="M-16 1432v2h387l182 -512l182 512h383v-2l-381 -916v-516h-370v516zM260 1487v231h244v-231h-244zM598 1487v231h244v-231h-244z" />
<glyph unicode="&#x2c6;" horiz-adv-x="1024" d="M207 1128v2l180 238h252l178 -238v-2h-205l-102 91l-102 -91h-201z" />
<glyph unicode="&#x2dc;" horiz-adv-x="1024" d="M147 1157q43 144 93.5 200t115.5 56q36 0 68.5 -10.5t91.5 -38.5q86 -45 125 -45q29 0 48 19t44 77l144 -43q-45 -144 -94.5 -200t-114.5 -56q-36 0 -68.5 10.5t-91.5 38.5q-86 45 -125 45q-29 0 -48 -19t-44 -77z" />
<glyph unicode="&#x2000;" horiz-adv-x="884" />
<glyph unicode="&#x2001;" horiz-adv-x="1769" />
<glyph unicode="&#x2002;" horiz-adv-x="884" />
<glyph unicode="&#x2003;" horiz-adv-x="1769" />
<glyph unicode="&#x2004;" horiz-adv-x="589" />
<glyph unicode="&#x2005;" horiz-adv-x="442" />
<glyph unicode="&#x2006;" horiz-adv-x="294" />
<glyph unicode="&#x2007;" horiz-adv-x="294" />
<glyph unicode="&#x2008;" horiz-adv-x="221" />
<glyph unicode="&#x2009;" horiz-adv-x="353" />
<glyph unicode="&#x200a;" horiz-adv-x="98" />
<glyph unicode="&#x2010;" horiz-adv-x="610" d="M45 463v315h520v-315h-520z" />
<glyph unicode="&#x2011;" horiz-adv-x="610" d="M45 463v315h520v-315h-520z" />
<glyph unicode="&#x2012;" horiz-adv-x="610" d="M45 463v315h520v-315h-520z" />
<glyph unicode="&#x2013;" horiz-adv-x="864" d="M45 467v307h772v-307h-772z" />
<glyph unicode="&#x2014;" horiz-adv-x="1400" d="M45 467v307h1311v-307h-1311z" />
<glyph unicode="&#x2018;" horiz-adv-x="468" d="M20 1401v33h334q0 -218 23 -345.5t82 -252.5l-142 -93q-65 64 -114 126.5t-93 143t-67 179t-23 209.5z" />
<glyph unicode="&#x2019;" horiz-adv-x="468" d="M10 836q59 125 82 252.5t23 345.5h334v-33q0 -111 -23 -209.5t-67 -179t-93 -143t-114 -126.5z" />
<glyph unicode="&#x201a;" horiz-adv-x="421" d="M-49 -213q58 124 81 252.5t23 347.5h334v-33q0 -112 -23 -210.5t-67 -179t-92.5 -142t-114.5 -125.5z" />
<glyph unicode="&#x201c;" horiz-adv-x="815" d="M20 1393v41h299q0 -215 25 -345.5t86 -265.5l-123 -80q-148 148 -217.5 294.5t-69.5 355.5zM397 1393v41h299q0 -217 24.5 -347.5t84.5 -263.5l-121 -80q-149 147 -218 294t-69 356z" />
<glyph unicode="&#x201d;" horiz-adv-x="815" d="M10 823q60 133 84.5 263.5t24.5 347.5h301v-41q0 -143 -35 -259t-95 -204.5t-159 -186.5zM387 823q60 135 84.5 265.5t24.5 345.5h299v-41q0 -209 -69.5 -355.5t-217.5 -294.5z" />
<glyph unicode="&#x201e;" horiz-adv-x="770" d="M-47 -223q60 131 84 261.5t24 348.5h299v-41q0 -143 -34 -258.5t-93.5 -204t-158.5 -186.5zM328 -223q61 132 85.5 263t24.5 347h299v-41q0 -209 -69 -355t-217 -294z" />
<glyph unicode="&#x2022;" horiz-adv-x="913" d="M125 727q0 137 97.5 234.5t234.5 97.5q136 0 232.5 -97.5t96.5 -234.5t-96.5 -233.5t-232.5 -96.5q-137 0 -234.5 97t-97.5 233z" />
<glyph unicode="&#x2026;" horiz-adv-x="1236" d="M43 0v360h326v-360h-326zM457 0v360h323v-360h-323zM868 0v360h326v-360h-326z" />
<glyph unicode="&#x202f;" horiz-adv-x="353" />
<glyph unicode="&#x2039;" horiz-adv-x="569" d="M49 524v191l367 354l116 -90l-208 -358l208 -359l-116 -90z" />
<glyph unicode="&#x203a;" horiz-adv-x="569" d="M37 260l209 361l-209 358l117 90l368 -354v-189l-368 -354z" />
<glyph unicode="&#x205f;" horiz-adv-x="442" />
<glyph unicode="&#x20ac;" horiz-adv-x="1030" d="M25 459v200h104v56v53h-104v203h127q98 477 612 477q100 0 231 -31l-32 -321q-102 26 -183 26q-99 0 -162 -34.5t-96 -116.5h363v-203h-400v-53v-56h400v-200h-361q61 -148 250 -148q62 0 189 27l32 -322q-118 -30 -233 -30q-511 0 -608 473h-129z" />
<glyph unicode="&#x2122;" horiz-adv-x="948" d="M35 1323v111h346v-111h-113v-336h-121v336h-112zM416 987l18 447h158l61 -258l62 258h157l21 -447h-117l-8 256l-61 -256h-109l-63 256l-9 -256h-110z" />
<glyph unicode="&#x25fc;" horiz-adv-x="1064" d="M0 0v1065h1065v-1065h-1065z" />
<glyph unicode="&#xfb01;" horiz-adv-x="1136" d="M12 766v285h113v71q0 180 87 271.5t273 91.5q91 0 181 -17v-270q-61 14 -101 14q-102 0 -102 -104v-57h194v-285h-192v-766h-340v766h-113zM723 1145v258h356v-258h-356zM729 0v1063h344v-1063h-344z" />
<glyph unicode="&#xfb02;" horiz-adv-x="1136" d="M12 766v285h113v71q0 180 87 271.5t273 91.5q91 0 181 -17v-270q-61 14 -101 14q-102 0 -102 -104v-57h194v-285h-192v-766h-340v766h-113zM729 0v1477h344v-1477h-344z" />
</font>
</defs>
</svg>
