<?xml version="1.0" standalone="no"?>
<!DOCTYPE svg PUBLIC "-//W3C//DTD SVG 1.1//EN" "http://www.w3.org/Graphics/SVG/1.1/DTD/svg11.dtd" >
<svg>
<metadata>
Created by FontForge 20090914 at Fri Dec 19 16:21:32 2014
 By www-data
Font software Copyright 1993, 1994, 2001 Adobe Systems Incorporated. Typeface designs Copyright 2005 International Typeface Corporation. All rights reserved.
</metadata>
<defs>
<font id="ITCAvantGardePro-Bold" horiz-adv-x="986" >
  <font-face 
    font-family="ITC Avant Garde Pro Md"
    font-weight="700"
    font-stretch="normal"
    units-per-em="1000"
    panose-1="2 0 5 3 5 0 0 2 0 4"
    ascent="740"
    descent="-260"
    x-height="555"
    cap-height="740"
    bbox="-118 -280.007 1413 1037"
    underline-thickness="50"
    underline-position="-50"
    unicode-range="U+0020-U+FB04"
  />
<missing-glyph horiz-adv-x="500" 
d="M12 0v665h475v-665h-475zM88 618l162 -243l161 243h-323zM60 575v-484l40 61l80 120l41 61zM440 575l-162 -242l162 -243v485zM411 48l-161 242l-162 -242h323z" />
    <glyph glyph-name="f_t" unicode="ft" horiz-adv-x="633" 
d="M621 429l-80 0.000976562v-429h-166v429h-143v-429h-166v429h-62v126h62v15c0 113.333 70.667 170 212 170h25v-125h-19c-7.33301 0 -14.333 -0.833008 -21 -2.5s-13.5 -6.83398 -20.5 -15.501s-10.5 -20 -10.5 -34v-8h143v185h166v-185h80v-126z" />
    <glyph glyph-name="f_f_t" unicode="fft" horiz-adv-x="942" 
d="M930 429l-79.999 0.00195312v-429h-166v429h-143v-429h-166v429h-143v-429h-166v429h-62v126h62v15c0 113.333 70.667 170 212 170h24v-125h-19c-6.66699 0 -13.334 -0.833008 -20.001 -2.5s-13.5 -6.83398 -20.5 -15.501s-10.5 -20 -10.5 -34v-8h143v15
c0 113.333 70.667 170 212 170h25v-125h-19c-7.33301 0 -14.333 -0.833008 -21 -2.5s-13.5 -6.83398 -20.5 -15.501s-10.5 -20 -10.5 -34v-8h143v185h166v-185h80v-126z" />
    <glyph glyph-name="f_f" unicode="ff" horiz-adv-x="624" 
d="M612 615l-18.999 0.00195312c-7.33301 0 -14.333 -0.833008 -21 -2.5s-13.5 -6.83398 -20.5 -15.501s-10.5 -20 -10.5 -34v-8h70v-126h-70v-429h-166v429h-143v-429h-166v429h-62v126h62v15c0 113.333 70.667 170 212 170h24v-125h-19
c-6.66699 0 -13.334 -0.833008 -20.001 -2.5s-13.5 -6.83398 -20.5 -15.501s-10.5 -20 -10.5 -34v-8h143v15c0 113.333 70.667 170 212 170h25v-125z" />
    <glyph glyph-name="f_i" unicode="fi" horiz-adv-x="601" 
d="M541 614h-166v126h166v-126zM541 0h-166v429h-143v-429h-166v429h-62v126h62v29c0 113.333 70.667 170 212 170h25v-125c-30 0 -49.333 -4.5 -58 -13.5s-13 -29.167 -13 -60.5h309v-555z" />
    <glyph glyph-name="f_l" unicode="fl" horiz-adv-x="601" 
d="M541 0h-166v429h-143v-429h-166v429h-62v126h62v29c0 113.333 70.667 170 212 170h25v-125c-30 0 -49.333 -4.5 -58 -13.5s-13 -29.167 -13 -60.5h143v185h166v-740z" />
    <glyph glyph-name="f_f_i" unicode="ffi" horiz-adv-x="910" 
d="M850 615h-166v125h166v-125zM850 0l-165.999 0.00195312v429h-143v-429h-166v429h-143v-429h-166v429h-62v126h62v15c0 113.333 70.667 170 212 170h24v-125h-19c-6.66699 0 -13.334 -0.833008 -20.001 -2.5s-13.5 -6.83398 -20.5 -15.501s-10.5 -20 -10.5 -34v-8h143v15
c0 113.333 70.667 170 212 170h25v-125h-19c-7.33301 0 -14.333 -0.833008 -21 -2.5s-13.5 -6.83398 -20.5 -15.501s-10.5 -20 -10.5 -34v-8h309v-555z" />
    <glyph glyph-name="f_f_l" unicode="ffl" horiz-adv-x="910" 
d="M850 0l-165.999 0.00195312v429h-143v-429h-166v429h-143v-429h-166v429h-62v126h62v15c0 113.333 70.667 170 212 170h24v-125h-19c-6.66699 0 -13.334 -0.833008 -20.001 -2.5s-13.5 -6.83398 -20.5 -15.501s-10.5 -20 -10.5 -34v-8h143v15
c0 113.333 70.667 170 212 170h25v-125h-19c-7.33301 0 -14.333 -0.833008 -21 -2.5s-13.5 -6.83398 -20.5 -15.501s-10.5 -20 -10.5 -34v-8h143v185h166v-740z" />
    <glyph glyph-name=".notdef" horiz-adv-x="500" 
d="M12 0v665h475v-665h-475zM88 618l162 -243l161 243h-323zM60 575v-484l40 61l80 120l41 61zM440 575l-162 -242l162 -243v485zM411 48l-161 242l-162 -242h323z" />
    <glyph glyph-name="space" unicode=" " horiz-adv-x="309" 
 />
    <glyph glyph-name="exclam" unicode="!" horiz-adv-x="333" 
d="M252 244h-171v496h171v-496zM252 0h-171v170h171v-170z" />
    <glyph glyph-name="quotedbl" unicode="&#x22;" horiz-adv-x="463" 
d="M429 740l-34 -297h-107l-33 297h174zM208 740l-34 -297h-107l-33 297h174z" />
    <glyph glyph-name="numbersign" unicode="#" horiz-adv-x="618" 
d="M588 514l-15 -111h-112l-10 -73h111l-15 -111h-112l-24 -174h-113l24 174h-78l-24 -174h-114l24 174h-99l15 111h100l10 73h-100l15 111h100l22 158h114l-22 -158h78l22 158h114l-22 -158h111zM348 403h-78l-10 -73h78z" />
    <glyph glyph-name="dollar" unicode="$" 
d="M538 232c0 -48 -14.5029 -90.002 -43.5029 -126.002s-66.833 -61.667 -113.5 -77v-105h-135v101c-54 11.333 -94.667 34 -122 68c-29.333 36 -44 79.667 -44 131h171c1.33301 -20 6.83301 -36.833 16.5 -50.5s23.834 -20.5 42.501 -20.5c16 0 29.5 5.83301 40.5 17.5
s16.5 25.5 16.5 41.5c0 18.667 -7 34.834 -21 48.501s-31.333 24.334 -52 32.001s-43.167 17 -67.5 28s-46.833 23 -67.5 36s-38 32.5 -52 58.5s-21 57 -21 93c0 51.333 14.167 94.333 42.5 129s67.5 59 117.5 73v101h135v-101c44 -10 78.333 -31.833 103 -65.5
s36.667 -73.5 36 -119.5v-5h-155c-2.66699 42 -21 63 -55 63c-16 0 -29 -5.33301 -39 -16s-15 -24 -15 -40c0 -10 2.5 -19.333 7.5 -28s10.5 -16 16.5 -22s15 -12.167 27 -18.5s21.333 -10.833 28 -13.5s16.834 -6.5 30.501 -11.5s22.167 -8.16699 25.5 -9.5
c44.667 -17.333 80.334 -42.333 107.001 -75s40 -71.667 40 -117z" />
    <glyph glyph-name="percent" unicode="%" horiz-adv-x="858" 
d="M822 166c0 -49.333 -17.668 -91.833 -53.001 -127.5s-77.666 -53.5 -126.999 -53.5c-50 0 -92.667 17.667 -128 53s-53 78 -53 128s17.667 92.667 53 128s78 53 128 53s92.5 -17.667 127.5 -53s52.5 -78 52.5 -128zM637.999 740l-307 -740h-115l306 740h116zM395.999 574
c0 -49.333 -17.6689 -91.666 -53.002 -126.999s-77.666 -53 -126.999 -53s-91.666 17.667 -126.999 53s-53 77.666 -53 126.999c0 50 17.5 92.667 52.5 128s77.5 53 127.5 53s92.5 -17.667 127.5 -53s52.5 -78 52.5 -128zM710.997 166
c0 19.333 -6.66895 35.833 -20.002 49.5s-29.666 20.5 -48.999 20.5s-35.833 -6.83301 -49.5 -20.5s-20.5 -30.167 -20.5 -49.5c0 -18.667 7 -35 21 -49s30.333 -21 49 -21s34.834 6.83301 48.501 20.5s20.5 30.167 20.5 49.5zM284.995 575
c0 19.333 -6.83496 35.668 -20.502 49.001s-29.834 20 -48.501 20c-19.333 0 -35.666 -6.83301 -48.999 -20.5s-20 -30.167 -20 -49.5c0 -18.667 6.83301 -34.834 20.5 -48.501s29.834 -20.5 48.501 -20.5s34.834 6.83301 48.501 20.5s20.5 30.167 20.5 49.5z" />
    <glyph glyph-name="ampersand" unicode="&#x26;" horiz-adv-x="758" 
d="M729 435l-57 -137c-16 -38 -34.667 -70.667 -56 -98l101 -104l-113 -111l-87 90c-69.333 -60 -143 -90 -221 -90c-65.333 0 -122.833 20 -172.5 60s-74.5 91.667 -74.5 155c0 44.667 11.833 82.167 35.5 112.5s57.5 60.5 101.5 90.5c-46.667 48 -70 101.333 -70 160
c0 55.333 20.167 101 60.5 137s88.5 54 144.5 54c54 0 99.833 -17.167 137.5 -51.5s56.5 -77.833 56.5 -130.5c0 -66 -34 -122.667 -102 -170l87 -88l54 121h175zM365 573c0 13.333 -3.83398 24.5 -11.501 33.5s-18.167 13.5 -31.5 13.5s-24.166 -4.66699 -32.499 -14
s-12.5 -21 -12.5 -35c0 -24 14 -50.667 42 -80c30.667 30.667 46 58 46 82zM405.999 184l-118 119c-12 -9.33301 -21.333 -17.333 -28 -24s-13.167 -15.667 -19.5 -27s-9.5 -23 -9.5 -35c0 -22.667 8.33301 -40.5 25 -53.5s36.667 -19.5 60 -19.5
c37.333 0 67.333 13.333 90 40z" />
    <glyph glyph-name="quotesingle" unicode="'" horiz-adv-x="242" 
d="M208 740l-34 -297h-107l-33 297h174z" />
    <glyph glyph-name="parenleft" unicode="(" horiz-adv-x="473" 
d="M430 -264c-111.333 42 -200 108.171 -266 198.504s-99 193.833 -99 310.5c0 117.333 33 221 99 311s154.667 156 266 198v-174c-55.333 -30.667 -99.166 -77.834 -131.499 -141.501s-48.5 -128.834 -48.5 -195.501s16.167 -131.334 48.5 -194.001
s76.166 -109.334 131.499 -140.001v-173z" />
    <glyph glyph-name="parenright" unicode=")" horiz-adv-x="473" 
d="M408 244c0 -116.667 -33 -220.173 -99 -310.506s-154.667 -156.166 -266 -197.499v173c55.333 30.667 99.166 77.834 131.499 141.501s48.5 128.834 48.5 195.501s-16.167 131.334 -48.5 194.001s-76.166 109.334 -131.499 140.001v174
c111.333 -42 200 -108.167 266 -198.5s99 -194.166 99 -311.499z" />
    <glyph glyph-name="asterisk" unicode="*" horiz-adv-x="670" 
d="M555 539l-131 -41l83 -110l-93 -70l-82 115l-79 -115l-93 70l86 110l-131 41l36 109l128 -48l-3 140h119l-7 -140l129 48z" />
    <glyph glyph-name="plus" unicode="+" horiz-adv-x="600" 
d="M552 173h-172v-173h-160v173h-172v160h172v173h160v-173h172v-160z" />
    <glyph glyph-name="comma" unicode="," horiz-adv-x="314" 
d="M244 -40c0 -33.333 -9.00195 -61.835 -27.002 -85.502s-43 -35.5 -75 -35.5h-71v89h13.5h15.5c2.66699 0 7.33398 0.333008 14.001 1s11.334 1.83398 14.001 3.50098l10 6.5c4 2.66699 6.83301 6.33398 8.5 11.001s2.5 10 2.5 16v34h-78v170h173v-210z" />
    <glyph glyph-name="hyphen" unicode="-" horiz-adv-x="281" 
d="M281 207h-281v163h281v-163z" />
    <glyph glyph-name="period" unicode="." horiz-adv-x="314" 
d="M244 0h-173v170h173v-170z" />
    <glyph glyph-name="slash" unicode="/" horiz-adv-x="593" 
d="M521 740l-264 -840h-185l265 840h184z" />
    <glyph glyph-name="zero" unicode="0" horiz-adv-x="618" 
d="M585 267c0 -57.333 -12.499 -108.171 -37.499 -152.504s-62.833 -78.166 -113.5 -101.499c-38 -18 -78.667 -27 -122 -27c-38.667 0 -76.334 7.66699 -113.001 23c-54 22.667 -95.167 56.334 -123.5 101.001s-42.5 97 -42.5 157v206c0 60.667 14.167 113.5 42.5 158.5
s69.833 78.5 124.5 100.5c38 14.667 75.333 22 112 22c38 0 75.667 -8 113 -24c52.667 -23.333 92.5 -57.166 119.5 -101.499s40.5 -96.166 40.5 -155.499v-206zM396.001 261.995v216c0 73.333 -29 110 -87 110c-30 0 -52 -10.5 -66 -31.5s-21 -47.167 -21 -78.5v-216
c0 -32 7 -58.333 21 -79s36 -31 66 -31c58 0 87 36.667 87 110z" />
    <glyph glyph-name="one" unicode="1" horiz-adv-x="618" 
d="M414 0h-189v581h-121v159h310v-740z" />
    <glyph glyph-name="two" unicode="2" horiz-adv-x="618" 
d="M573 0l-522.003 0.000976562v147c50.667 32.667 93.334 62.5 128.001 89.5s67.334 57.167 98.001 90.5c68 74 102 137 102 189c0 21.333 -6.33301 38.666 -19 51.999s-29.667 20 -51 20c-52.667 0 -81 -39 -85 -117h-180c2 71.333 16.667 128 44 170
c24 37.333 56.333 65.5 97 84.5s84.334 28.5 131.001 28.5c50.667 0 97 -10.833 139 -32.5s73.333 -54.167 94 -97.5c12.667 -28.667 19 -57 19 -85c0 -38 -7 -75 -21 -111s-34.833 -71 -62.5 -105s-52.667 -62 -75 -84s-51.5 -48.667 -87.5 -80h251v-159z" />
    <glyph glyph-name="three" unicode="3" horiz-adv-x="618" 
d="M579 218c0 -68 -28.165 -123.667 -84.498 -167s-119.5 -65 -189.5 -65c-45.333 0 -89.5 8.83301 -132.5 26.5s-75.833 43.5 -98.5 77.5c-21.333 32.667 -35 76.334 -41 131.001h191c10 -46 38.667 -69 86 -69c25.333 0 45 7.5 59 22.5s21 35.167 21 60.5
c0 10.667 -1.66699 20.167 -5 28.5s-7.33301 15.166 -12 20.499s-11.334 9.83301 -20.001 13.5s-16.5 6.33398 -23.5 8.00098s-16.167 3 -27.5 4s-20.333 1.5 -27 1.5s-15.834 -0.166992 -27.501 -0.5s-19.5 -0.5 -23.5 -0.5v139c16 0 27.5 0.166992 34.5 0.5
s17.667 1.66602 32 3.99902s24.666 5.83301 30.999 10.5s12.5 12 18.5 22s9 22.333 9 37c0 18 -4.33301 33.333 -13 46s-21.667 19 -39 19c-37.333 0 -56.666 -21.333 -57.999 -64h-186c0.666992 71.333 25 127.5 73 168.5s108 61.5 180 61.5
c62 0 116.167 -18.5 162.5 -55.5s69.5 -85.833 69.5 -146.5c0 -68 -32.667 -119.667 -98 -155c92.667 -31.333 139 -91 139 -179z" />
    <glyph glyph-name="four" unicode="4" horiz-adv-x="618" 
d="M604 130h-82v-130h-181v130h-326v138l331 472h176v-462h82v-148zM353 278v232h-2l-146 -232h148z" />
    <glyph glyph-name="five" unicode="5" horiz-adv-x="618" 
d="M592 254c0 -36 -7.33203 -70.6689 -21.999 -104.002c-23.333 -53.333 -58 -94.166 -104 -122.499s-98.667 -42.5 -158 -42.5c-70 0 -131.333 18.833 -184 56.5s-85.334 89.834 -98.001 156.501h190c22 -30.667 51 -46 87 -46c27.333 0 50.833 9.66699 70.5 29
s29.5 42.333 29.5 69c0 28.667 -9.66699 52 -29 70s-43.333 27 -72 27c-46.667 0 -79 -21.333 -97 -64l-153 38l64 419h409v-159h-264l-16 -101c26.667 14.667 60 22 100 22c52 0 97.833 -12.833 137.5 -38.5s69.5 -62.5 89.5 -110.5c13.333 -32 20 -65 20 -99z" />
    <glyph glyph-name="six" unicode="6" horiz-adv-x="618" 
d="M600 268c0 -81.333 -27.5 -148.667 -82.5 -202s-123.167 -80 -204.5 -80c-84.667 0 -154.5 26.5 -209.5 79.5s-82.5 121.833 -82.5 206.5c0 65.333 22.667 131.333 68 198l184 270h219l-163 -223l2 -2c7.33301 2.66699 19.333 4 36 4c68 0 123.833 -24.5 167.5 -73.5
s65.5 -108.167 65.5 -177.5zM411 251.999c0 29.333 -10 53.5 -30 72.5s-44.667 28.5 -74 28.5c-28 0 -51.667 -9.33301 -71 -28s-29 -42 -29 -70c0 -28.667 9.5 -53 28.5 -73s42.833 -30 71.5 -30s53.167 9.5 73.5 28.5s30.5 42.833 30.5 71.5z" />
    <glyph glyph-name="seven" unicode="7" horiz-adv-x="618" 
d="M547 595l-260 -595h-208l273 581h-287v159h482v-145z" />
    <glyph glyph-name="eight" unicode="8" horiz-adv-x="618" 
d="M579 220c0 -68.667 -27.167 -124.834 -81.5 -168.501s-116.833 -65.5 -187.5 -65.5s-133.5 21.833 -188.5 65.5s-82.5 99.834 -82.5 168.501c0 42 10 79.667 30 113s48.667 58 86 74c-48 36.667 -72 83 -72 139c0 62 22 112.167 66 150.5s97.333 57.5 160 57.5
c62 0 115.167 -19 159.5 -57s66.5 -87.667 66.5 -149c0 -56 -24 -103 -72 -141c38 -16 66.833 -40.5 86.5 -73.5s29.5 -70.833 29.5 -113.5zM377 535c0 18 -6.66699 33.5 -20 46.5s-29 19.5 -47 19.5c-19.333 0 -35.666 -6.66699 -48.999 -20s-20 -29.333 -20 -48
c0 -19.333 6.33301 -35.5 19 -48.5s28.667 -19.5 48 -19.5s35.666 6.83301 48.999 20.5s20 30.167 20 49.5zM390 236c0 23.333 -7.66797 43.333 -23.001 60s-34.666 25 -57.999 25c-24 0 -43.5 -8 -58.5 -24s-22.5 -36 -22.5 -60s8 -44.167 24 -60.5s36 -24.5 60 -24.5
c22 0 40.5 8.5 55.5 25.5s22.5 36.5 22.5 58.5z" />
    <glyph glyph-name="nine" unicode="9" horiz-adv-x="618" 
d="M602 476c0 -67.333 -23.6689 -135.665 -71.002 -204.998l-184 -271h-219l163 224l-2 2c-7.33301 -2.66699 -19.333 -4 -36 -4c-33.333 0 -66 8 -98 24c-43.333 21.333 -76.666 52.166 -99.999 92.499s-35 85.166 -35 134.499c0 81.333 27.5 148.5 82.5 201.5
s123.167 79.5 204.5 79.5c98.667 0 176.334 -32.333 233.001 -97c41.333 -46.667 62 -107 62 -181zM412.998 486.001c0 29.333 -9.83203 53.667 -29.499 73s-43.834 29 -72.501 29c-28 0 -52 -9.5 -72 -28.5s-30 -42.5 -30 -70.5c0 -28.667 9.66699 -52.667 29 -72
s43.666 -29 72.999 -29c28.667 0 52.834 9.16699 72.501 27.5s29.5 41.833 29.5 70.5z" />
    <glyph glyph-name="colon" unicode=":" horiz-adv-x="314" 
d="M244 385h-173v170h173v-170zM244 0h-173v170h173v-170z" />
    <glyph glyph-name="semicolon" unicode=";" horiz-adv-x="314" 
d="M244 385h-173v170h173v-170zM244 -40c0 -33.333 -9.00195 -61.835 -27.002 -85.502s-43 -35.5 -75 -35.5h-71v89h13.5h15.5c2.66699 0 7.33398 0.333008 14.001 1s11.334 1.83398 14.001 3.50098l10 6.5c4 2.66699 6.83301 6.33398 8.5 11.001s2.5 10 2.5 16v34h-78v170
h173v-210z" />
    <glyph glyph-name="less" unicode="&#x3c;" horiz-adv-x="600" 
d="M554 -38l-508 214v154l508 214v-175l-340 -115v-2l340 -115v-175z" />
    <glyph glyph-name="equal" unicode="=" horiz-adv-x="600" 
d="M552 305h-504v160h504v-160zM552 41h-504v160h504v-160z" />
    <glyph glyph-name="greater" unicode="&#x3e;" horiz-adv-x="600" 
d="M554 176l-508 -214v175l340 115v2l-340 115v175l508 -214v-154z" />
    <glyph glyph-name="question" unicode="?" horiz-adv-x="592" 
d="M551 542c0 -30 -6.1709 -57.833 -18.5039 -83.5s-27.666 -47.667 -45.999 -66s-36.5 -35.5 -54.5 -51.5s-34 -33 -48 -51s-21.667 -36.333 -23 -55h-174c0.666992 25.333 6.83398 49.666 18.501 72.999s26 43.5 43 60.5l50.5 49.5c16.667 16 30.834 32.833 42.501 50.5
s17.5 35.167 17.5 52.5c0 41.333 -19.333 62 -58 62c-19.333 0 -34.166 -5 -44.499 -15s-16.833 -21.167 -19.5 -33.5s-4.33398 -28.166 -5.00098 -47.499h-183c-0.666992 4 -1 10 -1 18c0 73.333 25.167 133.166 75.5 179.499s112.833 69.5 187.5 69.5
c46 0 88.333 -10.167 127 -30.5s68.334 -50.166 89.001 -89.499c16 -30 24 -60.667 24 -92zM360.996 0h-174v170h174v-170z" />
    <glyph glyph-name="at" unicode="@" horiz-adv-x="748" 
d="M743 428c0 -37.333 -5.99512 -73.332 -17.9951 -107.999c-14.667 -43.333 -37.834 -81 -69.501 -113s-67.834 -48 -108.501 -48c-48.667 0 -81.334 24 -98.001 72c-28.667 -48 -68.334 -72 -119.001 -72c-46 0 -83.167 17.667 -111.5 53s-42.5 76.666 -42.5 123.999
c0 56.667 18.667 108.167 56 154.5s83.666 69.5 138.999 69.5c22 0 42.167 -5 60.5 -15s31.166 -24.667 38.499 -44h2l8 47h104l-37 -218c-4.66699 -24.667 -7 -41.667 -7 -51c0 -17.333 9 -26 27 -26c17.333 0 32.5 11.333 45.5 34s22.167 44.667 27.5 66
c6 24 9 48.667 9 74c0 71.333 -24.667 128.833 -74 172.5s-110 65.5 -182 65.5c-82.667 0 -152.334 -29.5 -209.001 -88.5s-85 -130.167 -85 -213.5c0 -37.333 6.66699 -74 20 -110c42.667 -118.667 133.667 -178 273 -178c74.667 0 145 12.333 211 37l21 -92
c-67.333 -24 -144.666 -36 -231.999 -36c-86 0 -161.167 19.833 -225.5 59.5s-111.5 98.167 -141.5 175.5c-18.667 48 -28 96.667 -28 146c0 110 37.833 202.667 113.5 278s168.5 113 278.5 113c98.667 0 182.334 -30.5 251.001 -91.5s103 -139.833 103 -236.5z
M450.005 385.001c0 22.667 -5.66797 41.834 -17.001 57.501s-27.666 23.5 -48.999 23.5c-29.333 0 -53.5 -13.333 -72.5 -40s-28.5 -55.334 -28.5 -86.001c0 -24.667 6.5 -45.334 19.5 -62.001s31.5 -25 55.5 -25c30.667 0 53.667 13.833 69 41.5s23 57.834 23 90.501z" />
    <glyph glyph-name="A" unicode="A" horiz-adv-x="758" 
d="M749 0h-205l-36 107h-257l-39 -107h-203l297 740h149zM458 257l-76 253h-1h-2l-76 -253h155z" />
    <glyph glyph-name="B" unicode="B" horiz-adv-x="647" 
d="M612 225c0 -68.667 -22.667 -122.334 -68 -161.001c-24 -20.667 -50.167 -35.834 -78.5 -45.501s-52.333 -15.167 -72 -16.5s-50.167 -2 -91.5 -2h-235v740h228c38.667 0 68.5 -0.833008 89.5 -2.5s45.833 -8.16699 74.5 -19.5s53 -28 73 -50
c29.333 -32 44 -72.667 44 -122c0 -31.333 -7.5 -60.166 -22.5 -86.499s-36.167 -47.166 -63.5 -62.499c81.333 -28 122 -85.333 122 -172zM395 518c0 37.333 -24.667 56 -74 56h-73v-115h72c50 0 75 19.667 75 59zM431 237c0 42.667 -29.333 64 -88 64h-95v-135h94
c59.333 0 89 23.667 89 71z" />
    <glyph glyph-name="C" unicode="C" horiz-adv-x="832" 
d="M801 277c-21.333 -87.333 -66.502 -157.669 -135.502 -211.002s-148.5 -80 -238.5 -80c-108 0 -200 37.167 -276 111.5s-114 165.5 -114 273.5s37.667 198.833 113 272.5s167 110.5 275 110.5c67.333 0 129.333 -15 186 -45s103.334 -73 140.001 -129
c26.667 -40 43.334 -80.333 50.001 -121h-198c-14.667 38.667 -38 69.834 -70 93.501s-68.333 35.5 -109 35.5c-58 0 -105.5 -21.167 -142.5 -63.5s-55.5 -93.166 -55.5 -152.499s18.5 -110.833 55.5 -154.5s84.833 -65.5 143.5 -65.5c40 0 75.333 11.333 106 34
s54.667 53 72 91h198z" />
    <glyph glyph-name="D" unicode="D" horiz-adv-x="742" 
d="M697 372c0 -120.667 -33 -212.833 -99 -276.5s-160 -95.5 -282 -95.5h-259v740h245c75.333 0 138.833 -9.5 190.5 -28.5s97.167 -55.5 136.5 -109.5c45.333 -63.333 68 -140 68 -230zM508 369.001c0 62 -14.832 111.667 -44.499 149s-74.834 56 -135.501 56h-82v-408h81
c62 0 107.667 18 137 54s44 85.667 44 149z" />
    <glyph glyph-name="E" unicode="E" horiz-adv-x="528" 
d="M478 0h-411v740h411v-166h-230v-115h223v-166h-223v-127h230v-166z" />
    <glyph glyph-name="F" unicode="F" horiz-adv-x="506" 
d="M471 574h-223v-126h215v-166h-215v-282h-181v740h404v-166z" />
    <glyph glyph-name="G" unicode="G" horiz-adv-x="854" 
d="M823 382c0 -113.333 -37.501 -207.831 -112.501 -283.498s-169.167 -113.5 -282.5 -113.5c-109.333 0 -202.166 37.333 -278.499 112s-114.5 166.667 -114.5 276s38.5 200.166 115.5 272.499s170.5 108.5 280.5 108.5c82 0 158.667 -24.333 230 -73
s118 -111.667 140 -189h-212c-36 64 -90.333 96 -163 96c-59.333 0 -107.833 -20.833 -145.5 -62.5s-56.5 -92.5 -56.5 -152.5c0 -62.667 18.5 -115.334 55.5 -158.001s86.167 -64 147.5 -64c42.667 0 80 10 112 30s53.667 49.667 65 89h-221v151h439
c0.666992 -8.66699 1 -21.667 1 -39z" />
    <glyph glyph-name="H" unicode="H" horiz-adv-x="754" 
d="M687 0h-189v296h-242v-296h-189v740h189v-278h242v278h189v-740z" />
    <glyph glyph-name="I" unicode="I" horiz-adv-x="323" 
d="M256 0h-189v740h189v-740z" />
    <glyph glyph-name="J" unicode="J" horiz-adv-x="578" 
d="M510 293c0 -32 -0.5 -57.167 -1.5 -75.5s-5.16699 -40.833 -12.5 -67.5s-18 -49 -32 -67c-24.667 -30.667 -55.667 -54.5 -93 -71.5s-76 -25.5 -116 -25.5c-35.333 0 -68.666 6 -99.999 18c-99.333 36 -149 114 -149 234h201c3.33301 -57.333 22.333 -86 57 -86
c12.667 0 23.167 2.66699 31.5 8s14.166 13.333 17.499 24s5.5 20.5 6.5 29.5s1.5 19.833 1.5 32.5v494h189v-447z" />
    <glyph glyph-name="K" unicode="K" horiz-adv-x="707" 
d="M701 0h-221l-202 320h-2v-320h-189v740h189v-333h2l209 333h198l-245 -369z" />
    <glyph glyph-name="L" unicode="L" horiz-adv-x="487" 
d="M480 0h-408v740h189v-574h219v-166z" />
    <glyph glyph-name="M" unicode="M" horiz-adv-x="915" 
d="M848 0h-174l6 554l-2 2l-158 -556h-125l-158 556l-2 -2l6 -554h-174v740h243l147 -487h2l145 487h244v-740z" />
    <glyph glyph-name="N" unicode="N" horiz-adv-x="759" 
d="M691 0h-164l-282 450l-2 -1l5 -449h-181v740h163l286 -465l2 2l-8 463h181v-740z" />
    <glyph glyph-name="O" unicode="O" horiz-adv-x="851" 
d="M816 370c0 -108.667 -37.999 -199.833 -113.999 -273.5s-168.667 -110.5 -278 -110.5c-106 0 -197.333 36.167 -274 108.5s-115 161.166 -115 266.499c0 56 9.66699 108.667 29 158c10 26.667 26 54.334 48 83.001c77.333 101.333 181.666 152 312.999 152
c108.667 0 201 -37 277 -111s114 -165 114 -273zM627.001 369.001c0 59.333 -18.832 110.666 -56.499 153.999s-85.834 65 -144.501 65c-59.333 0 -107.833 -21.167 -145.5 -63.5s-56.5 -93.166 -56.5 -152.499c0 -60.667 19 -112.5 57 -155.5s87 -64.5 147 -64.5
c58 0 105.667 21.5 143 64.5s56 93.833 56 152.5z" />
    <glyph glyph-name="P" unicode="P" horiz-adv-x="636" 
d="M624 490c0 -36 -6.83398 -71.834 -20.501 -107.501s-32.834 -64.5 -57.501 -86.5c-29.333 -26 -60.666 -43.167 -93.999 -51.5s-74 -12.5 -122 -12.5h-82v-232h-181v740h242c32 0 59 -0.833008 81 -2.5s47.333 -6.66699 76 -15s52.334 -20.5 71.001 -36.5
c58 -49.333 87 -114.666 87 -195.999zM442.999 486.999c0 34.667 -11.333 57.833 -34 69.5s-53 17.5 -91 17.5h-70v-176h77c36.667 0 65.5 6.33301 86.5 19s31.5 36 31.5 70z" />
    <glyph glyph-name="Q" unicode="Q" horiz-adv-x="866" 
d="M855 -13c-21.333 -1.33301 -36.999 -2.00098 -46.999 -2.00098c-79.333 0 -137.333 19.333 -174 58c-62 -38.667 -131.333 -58 -208 -58c-107.333 0 -199.333 36.833 -276 110.5s-115 163.834 -115 270.501c0 108.667 37.667 200.5 113 275.5s167.333 112.5 276 112.5
c70 0 135.167 -16.333 195.5 -49s108.666 -78.167 144.999 -136.5s54.5 -122.5 54.5 -192.5c0 -82 -20.333 -153.333 -61 -214c24.667 -22.667 57 -31 97 -25v-150zM630.001 378.999c0 60 -19.333 109.833 -58 149.5s-87.667 59.5 -147 59.5c-54 0 -98.5 -17.5 -133.5 -52.5
s-57.167 -79.833 -66.5 -134.5c40 16.667 75 25 105 25c52 0 101.5 -14.5 148.5 -43.5s89.167 -66.5 126.5 -112.5c16.667 28.667 25 65 25 109zM510.001 169.999c-32 38.667 -63 68 -93 88s-65.667 30 -107 30c-21.333 0 -43.333 -4 -66 -12
c15.333 -36 39.5 -65.833 72.5 -89.5s68.833 -35.5 107.5 -35.5c34 0 62.667 6.33301 86 19z" />
    <glyph glyph-name="R" unicode="R" horiz-adv-x="653" 
d="M637 0h-216l-171 239h-2v-239h-181v740h234c33.333 0 60.5 -0.666992 81.5 -2s45.667 -6.16602 74 -14.499s52.5 -20.5 72.5 -36.5c60.667 -48.667 91 -116 91 -202c0 -58.667 -16.5 -109.834 -49.5 -153.501s-77.833 -70.167 -134.5 -79.5zM439 474
c0 34 -11.5 59.167 -34.5 75.5s-52.167 24.5 -87.5 24.5h-69v-206h67c38 0 68.167 8.66699 90.5 26s33.5 44 33.5 80z" />
    <glyph glyph-name="S" unicode="S" horiz-adv-x="573" 
d="M550 213c0 -74.667 -23.832 -131.166 -71.499 -169.499s-109.834 -57.5 -186.501 -57.5c-78 0 -142 20.167 -192 60.5s-75 98.5 -75 174.5v24h188c0 -27.333 6.5 -51 19.5 -71s32.167 -30 57.5 -30c20 0 37 6.83301 51 20.5s21 30.5 21 50.5c0 11.333 -2 21.333 -6 30
s-10.667 16.334 -20 23.001s-17 11.5 -23 14.5s-16 7.5 -30 13.5c-14.667 6.66699 -36.667 16 -66 28c-56.667 23.333 -101 51.166 -133 83.499s-48 75.166 -48 128.499c0 65.333 26.333 118 79 158s112.667 60 180 60c38 0 75.167 -7.16699 111.5 -21.5
s65.833 -35.166 88.5 -62.499c18 -22 30.333 -44 37 -66s10.667 -48.667 12 -80h-187c-3.33301 23.333 -10 41.166 -20 53.499s-26 18.5 -48 18.5c-17.333 0 -32.5 -5.5 -45.5 -16.5s-19.5 -24.833 -19.5 -41.5c0 -13.333 2.33301 -23.666 7 -30.999
c3.33301 -5.33301 9.33301 -11.333 18 -18s19.667 -13.334 33 -20.001l34.5 -17c9.66699 -4.66699 21.667 -10.167 36 -16.5s22.5 -9.83301 24.5 -10.5c56.667 -26 99.667 -54.5 129 -85.5s44 -73.167 44 -126.5z" />
    <glyph glyph-name="T" unicode="T" horiz-adv-x="499" 
d="M490 574h-145v-574h-189v574h-146v166h480v-166z" />
    <glyph glyph-name="U" unicode="U" horiz-adv-x="698" 
d="M633 293c0 -50.667 -5.00098 -93.833 -15.001 -129.5s-29.667 -68.167 -59 -97.5c-52.667 -53.333 -121.667 -80 -207 -80c-92 0 -163 26.333 -213 79c-31.333 32.667 -51.5 65.5 -60.5 98.5s-13.5 76.167 -13.5 129.5v447h189v-447c0 -42 6.5 -76 19.5 -102
s38.5 -39 76.5 -39c17.333 0 32 2.83301 44 8.5s21.167 12.5 27.5 20.5s11.333 18.833 15 32.5s5.83398 26.167 6.50098 37.5s1 25.333 1 42v447h189v-447z" />
    <glyph glyph-name="V" unicode="V" horiz-adv-x="722" 
d="M706 740l-248 -740h-195l-247 740h194l149 -519h2l150 519h195z" />
    <glyph glyph-name="W" unicode="W" horiz-adv-x="981" 
d="M964 740l-196 -740h-166l-111 479h-2l-111 -479h-171l-191 740h192l99 -481h2l109 481h145l107 -483h2l101 483h191z" />
    <glyph glyph-name="X" unicode="X" horiz-adv-x="759" 
d="M748 0h-214l-160 262l-152 -262h-211l259 394l-229 346h214l127 -211l123 211h213l-226 -350z" />
    <glyph glyph-name="Y" unicode="Y" horiz-adv-x="647" 
d="M638 740l-219 -471v-269h-189v269l-221 471h205l110 -297l111 297h203z" />
    <glyph glyph-name="Z" unicode="Z" horiz-adv-x="499" 
d="M483 0h-467v124l255 450h-255v166h467v-153l-236 -421h236v-166z" />
    <glyph glyph-name="bracketleft" unicode="[" horiz-adv-x="473" 
d="M401 -264c-73.333 4 -135.334 24 -186.001 60c-41.333 29.333 -70.166 65 -86.499 107s-24.5 91.333 -24.5 148v388c0 56.667 8 105.667 24 147s45 77.333 87 108c49.333 36 111.333 56 186 60v-174c-41.333 -2 -69.833 -14.167 -85.5 -36.5s-23.5 -54.833 -23.5 -97.5
v-402c0 -42.667 7.83301 -75.167 23.5 -97.5s44.167 -34.5 85.5 -36.5v-174z" />
    <glyph glyph-name="backslash" unicode="\" horiz-adv-x="593" 
d="M521 -100h-185l-264 840h184z" />
    <glyph glyph-name="bracketright" unicode="]" horiz-adv-x="473" 
d="M369 51c0 -56.667 -7.99902 -105.667 -23.999 -147s-45 -77.333 -87 -108c-49.333 -36 -111.333 -56 -186 -60v174c41.333 2 69.833 14.167 85.5 36.5s23.5 54.833 23.5 97.5v402c0 42.667 -7.83301 75.167 -23.5 97.5s-44.167 34.5 -85.5 36.5v174
c73.333 -4 135.333 -24 186 -60c41.333 -29.333 70.166 -65 86.499 -107s24.5 -91.333 24.5 -148v-388z" />
    <glyph glyph-name="asciicircum" unicode="^" horiz-adv-x="600" 
d="M557 375h-180l-76 223h-2l-77 -223h-179l174 365h166z" />
    <glyph glyph-name="underscore" unicode="_" horiz-adv-x="500" 
d="M500 -125h-500v50h500v-50z" />
    <glyph glyph-name="grave" unicode="`" horiz-adv-x="555" 
d="M404 721l-46 -97l-247 108l51 117z" />
    <glyph glyph-name="a" unicode="a" horiz-adv-x="704" 
d="M643 0l-166.002 -0.000976562v60h-2c-14 -26.667 -36.167 -46.5 -66.5 -59.5s-62.166 -19.5 -95.499 -19.5c-83.333 0 -150.666 28.333 -201.999 85s-77 127.334 -77 212.001c0 82.667 26 152.667 78 210s119 86 201 86c33.333 0 64.833 -6.5 94.5 -19.5
s52.167 -32.5 67.5 -58.5h2v59h166v-555zM476.998 277.999c0 40.667 -13.168 74.333 -39.501 101s-59.833 40 -100.5 40c-40 0 -72.833 -13.833 -98.5 -41.5s-38.5 -61.5 -38.5 -101.5c0 -38.667 13.333 -71.667 40 -99s59.334 -41 98.001 -41c40 0 73.167 13.667 99.5 41
s39.5 61 39.5 101z" />
    <glyph glyph-name="b" unicode="b" horiz-adv-x="693" 
d="M660 281c0 -86 -25.5 -157.499 -76.5 -214.499s-118.833 -85.5 -203.5 -85.5c-31.333 0 -62.333 6.66699 -93 20s-52.667 32.666 -66 57.999h-2v-59h-159v740h166v-229c39.333 42 93 63 161 63c38.667 0 77.667 -9 117 -27c52 -24 91 -59.333 117 -106s39 -100 39 -160z
M494 278.001c0 38.667 -13.001 71.833 -39.001 99.5s-58.333 41.5 -97 41.5c-39.333 0 -72.166 -13.5 -98.499 -40.5s-39.5 -60.167 -39.5 -99.5c0 -40 12.5 -73.833 37.5 -101.5s57.5 -41.5 97.5 -41.5s73.167 13.667 99.5 41s39.5 61 39.5 101z" />
    <glyph glyph-name="c" unicode="c" horiz-adv-x="652" 
d="M621 211c-16 -68 -50.999 -123.167 -104.999 -165.5s-116 -63.5 -186 -63.5c-82.667 0 -152.834 28.667 -210.501 86s-86.5 127.666 -86.5 210.999c0 82 28.333 151.667 85 209s126 86 208 86c72 0 135.333 -21.333 190 -64s89.334 -99 104.001 -169h-168
c-24 52 -65.333 78 -124 78c-38.667 0 -69.667 -13.667 -93 -41s-35 -60.666 -35 -99.999c0 -40 12.167 -73.5 36.5 -100.5s56.166 -40.5 95.499 -40.5c54 0 94 24.667 120 74h169z" />
    <glyph glyph-name="d" unicode="d" horiz-adv-x="698" 
d="M638 0h-157.999v60h-2c-30.667 -52 -86 -78 -166 -78c-83.333 0 -150.5 28.5 -201.5 85.5s-76.5 127.5 -76.5 211.5c0 82.667 25.5 152.5 76.5 209.5s117.167 85.5 198.5 85.5c65.333 0 119.666 -22 162.999 -66v232h166v-740zM481.001 280c0 40 -13.333 73.167 -40 99.5
s-60 39.5 -100 39.5s-73.5 -13.167 -100.5 -39.5s-40.5 -59.5 -40.5 -99.5c0 -41.333 12.833 -75.5 38.5 -102.5s59.167 -40.5 100.5 -40.5s75.333 13.5 102 40.5s40 61.167 40 102.5z" />
    <glyph glyph-name="e" unicode="e" horiz-adv-x="646" 
d="M614 271c0 -16 -1.33203 -30.666 -3.99902 -43.999h-416c4.66699 -32 19.167 -57.5 43.5 -76.5s53.166 -28.5 86.499 -28.5c40 0 73.667 17.333 101 52h170c-24.667 -57.333 -60.834 -103.666 -108.501 -138.999s-101.834 -53 -162.501 -53
c-81.333 0 -150.666 28.667 -207.999 86s-86 126.666 -86 207.999s28.333 151.333 85 210s125.334 88 206.001 88c84 0 153.833 -29.333 209.5 -88s83.5 -130.334 83.5 -215.001zM448.001 339.001c-6.66699 29.333 -21.667 52.5 -45 69.5s-50.333 25.5 -81 25.5
s-57.667 -8.5 -81 -25.5s-38.333 -40.167 -45 -69.5h252z" />
    <glyph glyph-name="f" unicode="f" horiz-adv-x="314" 
d="M302 429h-70v-429h-166v429h-62v126h62v29c0 113.333 70.667 170 212 170h24v-125c-30 0 -49.167 -4.5 -57.5 -13.5s-12.5 -29.167 -12.5 -60.5h70v-126z" />
    <glyph glyph-name="g" unicode="g" horiz-adv-x="693" 
d="M635 67c0 -84 -11 -145 -33 -183c-25.333 -43.333 -64.5 -76 -117.5 -98s-107.5 -33 -163.5 -33c-112 0 -193 36.333 -243 109c-18.667 27.333 -30 56 -34 86h192c16.667 -36.667 49 -55 97 -55c44 0 77.5 13.667 100.5 41s34.5 64 34.5 110v17h-2
c-14 -26 -35 -45.667 -63 -59s-57.667 -20 -89 -20c-82 0 -149.167 28.167 -201.5 84.5s-78.5 125.5 -78.5 207.5c0 83.333 26 154 78 212s119.333 87 202 87c72.667 0 123.667 -23.333 153 -70h2v52h166v-488zM469 275c0 40.667 -12.5 74.667 -37.5 102s-57.5 41 -97.5 41
c-38 0 -69.833 -13.5 -95.5 -40.5s-38.5 -59.5 -38.5 -97.5c0 -39.333 12.333 -73 37 -101s56.667 -42 96 -42c40 0 72.667 13 98 39s38 59 38 99z" />
    <glyph glyph-name="h" unicode="h" horiz-adv-x="632" 
d="M574 0h-166v302c0 77.333 -29.667 116 -89 116c-62 0 -93 -36.667 -93 -110v-308h-166v740h166v-236h2c26 46.667 73.667 70 143 70c66 0 116.333 -20.333 151 -61c16.667 -19.333 29 -41.333 37 -66s12.5 -45.167 13.5 -61.5s1.5 -41.5 1.5 -75.5v-310z" />
    <glyph glyph-name="i" unicode="i" horiz-adv-x="286" 
d="M226 614h-166v126h166v-126zM226 0h-166v555h166v-555z" />
    <glyph glyph-name="j" unicode="j" horiz-adv-x="321" 
d="M253 614h-166v126h166v-126zM253 12c0 -78.667 -14.667 -134.333 -44 -167s-83.333 -49 -162 -49h-41v126h22c25.333 0 41.5 7 48.5 21s10.5 35 10.5 63v549h166v-543z" />
    <glyph glyph-name="k" unicode="k" horiz-adv-x="591" 
d="M585 555l-209 -244l203 -311h-188l-157 267h-2v-267h-166v740h166v-386h2l154 201h197z" />
    <glyph glyph-name="l" unicode="l" horiz-adv-x="286" 
d="M226 0h-166v740h166v-740z" />
    <glyph glyph-name="m" unicode="m" horiz-adv-x="969" 
d="M912 0h-165.999v295c0 38 -5.5 68 -16.5 90s-33.833 33 -68.5 33c-61.333 0 -92 -38.333 -92 -115v-303h-166v302c0 77.333 -27.667 116 -83 116c-62.667 0 -94 -41 -94 -123v-295h-166v555h155v-59h2c29.333 52 80.333 78 153 78c71.333 0 124.666 -33 159.999 -99
c42 66 100.667 99 176 99c60.667 0 109.334 -18.667 146.001 -56c10 -10.667 18.667 -21 26 -31s13.166 -21.833 17.499 -35.5l10 -31.5c2.33301 -7.33301 4 -20.333 5 -39s1.5 -30.5 1.5 -35.5v-42.5v-303z" />
    <glyph glyph-name="n" unicode="n" horiz-adv-x="632" 
d="M574 0l-166 0.000976562v303c0 36.667 -6 65 -18 85s-35 30 -69 30c-36 0 -60.833 -10.167 -74.5 -30.5s-20.5 -48.833 -20.5 -85.5v-302h-166v555h155v-59h2c32 52 82.333 78 151 78c24 0 49.333 -4.33301 76 -13s48.667 -20.334 66 -35.001
c42.667 -35.333 64 -95 64 -179v-347z" />
    <glyph glyph-name="o" unicode="o" horiz-adv-x="666" 
d="M632 278c0 -84.667 -28.5 -155 -85.5 -211s-128.167 -84 -213.5 -84s-156.5 28 -213.5 84s-85.5 126.333 -85.5 211s28.5 155 85.5 211s128.167 84 213.5 84s156.5 -28 213.5 -84s85.5 -126.333 85.5 -211zM466 278c0 38 -12.667 70.833 -38 98.5s-57 41.5 -95 41.5
s-69.667 -13.833 -95 -41.5s-38 -60.5 -38 -98.5s12.667 -70.833 38 -98.5s57 -41.5 95 -41.5s69.667 13.833 95 41.5s38 60.5 38 98.5z" />
    <glyph glyph-name="p" unicode="p" horiz-adv-x="697" 
d="M663 272c0 -80 -25.333 -148.5 -76 -205.5s-115.334 -85.5 -194.001 -85.5c-69.333 0 -125 23 -167 69v-235h-166v740h156v-61h1h2c42.667 53.333 100.334 80 173.001 80c82.667 0 148.5 -29.333 197.5 -88s73.5 -130 73.5 -214zM497 277c0 40 -13.167 73.667 -39.5 101
s-59.5 41 -99.5 41s-73.167 -13.667 -99.5 -41s-39.5 -61 -39.5 -101c0 -39.333 13.333 -72.666 40 -99.999s59.667 -41 99 -41s72.333 13.667 99 41s40 60.666 40 99.999z" />
    <glyph glyph-name="q" unicode="q" horiz-adv-x="698" 
d="M638 -185l-166.001 0.000976562v242h-2c-36 -50 -92 -75 -168 -75c-78.667 0 -143 27.667 -193 83s-75 122.666 -75 201.999c0 86 25.333 158.667 76 218s118.334 89 203.001 89c34 0 66 -6.66699 96 -20s52.667 -33.333 68 -60h2v61h159v-740zM477.999 277.001
c0 40 -13.333 73.667 -40 101s-60 41 -100 41c-40.667 0 -73.834 -14 -99.501 -42s-38.5 -62.333 -38.5 -103c0 -38 13.667 -70.333 41 -97s60.333 -40 99 -40s71.334 13.667 98.001 41s40 60.333 40 99z" />
    <glyph glyph-name="r" unicode="r" horiz-adv-x="363" 
d="M356 407c-42.667 -1.33301 -75.167 -8.83301 -97.5 -22.5s-33.5 -40.167 -33.5 -79.5v-305h-166v555h156v-59h2c26.667 52 73 78 139 78v-167z" />
    <glyph glyph-name="s" unicode="s" horiz-adv-x="499" 
d="M476 170c0 -59.333 -22.334 -105.667 -67.001 -139s-97.667 -50 -159 -50c-60.667 0 -112 16 -154 48s-66 77.333 -72 136h165c2.66699 -16.667 9.5 -29.334 20.5 -38.001s25.167 -13 42.5 -13c14 0 27.167 3.83301 39.5 11.5s18.5 18.167 18.5 31.5
c0 5.33301 -0.833008 10.333 -2.5 15s-4.16699 9 -7.5 13s-6.5 7.33301 -9.5 10s-7.5 5.5 -13.5 8.5s-10.5 5.16699 -13.5 6.5s-8 3.33301 -15 6s-11.5 4.33398 -13.5 5.00098c-32 10.667 -56 19 -72 25c-88 32 -132 80.333 -132 145c0 55.333 21.5 99.666 64.5 132.999
s93.167 50 150.5 50c58 0 106.667 -15 146 -45s61.666 -73.333 66.999 -130h-163c-0.666992 28 -18 42 -52 42c-12 0 -22.833 -3.33301 -32.5 -10s-14.5 -15.667 -14.5 -27c0 -13.333 6.83301 -24.666 20.5 -33.999s30.834 -16.5 51.501 -21.5s43.167 -11.833 67.5 -20.5
s46.833 -18.5 67.5 -29.5s37.834 -27.5 51.501 -49.5s20.5 -48.333 20.5 -79z" />
    <glyph glyph-name="t" unicode="t" horiz-adv-x="351" 
d="M339 429h-80v-429h-166v429h-82v126h82v185h166v-185h80v-126z" />
    <glyph glyph-name="u" unicode="u" horiz-adv-x="634" 
d="M574 0l-157 -0.000976562v59h-2c-24.667 -51.333 -72.667 -77 -144 -77c-70.667 0 -125 23.333 -163 70c-20.667 26 -34.167 51.333 -40.5 76s-9.5 56.334 -9.5 95.001v332h166v-307c0 -36 6.16699 -63.5 18.5 -82.5s35.833 -28.5 70.5 -28.5c63.333 0 95 37.667 95 113
v305h166v-555z" />
    <glyph glyph-name="v" unicode="v" horiz-adv-x="592" 
d="M575 555l-200 -555h-159l-199 555h172l106 -346h2l106 346h172z" />
    <glyph glyph-name="w" unicode="w" horiz-adv-x="850" 
d="M843 555l-170 -555h-154l-93 359h-2l-93 -359h-154l-170 555h172l83 -345h2l91 345h140l92 -345h2l83 345h171z" />
    <glyph glyph-name="x" unicode="x" horiz-adv-x="630" 
d="M628 0h-203l-111 172l-113 -172h-200l211 297l-187 258h199l90 -146l89 146h197l-187 -258z" />
    <glyph glyph-name="y" unicode="y" horiz-adv-x="574" 
d="M573 555l-278 -740h-176l88 213l-206 527h177l111 -322h2l106 322h176z" />
    <glyph glyph-name="z" unicode="z" horiz-adv-x="444" 
d="M428 0h-413v114l234 315h-234v126h413v-126l-217 -303h217v-126z" />
    <glyph glyph-name="braceleft" unicode="{" horiz-adv-x="554" 
d="M483 -264l-128.001 0.00488281c-44 0 -80.5 12.167 -109.5 36.5s-43.5 58.166 -43.5 101.499v212c0 22 -10 37.667 -30 47s-42.333 14 -67 14v172c25.333 0 47.833 5.33301 67.5 16s29.5 27.667 29.5 51v216c0 43.333 14.5 77.166 43.5 101.499s65.5 36.5 109.5 36.5h128
v-126c-4.66699 0 -12.834 0.166992 -24.501 0.5s-19.834 0.333008 -24.501 0s-11.334 -1 -20.001 -2s-14.834 -2.83301 -18.501 -5.5s-8 -6.33398 -13 -11.001s-8.33301 -11 -10 -19s-2.5 -17.333 -2.5 -28v-209c0 -35.333 -9.16699 -61 -27.5 -77
s-45.166 -25.333 -80.499 -28v-4c30 -1.33301 55.5 -9.83301 76.5 -25.5s31.5 -37.834 31.5 -66.501v-212c0 -10.667 0.833008 -20 2.5 -28s5 -14.333 10 -19s9.33301 -8.33398 13 -11.001s9.83398 -4.5 18.501 -5.5s15.334 -1.66699 20.001 -2s12.834 -0.333008 24.501 0
s19.834 0.5 24.501 0.5v-126z" />
    <glyph glyph-name="bar" unicode="|" horiz-adv-x="555" 
d="M369 -100h-183v840h183v-840z" />
    <glyph glyph-name="braceright" unicode="}" horiz-adv-x="554" 
d="M449 147c-24.667 0 -47.001 -4.67188 -67.001 -14.0049s-30 -25 -30 -47v-212c0 -43.333 -14.5 -77.166 -43.5 -101.499s-65.5 -36.5 -109.5 -36.5h-128v126c4.66699 0 12.834 -0.166992 24.501 -0.5s19.834 -0.333008 24.501 0s11.334 1 20.001 2
s14.834 2.83301 18.501 5.5s8 6.33398 13 11.001s8.33301 11 10 19s2.5 17.333 2.5 28v212c0 28.667 10.5 50.834 31.5 66.501s46.5 24.167 76.5 25.5v4c-35.333 2.66699 -62.166 12 -80.499 28s-27.5 41.667 -27.5 77v209c0 10.667 -0.833008 20 -2.5 28s-5 14.333 -10 19
s-9.33301 8.33398 -13 11.001s-9.83398 4.5 -18.501 5.5s-15.334 1.66699 -20.001 2s-12.834 0.333008 -24.501 0s-19.834 -0.5 -24.501 -0.5v126h128c44 0 80.5 -12.167 109.5 -36.5s43.5 -58.166 43.5 -101.499v-216c0 -23.333 9.83301 -40.333 29.5 -51
s42.167 -16 67.5 -16v-172z" />
    <glyph glyph-name="asciitilde" unicode="~" horiz-adv-x="600" 
d="M533 219c-14.667 -19.333 -26.333 -34 -35 -44s-21.5 -19.833 -38.5 -29.5s-34.833 -14.5 -53.5 -14.5c-25.333 0 -59.833 11.333 -103.5 34s-81.5 34 -113.5 34c-32.667 0 -61.334 -23 -86.001 -69l-36 156c32.667 59.333 75 89 127 89
c26.667 0 64.834 -11.333 114.501 -34s82.5 -34 98.5 -34c12.667 0 25.334 4.5 38.001 13.5s21.667 16.833 27 23.5s13.666 17.667 24.999 33z" />
    <glyph glyph-name="uni00A0" unicode="&#xa0;" horiz-adv-x="309" 
 />
    <glyph glyph-name="exclamdown" unicode="&#xa1;" horiz-adv-x="333" 
d="M252 385h-171v170h171v-170zM252 -185h-171v496h171v-496z" />
    <glyph glyph-name="cent" unicode="&#xa2;" horiz-adv-x="618" 
d="M556 325c-8.66699 -46.667 -29.1689 -87.168 -61.502 -121.501s-71.166 -56.833 -116.499 -67.5v-105h-137v105c-54 18.667 -97.333 49 -130 91s-49 90.667 -49 146c0 56.667 16.333 106.834 49 150.501s76 74.167 130 91.5v105h131v-101
c46.667 -12.667 87.834 -37.5 123.501 -74.5s55.834 -78.5 60.501 -124.5h-172c-14.667 26.667 -38.334 40 -71.001 40c-23.333 0 -43.5 -8.33301 -60.5 -25s-25.5 -36.667 -25.5 -60c0 -24 8.33301 -44 25 -60s37 -24 61 -24c28 0 50.333 11.333 67 34h176z" />
    <glyph glyph-name="sterling" unicode="&#xa3;" horiz-adv-x="618" 
d="M618 188c0 -24.667 -5.99707 -49.001 -17.9971 -73.001c-36 -76.667 -103 -115 -201 -115h-355v148h49c12.667 0 23.167 0.5 31.5 1.5s17.666 3 27.999 6s18.166 8.5 23.499 16.5s8 18 8 30c0 6 -0.666992 11.833 -2 17.5s-4 12 -8 19s-6.83301 11.833 -8.5 14.5
s-5.83398 8.33398 -12.501 17.001s-10.334 13.334 -11.001 14.001h-128v133h48c-18.667 27.333 -28 58.666 -28 93.999c0 33.333 8 66.666 24 99.999c22.667 46 55.667 81.5 99 106.5s91 37.5 143 37.5c46 0 89 -10.167 129 -30.5s71.667 -49.5 95 -87.5
c20 -32 32.667 -75 38 -129h-174c-5.33301 54 -33.666 81 -84.999 81c-22 0 -40.833 -8.33301 -56.5 -25s-23.5 -36 -23.5 -58c0 -32 11.333 -61.667 34 -89h156v-133h-77c22 -26 33 -49 33 -69c0 -21.333 -13 -43.666 -39 -66.999h41c54.667 0 82 22.667 82 68
c0 10 -2.33301 22 -7 36h161c7.33301 -24 11 -45.333 11 -64z" />
    <glyph glyph-name="currency" unicode="&#xa4;" horiz-adv-x="614" 
d="M546 177l-77.9961 -80l-71 69c-32.667 -20 -70.334 -30 -113.001 -30s-80.667 10 -114 30l-70 -69l-79 80c9.33301 8 22.166 19.833 38.499 35.5s27.166 25.834 32.499 30.501c-20.667 36.667 -31 73.667 -31 111c0 38.667 10.333 75.667 31 111l-71 67l79 80l70 -69
c34.667 20 72.667 30 114 30c42.667 0 80.334 -10 113.001 -30l71 69l78 -80l-71 -67c21.333 -35.333 32 -72.333 32 -111c0 -36.667 -10.667 -73.667 -32 -111c5.33301 -4.66699 16.166 -14.834 32.499 -30.501s29.166 -27.5 38.499 -35.5zM395.004 355
c0 30 -11.333 55.5 -34 76.5s-48.334 31.5 -77.001 31.5c-30.667 0 -56.834 -10.5 -78.501 -31.5s-32.5 -46.5 -32.5 -76.5s10.833 -55.667 32.5 -77s47.834 -32 78.501 -32s56.834 10.667 78.501 32s32.5 47 32.5 77z" />
    <glyph glyph-name="yen" unicode="&#xa5;" horiz-adv-x="618" 
d="M618 740l-117 -217h97v-138h-170l-26 -49v-30h196v-139h-197v-167h-186v167h-196v139h196v27l-26 52h-168v138h99l-119 217h200l109 -237l111 237h197z" />
    <glyph glyph-name="brokenbar" unicode="&#xa6;" horiz-adv-x="555" 
d="M369 404h-183v336h183v-336zM369 -100h-183v336h183v-336z" />
    <glyph glyph-name="section" unicode="&#xa7;" horiz-adv-x="670" 
d="M630 246c0 -32.667 -7.00195 -60.335 -21.002 -83.002s-35.667 -47.667 -65 -75c34 -46.667 51 -93.667 51 -141c0 -67.333 -24.333 -120.5 -73 -159.5s-107.667 -58.5 -177 -58.5c-31.333 0 -63 4.66699 -95 14c-55.333 16 -98.833 42.833 -130.5 80.5
s-49.834 84.834 -54.501 141.501h164c8.66699 -56.667 46.334 -85 113.001 -85c22.667 0 43.334 5.5 62.001 16.5s28 27.167 28 48.5c0 4.66699 -0.5 9.16699 -1.5 13.5s-3 8.5 -6 12.5l-8 10.5c-2.33301 3 -6 6.16699 -11 9.5s-8.83301 6 -11.5 8s-7.16699 4.66699 -13.5 8
l-12.5 6.5c-2 1 -6.33301 3 -13 6s-10.334 4.83301 -11.001 5.5l-171 79c-44.667 20.667 -78 44.334 -100 71.001s-33 63 -33 109c0 60.667 31.667 114.334 95 161.001c-20.667 32 -31 69 -31 111c0 63.333 23.333 112.166 70 146.499s103 51.5 169 51.5
c64.667 0 120.334 -18.667 167.001 -56s71.334 -87.333 74.001 -150h-163c-11.333 38.667 -40.333 58 -87 58s-70 -17.667 -70 -53c0 -22 19.667 -41.667 59 -59l182 -82c41.333 -18.667 72.5 -40.5 93.5 -65.5s31.5 -58.5 31.5 -100.5zM482.998 217.999
c0 24 -22.667 46 -68 66l-185 83c-26 -12.667 -39 -31 -39 -55c0 -16 4.5 -28.5 13.5 -37.5s22.167 -17.5 39.5 -25.5l202 -93c24.667 16 37 36.667 37 62z" />
    <glyph glyph-name="dieresis" unicode="&#xa8;" horiz-adv-x="555" 
d="M473 634h-159v151h159v-151zM240 634h-159v151h159v-151z" />
    <glyph glyph-name="copyright" unicode="&#xa9;" horiz-adv-x="800" 
d="M783 370c0 -105.333 -37.333 -195.666 -112 -270.999s-164.667 -113 -270 -113s-195.5 37.667 -270.5 113s-112.5 165.666 -112.5 270.999c0 106.667 37.5 197.334 112.5 272.001s165.833 112 272.5 112c105.333 0 195 -37.833 269 -113.5s111 -165.834 111 -270.501z
M700 370c0 84 -28.832 156.167 -86.499 216.5s-128.167 90.5 -211.5 90.5c-84.667 0 -156 -30 -214 -90s-87 -132.333 -87 -217c0 -84 29.167 -156.167 87.5 -216.5s129.166 -90.5 212.499 -90.5c84 0 154.833 30.167 212.5 90.5s86.5 132.5 86.5 216.5zM599.001 329
c-4.66699 -55.333 -24.666 -99 -59.999 -131s-81 -48 -137 -48c-64.667 0 -115.834 20.833 -153.501 62.5s-56.5 95.167 -56.5 160.5c0 64 19.5 117.167 58.5 159.5s90.5 63.5 154.5 63.5c48.667 0 91.667 -14.667 129 -44s57.666 -68 60.999 -116h-105
c-12.667 45.333 -40.667 68 -84 68c-36 0 -62.833 -12.667 -80.5 -38s-26.5 -56.666 -26.5 -93.999s8.83301 -68.333 26.5 -93s44.5 -37 80.5 -37c24 0 43.333 8.16699 58 24.5s24.334 37.166 29.001 62.499h106z" />
    <glyph glyph-name="ordfeminine" unicode="&#xaa;" horiz-adv-x="403" 
d="M351 458l-99 -0.000976562v29h-2c-12.667 -26 -37 -39 -73 -39c-41.333 0 -75 15 -101 45s-39 66 -39 108c0 42.667 13 78.834 39 108.501s60.333 44.5 103 44.5c34 0 58 -13 72 -39h1v29h99v-286zM253 600.999c0 16.667 -5.5 30.667 -16.5 42s-25.167 17 -42.5 17
c-16.667 0 -30.5 -5.66699 -41.5 -17s-16.5 -25.333 -16.5 -42s5.5 -30.667 16.5 -42s24.833 -17 41.5 -17c17.333 0 31.5 5.66699 42.5 17s16.5 25.333 16.5 42z" />
    <glyph glyph-name="guillemotleft" unicode="&#xab;" horiz-adv-x="422" 
d="M375 103l-129 127v114l129 130v-140l-51 -45l51 -47v-139zM176 103l-129 127v114l129 130v-140l-51 -45l51 -47v-139z" />
    <glyph glyph-name="logicalnot" unicode="&#xac;" horiz-adv-x="600" 
d="M557 108h-160v177h-364v160h524v-337z" />
    <glyph glyph-name="uni00AD" unicode="&#xad;" horiz-adv-x="281" 
d="M281 207h-281v163h281v-163z" />
    <glyph glyph-name="registered" unicode="&#xae;" horiz-adv-x="800" 
d="M783 370c0 -105.333 -37.333 -195.665 -112 -270.998s-164.667 -113 -270 -113s-195.5 37.667 -270.5 113s-112.5 165.666 -112.5 270.999c0 106 37.667 196.5 113 271.5s166 112.5 272 112.5c104.667 0 194.167 -37.833 268.5 -113.5s111.5 -165.834 111.5 -270.501z
M700 370.001c0 84 -28.832 156.167 -86.499 216.5s-128.167 90.5 -211.5 90.5c-84.667 0 -156 -30 -214 -90s-87 -132.333 -87 -217c0 -84 29.167 -156.167 87.5 -216.5s129.166 -90.5 212.499 -90.5c84 0 154.833 30.167 212.5 90.5s86.5 132.5 86.5 216.5z
M578.001 161.001l-102.998 -0.00195312c-2.66699 5.33301 -4.83398 14.333 -6.50098 27s-3.16699 27.334 -4.5 44.001s-2.33301 27 -3 31c-2.66699 22.667 -10 38.667 -22 48s-30 14 -54 14h-42v-164h-106v426h180c43.333 0 80.166 -9.66699 110.499 -29
s45.5 -49.666 45.5 -90.999c0 -48 -23 -82.333 -69 -103c26 -10.667 43 -27.167 51 -49.5s12.333 -49.5 13 -81.5s4 -56 10 -72zM467.003 458.999c0 36.667 -22.333 55 -67 55h-57v-120h55c46 0 69 21.667 69 65z" />
    <glyph glyph-name="macron" unicode="&#xaf;" horiz-adv-x="555" 
d="M457 648h-359v126h359v-126z" />
    <glyph glyph-name="degree" unicode="&#xb0;" horiz-adv-x="400" 
d="M343 569c0 -40 -13.833 -73.833 -41.5 -101.5s-61.5 -41.5 -101.5 -41.5s-73.833 13.833 -101.5 41.5s-41.5 61.5 -41.5 101.5s13.833 73.833 41.5 101.5s61.5 41.5 101.5 41.5s73.833 -13.833 101.5 -41.5s41.5 -61.5 41.5 -101.5zM259 569
c0 16 -5.83301 30.167 -17.5 42.5s-25.5 18.5 -41.5 18.5s-29.833 -6.16699 -41.5 -18.5s-17.5 -26.5 -17.5 -42.5s5.83301 -30.167 17.5 -42.5s25.5 -18.5 41.5 -18.5s29.833 6.16699 41.5 18.5s17.5 26.5 17.5 42.5z" />
    <glyph glyph-name="plusminus" unicode="&#xb1;" horiz-adv-x="600" 
d="M552 260h-172v-130h-160v130h-172v160h172v136h160v-136h172v-160zM552 -82h-504v160h504v-160z" />
    <glyph glyph-name="two.superior" unicode="&#xb2;" horiz-adv-x="407" 
d="M376 422h-341.001v97l19 12c12 8 19.667 13 23 15s11 7 23 15s20.5 14 25.5 18l23 18c10.333 8 18.5 15 24.5 21l19.5 20.5c7 7.66699 13.167 15.167 18.5 22.5c16 22.667 24 44.667 24 66c0 27.333 -11.667 41 -35 41c-30 0 -45.667 -22.667 -47 -68h-123
c1.33301 44.667 11 80 29 106c32.667 46 82.667 69 150 69c42.667 0 80.834 -11.5 114.501 -34.5s50.5 -55.167 50.5 -96.5c0 -44 -20 -88.333 -60 -133c-22.667 -25.333 -53 -52.333 -91 -81v-2h153v-106z" />
    <glyph glyph-name="three.superior" unicode="&#xb3;" horiz-adv-x="407" 
d="M379 554c0 -42.667 -18.6719 -76.832 -56.0049 -102.499s-78.333 -38.5 -123 -38.5c-28.667 0 -57.167 5.16699 -85.5 15.5s-49.833 25.833 -64.5 46.5c-15.333 21.333 -24.666 49.333 -27.999 84h129c6.66699 -25.333 23.334 -38 50.001 -38c32 0 48 14.333 48 43
c0 26 -22.333 39 -67 39c-5.33301 0 -12.166 -0.166992 -20.499 -0.5s-13.833 -0.5 -16.5 -0.5v90h18c44 0 66 14 66 42c0 22 -10.667 33 -32 33c-22.667 0 -34.667 -11.667 -36 -35h-126c0.666992 46 16.834 81.333 48.501 106s70.834 37 117.501 37
c39.333 0 74.5 -11 105.5 -33s46.5 -52 46.5 -90c0 -40.667 -19 -71.334 -57 -92.001c24 -8 43.833 -21.5 59.5 -40.5s23.5 -40.833 23.5 -65.5z" />
    <glyph glyph-name="acute" unicode="&#xb4;" horiz-adv-x="555" 
d="M444 723l-246 -109l-47 98l240 129z" />
    <glyph glyph-name="mu" unicode="&#xb5;" horiz-adv-x="634" 
d="M581 0l-157.999 0.000976562v69h-1h-2c-7.33301 -22.667 -20.333 -41.5 -39 -56.5s-39.667 -22.5 -63 -22.5c-20.667 0 -39.834 4.66699 -57.501 14s-31.167 22.666 -40.5 39.999h-2v-234h-166v745h166v-274c0 -40 7.33301 -74 22 -102s40 -42 76 -42s61.5 14 76.5 42
s22.5 62 22.5 102v274h166v-555z" />
    <glyph glyph-name="paragraph" unicode="&#xb6;" horiz-adv-x="701" 
d="M607 622h-49v-725h-128v725h-97v-725h-128v458c-62.667 0 -113.667 16 -153 48s-59 79 -59 141c0 130.667 84.667 196 254 196h360v-118z" />
    <glyph glyph-name="periodcentered" unicode="&#xb7;" horiz-adv-x="314" 
d="M244 168h-173v170h173v-170z" />
    <glyph glyph-name="cedilla" unicode="&#xb8;" horiz-adv-x="555" 
d="M388 -141c0 -31.333 -10.666 -56.5 -31.999 -75.5s-48 -28.5 -80 -28.5c-29.333 0 -53.833 8.33301 -73.5 25s-31.5 39.667 -35.5 69h76c6.66699 -18.667 17.667 -28 33 -28c11.333 0 20.166 3.5 26.499 10.5s9.5 16.167 9.5 27.5c0 10 -3.16699 18.167 -9.5 24.5
s-14.5 9.5 -24.5 9.5s-19 -5 -27 -15l-65 35l42 87h83l-29 -53c6.66699 2 13.667 3 21 3c25.333 0 45.833 -8.66699 61.5 -26s23.5 -39 23.5 -65z" />
    <glyph glyph-name="one.superior" unicode="&#xb9;" horiz-adv-x="289" 
d="M221 422h-123v338h-78v106h201v-444z" />
    <glyph glyph-name="ordmasculine" unicode="&#xba;" horiz-adv-x="385" 
d="M347 601c0 -44 -14.833 -80.5 -44.5 -109.5s-66.5 -43.5 -110.5 -43.5s-80.833 14.5 -110.5 43.5s-44.5 65.5 -44.5 109.5s14.833 80.5 44.5 109.5s66.5 43.5 110.5 43.5s80.833 -14.5 110.5 -43.5s44.5 -65.5 44.5 -109.5zM248 601c0 16 -5.33301 29.833 -16 41.5
s-24 17.5 -40 17.5s-29.333 -5.83301 -40 -17.5s-16 -25.5 -16 -41.5s5.33301 -29.833 16 -41.5s24 -17.5 40 -17.5s29.333 5.83301 40 17.5s16 25.5 16 41.5z" />
    <glyph glyph-name="guillemotright" unicode="&#xbb;" horiz-adv-x="422" 
d="M375 230l-129 -127v140l52 45l-52 47v139l129 -131v-113zM176 230l-129 -127v140l51 45l-51 47v139l129 -131v-113z" />
    <glyph glyph-name="onequarter" unicode="&#xbc;" horiz-adv-x="831" 
d="M597 740l-311 -740h-136l310 740h137zM221 296h-123v338h-78v106h201v-444zM803 77h-52v-77h-123v77h-209v86l214 281h118v-273h52v-94zM630 171v121h-2l-82 -121h84z" />
    <glyph glyph-name="onehalf" unicode="&#xbd;" horiz-adv-x="867" 
d="M221 296h-123v338h-78v106h201v-444zM592 740l-311 -740h-136l310 740h137zM819 0h-341.001v97l18 12l24 15c3.33301 2 11 7 23 15s20.5 14 25.5 18l23 18c10.333 8 18.5 15 24.5 21l19.5 20.5c7 7.66699 13.167 15.167 18.5 22.5c16 22.667 24 44.667 24 66
c0 27.333 -11.667 41 -35 41c-30 0 -45.667 -22.667 -47 -68h-123c1.33301 44.667 11 80 29 106c32.667 46 82.667 69 150 69c42.667 0 80.834 -11.5 114.501 -34.5s50.5 -55.167 50.5 -96.5c0 -44 -20 -88.333 -60 -133c-22.667 -25.333 -53 -52.333 -91 -81v-2h153v-106z
" />
    <glyph glyph-name="threequarters" unicode="&#xbe;" horiz-adv-x="948" 
d="M379 428c0 -42.667 -18.6719 -76.832 -56.0049 -102.499s-78.333 -38.5 -123 -38.5c-28.667 0 -57.167 5.16699 -85.5 15.5s-49.833 25.833 -64.5 46.5c-15.333 21.333 -24.666 49.333 -27.999 84h129c6.66699 -25.333 23.334 -38 50.001 -38c32 0 48 14.333 48 43
c0 26 -22.333 39 -67 39c-5.33301 0 -12.166 -0.166992 -20.499 -0.5s-13.833 -0.5 -16.5 -0.5v90h18c44 0 66 14 66 42c0 22 -10.667 33 -32 33c-22.667 0 -34.667 -11.667 -36 -35h-126c0.666992 46 16.834 81.333 48.501 106s70.834 37 117.501 37
c39.333 0 74.5 -11 105.5 -33s46.5 -52 46.5 -90c0 -40.667 -19 -71.334 -57 -92.001c24 -8 43.833 -21.5 59.5 -40.5s23.5 -40.833 23.5 -65.5zM718.995 740.002l-311 -740h-136l310 740h137zM919.995 77.002h-52v-77h-123v77h-209v86l214 281h118v-273h52v-94z
M746.995 171.002v121h-2l-82 -121h84z" />
    <glyph glyph-name="questiondown" unicode="&#xbf;" horiz-adv-x="592" 
d="M405 385h-174v170h174v-170zM543 49c0 -73.333 -25.1641 -133.165 -75.4971 -179.498s-112.833 -69.5 -187.5 -69.5c-46 0 -88.167 10.167 -126.5 30.5s-67.833 50.166 -88.5 89.499c-16 30 -24 60.667 -24 92c0 30 6.16699 58 18.5 84s27.666 48 45.999 66l54.5 51.5
c18 16.333 34 33.5 48 51.5s21.667 36 23 54h174c-0.666992 -25.333 -6.83398 -49.5 -18.501 -72.5s-26 -43.167 -43 -60.5l-50.5 -50c-16.667 -16 -30.834 -32.833 -42.501 -50.5s-17.5 -35.167 -17.5 -52.5c0 -41.333 19 -62 57 -62c19.333 0 34.166 5 44.499 15
s16.833 21.167 19.5 33.5s4.33398 28.166 5.00098 47.499h183c0.666992 -4 1 -10 1 -18z" />
    <glyph glyph-name="Agrave" unicode="&#xc0;" horiz-adv-x="758" 
d="M749 0h-205l-36 107h-257l-39 -107h-203l297 740h149zM458 257l-76 253h-1h-2l-76 -253h155zM506 873l-46 -97l-247 108l51 117z" />
    <glyph glyph-name="Aacute" unicode="&#xc1;" horiz-adv-x="758" 
d="M749 0h-205l-36 107h-257l-39 -107h-203l297 740h149zM458 257l-76 253h-1h-2l-76 -253h155zM546 885l-246 -109l-47 98l240 129z" />
    <glyph glyph-name="Acircumflex" unicode="&#xc2;" horiz-adv-x="758" 
d="M749 0h-205l-36 107h-257l-39 -107h-203l297 740h149zM458 257l-76 253h-1h-2l-76 -253h155zM586 805h-160l-46 58l-46 -58h-162l156 166h108z" />
    <glyph glyph-name="Atilde" unicode="&#xc3;" horiz-adv-x="758" 
d="M749 0h-205l-36 107h-257l-39 -107h-203l297 740h149zM458 257l-76 253h-1h-2l-76 -253h155zM582 849c-39.333 -24.667 -77.001 -37 -113.001 -37c-16.667 0 -43.5 4.33301 -80.5 13s-63.5 13 -79.5 13c-16.667 0 -40.667 -6.33301 -72 -19l-60 88
c40.667 23.333 77.334 35 110.001 35c18 0 45 -4.16699 81 -12.5s63 -12.5 81 -12.5c22 0 46.333 5.66699 73 17z" />
    <glyph glyph-name="Adieresis" unicode="&#xc4;" horiz-adv-x="758" 
d="M749 0h-205l-36 107h-257l-39 -107h-203l297 740h149zM458 257l-76 253h-1h-2l-76 -253h155zM575 815h-159v151h159v-151zM342 815h-159v151h159v-151z" />
    <glyph glyph-name="Aring" unicode="&#xc5;" horiz-adv-x="758" 
d="M749 0h-205l-36 107h-257l-39 -107h-203l297 740h149zM458 257l-76 253h-1h-2l-76 -253h155zM505 891c0 -34.667 -12.333 -64.334 -37 -89.001s-54.334 -37 -89.001 -37s-64.334 12.333 -89.001 37s-37 54.334 -37 89.001s12.333 64.334 37 89.001s54.334 37 89.001 37
s64.334 -12.333 89.001 -37s37 -54.334 37 -89.001zM423 892c0 12 -4.33301 22.334 -13 31.001s-19 13 -31 13c-12.667 0 -23.167 -4.33301 -31.5 -13s-12.5 -19.334 -12.5 -32.001c0 -12 4.33301 -22.167 13 -30.5s19 -12.5 31 -12.5s22.333 4.33301 31 13s13 19 13 31z
" />
    <glyph glyph-name="AE" unicode="&#xc6;" horiz-adv-x="975" 
d="M925 0h-411v124h-215l-80 -124h-229l514 740h421v-166h-228v-115h221v-166h-221v-127h228v-166zM514 270v201h-2l-136 -201h138z" />
    <glyph glyph-name="Ccedilla" unicode="&#xc7;" horiz-adv-x="832" 
d="M801 277c-20.667 -84 -63.666 -152.502 -128.999 -205.502s-141.333 -81.167 -228 -84.5l-22 -40c6.66699 2 13.667 3 21 3c24.667 0 45 -9 61 -27s24 -39.333 24 -64c0 -31.333 -10.667 -56.5 -32 -75.5s-48 -28.5 -80 -28.5c-29.333 0 -53.833 8.33301 -73.5 25
s-31.5 39.667 -35.5 69h76c4.66699 -18.667 15.667 -28 33 -28c11.333 0 20.166 3.5 26.499 10.5s9.5 16.167 9.5 27.5c0 10 -3.16699 18.167 -9.5 24.5s-14.5 9.5 -24.5 9.5c-11.333 0 -20.333 -5 -27 -15l-65 35l38 78c-94 14 -172 57 -234 129s-93 155.667 -93 251
c0 108 37.667 198.833 113 272.5s167 110.5 275 110.5c69.333 0 133 -16 191 -48s105 -77.333 141 -136c22.667 -36.667 37.334 -73.667 44.001 -111h-198c-14.667 38.667 -38 69.834 -70 93.501s-68.333 35.5 -109 35.5c-58 0 -105.5 -21.167 -142.5 -63.5
s-55.5 -93.166 -55.5 -152.499s18.5 -110.833 55.5 -154.5s84.833 -65.5 143.5 -65.5c40.667 0 76.167 11.167 106.5 33.5s54.166 52.833 71.499 91.5h198z" />
    <glyph glyph-name="Egrave" unicode="&#xc8;" horiz-adv-x="528" 
d="M478 0h-411v740h411v-166h-230v-115h223v-166h-223v-127h230v-166zM391 873l-46 -97l-247 108l51 117z" />
    <glyph glyph-name="Eacute" unicode="&#xc9;" horiz-adv-x="528" 
d="M478 0h-411v740h411v-166h-230v-115h223v-166h-223v-127h230v-166zM431 885l-246 -109l-47 98l240 129z" />
    <glyph glyph-name="Ecircumflex" unicode="&#xca;" horiz-adv-x="528" 
d="M478 0h-411v740h411v-166h-230v-115h223v-166h-223v-127h230v-166zM471 805h-160l-46 58l-46 -58h-162l156 166h108z" />
    <glyph glyph-name="Edieresis" unicode="&#xcb;" horiz-adv-x="528" 
d="M478 0h-411v740h411v-166h-230v-115h223v-166h-223v-127h230v-166zM460 815h-159v151h159v-151zM227 815h-159v151h159v-151z" />
    <glyph glyph-name="Igrave" unicode="&#xcc;" horiz-adv-x="323" 
d="M256 0h-189v740h189v-740zM263 873l-46 -97l-247 108l51 117z" />
    <glyph glyph-name="Iacute" unicode="&#xcd;" horiz-adv-x="323" 
d="M256 0h-189v740h189v-740zM353 885l-246 -109l-47 98l240 129z" />
    <glyph glyph-name="Icircumflex" unicode="&#xce;" horiz-adv-x="323" 
d="M256 0h-189v740h189v-740zM368 805h-160l-46 58l-46 -58h-162l156 166h108z" />
    <glyph glyph-name="Idieresis" unicode="&#xcf;" horiz-adv-x="323" 
d="M256 0h-189v740h189v-740zM357 815h-159v151h159v-151zM124 815h-159v151h159v-151z" />
    <glyph glyph-name="Eth" unicode="&#xd0;" horiz-adv-x="772" 
d="M737 372c0 -112.667 -32.167 -202.832 -96.5 -270.499s-152.5 -101.5 -264.5 -101.5h-279v296h-67v166h67v278h249c74 0 136.5 -9.5 187.5 -28.5s96.167 -55.5 135.5 -109.5c45.333 -62.667 68 -139.334 68 -230.001zM548 369.002c0 62 -14.832 111.667 -44.499 149
s-74.834 56 -135.501 56h-82v-112h108v-166h-108v-130h81c62 0 107.667 18 137 54s44 85.667 44 149z" />
    <glyph glyph-name="Ntilde" unicode="&#xd1;" horiz-adv-x="759" 
d="M691 0h-164l-282 450l-2 -1l5 -449h-181v740h163l286 -465l2 2l-8 463h181v-740zM582 849c-39.333 -24.667 -77.001 -37 -113.001 -37c-16.667 0 -43.5 4.33301 -80.5 13s-63.5 13 -79.5 13c-16.667 0 -40.667 -6.33301 -72 -19l-60 88
c40.667 23.333 77.334 35 110.001 35c18 0 45 -4.16699 81 -12.5s63 -12.5 81 -12.5c22 0 46.333 5.66699 73 17z" />
    <glyph glyph-name="Ograve" unicode="&#xd2;" horiz-adv-x="851" 
d="M816 370c0 -108.667 -37.999 -199.833 -113.999 -273.5s-168.667 -110.5 -278 -110.5c-106 0 -197.333 36.167 -274 108.5s-115 161.166 -115 266.499c0 56 9.66699 108.667 29 158c10 26.667 26 54.334 48 83.001c77.333 101.333 181.666 152 312.999 152
c108.667 0 201 -37 277 -111s114 -165 114 -273zM627.001 369.001c0 59.333 -18.832 110.666 -56.499 153.999s-85.834 65 -144.501 65c-59.333 0 -107.833 -21.167 -145.5 -63.5s-56.5 -93.166 -56.5 -152.499c0 -60.667 19 -112.5 57 -155.5s87 -64.5 147 -64.5
c58 0 105.667 21.5 143 64.5s56 93.833 56 152.5zM552.002 873.001l-46 -97l-247 108l51 117z" />
    <glyph glyph-name="Oacute" unicode="&#xd3;" horiz-adv-x="851" 
d="M816 370c0 -108.667 -37.999 -199.833 -113.999 -273.5s-168.667 -110.5 -278 -110.5c-106 0 -197.333 36.167 -274 108.5s-115 161.166 -115 266.499c0 56 9.66699 108.667 29 158c10 26.667 26 54.334 48 83.001c77.333 101.333 181.666 152 312.999 152
c108.667 0 201 -37 277 -111s114 -165 114 -273zM627.001 369.001c0 59.333 -18.832 110.666 -56.499 153.999s-85.834 65 -144.501 65c-59.333 0 -107.833 -21.167 -145.5 -63.5s-56.5 -93.166 -56.5 -152.499c0 -60.667 19 -112.5 57 -155.5s87 -64.5 147 -64.5
c58 0 105.667 21.5 143 64.5s56 93.833 56 152.5zM592.002 885.001l-246 -109l-47 98l240 129z" />
    <glyph glyph-name="Ocircumflex" unicode="&#xd4;" horiz-adv-x="851" 
d="M816 370c0 -108.667 -37.999 -199.833 -113.999 -273.5s-168.667 -110.5 -278 -110.5c-106 0 -197.333 36.167 -274 108.5s-115 161.166 -115 266.499c0 56 9.66699 108.667 29 158c10 26.667 26 54.334 48 83.001c77.333 101.333 181.666 152 312.999 152
c108.667 0 201 -37 277 -111s114 -165 114 -273zM627.001 369.001c0 59.333 -18.832 110.666 -56.499 153.999s-85.834 65 -144.501 65c-59.333 0 -107.833 -21.167 -145.5 -63.5s-56.5 -93.166 -56.5 -152.499c0 -60.667 19 -112.5 57 -155.5s87 -64.5 147 -64.5
c58 0 105.667 21.5 143 64.5s56 93.833 56 152.5zM632.002 805.001h-160l-46 58l-46 -58h-162l156 166h108z" />
    <glyph glyph-name="Otilde" unicode="&#xd5;" horiz-adv-x="851" 
d="M816 370c0 -108.667 -37.999 -199.833 -113.999 -273.5s-168.667 -110.5 -278 -110.5c-106 0 -197.333 36.167 -274 108.5s-115 161.166 -115 266.499c0 56 9.66699 108.667 29 158c10 26.667 26 54.334 48 83.001c77.333 101.333 181.666 152 312.999 152
c108.667 0 201 -37 277 -111s114 -165 114 -273zM627.001 369.001c0 59.333 -18.832 110.666 -56.499 153.999s-85.834 65 -144.501 65c-59.333 0 -107.833 -21.167 -145.5 -63.5s-56.5 -93.166 -56.5 -152.499c0 -60.667 19 -112.5 57 -155.5s87 -64.5 147 -64.5
c58 0 105.667 21.5 143 64.5s56 93.833 56 152.5zM628.002 849.001c-39.333 -24.667 -77.001 -37 -113.001 -37c-16.667 0 -43.5 4.33301 -80.5 13s-63.5 13 -79.5 13s-40 -6.33301 -72 -19l-60 88c40.667 23.333 77.334 35 110.001 35c18 0 45 -4.16699 81 -12.5
s63 -12.5 81 -12.5c22 0 46.333 5.66699 73 17z" />
    <glyph glyph-name="Odieresis" unicode="&#xd6;" horiz-adv-x="851" 
d="M816 370c0 -108.667 -37.999 -199.833 -113.999 -273.5s-168.667 -110.5 -278 -110.5c-106 0 -197.333 36.167 -274 108.5s-115 161.166 -115 266.499c0 56 9.66699 108.667 29 158c10 26.667 26 54.334 48 83.001c77.333 101.333 181.666 152 312.999 152
c108.667 0 201 -37 277 -111s114 -165 114 -273zM627.001 369.001c0 59.333 -18.832 110.666 -56.499 153.999s-85.834 65 -144.501 65c-59.333 0 -107.833 -21.167 -145.5 -63.5s-56.5 -93.166 -56.5 -152.499c0 -60.667 19 -112.5 57 -155.5s87 -64.5 147 -64.5
c58 0 105.667 21.5 143 64.5s56 93.833 56 152.5zM621.002 815.001h-159v151h159v-151zM388.002 815.001h-159v151h159v-151z" />
    <glyph glyph-name="multiply" unicode="&#xd7;" horiz-adv-x="600" 
d="M544 373l-131 -130l129 -130l-113 -113l-129 129l-131 -129l-113 113l130 130l-130 130l113 113l130 -130l131 131z" />
    <glyph glyph-name="Oslash" unicode="&#xd8;" horiz-adv-x="851" 
d="M816 370c0 -108.667 -38.168 -199.832 -114.501 -273.499s-168.833 -110.5 -277.5 -110.5c-58 0 -113.667 11.667 -167 35l-63 -84l-118 87l62 83c-68.667 73.333 -103 161 -103 263c0 109.333 37.667 200.666 113 273.999s168 110 278 110
c60.667 0 116.334 -11.667 167.001 -35l64 87l118 -86l-64 -86c70 -75.333 105 -163.333 105 -264zM626.999 369.002c0 39.333 -9.66699 77.333 -29 114l-237 -320c20 -7.33301 42 -11 66 -11c58 0 105.833 21.5 143.5 64.5s56.5 93.833 56.5 152.5zM487.999 578.002
c-19.333 6.66699 -40 10 -62 10c-58.667 0 -107 -21 -145 -63s-57 -92.667 -57 -152c0 -43.333 9 -81.333 27 -114z" />
    <glyph glyph-name="Ugrave" unicode="&#xd9;" horiz-adv-x="698" 
d="M633 293c0 -50.667 -5.00098 -93.833 -15.001 -129.5s-29.667 -68.167 -59 -97.5c-52.667 -53.333 -121.667 -80 -207 -80c-92 0 -163 26.333 -213 79c-31.333 32.667 -51.5 65.5 -60.5 98.5s-13.5 76.167 -13.5 129.5v447h189v-447c0 -42 6.5 -76 19.5 -102
s38.5 -39 76.5 -39c17.333 0 32 2.83301 44 8.5s21.167 12.5 27.5 20.5s11.333 18.833 15 32.5s5.83398 26.167 6.50098 37.5s1 25.333 1 42v447h189v-447zM440.999 873.001l-46 -97l-247 108l51 117z" />
    <glyph glyph-name="Uacute" unicode="&#xda;" horiz-adv-x="698" 
d="M633 293c0 -50.667 -5.00098 -93.833 -15.001 -129.5s-29.667 -68.167 -59 -97.5c-52.667 -53.333 -121.667 -80 -207 -80c-92 0 -163 26.333 -213 79c-31.333 32.667 -51.5 65.5 -60.5 98.5s-13.5 76.167 -13.5 129.5v447h189v-447c0 -42 6.5 -76 19.5 -102
s38.5 -39 76.5 -39c17.333 0 32 2.83301 44 8.5s21.167 12.5 27.5 20.5s11.333 18.833 15 32.5s5.83398 26.167 6.50098 37.5s1 25.333 1 42v447h189v-447zM550.999 885.001l-246 -109l-47 98l240 129z" />
    <glyph glyph-name="Ucircumflex" unicode="&#xdb;" horiz-adv-x="698" 
d="M633 293c0 -50.667 -5.00098 -93.833 -15.001 -129.5s-29.667 -68.167 -59 -97.5c-52.667 -53.333 -121.667 -80 -207 -80c-92 0 -163 26.333 -213 79c-31.333 32.667 -51.5 65.5 -60.5 98.5s-13.5 76.167 -13.5 129.5v447h189v-447c0 -42 6.5 -76 19.5 -102
s38.5 -39 76.5 -39c17.333 0 32 2.83301 44 8.5s21.167 12.5 27.5 20.5s11.333 18.833 15 32.5s5.83398 26.167 6.50098 37.5s1 25.333 1 42v447h189v-447zM555.999 805.001h-160l-46 58l-46 -58h-162l156 166h108z" />
    <glyph glyph-name="Udieresis" unicode="&#xdc;" horiz-adv-x="698" 
d="M633 293c0 -50.667 -5.00098 -93.833 -15.001 -129.5s-29.667 -68.167 -59 -97.5c-52.667 -53.333 -121.667 -80 -207 -80c-92 0 -163 26.333 -213 79c-31.333 32.667 -51.5 65.5 -60.5 98.5s-13.5 76.167 -13.5 129.5v447h189v-447c0 -42 6.5 -76 19.5 -102
s38.5 -39 76.5 -39c17.333 0 32 2.83301 44 8.5s21.167 12.5 27.5 20.5s11.333 18.833 15 32.5s5.83398 26.167 6.50098 37.5s1 25.333 1 42v447h189v-447zM544.999 815.001h-159v151h159v-151zM311.999 815.001h-159v151h159v-151z" />
    <glyph glyph-name="Yacute" unicode="&#xdd;" horiz-adv-x="647" 
d="M638 740l-219 -471v-269h-189v269l-221 471h205l110 -297l111 297h203zM525 885l-246 -109l-47 98l240 129z" />
    <glyph glyph-name="Thorn" unicode="&#xde;" horiz-adv-x="636" 
d="M624 394c0 -36 -6.83496 -72 -20.502 -108s-32.834 -64.667 -57.501 -86c-30 -26 -61.667 -43.167 -95 -51.5s-73.666 -12.5 -120.999 -12.5h-82v-136h-181v740h181v-97c8.66699 0 21.834 0.166992 39.501 0.5s30.834 0.5 39.501 0.5c97.333 0 167.333 -18 210 -54
c58 -48.667 87 -114 87 -196zM442.998 391c0 34.667 -11.333 57.833 -34 69.5s-53 17.5 -91 17.5h-70v-176h77c36.667 0 65.5 6.33301 86.5 19s31.5 36 31.5 70z" />
    <glyph glyph-name="germandbls" unicode="&#xdf;" horiz-adv-x="694" 
d="M660 228c0 -69.333 -25.5 -127.667 -76.5 -175s-111.5 -71 -181.5 -71c-38 0 -70.167 6.5 -96.5 19.5s-53.5 33.833 -81.5 62.5v-64h-166v427c0 36.667 0.833008 65.667 2.5 87s7.5 46 17.5 74s24.667 52.667 44 74c27.333 30.667 60.333 54.5 99 71.5
s78.667 25.5 120 25.5c62 0 116.667 -19.667 164 -59s71 -89.333 71 -150c0 -54.667 -23.667 -97.667 -71 -129c44.667 -11.333 81.667 -35 111 -71s44 -76.667 44 -122zM494 226.999c0 30.667 -10.501 53.834 -31.501 69.501s-47.833 23.5 -80.5 23.5h-90v125h34
c24 0 44 6.83301 60 20.5s24 32.167 24 55.5c0 25.333 -8.33301 45.5 -25 60.5s-37.667 22.5 -63 22.5c-34 0 -58.833 -12 -74.5 -36s-23.5 -54 -23.5 -90v-269h93c12.667 -48 41.334 -72 86.001 -72c25.333 0 46.833 8.66699 64.5 26s26.5 38.666 26.5 63.999z" />
    <glyph glyph-name="agrave" unicode="&#xe0;" horiz-adv-x="704" 
d="M643 0l-166.002 -0.000976562v60h-2c-14 -26.667 -36.167 -46.5 -66.5 -59.5s-62.166 -19.5 -95.499 -19.5c-83.333 0 -150.666 28.333 -201.999 85s-77 127.334 -77 212.001c0 82.667 26 152.667 78 210s119 86 201 86c33.333 0 64.833 -6.5 94.5 -19.5
s52.167 -32.5 67.5 -58.5h2v59h166v-555zM476.998 277.999c0 40.667 -13.168 74.333 -39.501 101s-59.833 40 -100.5 40c-40 0 -72.833 -13.833 -98.5 -41.5s-38.5 -61.5 -38.5 -101.5c0 -38.667 13.333 -71.667 40 -99s59.334 -41 98.001 -41c40 0 73.167 13.667 99.5 41
s39.5 61 39.5 101zM478.997 710.998l-46 -97l-247 108l51 117z" />
    <glyph glyph-name="aacute" unicode="&#xe1;" horiz-adv-x="704" 
d="M643 0l-166.002 -0.000976562v60h-2c-14 -26.667 -36.167 -46.5 -66.5 -59.5s-62.166 -19.5 -95.499 -19.5c-83.333 0 -150.666 28.333 -201.999 85s-77 127.334 -77 212.001c0 82.667 26 152.667 78 210s119 86 201 86c33.333 0 64.833 -6.5 94.5 -19.5
s52.167 -32.5 67.5 -58.5h2v59h166v-555zM476.998 277.999c0 40.667 -13.168 74.333 -39.501 101s-59.833 40 -100.5 40c-40 0 -72.833 -13.833 -98.5 -41.5s-38.5 -61.5 -38.5 -101.5c0 -38.667 13.333 -71.667 40 -99s59.334 -41 98.001 -41c40 0 73.167 13.667 99.5 41
s39.5 61 39.5 101zM518.997 729.998l-246 -109l-47 98l240 129z" />
    <glyph glyph-name="acircumflex" unicode="&#xe2;" horiz-adv-x="704" 
d="M643 0l-166.002 -0.000976562v60h-2c-14 -26.667 -36.167 -46.5 -66.5 -59.5s-62.166 -19.5 -95.499 -19.5c-83.333 0 -150.666 28.333 -201.999 85s-77 127.334 -77 212.001c0 82.667 26 152.667 78 210s119 86 201 86c33.333 0 64.833 -6.5 94.5 -19.5
s52.167 -32.5 67.5 -58.5h2v59h166v-555zM476.998 277.999c0 40.667 -13.168 74.333 -39.501 101s-59.833 40 -100.5 40c-40 0 -72.833 -13.833 -98.5 -41.5s-38.5 -61.5 -38.5 -101.5c0 -38.667 13.333 -71.667 40 -99s59.334 -41 98.001 -41c40 0 73.167 13.667 99.5 41
s39.5 61 39.5 101zM558.997 639.998h-160l-46 58l-46 -58h-162l156 166h108z" />
    <glyph glyph-name="atilde" unicode="&#xe3;" horiz-adv-x="704" 
d="M643 0l-166.002 -0.000976562v60h-2c-14 -26.667 -36.167 -46.5 -66.5 -59.5s-62.166 -19.5 -95.499 -19.5c-83.333 0 -150.666 28.333 -201.999 85s-77 127.334 -77 212.001c0 82.667 26 152.667 78 210s119 86 201 86c33.333 0 64.833 -6.5 94.5 -19.5
s52.167 -32.5 67.5 -58.5h2v59h166v-555zM476.998 277.999c0 40.667 -13.168 74.333 -39.501 101s-59.833 40 -100.5 40c-40 0 -72.833 -13.833 -98.5 -41.5s-38.5 -61.5 -38.5 -101.5c0 -38.667 13.333 -71.667 40 -99s59.334 -41 98.001 -41c40 0 73.167 13.667 99.5 41
s39.5 61 39.5 101zM554.997 687.998c-39.333 -24.667 -77.001 -37 -113.001 -37c-16.667 0 -43.5 4.33301 -80.5 13s-63.5 13 -79.5 13s-40 -6.33301 -72 -19l-60 88c40.667 23.333 77.334 35 110.001 35c18.667 0 45.667 -4.16699 81 -12.5s62.333 -12.5 81 -12.5
c22 0 46.333 5.66699 73 17z" />
    <glyph glyph-name="adieresis" unicode="&#xe4;" horiz-adv-x="704" 
d="M643 0l-166.002 -0.000976562v60h-2c-14 -26.667 -36.167 -46.5 -66.5 -59.5s-62.166 -19.5 -95.499 -19.5c-83.333 0 -150.666 28.333 -201.999 85s-77 127.334 -77 212.001c0 82.667 26 152.667 78 210s119 86 201 86c33.333 0 64.833 -6.5 94.5 -19.5
s52.167 -32.5 67.5 -58.5h2v59h166v-555zM476.998 277.999c0 40.667 -13.168 74.333 -39.501 101s-59.833 40 -100.5 40c-40 0 -72.833 -13.833 -98.5 -41.5s-38.5 -61.5 -38.5 -101.5c0 -38.667 13.333 -71.667 40 -99s59.334 -41 98.001 -41c40 0 73.167 13.667 99.5 41
s39.5 61 39.5 101zM547.997 643.998h-159v151h159v-151zM314.997 643.998h-159v151h159v-151z" />
    <glyph glyph-name="aring" unicode="&#xe5;" horiz-adv-x="704" 
d="M643 0l-166.002 -0.000976562v60h-2c-14 -26.667 -36.167 -46.5 -66.5 -59.5s-62.166 -19.5 -95.499 -19.5c-83.333 0 -150.666 28.333 -201.999 85s-77 127.334 -77 212.001c0 82.667 26 152.667 78 210s119 86 201 86c33.333 0 64.833 -6.5 94.5 -19.5
s52.167 -32.5 67.5 -58.5h2v59h166v-555zM476.998 277.999c0 40.667 -13.168 74.333 -39.501 101s-59.833 40 -100.5 40c-40 0 -72.833 -13.833 -98.5 -41.5s-38.5 -61.5 -38.5 -101.5c0 -38.667 13.333 -71.667 40 -99s59.334 -41 98.001 -41c40 0 73.167 13.667 99.5 41
s39.5 61 39.5 101zM477.997 725.998c0 -34.667 -12.333 -64.334 -37 -89.001s-54.334 -37 -89.001 -37s-64.334 12.333 -89.001 37s-37 54.334 -37 89.001s12.333 64.334 37 89.001s54.334 37 89.001 37s64.334 -12.333 89.001 -37s37 -54.334 37 -89.001zM395.997 726.998
c0 12 -4.33301 22.334 -13 31.001s-19 13 -31 13c-12.667 0 -23.167 -4.33301 -31.5 -13s-12.5 -19.334 -12.5 -32.001c0 -12 4.33301 -22.167 13 -30.5s19 -12.5 31 -12.5s22.333 4.33301 31 13s13 19 13 31z" />
    <glyph glyph-name="ae" unicode="&#xe6;" horiz-adv-x="1091" 
d="M1059 267c0 -18.667 -1.33203 -32.333 -3.99902 -41h-417c4.66699 -32.667 18.667 -58.167 42 -76.5s51.666 -27.5 84.999 -27.5c40.667 0 76.667 17.667 108 53h167c-56 -128.667 -141.333 -193 -256 -193c-71.333 0 -123 24.333 -155 73h-2v-55h-151v55h-2
c-12.667 -24 -34.5 -42.167 -65.5 -54.5s-61.833 -18.5 -92.5 -18.5c-78 0 -144.5 29.5 -199.5 88.5s-82.5 127.833 -82.5 206.5c0 84 26.833 154.5 80.5 211.5s122.167 85.5 205.5 85.5c29.333 0 59.5 -6.33301 90.5 -19s52.167 -30.667 63.5 -54h2v54h151v-53h2
c35.333 48 87.333 72 156 72c38 0 76 -9 114 -27c52 -26 91.667 -64 119 -114s41 -105.333 41 -166zM895.001 336.001c-18 64.667 -59.333 97 -124 97c-31.333 0 -59.5 -8.66699 -84.5 -26s-39.833 -41 -44.5 -71h253zM476.001 276.001c0 42 -13 76.332 -39 102.999
s-60 40 -102 40c-58 0 -98.667 -27.667 -122 -83c-8.66699 -18.667 -13 -37 -13 -55c0 -41.333 13.167 -75.666 39.5 -102.999s60.166 -41 101.499 -41c38.667 0 70.834 13.5 96.501 40.5s38.5 59.833 38.5 98.5z" />
    <glyph glyph-name="ccedilla" unicode="&#xe7;" horiz-adv-x="652" 
d="M621 211c-15.333 -64.667 -47.999 -117.832 -97.999 -159.499s-108 -64.167 -174 -67.5l-20 -37c7.33301 2 14.333 3 21 3c24.667 0 45 -9 61 -27s24 -39.333 24 -64c0 -31.333 -10.667 -56.5 -32 -75.5s-48 -28.5 -80 -28.5c-29.333 0 -53.833 8.33301 -73.5 25
s-31.5 39.667 -35.5 69h76c5.33301 -18.667 16.333 -28 33 -28c11.333 0 20.166 3.5 26.499 10.5s9.5 16.167 9.5 27.5c0 10 -3.16699 18.167 -9.5 24.5s-14.5 9.5 -24.5 9.5c-11.333 0 -20.333 -5 -27 -15l-65 35l36 75c-69.333 14 -126 48.167 -170 102.5
s-66 117.166 -66 188.499c0 82 28.333 151.667 85 209s126 86 208 86c72 0 135.333 -21.333 190 -64s89.334 -99 104.001 -169h-168c-26 49.333 -67.333 74 -124 74c-38 0 -68.833 -13.167 -92.5 -39.5s-35.5 -58.833 -35.5 -97.5c0 -40 12.167 -73.5 36.5 -100.5
s56.166 -40.5 95.499 -40.5c54 0 94 24.667 120 74h169z" />
    <glyph glyph-name="egrave" unicode="&#xe8;" horiz-adv-x="646" 
d="M614 271c0 -16 -1.33203 -30.666 -3.99902 -43.999h-416c4.66699 -32 19.167 -57.5 43.5 -76.5s53.166 -28.5 86.499 -28.5c40 0 73.667 17.333 101 52h170c-24.667 -57.333 -60.834 -103.666 -108.501 -138.999s-101.834 -53 -162.501 -53
c-81.333 0 -150.666 28.667 -207.999 86s-86 126.666 -86 207.999s28.333 151.333 85 210s125.334 88 206.001 88c84 0 153.833 -29.333 209.5 -88s83.5 -130.334 83.5 -215.001zM448.001 339.001c-6.66699 29.333 -21.667 52.5 -45 69.5s-50.333 25.5 -81 25.5
s-57.667 -8.5 -81 -25.5s-38.333 -40.167 -45 -69.5h252zM450.001 711.001l-46 -97l-247 108l51 117z" />
    <glyph glyph-name="eacute" unicode="&#xe9;" horiz-adv-x="646" 
d="M614 271c0 -16 -1.33203 -30.666 -3.99902 -43.999h-416c4.66699 -32 19.167 -57.5 43.5 -76.5s53.166 -28.5 86.499 -28.5c40 0 73.667 17.333 101 52h170c-24.667 -57.333 -60.834 -103.666 -108.501 -138.999s-101.834 -53 -162.501 -53
c-81.333 0 -150.666 28.667 -207.999 86s-86 126.666 -86 207.999s28.333 151.333 85 210s125.334 88 206.001 88c84 0 153.833 -29.333 209.5 -88s83.5 -130.334 83.5 -215.001zM448.001 339.001c-6.66699 29.333 -21.667 52.5 -45 69.5s-50.333 25.5 -81 25.5
s-57.667 -8.5 -81 -25.5s-38.333 -40.167 -45 -69.5h252zM490.001 730.001l-246 -109l-47 98l240 129z" />
    <glyph glyph-name="ecircumflex" unicode="&#xea;" horiz-adv-x="646" 
d="M614 271c0 -16 -1.33203 -30.666 -3.99902 -43.999h-416c4.66699 -32 19.167 -57.5 43.5 -76.5s53.166 -28.5 86.499 -28.5c40 0 73.667 17.333 101 52h170c-24.667 -57.333 -60.834 -103.666 -108.501 -138.999s-101.834 -53 -162.501 -53
c-81.333 0 -150.666 28.667 -207.999 86s-86 126.666 -86 207.999s28.333 151.333 85 210s125.334 88 206.001 88c84 0 153.833 -29.333 209.5 -88s83.5 -130.334 83.5 -215.001zM448.001 339.001c-6.66699 29.333 -21.667 52.5 -45 69.5s-50.333 25.5 -81 25.5
s-57.667 -8.5 -81 -25.5s-38.333 -40.167 -45 -69.5h252zM530.001 640.001h-160l-46 58l-46 -58h-162l156 166h108z" />
    <glyph glyph-name="edieresis" unicode="&#xeb;" horiz-adv-x="646" 
d="M614 271c0 -16 -1.33203 -30.666 -3.99902 -43.999h-416c4.66699 -32 19.167 -57.5 43.5 -76.5s53.166 -28.5 86.499 -28.5c40 0 73.667 17.333 101 52h170c-24.667 -57.333 -60.834 -103.666 -108.501 -138.999s-101.834 -53 -162.501 -53
c-81.333 0 -150.666 28.667 -207.999 86s-86 126.666 -86 207.999s28.333 151.333 85 210s125.334 88 206.001 88c84 0 153.833 -29.333 209.5 -88s83.5 -130.334 83.5 -215.001zM448.001 339.001c-6.66699 29.333 -21.667 52.5 -45 69.5s-50.333 25.5 -81 25.5
s-57.667 -8.5 -81 -25.5s-38.333 -40.167 -45 -69.5h252zM519.001 644.001h-159v151h159v-151zM286.001 644.001h-159v151h159v-151z" />
    <glyph glyph-name="igrave" unicode="&#xec;" horiz-adv-x="286" 
d="M226 0h-166v555h166v-555zM245 711l-46 -97l-247 108l51 117z" />
    <glyph glyph-name="iacute" unicode="&#xed;" horiz-adv-x="286" 
d="M226 0h-166v555h166v-555zM335 730l-246 -109l-47 98l240 129z" />
    <glyph glyph-name="icircumflex" unicode="&#xee;" horiz-adv-x="286" 
d="M226 0h-166v555h166v-555zM350 640h-160l-46 58l-46 -58h-162l156 166h108z" />
    <glyph glyph-name="idieresis" unicode="&#xef;" horiz-adv-x="286" 
d="M226 0h-166v555h166v-555zM339 644h-159v151h159v-151zM106 644h-159v151h159v-151z" />
    <glyph glyph-name="eth" unicode="&#xf0;" horiz-adv-x="666" 
d="M632 302c0 -89.333 -27.668 -164.833 -83.001 -226.5s-127.333 -92.5 -216 -92.5c-83.333 0 -154 28 -212 84s-87 125.667 -87 209c0 78 24.333 145 73 201s111.667 84 189 84c50 0 90.333 -15.667 121 -47l2 2c-17.333 31.333 -49.666 62.333 -96.999 93l-150 -45
l-93 60l140 43c-36 17.333 -69 29.333 -99 36l160 53c35.333 -9.33301 69 -22.333 101 -39l129 39l83 -64l-121 -37c106.667 -87.333 160 -205 160 -353zM465.999 279c0 38.667 -11.834 71.833 -35.501 99.5s-54.5 41.5 -92.5 41.5c-39.333 0 -72.166 -13.667 -98.499 -41
s-39.5 -60.666 -39.5 -99.999c0 -40 12.5 -73.5 37.5 -100.5s57.5 -40.5 97.5 -40.5c39.333 0 71 13.667 95 41s36 60.666 36 99.999z" />
    <glyph glyph-name="ntilde" unicode="&#xf1;" horiz-adv-x="632" 
d="M574 0l-166 0.000976562v303c0 36.667 -6 65 -18 85s-35 30 -69 30c-36 0 -60.833 -10.167 -74.5 -30.5s-20.5 -48.833 -20.5 -85.5v-302h-166v555h155v-59h2c32 52 82.333 78 151 78c24 0 49.333 -4.33301 76 -13s48.667 -20.334 66 -35.001
c42.667 -35.333 64 -95 64 -179v-347zM519 688.001c-39.333 -24.667 -77.001 -37 -113.001 -37c-16.667 0 -43.5 4.33301 -80.5 13s-63.5 13 -79.5 13s-40 -6.33301 -72 -19l-60 88c40.667 23.333 77.334 35 110.001 35c18.667 0 45.667 -4.16699 81 -12.5
s62.333 -12.5 81 -12.5c22 0 46.333 5.66699 73 17z" />
    <glyph glyph-name="ograve" unicode="&#xf2;" horiz-adv-x="666" 
d="M632 278c0 -84.667 -28.5 -155 -85.5 -211s-128.167 -84 -213.5 -84s-156.5 28 -213.5 84s-85.5 126.333 -85.5 211s28.5 155 85.5 211s128.167 84 213.5 84s156.5 -28 213.5 -84s85.5 -126.333 85.5 -211zM466 278c0 38 -12.667 70.833 -38 98.5s-57 41.5 -95 41.5
s-69.667 -13.833 -95 -41.5s-38 -60.5 -38 -98.5s12.667 -70.833 38 -98.5s57 -41.5 95 -41.5s69.667 13.833 95 41.5s38 60.5 38 98.5zM460 711l-46 -97l-247 108l51 117z" />
    <glyph glyph-name="oacute" unicode="&#xf3;" horiz-adv-x="666" 
d="M632 278c0 -84.667 -28.5 -155 -85.5 -211s-128.167 -84 -213.5 -84s-156.5 28 -213.5 84s-85.5 126.333 -85.5 211s28.5 155 85.5 211s128.167 84 213.5 84s156.5 -28 213.5 -84s85.5 -126.333 85.5 -211zM466 278c0 38 -12.667 70.833 -38 98.5s-57 41.5 -95 41.5
s-69.667 -13.833 -95 -41.5s-38 -60.5 -38 -98.5s12.667 -70.833 38 -98.5s57 -41.5 95 -41.5s69.667 13.833 95 41.5s38 60.5 38 98.5zM500 730l-246 -109l-47 98l240 129z" />
    <glyph glyph-name="ocircumflex" unicode="&#xf4;" horiz-adv-x="666" 
d="M632 278c0 -84.667 -28.5 -155 -85.5 -211s-128.167 -84 -213.5 -84s-156.5 28 -213.5 84s-85.5 126.333 -85.5 211s28.5 155 85.5 211s128.167 84 213.5 84s156.5 -28 213.5 -84s85.5 -126.333 85.5 -211zM466 278c0 38 -12.667 70.833 -38 98.5s-57 41.5 -95 41.5
s-69.667 -13.833 -95 -41.5s-38 -60.5 -38 -98.5s12.667 -70.833 38 -98.5s57 -41.5 95 -41.5s69.667 13.833 95 41.5s38 60.5 38 98.5zM540 640h-160l-46 58l-46 -58h-162l156 166h108z" />
    <glyph glyph-name="otilde" unicode="&#xf5;" horiz-adv-x="666" 
d="M632 278c0 -84.667 -28.5 -155 -85.5 -211s-128.167 -84 -213.5 -84s-156.5 28 -213.5 84s-85.5 126.333 -85.5 211s28.5 155 85.5 211s128.167 84 213.5 84s156.5 -28 213.5 -84s85.5 -126.333 85.5 -211zM466 278c0 38 -12.667 70.833 -38 98.5s-57 41.5 -95 41.5
s-69.667 -13.833 -95 -41.5s-38 -60.5 -38 -98.5s12.667 -70.833 38 -98.5s57 -41.5 95 -41.5s69.667 13.833 95 41.5s38 60.5 38 98.5zM536 688c-39.333 -24.667 -77.001 -37 -113.001 -37c-16.667 0 -43.5 4.33301 -80.5 13s-63.5 13 -79.5 13
c-16.667 0 -40.667 -6.33301 -72 -19l-60 88c40.667 23.333 77.334 35 110.001 35c18 0 45 -4.16699 81 -12.5s63 -12.5 81 -12.5c22 0 46.333 5.66699 73 17z" />
    <glyph glyph-name="odieresis" unicode="&#xf6;" horiz-adv-x="666" 
d="M632 278c0 -84.667 -28.5 -155 -85.5 -211s-128.167 -84 -213.5 -84s-156.5 28 -213.5 84s-85.5 126.333 -85.5 211s28.5 155 85.5 211s128.167 84 213.5 84s156.5 -28 213.5 -84s85.5 -126.333 85.5 -211zM466 278c0 38 -12.667 70.833 -38 98.5s-57 41.5 -95 41.5
s-69.667 -13.833 -95 -41.5s-38 -60.5 -38 -98.5s12.667 -70.833 38 -98.5s57 -41.5 95 -41.5s69.667 13.833 95 41.5s38 60.5 38 98.5zM529 644h-159v151h159v-151zM296 644h-159v151h159v-151z" />
    <glyph glyph-name="divide" unicode="&#xf7;" horiz-adv-x="600" 
d="M378 403h-157v160h157v-160zM552 173h-504v160h504v-160zM378 -57h-157v160h157v-160z" />
    <glyph glyph-name="oslash" unicode="&#xf8;" horiz-adv-x="666" 
d="M632 278c0 -84.667 -28.332 -155.168 -84.999 -211.501s-127.667 -84.5 -213 -84.5c-44 0 -84.333 7.66699 -121 23l-65 -88l-105 80l61 82c-46.667 52.667 -70 118.334 -70 197.001c0 86 28.5 157 85.5 213s128.5 84 214.5 84c45.333 0 85.666 -7.66699 120.999 -23
l61 83l107 -77l-62 -83c47.333 -56.667 71 -121.667 71 -195zM466.001 277.999c0 18.667 -4 38.001 -12 58.001l-146 -196c8 -2 16.333 -3 25 -3c38.667 0 70.5 13.667 95.5 41s37.5 60.666 37.5 99.999zM361.001 415c-8.66699 2 -17.667 3 -27 3
c-38.667 0 -70.667 -13.667 -96 -41s-38 -60.333 -38 -99c0 -23.333 4.33301 -44 13 -62z" />
    <glyph glyph-name="ugrave" unicode="&#xf9;" horiz-adv-x="634" 
d="M574 0l-157 -0.000976562v59h-2c-24.667 -51.333 -72.667 -77 -144 -77c-70.667 0 -125 23.333 -163 70c-20.667 26 -34.167 51.333 -40.5 76s-9.5 56.334 -9.5 95.001v332h166v-307c0 -36 6.16699 -63.5 18.5 -82.5s35.833 -28.5 70.5 -28.5c63.333 0 95 37.667 95 113
v305h166v-555zM409 710.999l-46 -97l-247 108l51 117z" />
    <glyph glyph-name="uacute" unicode="&#xfa;" horiz-adv-x="634" 
d="M574 0l-157 -0.000976562v59h-2c-24.667 -51.333 -72.667 -77 -144 -77c-70.667 0 -125 23.333 -163 70c-20.667 26 -34.167 51.333 -40.5 76s-9.5 56.334 -9.5 95.001v332h166v-307c0 -36 6.16699 -63.5 18.5 -82.5s35.833 -28.5 70.5 -28.5c63.333 0 95 37.667 95 113
v305h166v-555zM519 729.999l-246 -109l-47 98l240 129z" />
    <glyph glyph-name="ucircumflex" unicode="&#xfb;" horiz-adv-x="634" 
d="M574 0l-157 -0.000976562v59h-2c-24.667 -51.333 -72.667 -77 -144 -77c-70.667 0 -125 23.333 -163 70c-20.667 26 -34.167 51.333 -40.5 76s-9.5 56.334 -9.5 95.001v332h166v-307c0 -36 6.16699 -63.5 18.5 -82.5s35.833 -28.5 70.5 -28.5c63.333 0 95 37.667 95 113
v305h166v-555zM524 639.999h-160l-46 58l-46 -58h-162l156 166h108z" />
    <glyph glyph-name="udieresis" unicode="&#xfc;" horiz-adv-x="634" 
d="M574 0l-157 -0.000976562v59h-2c-24.667 -51.333 -72.667 -77 -144 -77c-70.667 0 -125 23.333 -163 70c-20.667 26 -34.167 51.333 -40.5 76s-9.5 56.334 -9.5 95.001v332h166v-307c0 -36 6.16699 -63.5 18.5 -82.5s35.833 -28.5 70.5 -28.5c63.333 0 95 37.667 95 113
v305h166v-555zM513 643.999h-159v151h159v-151zM280 643.999h-159v151h159v-151z" />
    <glyph glyph-name="yacute" unicode="&#xfd;" horiz-adv-x="574" 
d="M573 555l-278 -740h-176l88 213l-206 527h177l111 -322h2l106 322h176zM489 730l-246 -109l-47 98l240 129z" />
    <glyph glyph-name="thorn" unicode="&#xfe;" horiz-adv-x="695" 
d="M663 272c0 -80 -25.332 -148.5 -75.999 -205.5s-115.667 -85.5 -195 -85.5c-69.333 0 -125 23 -167 69v-235h-166v925h166v-234c44.667 44.667 99.667 67 165 67c83.333 0 149.666 -29 198.999 -87s74 -129.333 74 -214zM497.001 277c0 40 -13.333 73.5 -40 100.5
s-60 40.5 -100 40.5s-73.333 -13.5 -100 -40.5s-40 -60.5 -40 -100.5c0 -39.333 13.5 -72.666 40.5 -99.999s60.167 -41 99.5 -41s72.5 13.667 99.5 41s40.5 60.666 40.5 99.999z" />
    <glyph glyph-name="ydieresis" unicode="&#xff;" horiz-adv-x="574" 
d="M573 555l-278 -740h-176l88 213l-206 527h177l111 -322h2l106 322h176zM483 644h-159v151h159v-151zM250 644h-159v151h159v-151z" />
    <glyph glyph-name="Amacron" unicode="&#x100;" horiz-adv-x="758" 
d="M749 0h-205l-36 107h-257l-39 -107h-203l297 740h149zM458 257l-76 253h-1h-2l-76 -253h155zM559 819h-359v126h359v-126z" />
    <glyph glyph-name="amacron" unicode="&#x101;" horiz-adv-x="704" 
d="M643 0l-166.002 -0.000976562v60h-2c-14 -26.667 -36.167 -46.5 -66.5 -59.5s-62.166 -19.5 -95.499 -19.5c-83.333 0 -150.666 28.333 -201.999 85s-77 127.334 -77 212.001c0 82.667 26 152.667 78 210s119 86 201 86c33.333 0 64.833 -6.5 94.5 -19.5
s52.167 -32.5 67.5 -58.5h2v59h166v-555zM476.998 277.999c0 40.667 -13.168 74.333 -39.501 101s-59.833 40 -100.5 40c-40 0 -72.833 -13.833 -98.5 -41.5s-38.5 -61.5 -38.5 -101.5c0 -38.667 13.333 -71.667 40 -99s59.334 -41 98.001 -41c40 0 73.167 13.667 99.5 41
s39.5 61 39.5 101zM531.997 647.998h-359v126h359v-126z" />
    <glyph glyph-name="Abreve" unicode="&#x102;" horiz-adv-x="758" 
d="M749 0h-205l-36 107h-257l-39 -107h-203l297 740h149zM458 257l-76 253h-1h-2l-76 -253h155zM585 949c-2 -34.667 -14 -63.1689 -36 -85.502s-47.167 -37.666 -75.5 -45.999s-59.833 -12.5 -94.5 -12.5c-55.333 0 -102.5 11.333 -141.5 34s-60.5 59.334 -64.5 110.001
h113c18.667 -23.333 51.334 -35 98.001 -35c43.333 0 72.666 11.667 87.999 35h113z" />
    <glyph glyph-name="abreve" unicode="&#x103;" horiz-adv-x="704" 
d="M643 0l-166.002 -0.000976562v60h-2c-14 -26.667 -36.167 -46.5 -66.5 -59.5s-62.166 -19.5 -95.499 -19.5c-83.333 0 -150.666 28.333 -201.999 85s-77 127.334 -77 212.001c0 82.667 26 152.667 78 210s119 86 201 86c33.333 0 64.833 -6.5 94.5 -19.5
s52.167 -32.5 67.5 -58.5h2v59h166v-555zM476.998 277.999c0 40.667 -13.168 74.333 -39.501 101s-59.833 40 -100.5 40c-40 0 -72.833 -13.833 -98.5 -41.5s-38.5 -61.5 -38.5 -101.5c0 -38.667 13.333 -71.667 40 -99s59.334 -41 98.001 -41c40 0 73.167 13.667 99.5 41
s39.5 61 39.5 101zM557.997 777.998c-2 -34.667 -14 -63.1689 -36 -85.502s-47.167 -37.666 -75.5 -45.999s-59.833 -12.5 -94.5 -12.5c-55.333 0 -102.5 11.333 -141.5 34s-60.5 59.334 -64.5 110.001h113c18.667 -23.333 51.334 -35 98.001 -35
c43.333 0 72.666 11.667 87.999 35h113z" />
    <glyph glyph-name="Aogonek" unicode="&#x104;" horiz-adv-x="758" 
d="M744 -190c-32 -10.667 -60.6689 -16 -86.002 -16c-32.667 0 -60.667 8.33301 -84 25s-35 40.667 -35 72c0 16 4.83301 31.333 14.5 46s19.334 26 29.001 34s22.834 17.667 39.501 29h-78l-36 107h-257l-39 -107h-203l297 740h149l294 -740h-43
c-38 -21.333 -57 -44 -57 -68c0 -32 16 -48 48 -48c11.333 0 27 4 47 12v-86zM457.998 257l-76 253h-3l-76 -253h155z" />
    <glyph glyph-name="aogonek" unicode="&#x105;" horiz-adv-x="704" 
d="M649 -190c-32 -10.667 -60.6719 -16 -86.0049 -16c-32.667 0 -60.667 8.33301 -84 25s-35 40.667 -35 72c0 16 4.83301 31.333 14.5 46s19.334 26 29.001 34s22.834 17.667 39.501 29h-50v60h-2c-14 -26.667 -36.167 -46.5 -66.5 -59.5s-62.166 -19.5 -95.499 -19.5
c-83.333 0 -150.666 28.333 -201.999 85s-77 127.334 -77 212.001c0 82.667 26 152.667 78 210s119 86 201 86c33.333 0 64.833 -6.5 94.5 -19.5s52.167 -32.5 67.5 -58.5h2v59h166v-555h-32c-38 -21.333 -57 -44 -57 -68c0 -12.667 4.83301 -23.834 14.5 -33.501
s20.834 -14.5 33.501 -14.5c11.333 0 27 4 47 12v-86zM476.995 278c0 40.667 -13.168 74.333 -39.501 101s-59.833 40 -100.5 40c-40 0 -72.833 -13.833 -98.5 -41.5s-38.5 -61.5 -38.5 -101.5c0 -38.667 13.333 -71.667 40 -99s59.334 -41 98.001 -41
c40 0 73.167 13.667 99.5 41s39.5 61 39.5 101z" />
    <glyph glyph-name="Cacute" unicode="&#x106;" horiz-adv-x="832" 
d="M801 277c-21.333 -87.333 -66.502 -157.669 -135.502 -211.002s-148.5 -80 -238.5 -80c-108 0 -200 37.167 -276 111.5s-114 165.5 -114 273.5s37.667 198.833 113 272.5s167 110.5 275 110.5c67.333 0 129.333 -15 186 -45s103.334 -73 140.001 -129
c26.667 -40 43.334 -80.333 50.001 -121h-198c-14.667 38.667 -38 69.834 -70 93.501s-68.333 35.5 -109 35.5c-58 0 -105.5 -21.167 -142.5 -63.5s-55.5 -93.166 -55.5 -152.499s18.5 -110.833 55.5 -154.5s84.833 -65.5 143.5 -65.5c40 0 75.333 11.333 106 34
s54.667 53 72 91h198zM582.998 884.997l-246 -109l-47 98l240 129z" />
    <glyph glyph-name="cacute" unicode="&#x107;" horiz-adv-x="652" 
d="M621 211c-16 -68 -50.999 -123.167 -104.999 -165.5s-116 -63.5 -186 -63.5c-82.667 0 -152.834 28.667 -210.501 86s-86.5 127.666 -86.5 210.999c0 82 28.333 151.667 85 209s126 86 208 86c72 0 135.333 -21.333 190 -64s89.334 -99 104.001 -169h-168
c-24 52 -65.333 78 -124 78c-38.667 0 -69.667 -13.667 -93 -41s-35 -60.666 -35 -99.999c0 -40 12.167 -73.5 36.5 -100.5s56.166 -40.5 95.499 -40.5c54 0 94 24.667 120 74h169zM493.001 723l-246 -109l-47 98l240 129z" />
    <glyph glyph-name="Ccircumflex" unicode="&#x108;" horiz-adv-x="832" 
d="M801 277c-21.333 -87.333 -66.502 -157.669 -135.502 -211.002s-148.5 -80 -238.5 -80c-108 0 -200 37.167 -276 111.5s-114 165.5 -114 273.5s37.667 198.833 113 272.5s167 110.5 275 110.5c67.333 0 129.333 -15 186 -45s103.334 -73 140.001 -129
c26.667 -40 43.334 -80.333 50.001 -121h-198c-14.667 38.667 -38 69.834 -70 93.501s-68.333 35.5 -109 35.5c-58 0 -105.5 -21.167 -142.5 -63.5s-55.5 -93.166 -55.5 -152.499s18.5 -110.833 55.5 -154.5s84.833 -65.5 143.5 -65.5c40 0 75.333 11.333 106 34
s54.667 53 72 91h198zM632.998 804.997h-160l-46 58l-46 -58h-162l156 166h108z" />
    <glyph glyph-name="ccircumflex" unicode="&#x109;" horiz-adv-x="652" 
d="M621 211c-16 -68 -50.999 -123.167 -104.999 -165.5s-116 -63.5 -186 -63.5c-82.667 0 -152.834 28.667 -210.501 86s-86.5 127.666 -86.5 210.999c0 82 28.333 151.667 85 209s126 86 208 86c72 0 135.333 -21.333 190 -64s89.334 -99 104.001 -169h-168
c-24 52 -65.333 78 -124 78c-38.667 0 -69.667 -13.667 -93 -41s-35 -60.666 -35 -99.999c0 -40 12.167 -73.5 36.5 -100.5s56.166 -40.5 95.499 -40.5c54 0 94 24.667 120 74h169zM533.001 630h-160l-46 58l-46 -58h-162l156 166h108z" />
    <glyph glyph-name="Cdotaccent" unicode="&#x10a;" horiz-adv-x="832" 
d="M801 277c-21.333 -87.333 -66.502 -157.669 -135.502 -211.002s-148.5 -80 -238.5 -80c-108 0 -200 37.167 -276 111.5s-114 165.5 -114 273.5s37.667 198.833 113 272.5s167 110.5 275 110.5c67.333 0 129.333 -15 186 -45s103.334 -73 140.001 -129
c26.667 -40 43.334 -80.333 50.001 -121h-198c-14.667 38.667 -38 69.834 -70 93.501s-68.333 35.5 -109 35.5c-58 0 -105.5 -21.167 -142.5 -63.5s-55.5 -93.166 -55.5 -152.499s18.5 -110.833 55.5 -154.5s84.833 -65.5 143.5 -65.5c40 0 75.333 11.333 106 34
s54.667 53 72 91h198zM495.998 814.997h-159v151h159v-151z" />
    <glyph glyph-name="cdotaccent" unicode="&#x10b;" horiz-adv-x="652" 
d="M621 211c-16 -68 -50.999 -123.167 -104.999 -165.5s-116 -63.5 -186 -63.5c-82.667 0 -152.834 28.667 -210.501 86s-86.5 127.666 -86.5 210.999c0 82 28.333 151.667 85 209s126 86 208 86c72 0 135.333 -21.333 190 -64s89.334 -99 104.001 -169h-168
c-24 52 -65.333 78 -124 78c-38.667 0 -69.667 -13.667 -93 -41s-35 -60.666 -35 -99.999c0 -40 12.167 -73.5 36.5 -100.5s56.166 -40.5 95.499 -40.5c54 0 94 24.667 120 74h169zM406.001 634h-159v151h159v-151z" />
    <glyph glyph-name="Ccaron" unicode="&#x10c;" horiz-adv-x="832" 
d="M801 277c-21.333 -87.333 -66.502 -157.669 -135.502 -211.002s-148.5 -80 -238.5 -80c-108 0 -200 37.167 -276 111.5s-114 165.5 -114 273.5s37.667 198.833 113 272.5s167 110.5 275 110.5c67.333 0 129.333 -15 186 -45s103.334 -73 140.001 -129
c26.667 -40 43.334 -80.333 50.001 -121h-198c-14.667 38.667 -38 69.834 -70 93.501s-68.333 35.5 -109 35.5c-58 0 -105.5 -21.167 -142.5 -63.5s-55.5 -93.166 -55.5 -152.499s18.5 -110.833 55.5 -154.5s84.833 -65.5 143.5 -65.5c40 0 75.333 11.333 106 34
s54.667 53 72 91h198zM622.998 970.997l-155 -166h-108l-151 166h161l46 -58l46 58h161z" />
    <glyph glyph-name="ccaron" unicode="&#x10d;" horiz-adv-x="652" 
d="M621 211c-16 -68 -50.999 -123.167 -104.999 -165.5s-116 -63.5 -186 -63.5c-82.667 0 -152.834 28.667 -210.501 86s-86.5 127.666 -86.5 210.999c0 82 28.333 151.667 85 209s126 86 208 86c72 0 135.333 -21.333 190 -64s89.334 -99 104.001 -169h-168
c-24 52 -65.333 78 -124 78c-38.667 0 -69.667 -13.667 -93 -41s-35 -60.666 -35 -99.999c0 -40 12.167 -73.5 36.5 -100.5s56.166 -40.5 95.499 -40.5c54 0 94 24.667 120 74h169zM533.001 789l-155 -166h-108l-151 166h161l46 -58l46 58h161z" />
    <glyph glyph-name="Dcaron" unicode="&#x10e;" horiz-adv-x="742" 
d="M697 372c0 -120.667 -33 -212.833 -99 -276.5s-160 -95.5 -282 -95.5h-259v740h245c75.333 0 138.833 -9.5 190.5 -28.5s97.167 -55.5 136.5 -109.5c45.333 -63.333 68 -140 68 -230zM508 369.001c0 62 -14.832 111.667 -44.499 149s-74.834 56 -135.501 56h-82v-408h81
c62 0 107.667 18 137 54s44 85.667 44 149zM538.001 971.001l-155 -166h-108l-151 166h161l46 -58l46 58h161z" />
    <glyph glyph-name="dcaron" unicode="&#x10f;" horiz-adv-x="829" 
d="M638 0h-157.999v60h-2c-30.667 -52 -86 -78 -166 -78c-83.333 0 -150.5 28.5 -201.5 85.5s-76.5 127.5 -76.5 211.5c0 82.667 25.5 152.5 76.5 209.5s117.167 85.5 198.5 85.5c65.333 0 119.666 -22 162.999 -66v232h166v-740zM481.001 280c0 40 -13.333 73.167 -40 99.5
s-60 39.5 -100 39.5s-73.5 -13.167 -100.5 -39.5s-40.5 -59.5 -40.5 -99.5c0 -41.333 12.833 -75.5 38.5 -102.5s59.167 -40.5 100.5 -40.5s75.333 13.5 102 40.5s40 61.167 40 102.5zM849.001 640v-23.002c0 -34.667 -10.333 -62 -31 -82s-47.667 -30 -81 -30h-61v73h10.5
h11.5h11.5c5 0 8.83301 0.333008 11.5 1s6 1.33398 10 2.00098s7.16699 1.83398 9.5 3.50098l7 5c2.33301 1.66699 4 4 5 7s1.5 6.16699 1.5 9.5v24h-78v109h173v-99z" />
    <glyph glyph-name="Dcroat" unicode="&#x110;" horiz-adv-x="772" 
d="M737 372c0 -112.667 -32.167 -202.832 -96.5 -270.499s-152.5 -101.5 -264.5 -101.5h-279v296h-67v166h67v278h249c74 0 136.5 -9.5 187.5 -28.5s96.167 -55.5 135.5 -109.5c45.333 -62.667 68 -139.334 68 -230.001zM548 369.002c0 62 -14.832 111.667 -44.499 149
s-74.834 56 -135.501 56h-82v-112h108v-166h-108v-130h81c62 0 107.667 18 137 54s44 85.667 44 149z" />
    <glyph glyph-name="dcroat" unicode="&#x111;" horiz-adv-x="698" 
d="M472 584h-177.999v101h178v55h166v-55h60v-101h-60v-584h-158v60h-2c-30.667 -52 -86 -78 -166 -78c-84.667 0 -152.167 25.5 -202.5 76.5s-75.5 117.833 -75.5 200.5c0 81.333 25.167 147.5 75.5 198.5s116.833 76.5 199.5 76.5c65.333 0 119.666 -22 162.999 -66v116z
M481.001 260c0 39.333 -13.168 70.666 -39.501 93.999s-59.833 35 -100.5 35c-41.333 0 -75.166 -11.667 -101.499 -35s-39.5 -54.666 -39.5 -93.999c0 -40 12.667 -72.167 38 -96.5s59 -36.5 101 -36.5s76.167 12 102.5 36s39.5 56.333 39.5 97z" />
    <glyph glyph-name="Emacron" unicode="&#x112;" horiz-adv-x="528" 
d="M478 0h-411v740h411v-166h-230v-115h223v-166h-223v-127h230v-166zM444 819h-359v126h359v-126z" />
    <glyph glyph-name="emacron" unicode="&#x113;" horiz-adv-x="646" 
d="M614 271c0 -16 -1.33203 -30.666 -3.99902 -43.999h-416c4.66699 -32 19.167 -57.5 43.5 -76.5s53.166 -28.5 86.499 -28.5c40 0 73.667 17.333 101 52h170c-24.667 -57.333 -60.834 -103.666 -108.501 -138.999s-101.834 -53 -162.501 -53
c-81.333 0 -150.666 28.667 -207.999 86s-86 126.666 -86 207.999s28.333 151.333 85 210s125.334 88 206.001 88c84 0 153.833 -29.333 209.5 -88s83.5 -130.334 83.5 -215.001zM448.001 339.001c-6.66699 29.333 -21.667 52.5 -45 69.5s-50.333 25.5 -81 25.5
s-57.667 -8.5 -81 -25.5s-38.333 -40.167 -45 -69.5h252zM503.001 648.001h-359v126h359v-126z" />
    <glyph glyph-name="Ebreve" unicode="&#x114;" horiz-adv-x="528" 
d="M478 0h-411v740h411v-166h-230v-115h223v-166h-223v-127h230v-166zM470 949c-2 -34.667 -14 -63.1689 -36 -85.502s-47.167 -37.666 -75.5 -45.999s-59.833 -12.5 -94.5 -12.5c-55.333 0 -102.5 11.333 -141.5 34s-60.5 59.334 -64.5 110.001h113
c18.667 -23.333 51.334 -35 98.001 -35c43.333 0 72.666 11.667 87.999 35h113z" />
    <glyph glyph-name="ebreve" unicode="&#x115;" horiz-adv-x="646" 
d="M614 271c0 -16 -1.33203 -30.666 -3.99902 -43.999h-416c4.66699 -32 19.167 -57.5 43.5 -76.5s53.166 -28.5 86.499 -28.5c40 0 73.667 17.333 101 52h170c-24.667 -57.333 -60.834 -103.666 -108.501 -138.999s-101.834 -53 -162.501 -53
c-81.333 0 -150.666 28.667 -207.999 86s-86 126.666 -86 207.999s28.333 151.333 85 210s125.334 88 206.001 88c84 0 153.833 -29.333 209.5 -88s83.5 -130.334 83.5 -215.001zM448.001 339.001c-6.66699 29.333 -21.667 52.5 -45 69.5s-50.333 25.5 -81 25.5
s-57.667 -8.5 -81 -25.5s-38.333 -40.167 -45 -69.5h252zM529.001 778.001c-2 -34.667 -14 -63.1689 -36 -85.502s-47.167 -37.666 -75.5 -45.999s-59.833 -12.5 -94.5 -12.5c-55.333 0 -102.5 11.333 -141.5 34s-60.5 59.334 -64.5 110.001h113
c18.667 -23.333 51.334 -35 98.001 -35c43.333 0 72.666 11.667 87.999 35h113z" />
    <glyph glyph-name="Edotaccent" unicode="&#x116;" horiz-adv-x="528" 
d="M478 0h-411v740h411v-166h-230v-115h223v-166h-223v-127h230v-166zM354 815h-159v151h159v-151z" />
    <glyph glyph-name="edotaccent" unicode="&#x117;" horiz-adv-x="646" 
d="M614 271c0 -16 -1.33203 -30.666 -3.99902 -43.999h-416c4.66699 -32 19.167 -57.5 43.5 -76.5s53.166 -28.5 86.499 -28.5c40 0 73.667 17.333 101 52h170c-24.667 -57.333 -60.834 -103.666 -108.501 -138.999s-101.834 -53 -162.501 -53
c-81.333 0 -150.666 28.667 -207.999 86s-86 126.666 -86 207.999s28.333 151.333 85 210s125.334 88 206.001 88c84 0 153.833 -29.333 209.5 -88s83.5 -130.334 83.5 -215.001zM448.001 339.001c-6.66699 29.333 -21.667 52.5 -45 69.5s-50.333 25.5 -81 25.5
s-57.667 -8.5 -81 -25.5s-38.333 -40.167 -45 -69.5h252zM403.001 634.001h-159v151h159v-151z" />
    <glyph glyph-name="Eogonek" unicode="&#x118;" horiz-adv-x="528" 
d="M477 -190c-32 -10.667 -60.6699 -15.999 -86.0029 -15.999c-32.667 0 -60.667 8.33301 -84 25s-35 40.667 -35 72c0 16 4.83301 31.333 14.5 46s19.334 26 29.001 34s22.834 17.667 39.501 29h-288v740h411v-166h-230v-115h223v-166h-223v-127h230v-166h-39
c-38 -21.333 -57 -44 -57 -68c0 -12.667 4.83301 -23.834 14.5 -33.501s20.834 -14.5 33.501 -14.5c11.333 0 27 4 47 12v-86z" />
    <glyph glyph-name="eogonek" unicode="&#x119;" horiz-adv-x="646" 
d="M466 -190c-32 -10.667 -60.6689 -15.9961 -86.002 -15.9961c-32.667 0 -60.667 8.33301 -84 25s-35 40.667 -35 72s19 61.666 57 90.999c-79.333 1.33301 -147.166 30.666 -203.499 87.999s-84.5 126 -84.5 206c0 81.333 28.333 151.333 85 210s125.334 88 206.001 88
c84 0 153.833 -29.333 209.5 -88s83.5 -130.334 83.5 -215.001c0 -16 -1.33301 -30.667 -4 -44h-416c4.66699 -32 19.167 -57.5 43.5 -76.5s53.166 -28.5 86.499 -28.5c40 0 73.667 17.333 101 52h170c-17.333 -40.667 -40.5 -76.167 -69.5 -106.5
s-61.5 -52.833 -97.5 -67.5c-38 -21.333 -57 -44 -57 -68c0 -12.667 4.83301 -23.834 14.5 -33.501s20.834 -14.5 33.501 -14.5c11.333 0 27 4 47 12v-86zM447.998 339.004c-6.66699 29.333 -21.667 52.5 -45 69.5s-50.333 25.5 -81 25.5s-57.667 -8.5 -81 -25.5
s-38.333 -40.167 -45 -69.5h252z" />
    <glyph glyph-name="Ecaron" unicode="&#x11a;" horiz-adv-x="528" 
d="M478 0h-411v740h411v-166h-230v-115h223v-166h-223v-127h230v-166zM480 971l-155 -166h-108l-151 166h161l46 -58l46 58h161z" />
    <glyph glyph-name="ecaron" unicode="&#x11b;" horiz-adv-x="646" 
d="M614 271c0 -16 -1.33203 -30.666 -3.99902 -43.999h-416c4.66699 -32 19.167 -57.5 43.5 -76.5s53.166 -28.5 86.499 -28.5c40 0 73.667 17.333 101 52h170c-24.667 -57.333 -60.834 -103.666 -108.501 -138.999s-101.834 -53 -162.501 -53
c-81.333 0 -150.666 28.667 -207.999 86s-86 126.666 -86 207.999s28.333 151.333 85 210s125.334 88 206.001 88c84 0 153.833 -29.333 209.5 -88s83.5 -130.334 83.5 -215.001zM448.001 339.001c-6.66699 29.333 -21.667 52.5 -45 69.5s-50.333 25.5 -81 25.5
s-57.667 -8.5 -81 -25.5s-38.333 -40.167 -45 -69.5h252zM530.001 789.001l-155 -166h-108l-151 166h161l46 -58l46 58h161z" />
    <glyph glyph-name="Gcircumflex" unicode="&#x11c;" horiz-adv-x="854" 
d="M823 382c0 -113.333 -37.501 -207.831 -112.501 -283.498s-169.167 -113.5 -282.5 -113.5c-109.333 0 -202.166 37.333 -278.499 112s-114.5 166.667 -114.5 276s38.5 200.166 115.5 272.499s170.5 108.5 280.5 108.5c82 0 158.667 -24.333 230 -73
s118 -111.667 140 -189h-212c-36 64 -90.333 96 -163 96c-59.333 0 -107.833 -20.833 -145.5 -62.5s-56.5 -92.5 -56.5 -152.5c0 -62.667 18.5 -115.334 55.5 -158.001s86.167 -64 147.5 -64c42.667 0 80 10 112 30s53.667 49.667 65 89h-221v151h439
c0.666992 -8.66699 1 -21.667 1 -39zM633.999 805.002h-160l-46 58l-46 -58h-162l156 166h108z" />
    <glyph glyph-name="gcircumflex" unicode="&#x11d;" horiz-adv-x="693" 
d="M635 67c0 -84 -11 -145 -33 -183c-25.333 -43.333 -64.5 -76 -117.5 -98s-107.5 -33 -163.5 -33c-112 0 -193 36.333 -243 109c-18.667 27.333 -30 56 -34 86h192c16.667 -36.667 49 -55 97 -55c44 0 77.5 13.667 100.5 41s34.5 64 34.5 110v17h-2
c-14 -26 -35 -45.667 -63 -59s-57.667 -20 -89 -20c-82 0 -149.167 28.167 -201.5 84.5s-78.5 125.5 -78.5 207.5c0 83.333 26 154 78 212s119.333 87 202 87c72.667 0 123.667 -23.333 153 -70h2v52h166v-488zM469 275c0 40.667 -12.5 74.667 -37.5 102s-57.5 41 -97.5 41
c-38 0 -69.833 -13.5 -95.5 -40.5s-38.5 -59.5 -38.5 -97.5c0 -39.333 12.333 -73 37 -101s56.667 -42 96 -42c40 0 72.667 13 98 39s38 59 38 99zM553 630h-160l-46 58l-46 -58h-162l156 166h108z" />
    <glyph glyph-name="Gbreve" unicode="&#x11e;" horiz-adv-x="854" 
d="M823 382c0 -113.333 -37.501 -207.831 -112.501 -283.498s-169.167 -113.5 -282.5 -113.5c-109.333 0 -202.166 37.333 -278.499 112s-114.5 166.667 -114.5 276s38.5 200.166 115.5 272.499s170.5 108.5 280.5 108.5c82 0 158.667 -24.333 230 -73
s118 -111.667 140 -189h-212c-36 64 -90.333 96 -163 96c-59.333 0 -107.833 -20.833 -145.5 -62.5s-56.5 -92.5 -56.5 -152.5c0 -62.667 18.5 -115.334 55.5 -158.001s86.167 -64 147.5 -64c42.667 0 80 10 112 30s53.667 49.667 65 89h-221v151h439
c0.666992 -8.66699 1 -21.667 1 -39zM632.999 949.002c-2 -34.667 -14 -63.1689 -36 -85.502s-47.167 -37.666 -75.5 -45.999s-59.833 -12.5 -94.5 -12.5c-55.333 0 -102.5 11.333 -141.5 34s-60.5 59.334 -64.5 110.001h113c18.667 -23.333 51.334 -35 98.001 -35
c43.333 0 72.666 11.667 87.999 35h113z" />
    <glyph glyph-name="gbreve" unicode="&#x11f;" horiz-adv-x="693" 
d="M635 67c0 -84 -11 -145 -33 -183c-25.333 -43.333 -64.5 -76 -117.5 -98s-107.5 -33 -163.5 -33c-112 0 -193 36.333 -243 109c-18.667 27.333 -30 56 -34 86h192c16.667 -36.667 49 -55 97 -55c44 0 77.5 13.667 100.5 41s34.5 64 34.5 110v17h-2
c-14 -26 -35 -45.667 -63 -59s-57.667 -20 -89 -20c-82 0 -149.167 28.167 -201.5 84.5s-78.5 125.5 -78.5 207.5c0 83.333 26 154 78 212s119.333 87 202 87c72.667 0 123.667 -23.333 153 -70h2v52h166v-488zM469 275c0 40.667 -12.5 74.667 -37.5 102s-57.5 41 -97.5 41
c-38 0 -69.833 -13.5 -95.5 -40.5s-38.5 -59.5 -38.5 -97.5c0 -39.333 12.333 -73 37 -101s56.667 -42 96 -42c40 0 72.667 13 98 39s38 59 38 99zM552 778c-2 -34.667 -14 -63.1689 -36 -85.502s-47.167 -37.666 -75.5 -45.999s-59.833 -12.5 -94.5 -12.5
c-55.333 0 -102.5 11.333 -141.5 34s-60.5 59.334 -64.5 110.001h113c18.667 -23.333 51.334 -35 98.001 -35c43.333 0 72.666 11.667 87.999 35h113z" />
    <glyph glyph-name="Gdotaccent" unicode="&#x120;" horiz-adv-x="854" 
d="M823 382c0 -113.333 -37.501 -207.831 -112.501 -283.498s-169.167 -113.5 -282.5 -113.5c-109.333 0 -202.166 37.333 -278.499 112s-114.5 166.667 -114.5 276s38.5 200.166 115.5 272.499s170.5 108.5 280.5 108.5c82 0 158.667 -24.333 230 -73
s118 -111.667 140 -189h-212c-36 64 -90.333 96 -163 96c-59.333 0 -107.833 -20.833 -145.5 -62.5s-56.5 -92.5 -56.5 -152.5c0 -62.667 18.5 -115.334 55.5 -158.001s86.167 -64 147.5 -64c42.667 0 80 10 112 30s53.667 49.667 65 89h-221v151h439
c0.666992 -8.66699 1 -21.667 1 -39zM506.999 815.002h-159v151h159v-151z" />
    <glyph glyph-name="gdotaccent" unicode="&#x121;" horiz-adv-x="693" 
d="M635 67c0 -84 -11 -145 -33 -183c-25.333 -43.333 -64.5 -76 -117.5 -98s-107.5 -33 -163.5 -33c-112 0 -193 36.333 -243 109c-18.667 27.333 -30 56 -34 86h192c16.667 -36.667 49 -55 97 -55c44 0 77.5 13.667 100.5 41s34.5 64 34.5 110v17h-2
c-14 -26 -35 -45.667 -63 -59s-57.667 -20 -89 -20c-82 0 -149.167 28.167 -201.5 84.5s-78.5 125.5 -78.5 207.5c0 83.333 26 154 78 212s119.333 87 202 87c72.667 0 123.667 -23.333 153 -70h2v52h166v-488zM469 275c0 40.667 -12.5 74.667 -37.5 102s-57.5 41 -97.5 41
c-38 0 -69.833 -13.5 -95.5 -40.5s-38.5 -59.5 -38.5 -97.5c0 -39.333 12.333 -73 37 -101s56.667 -42 96 -42c40 0 72.667 13 98 39s38 59 38 99zM426 634h-159v151h159v-151z" />
    <glyph glyph-name="Gcommaaccent" unicode="&#x122;" horiz-adv-x="854" 
d="M823 382c0 -113.333 -37.501 -207.831 -112.501 -283.498s-169.167 -113.5 -282.5 -113.5c-109.333 0 -202.166 37.333 -278.499 112s-114.5 166.667 -114.5 276s38.5 200.166 115.5 272.499s170.5 108.5 280.5 108.5c82 0 158.667 -24.333 230 -73
s118 -111.667 140 -189h-212c-36 64 -90.333 96 -163 96c-59.333 0 -107.833 -20.833 -145.5 -62.5s-56.5 -92.5 -56.5 -152.5c0 -62.667 18.5 -115.334 55.5 -158.001s86.167 -64 147.5 -64c42.667 0 80 10 112 30s53.667 49.667 65 89h-221v151h439
c0.666992 -8.66699 1 -21.667 1 -39zM513.999 -144.998v-23.002c0 -34.667 -10.333 -62 -31 -82s-47.667 -30 -81 -30h-61v73h10.5h11.5h11.5c5 0 8.83301 0.333008 11.5 1s6 1.33398 10 2.00098s7.16699 1.83398 9.5 3.50098l7 5c2.33301 1.66699 4 4 5 7
s1.5 6.16699 1.5 9.5v24h-78v109h173v-99z" />
    <glyph glyph-name="gcommaaccent" unicode="&#x123;" horiz-adv-x="693" 
d="M635 67c0 -84 -11 -145 -33 -183c-25.333 -43.333 -64.5 -76 -117.5 -98s-107.5 -33 -163.5 -33c-112 0 -193 36.333 -243 109c-18.667 27.333 -30 56 -34 86h192c16.667 -36.667 49 -55 97 -55c44 0 77.5 13.667 100.5 41s34.5 64 34.5 110v17h-2
c-14 -26 -35 -45.667 -63 -59s-57.667 -20 -89 -20c-82 0 -149.167 28.167 -201.5 84.5s-78.5 125.5 -78.5 207.5c0 83.333 26 154 78 212s119.333 87 202 87c72.667 0 123.667 -23.333 153 -70h2v52h166v-488zM469 275c0 40.667 -12.5 74.667 -37.5 102s-57.5 41 -97.5 41
c-38 0 -69.833 -13.5 -95.5 -40.5s-38.5 -59.5 -38.5 -97.5c0 -39.333 12.333 -73 37 -101s56.667 -42 96 -42c40 0 72.667 13 98 39s38 59 38 99zM249 725v23.002c0 34.667 10.333 62 31 82s47.667 30 81 30h61v-73h-10.5h-11.5h-11.5c-5 0 -8.83301 -0.333008 -11.5 -1
s-6 -1.33398 -10 -2.00098s-7.16699 -1.83398 -9.5 -3.50098l-7 -5c-2.33301 -1.66699 -4 -4 -5 -7s-1.5 -6.16699 -1.5 -9.5v-24h78v-109h-173v99z" />
    <glyph glyph-name="Hcircumflex" unicode="&#x124;" horiz-adv-x="754" 
d="M687 0h-189v296h-242v-296h-189v740h189v-278h242v278h189v-740zM584 805h-160l-46 58l-46 -58h-162l156 166h108z" />
    <glyph glyph-name="hcircumflex" unicode="&#x125;" horiz-adv-x="632" 
d="M574 0h-166v302c0 77.333 -29.667 116 -89 116c-62 0 -93 -36.667 -93 -110v-308h-166v740h166v-236h2c26 46.667 73.667 70 143 70c66 0 116.333 -20.333 151 -61c16.667 -19.333 29 -41.333 37 -66s12.5 -45.167 13.5 -61.5s1.5 -41.5 1.5 -75.5v-310zM410 805h-160
l-46 58l-46 -58h-162l156 166h108z" />
    <glyph glyph-name="Hbar" unicode="&#x126;" horiz-adv-x="754" 
d="M687 0h-189v296h-242v-296h-189v539h-67v116h67v85h189v-85h242v85h189v-85h67v-116h-67v-539zM256 462h242v77h-242v-77z" />
    <glyph glyph-name="hbar" unicode="&#x127;" horiz-adv-x="632" 
d="M574 0h-166v262c0 77.333 -29.667 116 -89 116c-62 0 -93 -36.667 -93 -110v-268h-166v584h-60v101h60v55h166v-55h178v-101h-178v-120h2c26 46.667 73.667 70 143 70c66 0 116.333 -20.333 151 -61c16.667 -19.333 29 -41.333 37 -66s12.5 -45.167 13.5 -61.5
s1.5 -41.5 1.5 -75.5v-270z" />
    <glyph glyph-name="Itilde" unicode="&#x128;" horiz-adv-x="323" 
d="M256 0h-189v740h189v-740zM364 849c-39.333 -24.667 -77.002 -37 -113.002 -37c-16.667 0 -43.5 4.33301 -80.5 13s-63.5 13 -79.5 13c-16.667 0 -40.667 -6.33301 -72 -19l-60 88c40.667 23.333 77.334 35 110.001 35c18.667 0 45.834 -4.16699 81.501 -12.5
s62.5 -12.5 80.5 -12.5c22 0 46.333 5.66699 73 17z" />
    <glyph glyph-name="itilde" unicode="&#x129;" horiz-adv-x="286" 
d="M226 0h-166v555h166v-555zM346 678c-39.333 -24.667 -77.001 -37 -113.001 -37c-16.667 0 -43.5 4.33301 -80.5 13s-63.5 13 -79.5 13c-16.667 0 -40.667 -6.33301 -72 -19l-60 88c40.667 23.333 77.334 35 110.001 35c18 0 45 -4.16699 81 -12.5s63 -12.5 81 -12.5
c22 0 46.333 5.66699 73 17z" />
    <glyph glyph-name="Imacron" unicode="&#x12a;" horiz-adv-x="323" 
d="M256 0h-189v740h189v-740zM341 819h-359v126h359v-126z" />
    <glyph glyph-name="imacron" unicode="&#x12b;" horiz-adv-x="286" 
d="M226 0h-166v555h166v-555zM323 648h-359v126h359v-126z" />
    <glyph glyph-name="Ibreve" unicode="&#x12c;" horiz-adv-x="323" 
d="M256 0h-189v740h189v-740zM367 949c-2 -34.667 -14 -63.1689 -36 -85.502s-47.167 -37.666 -75.5 -45.999s-59.833 -12.5 -94.5 -12.5c-55.333 0 -102.5 11.333 -141.5 34s-60.5 59.334 -64.5 110.001h113c18.667 -23.333 51.334 -35 98.001 -35
c43.333 0 72.666 11.667 87.999 35h113z" />
    <glyph glyph-name="ibreve" unicode="&#x12d;" horiz-adv-x="286" 
d="M226 0h-166v555h166v-555zM349 778c-2 -34.667 -14 -63.1689 -36 -85.502s-47.167 -37.666 -75.5 -45.999s-59.833 -12.5 -94.5 -12.5c-55.333 0 -102.5 11.333 -141.5 34s-60.5 59.334 -64.5 110.001h113c18.667 -23.333 51.334 -35 98.001 -35
c43.333 0 72.666 11.667 87.999 35h113z" />
    <glyph glyph-name="Iogonek" unicode="&#x12e;" horiz-adv-x="323" 
d="M264 -190c-32 -10.667 -60.6699 -15.999 -86.0029 -15.999c-32.667 0 -60.667 8.33301 -84 25s-35 40.667 -35 72c0 16 4.83301 31.333 14.5 46s19.334 26 29.001 34s22.834 17.667 39.501 29h-75v740h189v-740h-30c-38 -21.333 -57 -44 -57 -68
c0 -12.667 4.83301 -23.834 14.5 -33.501s20.834 -14.5 33.501 -14.5c11.333 0 27 4 47 12v-86z" />
    <glyph glyph-name="iogonek" unicode="&#x12f;" horiz-adv-x="286" 
d="M246 -190c-32 -10.667 -60.6699 -15.999 -86.0029 -15.999c-32.667 0 -60.667 8.33301 -84 25s-35 40.667 -35 72c0 16 4.83301 31.333 14.5 46s19.334 26 29.001 34s22.834 17.667 39.501 29h-64v555h166v-555h-18c-38 -21.333 -57 -44 -57 -68
c0 -12.667 4.83301 -23.834 14.5 -33.501s20.834 -14.5 33.501 -14.5c11.333 0 27 4 47 12v-86zM225.997 614.001h-166v126h166v-126z" />
    <glyph glyph-name="Idotaccent" unicode="&#x130;" horiz-adv-x="323" 
d="M256 0h-189v740h189v-740zM241 815h-159v151h159v-151z" />
    <glyph glyph-name="dotlessi" unicode="&#x131;" horiz-adv-x="286" 
d="M226 0h-166v555h166v-555z" />
    <glyph glyph-name="IJ" unicode="&#x132;" horiz-adv-x="901" 
d="M256 0h-189v740h189v-740zM833 293c0 -32 -0.499023 -57.167 -1.49902 -75.5s-5.16699 -40.833 -12.5 -67.5s-18 -49 -32 -67c-24.667 -30.667 -55.667 -54.5 -93 -71.5s-76 -25.5 -116 -25.5c-36 0 -69.333 6 -100 18c-99.333 36 -149 114 -149 234h201
c3.33301 -57.333 22.333 -86 57 -86c12.667 0 23.167 2.66699 31.5 8s14.166 13.333 17.499 24s5.5 20.5 6.5 29.5s1.5 19.833 1.5 32.5v494h189v-447z" />
    <glyph glyph-name="ij" unicode="&#x133;" horiz-adv-x="587" 
d="M226 614h-166v126h166v-126zM226 0h-166v555h166v-555zM519 614h-166v126h166v-126zM519 12c0 -78.667 -14.667 -134.333 -44 -167s-83.333 -49 -162 -49h-41v126h22c25.333 0 41.5 7 48.5 21s10.5 35 10.5 63v549h166v-543z" />
    <glyph glyph-name="Jcircumflex" unicode="&#x134;" horiz-adv-x="578" 
d="M510 293c0 -32 -0.5 -57.167 -1.5 -75.5s-5.16699 -40.833 -12.5 -67.5s-18 -49 -32 -67c-24.667 -30.667 -55.667 -54.5 -93 -71.5s-76 -25.5 -116 -25.5c-35.333 0 -68.666 6 -99.999 18c-99.333 36 -149 114 -149 234h201c3.33301 -57.333 22.333 -86 57 -86
c12.667 0 23.167 2.66699 31.5 8s14.166 13.333 17.499 24s5.5 20.5 6.5 29.5s1.5 19.833 1.5 32.5v494h189v-447zM540 805h-160l-46 58l-46 -58h-162l156 166h108z" />
    <glyph glyph-name="jcircumflex" unicode="&#x135;" horiz-adv-x="321" 
d="M253 12c0 -78.667 -14.667 -134.333 -44 -167s-83.333 -49 -162 -49h-41v126h22c25.333 0 41.5 7 48.5 21s10.5 35 10.5 63v549h166v-543zM372 630.001h-160l-46 58l-46 -58h-162l156 166h108z" />
    <glyph glyph-name="Kcommaaccent" unicode="&#x136;" horiz-adv-x="707" 
d="M701 0h-221l-202 320h-2v-320h-189v740h189v-333h2l209 333h198l-245 -369zM440 -145v-23.002c0 -34.667 -10.333 -62 -31 -82s-47.667 -30 -81 -30h-61v73h10.5h11.5h11.5c5 0 8.83301 0.333008 11.5 1s6 1.33398 10 2.00098s7.16699 1.83398 9.5 3.50098l7 5
c2.33301 1.66699 4 4 5 7s1.5 6.16699 1.5 9.5v24h-78v109h173v-99z" />
    <glyph glyph-name="kcommaaccent" unicode="&#x137;" horiz-adv-x="591" 
d="M585 555l-209 -244l203 -311h-188l-157 267h-2v-267h-166v740h166v-386h2l154 201h197zM382 -145v-23.002c0 -34.667 -10.333 -62 -31 -82s-47.667 -30 -81 -30h-61v73h10.5h11.5h11.5c5 0 8.83301 0.333008 11.5 1s6 1.33398 10 2.00098s7.16699 1.83398 9.5 3.50098
l7 5c2.33301 1.66699 4 4 5 7s1.5 6.16699 1.5 9.5v24h-78v109h173v-99z" />
    <glyph glyph-name="kgreenlandic" unicode="&#x138;" horiz-adv-x="608" 
d="M586 555l-212 -276l228 -279h-202l-166 222h-2v-222h-166v555h166v-236h2l161 236h191z" />
    <glyph glyph-name="Lacute" unicode="&#x139;" horiz-adv-x="487" 
d="M480 0h-408v740h189v-574h219v-166zM329 885l-246 -109l-47 98l240 129z" />
    <glyph glyph-name="lacute" unicode="&#x13a;" horiz-adv-x="286" 
d="M226 0h-166v740h166v-740zM310 885l-246 -109l-47 98l240 129z" />
    <glyph glyph-name="Lcommaaccent" unicode="&#x13b;" horiz-adv-x="487" 
d="M480 0h-408v740h189v-574h219v-166zM349 -145v-23.002c0 -34.667 -10.333 -62 -31 -82s-47.667 -30 -81 -30h-61v73h10.5h11.5h11.5c5 0 8.83301 0.333008 11.5 1s6 1.33398 10 2.00098s7.16699 1.83398 9.5 3.50098l7 5c2.33301 1.66699 4 4 5 7s1.5 6.16699 1.5 9.5v24
h-78v109h173v-99z" />
    <glyph glyph-name="lcommaaccent" unicode="&#x13c;" horiz-adv-x="286" 
d="M226 0h-166v740h166v-740zM229 -145v-23.002c0 -34.667 -10.333 -62 -31 -82s-47.667 -30 -81 -30h-61v73h10.5h11.5h11.5c5 0 8.83301 0.333008 11.5 1s6 1.33398 10 2.00098s7.16699 1.83398 9.5 3.50098l7 5c2.33301 1.66699 4 4 5 7s1.5 6.16699 1.5 9.5v24h-78v109
h173v-99z" />
    <glyph glyph-name="Lcaron" unicode="&#x13d;" horiz-adv-x="487" 
d="M480 0h-408v740h189v-574h219v-166zM491 641v-23.002c0 -34.667 -10.333 -62 -31 -82s-47.667 -30 -81 -30h-61v73h10.5h11.5h11.5c5 0 8.83301 0.333008 11.5 1s6 1.33398 10 2.00098s7.16699 1.83398 9.5 3.50098l7 5c2.33301 1.66699 4 4 5 7s1.5 6.16699 1.5 9.5v24
h-78v109h173v-99z" />
    <glyph glyph-name="lcaron" unicode="&#x13e;" horiz-adv-x="417" 
d="M226 0h-166v740h166v-740zM437 641v-23.002c0 -34.667 -10.333 -62 -31 -82s-47.667 -30 -81 -30h-61v73h10.5h11.5h11.5c5 0 8.83301 0.333008 11.5 1s6 1.33398 10 2.00098s7.16699 1.83398 9.5 3.50098l7 5c2.33301 1.66699 4 4 5 7s1.5 6.16699 1.5 9.5v24h-78v109
h173v-99z" />
    <glyph glyph-name="Ldot" unicode="&#x13f;" horiz-adv-x="538" 
d="M480 0h-408v740h189v-574h219v-166zM510 334h-159v151h159v-151z" />
    <glyph glyph-name="ldot" unicode="&#x140;" horiz-adv-x="445" 
d="M445 294h-159v151h159v-151zM226 0h-166v740h166v-740z" />
    <glyph glyph-name="Lslash" unicode="&#x141;" horiz-adv-x="487" 
d="M480 0h-408v205l-65 -47v188l65 47v347h189v-211l109 78v-188l-109 -78v-175h219v-166z" />
    <glyph glyph-name="lslash" unicode="&#x142;" horiz-adv-x="342" 
d="M317 375l-65 -42v-333h-166v226l-61 -39v172l61 39v342h166v-235l65 42v-172z" />
    <glyph glyph-name="Nacute" unicode="&#x143;" horiz-adv-x="759" 
d="M691 0h-164l-282 450l-2 -1l5 -449h-181v740h163l286 -465l2 2l-8 463h181v-740zM546 885l-246 -109l-47 98l240 129z" />
    <glyph glyph-name="nacute" unicode="&#x144;" horiz-adv-x="632" 
d="M574 0l-166 0.000976562v303c0 36.667 -6 65 -18 85s-35 30 -69 30c-36 0 -60.833 -10.167 -74.5 -30.5s-20.5 -48.833 -20.5 -85.5v-302h-166v555h155v-59h2c32 52 82.333 78 151 78c24 0 49.333 -4.33301 76 -13s48.667 -20.334 66 -35.001
c42.667 -35.333 64 -95 64 -179v-347zM483 723.001l-246 -109l-47 98l240 129z" />
    <glyph glyph-name="Ncommaaccent" unicode="&#x145;" horiz-adv-x="759" 
d="M691 0h-164l-282 450l-2 -1l5 -449h-181v740h163l286 -465l2 2l-8 463h181v-740zM466 -145v-23.002c0 -34.667 -10.333 -62 -31 -82s-47.667 -30 -81 -30h-61v73h10.5h11.5h11.5c5 0 8.83301 0.333008 11.5 1s6 1.33398 10 2.00098s7.16699 1.83398 9.5 3.50098l7 5
c2.33301 1.66699 4 4 5 7s1.5 6.16699 1.5 9.5v24h-78v109h173v-99z" />
    <glyph glyph-name="ncommaaccent" unicode="&#x146;" horiz-adv-x="632" 
d="M574 0l-166 0.000976562v303c0 36.667 -6 65 -18 85s-35 30 -69 30c-36 0 -60.833 -10.167 -74.5 -30.5s-20.5 -48.833 -20.5 -85.5v-302h-166v555h155v-59h2c32 52 82.333 78 151 78c24 0 49.333 -4.33301 76 -13s48.667 -20.334 66 -35.001
c42.667 -35.333 64 -95 64 -179v-347zM403 -144.999v-23.002c0 -34.667 -10.333 -62 -31 -82s-47.667 -30 -81 -30h-61v73h10.5h11.5h11.5c5 0 8.83301 0.333008 11.5 1s6 1.33398 10 2.00098s7.16699 1.83398 9.5 3.50098l7 5c2.33301 1.66699 4 4 5 7s1.5 6.16699 1.5 9.5
v24h-78v109h173v-99z" />
    <glyph glyph-name="Ncaron" unicode="&#x147;" horiz-adv-x="759" 
d="M691 0h-164l-282 450l-2 -1l5 -449h-181v740h163l286 -465l2 2l-8 463h181v-740zM586 971l-155 -166h-108l-151 166h161l46 -58l46 58h161z" />
    <glyph glyph-name="ncaron" unicode="&#x148;" horiz-adv-x="632" 
d="M574 0l-166 0.000976562v303c0 36.667 -6 65 -18 85s-35 30 -69 30c-36 0 -60.833 -10.167 -74.5 -30.5s-20.5 -48.833 -20.5 -85.5v-302h-166v555h155v-59h2c32 52 82.333 78 151 78c24 0 49.333 -4.33301 76 -13s48.667 -20.334 66 -35.001
c42.667 -35.333 64 -95 64 -179v-347zM513 789.001l-155 -166h-108l-151 166h161l46 -58l46 58h161z" />
    <glyph glyph-name="napostrophe" unicode="&#x149;" horiz-adv-x="792" 
d="M734 0l-166 0.000976562v303c0 36.667 -6 65 -18 85s-35 30 -69 30c-36 0 -60.833 -10.167 -74.5 -30.5s-20.5 -48.833 -20.5 -85.5v-302h-166v555h155v-59h2c32 52 82.333 78 151 78c24 0 49.333 -4.33301 76 -13s48.667 -20.334 66 -35.001
c42.667 -35.333 64 -95 64 -179v-347zM163 530.001c0 -34 -8.83301 -62.6699 -26.5 -86.0029s-42.834 -35 -75.501 -35h-72v89h13.5h15.5c2.66699 0 7.33398 0.333008 14.001 1s11.5 1.83398 14.5 3.50098s6.5 3.83398 10.5 6.50098s6.83301 6.33398 8.5 11.001
s2.5 10 2.5 16v34h-79v170h174v-210z" />
    <glyph glyph-name="Eng" unicode="&#x14a;" horiz-adv-x="759" 
d="M691 12c0 -78.667 -14.667 -134.333 -44 -167s-83.333 -49 -162 -49h-48v133h22c22.667 0 38 6.16699 46 18.5s12.333 29.833 13 52.5l-273 450l-2 -1l5 -449h-181v740h163l286 -480l2 2l-8 478h181v-728z" />
    <glyph glyph-name="eng" unicode="&#x14b;" horiz-adv-x="632" 
d="M574 12c0 -78.667 -14.667 -134.332 -44 -166.999s-83.333 -49 -162 -49h-41v126h22c25.333 0 41.5 7 48.5 21s10.5 35 10.5 63v297c0 36.667 -6 65 -18 85s-35 30 -69 30c-36 0 -60.833 -10.167 -74.5 -30.5s-20.5 -48.833 -20.5 -85.5v-302h-166v555h155v-59h2
c32 52 82.333 78 151 78c24 0 49.333 -4.33301 76 -13s48.667 -20.334 66 -35.001c42.667 -35.333 64 -95 64 -179v-335z" />
    <glyph glyph-name="Omacron" unicode="&#x14c;" horiz-adv-x="851" 
d="M816 370c0 -108.667 -37.999 -199.833 -113.999 -273.5s-168.667 -110.5 -278 -110.5c-106 0 -197.333 36.167 -274 108.5s-115 161.166 -115 266.499c0 56 9.66699 108.667 29 158c10 26.667 26 54.334 48 83.001c77.333 101.333 181.666 152 312.999 152
c108.667 0 201 -37 277 -111s114 -165 114 -273zM627.001 369.001c0 59.333 -18.832 110.666 -56.499 153.999s-85.834 65 -144.501 65c-59.333 0 -107.833 -21.167 -145.5 -63.5s-56.5 -93.166 -56.5 -152.499c0 -60.667 19 -112.5 57 -155.5s87 -64.5 147 -64.5
c58 0 105.667 21.5 143 64.5s56 93.833 56 152.5zM605.002 819.001h-359v126h359v-126z" />
    <glyph glyph-name="omacron" unicode="&#x14d;" horiz-adv-x="666" 
d="M632 278c0 -84.667 -28.5 -155 -85.5 -211s-128.167 -84 -213.5 -84s-156.5 28 -213.5 84s-85.5 126.333 -85.5 211s28.5 155 85.5 211s128.167 84 213.5 84s156.5 -28 213.5 -84s85.5 -126.333 85.5 -211zM466 278c0 38 -12.667 70.833 -38 98.5s-57 41.5 -95 41.5
s-69.667 -13.833 -95 -41.5s-38 -60.5 -38 -98.5s12.667 -70.833 38 -98.5s57 -41.5 95 -41.5s69.667 13.833 95 41.5s38 60.5 38 98.5zM513 648h-359v126h359v-126z" />
    <glyph glyph-name="Obreve" unicode="&#x14e;" horiz-adv-x="851" 
d="M816 370c0 -108.667 -37.999 -199.833 -113.999 -273.5s-168.667 -110.5 -278 -110.5c-106 0 -197.333 36.167 -274 108.5s-115 161.166 -115 266.499c0 56 9.66699 108.667 29 158c10 26.667 26 54.334 48 83.001c77.333 101.333 181.666 152 312.999 152
c108.667 0 201 -37 277 -111s114 -165 114 -273zM627.001 369.001c0 59.333 -18.832 110.666 -56.499 153.999s-85.834 65 -144.501 65c-59.333 0 -107.833 -21.167 -145.5 -63.5s-56.5 -93.166 -56.5 -152.499c0 -60.667 19 -112.5 57 -155.5s87 -64.5 147 -64.5
c58 0 105.667 21.5 143 64.5s56 93.833 56 152.5zM631.002 949.001c-2 -34.667 -14 -63.1689 -36 -85.502s-47.167 -37.666 -75.5 -45.999s-59.833 -12.5 -94.5 -12.5c-55.333 0 -102.5 11.333 -141.5 34s-60.5 59.334 -64.5 110.001h113
c18.667 -23.333 51.334 -35 98.001 -35c43.333 0 72.666 11.667 87.999 35h113z" />
    <glyph glyph-name="obreve" unicode="&#x14f;" horiz-adv-x="666" 
d="M632 278c0 -84.667 -28.5 -155 -85.5 -211s-128.167 -84 -213.5 -84s-156.5 28 -213.5 84s-85.5 126.333 -85.5 211s28.5 155 85.5 211s128.167 84 213.5 84s156.5 -28 213.5 -84s85.5 -126.333 85.5 -211zM466 278c0 38 -12.667 70.833 -38 98.5s-57 41.5 -95 41.5
s-69.667 -13.833 -95 -41.5s-38 -60.5 -38 -98.5s12.667 -70.833 38 -98.5s57 -41.5 95 -41.5s69.667 13.833 95 41.5s38 60.5 38 98.5zM539 778c-2 -34.667 -14 -63.1689 -36 -85.502s-47.167 -37.666 -75.5 -45.999s-59.833 -12.5 -94.5 -12.5
c-55.333 0 -102.5 11.333 -141.5 34s-60.5 59.334 -64.5 110.001h113c18.667 -23.333 51.334 -35 98.001 -35c43.333 0 72.666 11.667 87.999 35h113z" />
    <glyph glyph-name="Ohungarumlaut" unicode="&#x150;" horiz-adv-x="851" 
d="M816 370c0 -108.667 -37.999 -199.833 -113.999 -273.5s-168.667 -110.5 -278 -110.5c-106 0 -197.333 36.167 -274 108.5s-115 161.166 -115 266.499c0 56 9.66699 108.667 29 158c10 26.667 26 54.334 48 83.001c77.333 101.333 181.666 152 312.999 152
c108.667 0 201 -37 277 -111s114 -165 114 -273zM627.001 369.001c0 59.333 -18.832 110.666 -56.499 153.999s-85.834 65 -144.501 65c-59.333 0 -107.833 -21.167 -145.5 -63.5s-56.5 -93.166 -56.5 -152.499c0 -60.667 19 -112.5 57 -155.5s87 -64.5 147 -64.5
c58 0 105.667 21.5 143 64.5s56 93.833 56 152.5zM671.002 951.001l-86 -175l-106 47l75 185zM472.002 951.001l-86 -175l-106 47l74 185z" />
    <glyph glyph-name="ohungarumlaut" unicode="&#x151;" horiz-adv-x="666" 
d="M632 278c0 -84.667 -28.5 -155 -85.5 -211s-128.167 -84 -213.5 -84s-156.5 28 -213.5 84s-85.5 126.333 -85.5 211s28.5 155 85.5 211s128.167 84 213.5 84s156.5 -28 213.5 -84s85.5 -126.333 85.5 -211zM466 278c0 38 -12.667 70.833 -38 98.5s-57 41.5 -95 41.5
s-69.667 -13.833 -95 -41.5s-38 -60.5 -38 -98.5s12.667 -70.833 38 -98.5s57 -41.5 95 -41.5s69.667 13.833 95 41.5s38 60.5 38 98.5zM579 775l-86 -175l-106 47l75 185zM380 775l-86 -175l-106 47l74 185z" />
    <glyph glyph-name="OE" unicode="&#x152;" horiz-adv-x="1085" 
d="M1035 0h-411.999v49c-59.333 -42 -127.333 -63 -204 -63c-106.667 0 -197.334 37 -272.001 111s-112 164.333 -112 271c0 110 37.333 201.833 112 275.5s167 110.5 277 110.5c76 0 142.333 -21 199 -63v49h412v-166h-230v-115h222v-166h-222v-127h230v-166zM622.001 373
c0 60 -18.333 110.834 -55 152.501s-84.667 62.5 -144 62.5c-60 0 -108.167 -21.5 -144.5 -64.5s-54.5 -94.833 -54.5 -155.5c0 -58.667 18.5 -109.334 55.5 -152.001s84.5 -64 142.5 -64c60.667 0 109.167 21.5 145.5 64.5s54.5 95.167 54.5 156.5z" />
    <glyph glyph-name="oe" unicode="&#x153;" horiz-adv-x="1076" 
d="M1045 272c0 -14 -1.66504 -29.332 -4.99805 -45.999h-416c3.33301 -32 16.666 -57.333 39.999 -76s51.333 -28 84 -28c42 0 78 17 108 51h170c-24.667 -58.667 -61.167 -105.334 -109.5 -140.001s-103.166 -52 -164.499 -52c-90.667 0 -160 33.333 -208 100
c-52.667 -66.667 -124.667 -100 -216 -100c-82 0 -151.5 28.667 -208.5 86s-85.5 127 -85.5 209c0 86 28.667 157.167 86 213.5s129.333 84.5 216 84.5c38.667 0 77.667 -8.5 117 -25.5s69.666 -40.167 90.999 -69.5c21.333 29.333 51.666 52.5 90.999 69.5
s78.333 25.5 117 25.5c83.333 0 153 -29.5 209 -88.5s84 -130.167 84 -213.5zM879.002 337.001c-6.66699 29.333 -21.499 52.666 -44.499 69.999s-49.833 26 -80.5 26s-57.834 -8.66699 -81.501 -26s-38.167 -40.666 -43.5 -69.999h250zM467.003 278.001
c0 38 -12.832 71 -38.499 99s-57.167 42 -94.5 42c-38.667 0 -70.667 -14 -96 -42s-38 -61.333 -38 -100c0 -38 13 -71 39 -99s58 -42 96 -42c37.333 0 68.666 14.167 93.999 42.5s38 61.5 38 99.5z" />
    <glyph glyph-name="Racute" unicode="&#x154;" horiz-adv-x="653" 
d="M637 0h-216l-171 239h-2v-239h-181v740h234c33.333 0 60.5 -0.666992 81.5 -2s45.667 -6.16602 74 -14.499s52.5 -20.5 72.5 -36.5c60.667 -48.667 91 -116 91 -202c0 -58.667 -16.5 -109.834 -49.5 -153.501s-77.833 -70.167 -134.5 -79.5zM439 474
c0 34 -11.5 59.167 -34.5 75.5s-52.167 24.5 -87.5 24.5h-69v-206h67c38 0 68.167 8.66699 90.5 26s33.5 44 33.5 80zM493 885l-246 -109l-47 98l240 129z" />
    <glyph glyph-name="racute" unicode="&#x155;" horiz-adv-x="363" 
d="M356 407c-42.667 -1.33301 -75.167 -8.83301 -97.5 -22.5s-33.5 -40.167 -33.5 -79.5v-305h-166v555h156v-59h2c26.667 52 73 78 139 78v-167zM348 723l-246 -109l-47 98l240 129z" />
    <glyph glyph-name="Rcommaaccent" unicode="&#x156;" horiz-adv-x="653" 
d="M637 0h-216l-171 239h-2v-239h-181v740h234c33.333 0 60.5 -0.666992 81.5 -2s45.667 -6.16602 74 -14.499s52.5 -20.5 72.5 -36.5c60.667 -48.667 91 -116 91 -202c0 -58.667 -16.5 -109.834 -49.5 -153.501s-77.833 -70.167 -134.5 -79.5zM439 474
c0 34 -11.5 59.167 -34.5 75.5s-52.167 24.5 -87.5 24.5h-69v-206h67c38 0 68.167 8.66699 90.5 26s33.5 44 33.5 80zM413 -145v-23.002c0 -34.667 -10.333 -62 -31 -82s-47.667 -30 -81 -30h-61v73h10.5h11.5h11.5c5 0 8.83301 0.333008 11.5 1s6 1.33398 10 2.00098
s7.16699 1.83398 9.5 3.50098l7 5c2.33301 1.66699 4 4 5 7s1.5 6.16699 1.5 9.5v24h-78v109h173v-99z" />
    <glyph glyph-name="rcommaaccent" unicode="&#x157;" horiz-adv-x="363" 
d="M356 407c-42.667 -1.33301 -75.167 -8.83301 -97.5 -22.5s-33.5 -40.167 -33.5 -79.5v-305h-166v555h156v-59h2c26.667 52 73 78 139 78v-167zM228 -145v-23.002c0 -34.667 -10.333 -62 -31 -82s-47.667 -30 -81 -30h-61v73h10.5h11.5h11.5c5 0 8.83301 0.333008 11.5 1
s6 1.33398 10 2.00098s7.16699 1.83398 9.5 3.50098l7 5c2.33301 1.66699 4 4 5 7s1.5 6.16699 1.5 9.5v24h-78v109h173v-99z" />
    <glyph glyph-name="Rcaron" unicode="&#x158;" horiz-adv-x="653" 
d="M637 0h-216l-171 239h-2v-239h-181v740h234c33.333 0 60.5 -0.666992 81.5 -2s45.667 -6.16602 74 -14.499s52.5 -20.5 72.5 -36.5c60.667 -48.667 91 -116 91 -202c0 -58.667 -16.5 -109.834 -49.5 -153.501s-77.833 -70.167 -134.5 -79.5zM439 474
c0 34 -11.5 59.167 -34.5 75.5s-52.167 24.5 -87.5 24.5h-69v-206h67c38 0 68.167 8.66699 90.5 26s33.5 44 33.5 80zM533 971l-155 -166h-108l-151 166h161l46 -58l46 58h161z" />
    <glyph glyph-name="rcaron" unicode="&#x159;" horiz-adv-x="363" 
d="M356 407c-42.667 -1.33301 -75.167 -8.83301 -97.5 -22.5s-33.5 -40.167 -33.5 -79.5v-305h-166v555h156v-59h2c26.667 52 73 78 139 78v-167zM388 789l-155 -166h-108l-151 166h161l46 -58l46 58h161z" />
    <glyph glyph-name="Sacute" unicode="&#x15a;" horiz-adv-x="573" 
d="M550 213c0 -74.667 -23.832 -131.166 -71.499 -169.499s-109.834 -57.5 -186.501 -57.5c-78 0 -142 20.167 -192 60.5s-75 98.5 -75 174.5v24h188c0 -27.333 6.5 -51 19.5 -71s32.167 -30 57.5 -30c20 0 37 6.83301 51 20.5s21 30.5 21 50.5c0 11.333 -2 21.333 -6 30
s-10.667 16.334 -20 23.001s-17 11.5 -23 14.5s-16 7.5 -30 13.5c-14.667 6.66699 -36.667 16 -66 28c-56.667 23.333 -101 51.166 -133 83.499s-48 75.166 -48 128.499c0 65.333 26.333 118 79 158s112.667 60 180 60c38 0 75.167 -7.16699 111.5 -21.5
s65.833 -35.166 88.5 -62.499c18 -22 30.333 -44 37 -66s10.667 -48.667 12 -80h-187c-3.33301 23.333 -10 41.166 -20 53.499s-26 18.5 -48 18.5c-17.333 0 -32.5 -5.5 -45.5 -16.5s-19.5 -24.833 -19.5 -41.5c0 -13.333 2.33301 -23.666 7 -30.999
c3.33301 -5.33301 9.33301 -11.333 18 -18s19.667 -13.334 33 -20.001l34.5 -17c9.66699 -4.66699 21.667 -10.167 36 -16.5s22.5 -9.83301 24.5 -10.5c56.667 -26 99.667 -54.5 129 -85.5s44 -73.167 44 -126.5zM453.001 885.001l-246 -109l-47 98l240 129z" />
    <glyph glyph-name="sacute" unicode="&#x15b;" horiz-adv-x="499" 
d="M476 170c0 -59.333 -22.334 -105.667 -67.001 -139s-97.667 -50 -159 -50c-60.667 0 -112 16 -154 48s-66 77.333 -72 136h165c2.66699 -16.667 9.5 -29.334 20.5 -38.001s25.167 -13 42.5 -13c14 0 27.167 3.83301 39.5 11.5s18.5 18.167 18.5 31.5
c0 5.33301 -0.833008 10.333 -2.5 15s-4.16699 9 -7.5 13s-6.5 7.33301 -9.5 10s-7.5 5.5 -13.5 8.5s-10.5 5.16699 -13.5 6.5s-8 3.33301 -15 6s-11.5 4.33398 -13.5 5.00098c-32 10.667 -56 19 -72 25c-88 32 -132 80.333 -132 145c0 55.333 21.5 99.666 64.5 132.999
s93.167 50 150.5 50c58 0 106.667 -15 146 -45s61.666 -73.333 66.999 -130h-163c-0.666992 28 -18 42 -52 42c-12 0 -22.833 -3.33301 -32.5 -10s-14.5 -15.667 -14.5 -27c0 -13.333 6.83301 -24.666 20.5 -33.999s30.834 -16.5 51.501 -21.5s43.167 -11.833 67.5 -20.5
s46.833 -18.5 67.5 -29.5s37.834 -27.5 51.501 -49.5s20.5 -48.333 20.5 -79zM415.999 722.999l-246 -109l-47 98l240 129z" />
    <glyph glyph-name="Scircumflex" unicode="&#x15c;" horiz-adv-x="573" 
d="M550 213c0 -74.667 -23.832 -131.166 -71.499 -169.499s-109.834 -57.5 -186.501 -57.5c-78 0 -142 20.167 -192 60.5s-75 98.5 -75 174.5v24h188c0 -27.333 6.5 -51 19.5 -71s32.167 -30 57.5 -30c20 0 37 6.83301 51 20.5s21 30.5 21 50.5c0 11.333 -2 21.333 -6 30
s-10.667 16.334 -20 23.001s-17 11.5 -23 14.5s-16 7.5 -30 13.5c-14.667 6.66699 -36.667 16 -66 28c-56.667 23.333 -101 51.166 -133 83.499s-48 75.166 -48 128.499c0 65.333 26.333 118 79 158s112.667 60 180 60c38 0 75.167 -7.16699 111.5 -21.5
s65.833 -35.166 88.5 -62.499c18 -22 30.333 -44 37 -66s10.667 -48.667 12 -80h-187c-3.33301 23.333 -10 41.166 -20 53.499s-26 18.5 -48 18.5c-17.333 0 -32.5 -5.5 -45.5 -16.5s-19.5 -24.833 -19.5 -41.5c0 -13.333 2.33301 -23.666 7 -30.999
c3.33301 -5.33301 9.33301 -11.333 18 -18s19.667 -13.334 33 -20.001l34.5 -17c9.66699 -4.66699 21.667 -10.167 36 -16.5s22.5 -9.83301 24.5 -10.5c56.667 -26 99.667 -54.5 129 -85.5s44 -73.167 44 -126.5zM493.001 805.001h-160l-46 58l-46 -58h-162l156 166h108z
" />
    <glyph glyph-name="scircumflex" unicode="&#x15d;" horiz-adv-x="499" 
d="M476 170c0 -59.333 -22.334 -105.667 -67.001 -139s-97.667 -50 -159 -50c-60.667 0 -112 16 -154 48s-66 77.333 -72 136h165c2.66699 -16.667 9.5 -29.334 20.5 -38.001s25.167 -13 42.5 -13c14 0 27.167 3.83301 39.5 11.5s18.5 18.167 18.5 31.5
c0 5.33301 -0.833008 10.333 -2.5 15s-4.16699 9 -7.5 13s-6.5 7.33301 -9.5 10s-7.5 5.5 -13.5 8.5s-10.5 5.16699 -13.5 6.5s-8 3.33301 -15 6s-11.5 4.33398 -13.5 5.00098c-32 10.667 -56 19 -72 25c-88 32 -132 80.333 -132 145c0 55.333 21.5 99.666 64.5 132.999
s93.167 50 150.5 50c58 0 106.667 -15 146 -45s61.666 -73.333 66.999 -130h-163c-0.666992 28 -18 42 -52 42c-12 0 -22.833 -3.33301 -32.5 -10s-14.5 -15.667 -14.5 -27c0 -13.333 6.83301 -24.666 20.5 -33.999s30.834 -16.5 51.501 -21.5s43.167 -11.833 67.5 -20.5
s46.833 -18.5 67.5 -29.5s37.834 -27.5 51.501 -49.5s20.5 -48.333 20.5 -79zM455.999 629.999h-160l-46 58l-46 -58h-162l156 166h108z" />
    <glyph glyph-name="Scedilla" unicode="&#x15e;" horiz-adv-x="573" 
d="M392 -141c0 -31.333 -10.667 -56.499 -32 -75.499s-48 -28.5 -80 -28.5c-29.333 0 -53.833 8.33301 -73.5 25s-31.5 39.667 -35.5 69h76c6.66699 -18.667 17.667 -28 33 -28c11.333 0 20.166 3.5 26.499 10.5s9.5 16.167 9.5 27.5c0 10 -3.16699 18.167 -9.5 24.5
s-14.5 9.5 -24.5 9.5s-19 -5 -27 -15l-65 35l37 78c-61.333 10 -110.333 34.5 -147 73.5s-55 91.167 -55 156.5v24h188c0 -27.333 6.5 -51 19.5 -71s32.167 -30 57.5 -30c20 0 37 6.83301 51 20.5s21 30.5 21 50.5c0 11.333 -2 21.333 -6 30s-10.667 16.334 -20 23.001
s-17 11.5 -23 14.5s-16 7.5 -30 13.5c-14.667 6.66699 -36.667 16 -66 28c-56.667 23.333 -101 51.166 -133 83.499s-48 75.166 -48 128.499c0 65.333 26.333 118 79 158s112.667 60 180 60c38 0 75.167 -7.16699 111.5 -21.5s65.833 -35.166 88.5 -62.499
c18 -22 30.333 -44 37 -66s10.667 -48.667 12 -80h-187c-3.33301 23.333 -10 41.166 -20 53.499s-26 18.5 -48 18.5c-17.333 0 -32.5 -5.5 -45.5 -16.5s-19.5 -24.833 -19.5 -41.5c0 -13.333 2.33301 -23.666 7 -30.999c3.33301 -5.33301 9.33301 -11.333 18 -18
s19.667 -13.334 33 -20.001l34.5 -17c9.66699 -4.66699 21.667 -10.167 36 -16.5s22.5 -9.83301 24.5 -10.5c56.667 -26 99.667 -54.5 129 -85.5s44 -73.167 44 -126.5c0 -72 -22.167 -127.167 -66.5 -165.5s-103.166 -58.833 -176.499 -61.5l-21 -39
c6.66699 2 13.667 3 21 3c25.333 0 45.833 -8.66699 61.5 -26s23.5 -39 23.5 -65z" />
    <glyph glyph-name="scedilla" unicode="&#x15f;" horiz-adv-x="499" 
d="M360 -141c0 -31.333 -10.668 -56.501 -32.001 -75.501s-48 -28.5 -80 -28.5c-29.333 0 -53.833 8.33301 -73.5 25s-31.5 39.667 -35.5 69h76c6.66699 -18.667 17.667 -28 33 -28c11.333 0 20.166 3.5 26.499 10.5s9.5 16.167 9.5 27.5c0 10 -3.16699 18.167 -9.5 24.5
s-14.5 9.5 -24.5 9.5s-19 -5 -27 -15l-65 35l35 73c-46.667 8.66699 -85.167 28.334 -115.5 59.001s-48.166 70.667 -53.499 120h165c2.66699 -16.667 9.5 -29.334 20.5 -38.001s25.167 -13 42.5 -13c14 0 27.167 3.83301 39.5 11.5s18.5 18.167 18.5 31.5
c0 5.33301 -0.833008 10.333 -2.5 15s-4.16699 9 -7.5 13s-6.5 7.33301 -9.5 10s-7.5 5.5 -13.5 8.5s-10.5 5.16699 -13.5 6.5s-8 3.33301 -15 6s-11.5 4.33398 -13.5 5.00098c-32 10.667 -56 19 -72 25c-88 32 -132 80.333 -132 145c0 55.333 21.5 99.666 64.5 132.999
s93.167 50 150.5 50c58 0 106.667 -15 146 -45s61.666 -73.333 66.999 -130h-163c-0.666992 28 -18 42 -52 42c-12 0 -22.833 -3.33301 -32.5 -10s-14.5 -15.667 -14.5 -27c0 -13.333 6.83301 -24.666 20.5 -33.999s30.834 -16.5 51.501 -21.5s43.167 -11.833 67.5 -20.5
s46.833 -18.5 67.5 -29.5s37.834 -27.5 51.501 -49.5s20.5 -48.333 20.5 -79c0 -55.333 -19.667 -99.5 -59 -132.5s-87.333 -51.5 -144 -55.5l-19 -35c6.66699 2 13.667 3 21 3c25.333 0 45.833 -8.66699 61.5 -26s23.5 -39 23.5 -65z" />
    <glyph glyph-name="Scaron" unicode="&#x160;" horiz-adv-x="573" 
d="M550 213c0 -74.667 -23.832 -131.166 -71.499 -169.499s-109.834 -57.5 -186.501 -57.5c-78 0 -142 20.167 -192 60.5s-75 98.5 -75 174.5v24h188c0 -27.333 6.5 -51 19.5 -71s32.167 -30 57.5 -30c20 0 37 6.83301 51 20.5s21 30.5 21 50.5c0 11.333 -2 21.333 -6 30
s-10.667 16.334 -20 23.001s-17 11.5 -23 14.5s-16 7.5 -30 13.5c-14.667 6.66699 -36.667 16 -66 28c-56.667 23.333 -101 51.166 -133 83.499s-48 75.166 -48 128.499c0 65.333 26.333 118 79 158s112.667 60 180 60c38 0 75.167 -7.16699 111.5 -21.5
s65.833 -35.166 88.5 -62.499c18 -22 30.333 -44 37 -66s10.667 -48.667 12 -80h-187c-3.33301 23.333 -10 41.166 -20 53.499s-26 18.5 -48 18.5c-17.333 0 -32.5 -5.5 -45.5 -16.5s-19.5 -24.833 -19.5 -41.5c0 -13.333 2.33301 -23.666 7 -30.999
c3.33301 -5.33301 9.33301 -11.333 18 -18s19.667 -13.334 33 -20.001l34.5 -17c9.66699 -4.66699 21.667 -10.167 36 -16.5s22.5 -9.83301 24.5 -10.5c56.667 -26 99.667 -54.5 129 -85.5s44 -73.167 44 -126.5zM493.001 974.001l-155 -166h-108l-151 166h161l46 -58l46 58
h161z" />
    <glyph glyph-name="scaron" unicode="&#x161;" horiz-adv-x="499" 
d="M476 170c0 -59.333 -22.334 -105.667 -67.001 -139s-97.667 -50 -159 -50c-60.667 0 -112 16 -154 48s-66 77.333 -72 136h165c2.66699 -16.667 9.5 -29.334 20.5 -38.001s25.167 -13 42.5 -13c14 0 27.167 3.83301 39.5 11.5s18.5 18.167 18.5 31.5
c0 5.33301 -0.833008 10.333 -2.5 15s-4.16699 9 -7.5 13s-6.5 7.33301 -9.5 10s-7.5 5.5 -13.5 8.5s-10.5 5.16699 -13.5 6.5s-8 3.33301 -15 6s-11.5 4.33398 -13.5 5.00098c-32 10.667 -56 19 -72 25c-88 32 -132 80.333 -132 145c0 55.333 21.5 99.666 64.5 132.999
s93.167 50 150.5 50c58 0 106.667 -15 146 -45s61.666 -73.333 66.999 -130h-163c-0.666992 28 -18 42 -52 42c-12 0 -22.833 -3.33301 -32.5 -10s-14.5 -15.667 -14.5 -27c0 -13.333 6.83301 -24.666 20.5 -33.999s30.834 -16.5 51.501 -21.5s43.167 -11.833 67.5 -20.5
s46.833 -18.5 67.5 -29.5s37.834 -27.5 51.501 -49.5s20.5 -48.333 20.5 -79zM455.999 798.999l-155 -166h-108l-151 166h161l46 -58l46 58h161z" />
    <glyph glyph-name="Tcedilla" unicode="&#x162;" horiz-adv-x="499" 
d="M490 574h-145v-574h-189v574h-146v166h480v-166zM336 -145v-23.002c0 -34.667 -10.333 -62 -31 -82s-47.667 -30 -81 -30h-61v73h10.5h11.5h11.5c5 0 8.83301 0.333008 11.5 1s6 1.33398 10 2.00098s7.16699 1.83398 9.5 3.50098l7 5c2.33301 1.66699 4 4 5 7
s1.5 6.16699 1.5 9.5v24h-78v109h173v-99z" />
    <glyph glyph-name="tcedilla" unicode="&#x163;" horiz-adv-x="351" 
d="M339 429h-80v-429h-166v429h-82v126h82v185h166v-185h80v-126zM263 -145v-23.002c0 -34.667 -10.333 -62 -31 -82s-47.667 -30 -81 -30h-61v73h10.5h11.5h11.5c5 0 8.83301 0.333008 11.5 1s6 1.33398 10 2.00098s7.16699 1.83398 9.5 3.50098l7 5
c2.33301 1.66699 4 4 5 7s1.5 6.16699 1.5 9.5v24h-78v109h173v-99z" />
    <glyph glyph-name="Tcaron" unicode="&#x164;" horiz-adv-x="499" 
d="M490 574h-145v-574h-189v574h-146v166h480v-166zM456 971l-155 -166h-108l-151 166h161l46 -58l46 58h161z" />
    <glyph glyph-name="tcaron" unicode="&#x165;" horiz-adv-x="459" 
d="M339 429h-80v-429h-166v429h-82v126h82v185h166v-185h80v-126zM479 721v-23.002c0 -34.667 -10.333 -62 -31 -82s-47.667 -30 -81 -30h-61v73h10.5h11.5h11.5c5 0 8.83301 0.333008 11.5 1s6 1.33398 10 2.00098s7.16699 1.83398 9.5 3.50098l7 5
c2.33301 1.66699 4 4 5 7s1.5 6.16699 1.5 9.5v24h-78v109h173v-99z" />
    <glyph glyph-name="Tbar" unicode="&#x166;" horiz-adv-x="499" 
d="M460 266h-115v-266h-189v266h-116v166h116v142h-146v166h480v-166h-145v-142h115v-166z" />
    <glyph glyph-name="tbar" unicode="&#x167;" horiz-adv-x="351" 
d="M329 218h-70v-218h-166v218h-72v126h72v85h-82v126h82v185h166v-185h80v-126h-80v-85h70v-126z" />
    <glyph glyph-name="Utilde" unicode="&#x168;" horiz-adv-x="698" 
d="M633 293c0 -50.667 -5.00098 -93.833 -15.001 -129.5s-29.667 -68.167 -59 -97.5c-52.667 -53.333 -121.667 -80 -207 -80c-92 0 -163 26.333 -213 79c-31.333 32.667 -51.5 65.5 -60.5 98.5s-13.5 76.167 -13.5 129.5v447h189v-447c0 -42 6.5 -76 19.5 -102
s38.5 -39 76.5 -39c17.333 0 32 2.83301 44 8.5s21.167 12.5 27.5 20.5s11.333 18.833 15 32.5s5.83398 26.167 6.50098 37.5s1 25.333 1 42v447h189v-447zM551.999 849.001c-39.333 -24.667 -77.001 -37 -113.001 -37c-16.667 0 -43.5 4.33301 -80.5 13s-63.5 13 -79.5 13
c-16.667 0 -40.667 -6.33301 -72 -19l-60 88c40.667 23.333 77.334 35 110.001 35c18 0 45 -4.16699 81 -12.5s63 -12.5 81 -12.5c22 0 46.333 5.66699 73 17z" />
    <glyph glyph-name="utilde" unicode="&#x169;" horiz-adv-x="634" 
d="M574 0l-157 -0.000976562v59h-2c-24.667 -51.333 -72.667 -77 -144 -77c-70.667 0 -125 23.333 -163 70c-20.667 26 -34.167 51.333 -40.5 76s-9.5 56.334 -9.5 95.001v332h166v-307c0 -36 6.16699 -63.5 18.5 -82.5s35.833 -28.5 70.5 -28.5c63.333 0 95 37.667 95 113
v305h166v-555zM520 677.999c-39.333 -24.667 -77.001 -37 -113.001 -37c-16.667 0 -43.5 4.33301 -80.5 13s-63.5 13 -79.5 13c-16.667 0 -40.667 -6.33301 -72 -19l-60 88c40.667 23.333 77.334 35 110.001 35c18 0 45 -4.16699 81 -12.5s63 -12.5 81 -12.5
c22 0 46.333 5.66699 73 17z" />
    <glyph glyph-name="Umacron" unicode="&#x16a;" horiz-adv-x="698" 
d="M633 293c0 -50.667 -5.00098 -93.833 -15.001 -129.5s-29.667 -68.167 -59 -97.5c-52.667 -53.333 -121.667 -80 -207 -80c-92 0 -163 26.333 -213 79c-31.333 32.667 -51.5 65.5 -60.5 98.5s-13.5 76.167 -13.5 129.5v447h189v-447c0 -42 6.5 -76 19.5 -102
s38.5 -39 76.5 -39c17.333 0 32 2.83301 44 8.5s21.167 12.5 27.5 20.5s11.333 18.833 15 32.5s5.83398 26.167 6.50098 37.5s1 25.333 1 42v447h189v-447zM528.999 819.001h-359v126h359v-126z" />
    <glyph glyph-name="umacron" unicode="&#x16b;" horiz-adv-x="634" 
d="M574 0l-157 -0.000976562v59h-2c-24.667 -51.333 -72.667 -77 -144 -77c-70.667 0 -125 23.333 -163 70c-20.667 26 -34.167 51.333 -40.5 76s-9.5 56.334 -9.5 95.001v332h166v-307c0 -36 6.16699 -63.5 18.5 -82.5s35.833 -28.5 70.5 -28.5c63.333 0 95 37.667 95 113
v305h166v-555zM497 647.999h-359v126h359v-126z" />
    <glyph glyph-name="Ubreve" unicode="&#x16c;" horiz-adv-x="698" 
d="M633 293c0 -50.667 -5.00098 -93.833 -15.001 -129.5s-29.667 -68.167 -59 -97.5c-52.667 -53.333 -121.667 -80 -207 -80c-92 0 -163 26.333 -213 79c-31.333 32.667 -51.5 65.5 -60.5 98.5s-13.5 76.167 -13.5 129.5v447h189v-447c0 -42 6.5 -76 19.5 -102
s38.5 -39 76.5 -39c17.333 0 32 2.83301 44 8.5s21.167 12.5 27.5 20.5s11.333 18.833 15 32.5s5.83398 26.167 6.50098 37.5s1 25.333 1 42v447h189v-447zM554.999 949.001c-2 -34.667 -14 -63.1689 -36 -85.502s-47.167 -37.666 -75.5 -45.999s-59.833 -12.5 -94.5 -12.5
c-55.333 0 -102.5 11.333 -141.5 34s-60.5 59.334 -64.5 110.001h113c18.667 -23.333 51.334 -35 98.001 -35c43.333 0 72.666 11.667 87.999 35h113z" />
    <glyph glyph-name="ubreve" unicode="&#x16d;" horiz-adv-x="634" 
d="M574 0l-157 -0.000976562v59h-2c-24.667 -51.333 -72.667 -77 -144 -77c-70.667 0 -125 23.333 -163 70c-20.667 26 -34.167 51.333 -40.5 76s-9.5 56.334 -9.5 95.001v332h166v-307c0 -36 6.16699 -63.5 18.5 -82.5s35.833 -28.5 70.5 -28.5c63.333 0 95 37.667 95 113
v305h166v-555zM523 777.999c-2 -34.667 -14 -63.1689 -36 -85.502s-47.167 -37.666 -75.5 -45.999s-59.833 -12.5 -94.5 -12.5c-55.333 0 -102.5 11.333 -141.5 34s-60.5 59.334 -64.5 110.001h113c18.667 -23.333 51.334 -35 98.001 -35c43.333 0 72.666 11.667 87.999 35
h113z" />
    <glyph glyph-name="Uring" unicode="&#x16e;" horiz-adv-x="698" 
d="M633 293c0 -50.667 -5.00098 -93.833 -15.001 -129.5s-29.667 -68.167 -59 -97.5c-52.667 -53.333 -121.667 -80 -207 -80c-92 0 -163 26.333 -213 79c-31.333 32.667 -51.5 65.5 -60.5 98.5s-13.5 76.167 -13.5 129.5v447h189v-447c0 -42 6.5 -76 19.5 -102
s38.5 -39 76.5 -39c17.333 0 32 2.83301 44 8.5s21.167 12.5 27.5 20.5s11.333 18.833 15 32.5s5.83398 26.167 6.50098 37.5s1 25.333 1 42v447h189v-447zM474.999 891.001c0 -34.667 -12.333 -64.334 -37 -89.001s-54.334 -37 -89.001 -37s-64.334 12.333 -89.001 37
s-37 54.334 -37 89.001s12.333 64.334 37 89.001s54.334 37 89.001 37s64.334 -12.333 89.001 -37s37 -54.334 37 -89.001zM392.999 892.001c0 12 -4.33301 22.334 -13 31.001s-19 13 -31 13c-12.667 0 -23.167 -4.33301 -31.5 -13s-12.5 -19.334 -12.5 -32.001
c0 -12 4.33301 -22.167 13 -30.5s19 -12.5 31 -12.5s22.333 4.33301 31 13s13 19 13 31z" />
    <glyph glyph-name="uring" unicode="&#x16f;" horiz-adv-x="634" 
d="M574 0l-157 -0.000976562v59h-2c-24.667 -51.333 -72.667 -77 -144 -77c-70.667 0 -125 23.333 -163 70c-20.667 26 -34.167 51.333 -40.5 76s-9.5 56.334 -9.5 95.001v332h166v-307c0 -36 6.16699 -63.5 18.5 -82.5s35.833 -28.5 70.5 -28.5c63.333 0 95 37.667 95 113
v305h166v-555zM443 695.999c0 -34.667 -12.333 -64.334 -37 -89.001s-54.334 -37 -89.001 -37s-64.334 12.333 -89.001 37s-37 54.334 -37 89.001s12.333 64.334 37 89.001s54.334 37 89.001 37s64.334 -12.333 89.001 -37s37 -54.334 37 -89.001zM361 696.999
c0 12 -4.33301 22.334 -13 31.001s-19 13 -31 13c-12.667 0 -23.167 -4.33301 -31.5 -13s-12.5 -19.334 -12.5 -32.001c0 -12 4.33301 -22.167 13 -30.5s19 -12.5 31 -12.5s22.333 4.33301 31 13s13 19 13 31z" />
    <glyph glyph-name="Uhungarumlaut" unicode="&#x170;" horiz-adv-x="698" 
d="M633 293c0 -50.667 -5.00098 -93.833 -15.001 -129.5s-29.667 -68.167 -59 -97.5c-52.667 -53.333 -121.667 -80 -207 -80c-92 0 -163 26.333 -213 79c-31.333 32.667 -51.5 65.5 -60.5 98.5s-13.5 76.167 -13.5 129.5v447h189v-447c0 -42 6.5 -76 19.5 -102
s38.5 -39 76.5 -39c17.333 0 32 2.83301 44 8.5s21.167 12.5 27.5 20.5s11.333 18.833 15 32.5s5.83398 26.167 6.50098 37.5s1 25.333 1 42v447h189v-447zM564.999 951.001l-86 -175l-106 47l75 185zM365.999 951.001l-86 -175l-106 47l74 185z" />
    <glyph glyph-name="uhungarumlaut" unicode="&#x171;" horiz-adv-x="634" 
d="M574 0l-157 -0.000976562v59h-2c-24.667 -51.333 -72.667 -77 -144 -77c-70.667 0 -125 23.333 -163 70c-20.667 26 -34.167 51.333 -40.5 76s-9.5 56.334 -9.5 95.001v332h166v-307c0 -36 6.16699 -63.5 18.5 -82.5s35.833 -28.5 70.5 -28.5c63.333 0 95 37.667 95 113
v305h166v-555zM533 774.999l-86 -175l-106 47l75 185zM334 774.999l-86 -175l-106 47l74 185z" />
    <glyph glyph-name="Uogonek" unicode="&#x172;" horiz-adv-x="698" 
d="M471 -190c-32 -10.667 -60.6699 -15.998 -86.0029 -15.998c-32.667 0 -60.667 8.33301 -84 25s-35 40.667 -35 72c0 32.667 21 64.667 63 96c-83.333 4.66699 -146.666 30.667 -189.999 78c-31.333 32.667 -51.5 65.5 -60.5 98.5s-13.5 76.167 -13.5 129.5v447h189v-447
c0 -42 6.5 -76 19.5 -102s38.5 -39 76.5 -39c17.333 0 32 2.83301 44 8.5s21.167 12.5 27.5 20.5s11.333 18.833 15 32.5s5.83398 26.167 6.50098 37.5s1 25.333 1 42v447h189v-447c0 -50.667 -5 -93.834 -15 -129.501s-29.667 -68.167 -59 -97.5
c-38 -38 -84.333 -62.333 -139 -73c-29.333 -18.667 -44 -39 -44 -61c0 -12.667 4.83301 -23.834 14.5 -33.501s20.834 -14.5 33.501 -14.5c11.333 0 27 4 47 12v-86z" />
    <glyph glyph-name="uogonek" unicode="&#x173;" horiz-adv-x="634" 
d="M579 -190c-32 -10.667 -60.6699 -16 -86.0029 -16c-32.667 0 -60.667 8.33301 -84 25s-35 40.667 -35 72c0 16 4.83301 31.333 14.5 46s19.334 26 29.001 34s22.834 17.667 39.501 29h-40v59h-2c-24.667 -51.333 -72.667 -77 -144 -77c-70.667 0 -125 23.333 -163 70
c-20.667 26 -34.167 51.333 -40.5 76s-9.5 56.334 -9.5 95.001v332h166v-307c0 -36 6.16699 -63.5 18.5 -82.5s35.833 -28.5 70.5 -28.5c63.333 0 95 37.667 95 113v305h166v-555h-33c-38 -21.333 -57 -44 -57 -68c0 -12.667 4.83301 -23.834 14.5 -33.501
s20.834 -14.5 33.501 -14.5c11.333 0 27 4 47 12v-86z" />
    <glyph glyph-name="Wcircumflex" unicode="&#x174;" horiz-adv-x="981" 
d="M964 740l-196 -740h-166l-111 479h-2l-111 -479h-171l-191 740h192l99 -481h2l109 481h145l107 -483h2l101 483h191zM697 805h-160l-46 58l-46 -58h-162l156 166h108z" />
    <glyph glyph-name="wcircumflex" unicode="&#x175;" horiz-adv-x="850" 
d="M843 555l-170 -555h-154l-93 359h-2l-93 -359h-154l-170 555h172l83 -345h2l91 345h140l92 -345h2l83 345h171zM632 630h-160l-46 58l-46 -58h-162l156 166h108z" />
    <glyph glyph-name="Ycircumflex" unicode="&#x176;" horiz-adv-x="647" 
d="M638 740l-219 -471v-269h-189v269l-221 471h205l110 -297l111 297h203zM530 805h-160l-46 58l-46 -58h-162l156 166h108z" />
    <glyph glyph-name="ycircumflex" unicode="&#x177;" horiz-adv-x="574" 
d="M573 555l-278 -740h-176l88 213l-206 527h177l111 -322h2l106 322h176zM494 630h-160l-46 58l-46 -58h-162l156 166h108z" />
    <glyph glyph-name="Ydieresis" unicode="&#x178;" horiz-adv-x="647" 
d="M638 740l-219 -471v-269h-189v269l-221 471h205l110 -297l111 297h203zM519 815h-159v151h159v-151zM286 815h-159v151h159v-151z" />
    <glyph glyph-name="Zacute" unicode="&#x179;" horiz-adv-x="499" 
d="M483 0h-467v124l255 450h-255v166h467v-153l-236 -421h236v-166zM416 885l-246 -109l-47 98l240 129z" />
    <glyph glyph-name="zacute" unicode="&#x17a;" horiz-adv-x="444" 
d="M428 0h-413v114l234 315h-234v126h413v-126l-217 -303h217v-126zM389 723l-246 -109l-47 98l240 129z" />
    <glyph glyph-name="Zdotaccent" unicode="&#x17b;" horiz-adv-x="499" 
d="M483 0h-467v124l255 450h-255v166h467v-153l-236 -421h236v-166zM329 815h-159v151h159v-151z" />
    <glyph glyph-name="zdotaccent" unicode="&#x17c;" horiz-adv-x="444" 
d="M428 0h-413v114l234 315h-234v126h413v-126l-217 -303h217v-126zM302 634h-159v151h159v-151z" />
    <glyph glyph-name="Zcaron" unicode="&#x17d;" horiz-adv-x="499" 
d="M483 0h-467v124l255 450h-255v166h467v-153l-236 -421h236v-166zM471 974l-155 -166h-108l-151 166h161l46 -58l46 58h161z" />
    <glyph glyph-name="zcaron" unicode="&#x17e;" horiz-adv-x="444" 
d="M428 0h-413v114l234 315h-234v126h413v-126l-217 -303h217v-126zM454 799l-155 -166h-108l-151 166h161l46 -58l46 58h161z" />
    <glyph glyph-name="florin" unicode="&#x192;" horiz-adv-x="618" 
d="M547 815l-22.001 -133.001c-30 0 -51.5 -7.33301 -64.5 -22s-21.833 -37.667 -26.5 -69h73l-23 -125h-72l-57 -326c-6 -34 -10.667 -58.667 -14 -74s-10 -35.666 -20 -60.999s-22.333 -47 -37 -65c-49.333 -61.333 -117.666 -92 -204.999 -92c-22.667 0 -40.667 2 -54 6
l26 148c8 -1.33301 14 -2 18 -2c38.667 0 65.5 9.5 80.5 28.5s25.833 48.833 32.5 89.5l60 348h-72l21 125h73l6 32c11.333 58 38.5 105 81.5 141s94.167 54 153.5 54c18.667 0 32.667 -1 42 -3z" />
    <glyph glyph-name="AEacute" unicode="&#x1fc;" horiz-adv-x="975" 
d="M925 0h-411v124h-215l-80 -124h-229l514 740h421v-166h-228v-115h221v-166h-221v-127h228v-166zM514 270v201h-2l-136 -201h138zM754 885l-246 -109l-47 98l240 129z" />
    <glyph glyph-name="aeacute" unicode="&#x1fd;" horiz-adv-x="1091" 
d="M1059 267c0 -18.667 -1.33203 -32.333 -3.99902 -41h-417c4.66699 -32.667 18.667 -58.167 42 -76.5s51.666 -27.5 84.999 -27.5c40.667 0 76.667 17.667 108 53h167c-56 -128.667 -141.333 -193 -256 -193c-71.333 0 -123 24.333 -155 73h-2v-55h-151v55h-2
c-12.667 -24 -34.5 -42.167 -65.5 -54.5s-61.833 -18.5 -92.5 -18.5c-78 0 -144.5 29.5 -199.5 88.5s-82.5 127.833 -82.5 206.5c0 84 26.833 154.5 80.5 211.5s122.167 85.5 205.5 85.5c29.333 0 59.5 -6.33301 90.5 -19s52.167 -30.667 63.5 -54h2v54h151v-53h2
c35.333 48 87.333 72 156 72c38 0 76 -9 114 -27c52 -26 91.667 -64 119 -114s41 -105.333 41 -166zM895.001 336.001c-18 64.667 -59.333 97 -124 97c-31.333 0 -59.5 -8.66699 -84.5 -26s-39.833 -41 -44.5 -71h253zM476.001 276.001c0 42 -13 76.332 -39 102.999
s-60 40 -102 40c-58 0 -98.667 -27.667 -122 -83c-8.66699 -18.667 -13 -37 -13 -55c0 -41.333 13.167 -75.666 39.5 -102.999s60.166 -41 101.499 -41c38.667 0 70.834 13.5 96.501 40.5s38.5 59.833 38.5 98.5zM732.001 723l-246 -109l-47 98l240 129z" />
    <glyph glyph-name="Oslashacute" unicode="&#x1fe;" horiz-adv-x="851" 
d="M816 370c0 -108.667 -38.168 -199.832 -114.501 -273.499s-168.833 -110.5 -277.5 -110.5c-58 0 -113.667 11.667 -167 35l-63 -84l-118 87l62 83c-68.667 73.333 -103 161 -103 263c0 109.333 37.667 200.666 113 273.999s168 110 278 110
c60.667 0 116.334 -11.667 167.001 -35l64 87l118 -86l-64 -86c70 -75.333 105 -163.333 105 -264zM626.999 369.002c0 39.333 -9.66699 77.333 -29 114l-237 -320c20 -7.33301 42 -11 66 -11c58 0 105.833 21.5 143.5 64.5s56.5 93.833 56.5 152.5zM487.999 578.002
c-19.333 6.66699 -40 10 -62 10c-58.667 0 -107 -21 -145 -63s-57 -92.667 -57 -152c0 -43.333 9 -81.333 27 -114zM601.999 885.002l-246 -109l-47 98l240 129z" />
    <glyph glyph-name="oslashacute" unicode="&#x1ff;" horiz-adv-x="666" 
d="M632 278c0 -84.667 -28.332 -155.168 -84.999 -211.501s-127.667 -84.5 -213 -84.5c-44 0 -84.333 7.66699 -121 23l-65 -88l-105 80l61 82c-46.667 52.667 -70 118.334 -70 197.001c0 86 28.5 157 85.5 213s128.5 84 214.5 84c45.333 0 85.666 -7.66699 120.999 -23
l61 83l107 -77l-62 -83c47.333 -56.667 71 -121.667 71 -195zM466.001 277.999c0 18.667 -4 38.001 -12 58.001l-146 -196c8 -2 16.333 -3 25 -3c38.667 0 70.5 13.667 95.5 41s37.5 60.666 37.5 99.999zM361.001 415c-8.66699 2 -17.667 3 -27 3
c-38.667 0 -70.667 -13.667 -96 -41s-38 -60.333 -38 -99c0 -23.333 4.33301 -44 13 -62zM509.001 723l-246 -109l-47 98l240 129z" />
    <glyph glyph-name="Scommaaccent" unicode="&#x218;" horiz-adv-x="573" 
d="M550 213c0 -74.667 -23.832 -131.166 -71.499 -169.499s-109.834 -57.5 -186.501 -57.5c-78 0 -142 20.167 -192 60.5s-75 98.5 -75 174.5v24h188c0 -27.333 6.5 -51 19.5 -71s32.167 -30 57.5 -30c20 0 37 6.83301 51 20.5s21 30.5 21 50.5c0 11.333 -2 21.333 -6 30
s-10.667 16.334 -20 23.001s-17 11.5 -23 14.5s-16 7.5 -30 13.5c-14.667 6.66699 -36.667 16 -66 28c-56.667 23.333 -101 51.166 -133 83.499s-48 75.166 -48 128.499c0 65.333 26.333 118 79 158s112.667 60 180 60c38 0 75.167 -7.16699 111.5 -21.5
s65.833 -35.166 88.5 -62.499c18 -22 30.333 -44 37 -66s10.667 -48.667 12 -80h-187c-3.33301 23.333 -10 41.166 -20 53.499s-26 18.5 -48 18.5c-17.333 0 -32.5 -5.5 -45.5 -16.5s-19.5 -24.833 -19.5 -41.5c0 -13.333 2.33301 -23.666 7 -30.999
c3.33301 -5.33301 9.33301 -11.333 18 -18s19.667 -13.334 33 -20.001l34.5 -17c9.66699 -4.66699 21.667 -10.167 36 -16.5s22.5 -9.83301 24.5 -10.5c56.667 -26 99.667 -54.5 129 -85.5s44 -73.167 44 -126.5zM373.001 -144.999v-23.002c0 -34.667 -10.333 -62 -31 -82
s-47.667 -30 -81 -30h-61v73h10.5h11.5h11.5c5 0 8.83301 0.333008 11.5 1s6 1.33398 10 2.00098s7.16699 1.83398 9.5 3.50098l7 5c2.33301 1.66699 4 4 5 7s1.5 6.16699 1.5 9.5v24h-78v109h173v-99z" />
    <glyph glyph-name="scommaaccent" unicode="&#x219;" horiz-adv-x="499" 
d="M476 170c0 -59.333 -22.334 -105.667 -67.001 -139s-97.667 -50 -159 -50c-60.667 0 -112 16 -154 48s-66 77.333 -72 136h165c2.66699 -16.667 9.5 -29.334 20.5 -38.001s25.167 -13 42.5 -13c14 0 27.167 3.83301 39.5 11.5s18.5 18.167 18.5 31.5
c0 5.33301 -0.833008 10.333 -2.5 15s-4.16699 9 -7.5 13s-6.5 7.33301 -9.5 10s-7.5 5.5 -13.5 8.5s-10.5 5.16699 -13.5 6.5s-8 3.33301 -15 6s-11.5 4.33398 -13.5 5.00098c-32 10.667 -56 19 -72 25c-88 32 -132 80.333 -132 145c0 55.333 21.5 99.666 64.5 132.999
s93.167 50 150.5 50c58 0 106.667 -15 146 -45s61.666 -73.333 66.999 -130h-163c-0.666992 28 -18 42 -52 42c-12 0 -22.833 -3.33301 -32.5 -10s-14.5 -15.667 -14.5 -27c0 -13.333 6.83301 -24.666 20.5 -33.999s30.834 -16.5 51.501 -21.5s43.167 -11.833 67.5 -20.5
s46.833 -18.5 67.5 -29.5s37.834 -27.5 51.501 -49.5s20.5 -48.333 20.5 -79zM335.999 -145.001v-23.002c0 -34.667 -10.333 -62 -31 -82s-47.667 -30 -81 -30h-61v73h10.5h11.5h11.5c5 0 8.83301 0.333008 11.5 1s6 1.33398 10 2.00098s7.16699 1.83398 9.5 3.50098l7 5
c2.33301 1.66699 4 4 5 7s1.5 6.16699 1.5 9.5v24h-78v109h173v-99z" />
    <glyph glyph-name="Tcommaaccent" unicode="&#x21a;" horiz-adv-x="499" 
d="M490 574h-145v-574h-189v574h-146v166h480v-166zM336 -145v-23.002c0 -34.667 -10.333 -62 -31 -82s-47.667 -30 -81 -30h-61v73h10.5h11.5h11.5c5 0 8.83301 0.333008 11.5 1s6 1.33398 10 2.00098s7.16699 1.83398 9.5 3.50098l7 5c2.33301 1.66699 4 4 5 7
s1.5 6.16699 1.5 9.5v24h-78v109h173v-99z" />
    <glyph glyph-name="tcommaaccent" unicode="&#x21b;" horiz-adv-x="351" 
d="M339 429h-80v-429h-166v429h-82v126h82v185h166v-185h80v-126zM262 -145v-23.002c0 -34.667 -10.333 -62 -31 -82s-47.667 -30 -81 -30h-61v73h10.5h11.5h11.5c5 0 8.83301 0.333008 11.5 1s6 1.33398 10 2.00098s7.16699 1.83398 9.5 3.50098l7 5
c2.33301 1.66699 4 4 5 7s1.5 6.16699 1.5 9.5v24h-78v109h173v-99z" />
    <glyph glyph-name="circumflex" unicode="&#x2c6;" horiz-adv-x="555" 
d="M484 630h-160l-46 58l-46 -58h-162l156 166h108z" />
    <glyph glyph-name="caron" unicode="&#x2c7;" horiz-adv-x="555" 
d="M484 789l-155 -166h-108l-151 166h161l46 -58l46 58h161z" />
    <glyph glyph-name="uni02C9" unicode="&#x2c9;" horiz-adv-x="555" 
d="M457 648h-359v126h359v-126z" />
    <glyph glyph-name="breve" unicode="&#x2d8;" horiz-adv-x="555" 
d="M483 778c-2 -34.667 -14 -63.1689 -36 -85.502s-47.167 -37.666 -75.5 -45.999s-59.833 -12.5 -94.5 -12.5c-55.333 0 -102.5 11.333 -141.5 34s-60.5 59.334 -64.5 110.001h113c18.667 -23.333 51.334 -35 98.001 -35c43.333 0 72.666 11.667 87.999 35h113z" />
    <glyph glyph-name="dotaccent" unicode="&#x2d9;" horiz-adv-x="555" 
d="M357 634h-159v151h159v-151z" />
    <glyph glyph-name="ring" unicode="&#x2da;" horiz-adv-x="555" 
d="M403 696c0 -34.667 -12.333 -64.334 -37 -89.001s-54.334 -37 -89.001 -37s-64.334 12.333 -89.001 37s-37 54.334 -37 89.001s12.333 64.334 37 89.001s54.334 37 89.001 37s64.334 -12.333 89.001 -37s37 -54.334 37 -89.001zM321 697c0 12 -4.33301 22.334 -13 31.001
s-19 13 -31 13c-12.667 0 -23.167 -4.33301 -31.5 -13s-12.5 -19.334 -12.5 -32.001c0 -12 4.33301 -22.167 13 -30.5s19 -12.5 31 -12.5s22.333 4.33301 31 13s13 19 13 31z" />
    <glyph glyph-name="ogonek" unicode="&#x2db;" horiz-adv-x="555" 
d="M380 -190c-32 -10.667 -60.6699 -15.999 -86.0029 -15.999c-32.667 0 -60.667 8.33301 -84 25s-35 40.667 -35 72c0 16 4.83301 31.333 14.5 46s19.334 26 29.001 34s22.834 17.667 39.501 29h84c-38 -21.333 -57 -44 -57 -68c0 -12.667 4.83301 -23.834 14.5 -33.501
s20.834 -14.5 33.501 -14.5c11.333 0 27 4 47 12v-86z" />
    <glyph glyph-name="tilde" unicode="&#x2dc;" horiz-adv-x="555" 
d="M480 678c-39.333 -24.667 -77.001 -37 -113.001 -37c-16.667 0 -43.5 4.33301 -80.5 13s-63.5 13 -79.5 13c-16.667 0 -40.667 -6.33301 -72 -19l-60 88c40.667 23.333 77.334 35 110.001 35c18 0 45 -4.16699 81 -12.5s63 -12.5 81 -12.5c22 0 46.333 5.66699 73 17z
" />
    <glyph glyph-name="hungarumlaut" unicode="&#x2dd;" horiz-adv-x="555" 
d="M493 775l-86 -175l-106 47l75 185zM294 775l-86 -175l-106 47l74 185z" />
    <glyph glyph-name="uni03A9" unicode="&#x3a9;" horiz-adv-x="710" 
d="M662 0h-276.999v152c48 59.333 72 131.333 72 216c0 54.667 -8.66699 97.834 -26 129.501s-41.666 47.5 -72.999 47.5c-34 0 -60.333 -16.333 -79 -49s-28 -77.334 -28 -134.001c0 -84.667 24.333 -154.667 73 -210v-152h-277v152h134
c-19.333 15.333 -35.333 29.333 -48 42s-26.667 29.5 -42 50.5s-27 45.5 -35 73.5s-12 59 -12 93c0 87.333 29.5 159.333 88.5 216s135.5 85 229.5 85c97.333 0 172.166 -28 224.499 -84s78.5 -127 78.5 -213c0 -60 -11.833 -110.167 -35.5 -150.5
s-57.834 -77.833 -102.501 -112.5h135v-152z" />
    <glyph glyph-name="uni03BC" unicode="&#x3bc;" horiz-adv-x="634" 
d="M581 0l-157.999 0.000976562v69h-1h-2c-7.33301 -22.667 -20.333 -41.5 -39 -56.5s-39.667 -22.5 -63 -22.5c-20.667 0 -39.834 4.66699 -57.501 14s-31.167 22.666 -40.5 39.999h-2v-234h-166v745h166v-274c0 -40 7.33301 -74 22 -102s40 -42 76 -42s61.5 14 76.5 42
s22.5 62 22.5 102v274h166v-555z" />
    <glyph glyph-name="pi" unicode="&#x3c0;" horiz-adv-x="653" 
d="M600 134l30 -115.998c-29.333 -19.333 -70.333 -29 -123 -29c-31.333 0 -57 4.83301 -77 14.5s-34.5 24.167 -43.5 43.5s-14.833 38.166 -17.5 56.499s-4 41.166 -4 68.499v194h-81v-196c0 -73.333 -7 -130 -21 -170h-169c16 50 24 112.667 24 188v178
c-27.333 0 -49 -5.66699 -65 -17c-4 8.66699 -11 25.5 -21 50.5s-18.333 44.5 -25 58.5c39.333 28 100 42 182 42h429v-134h-88v-165c0 -52.667 12.333 -79 37 -79c11.333 0 22.333 4 33 12z" />
    <glyph glyph-name="Wgrave" unicode="&#x1e80;" horiz-adv-x="981" 
d="M964 740l-196 -740h-166l-111 479h-2l-111 -479h-171l-191 740h192l99 -481h2l109 481h145l107 -483h2l101 483h191zM597 872l-46 -97l-247 108l51 117z" />
    <glyph glyph-name="wgrave" unicode="&#x1e81;" horiz-adv-x="850" 
d="M843 555l-170 -555h-154l-93 359h-2l-93 -359h-154l-170 555h172l83 -345h2l91 345h140l92 -345h2l83 345h171zM552 721l-46 -97l-247 108l51 117z" />
    <glyph glyph-name="Wacute" unicode="&#x1e82;" horiz-adv-x="981" 
d="M964 740l-196 -740h-166l-111 479h-2l-111 -479h-171l-191 740h192l99 -481h2l109 481h145l107 -483h2l101 483h191zM657 885l-246 -109l-47 98l240 129z" />
    <glyph glyph-name="wacute" unicode="&#x1e83;" horiz-adv-x="850" 
d="M843 555l-170 -555h-154l-93 359h-2l-93 -359h-154l-170 555h172l83 -345h2l91 345h140l92 -345h2l83 345h171zM592 723l-246 -109l-47 98l240 129z" />
    <glyph glyph-name="Wdieresis" unicode="&#x1e84;" horiz-adv-x="981" 
d="M964 740l-196 -740h-166l-111 479h-2l-111 -479h-171l-191 740h192l99 -481h2l109 481h145l107 -483h2l101 483h191zM686 815h-159v151h159v-151zM453 815h-159v151h159v-151z" />
    <glyph glyph-name="wdieresis" unicode="&#x1e85;" horiz-adv-x="850" 
d="M843 555l-170 -555h-154l-93 359h-2l-93 -359h-154l-170 555h172l83 -345h2l91 345h140l92 -345h2l83 345h171zM621 634h-159v151h159v-151zM388 634h-159v151h159v-151z" />
    <glyph glyph-name="Ygrave" unicode="&#x1ef2;" horiz-adv-x="647" 
d="M638 740l-219 -471v-269h-189v269l-221 471h205l110 -297l111 297h203zM450 873l-46 -97l-247 108l51 117z" />
    <glyph glyph-name="ygrave" unicode="&#x1ef3;" horiz-adv-x="574" 
d="M573 555l-278 -740h-176l88 213l-206 527h177l111 -322h2l106 322h176zM414 721l-46 -97l-247 108l51 117z" />
    <glyph glyph-name="endash" unicode="&#x2013;" horiz-adv-x="500" 
d="M465 207h-430v163h430v-163z" />
    <glyph glyph-name="emdash" unicode="&#x2014;" horiz-adv-x="1000" 
d="M965 207h-930v163h930v-163z" />
    <glyph glyph-name="quoteleft" unicode="&#x2018;" horiz-adv-x="314" 
d="M244 409l-173.998 0.00195312v210c0 33.333 9 61.833 27 85.5s43 35.5 75 35.5h72v-89h-13.5h-15.5c-2.66699 0 -7.33398 -0.333008 -14.001 -1s-11.334 -1.83398 -14.001 -3.50098l-10 -6.5c-4 -2.66699 -6.83301 -6.33398 -8.5 -11.001s-2.5 -10 -2.5 -16v-34h78v-170z
" />
    <glyph glyph-name="quoteright" unicode="&#x2019;" horiz-adv-x="314" 
d="M244 530c0 -34 -8.83301 -62.6699 -26.5 -86.0029s-42.834 -35 -75.501 -35h-72v89h13.5h15.5c2.66699 0 7.33398 0.333008 14.001 1s11.5 1.83398 14.5 3.50098s6.5 3.83398 10.5 6.50098s6.83301 6.33398 8.5 11.001s2.5 10 2.5 16v34h-79v170h174v-210z" />
    <glyph glyph-name="quotesinglbase" unicode="&#x201a;" horiz-adv-x="314" 
d="M244 -40c0 -33.333 -9.00098 -61.8359 -27.001 -85.5029s-43 -35.5 -75 -35.5h-72v89h13.5h15.5c2.66699 0 7.33398 0.333008 14.001 1s11.5 1.83398 14.5 3.50098s6.5 3.83398 10.5 6.50098s6.83301 6.33398 8.5 11.001s2.5 10 2.5 16v34h-79v170h174v-210z" />
    <glyph glyph-name="quotedblleft" unicode="&#x201c;" horiz-adv-x="555" 
d="M488 409l-174 0.00195312v210c0 33.333 9 61.833 27 85.5s43 35.5 75 35.5h72v-90h-13h-15.5c-3 0 -7.83301 -0.333008 -14.5 -1s-11.5 -1.83398 -14.5 -3.50098s-6.5 -3.83398 -10.5 -6.50098s-6.83301 -6.16699 -8.5 -10.5s-2.5 -9.5 -2.5 -15.5v-34h79v-170z
M241 409.002l-174 0.00195312v210c0 33.333 9 61.833 27 85.5s43 35.5 75 35.5h72v-90h-13h-15.5c-3 0 -7.83301 -0.333008 -14.5 -1s-11.5 -1.83398 -14.5 -3.50098s-6.5 -3.83398 -10.5 -6.50098s-6.83301 -6.16699 -8.5 -10.5s-2.5 -9.5 -2.5 -15.5v-34h79v-170z" />
    <glyph glyph-name="quotedblright" unicode="&#x201d;" horiz-adv-x="555" 
d="M488 530c0 -34 -8.83398 -62.6689 -26.501 -86.002s-42.834 -35 -75.501 -35h-72v89h13.5h15.5c2.66699 0 7.33398 0.333008 14.001 1s11.334 1.83398 14.001 3.50098l10 6.5c4 2.66699 6.83301 6.33398 8.5 11.001s2.5 10 2.5 16v34h-78v170h174v-210zM240.999 529.998
c0 -34 -8.83301 -62.6699 -26.5 -86.0029s-42.834 -35 -75.501 -35h-72v89h13.5h15.5c2.66699 0 7.33398 0.333008 14.001 1s11.5 1.83398 14.5 3.50098s6.5 3.83398 10.5 6.50098s6.83301 6.33398 8.5 11.001s2.5 10 2.5 16v34h-79v170h174v-210z" />
    <glyph glyph-name="quotedblbase" unicode="&#x201e;" horiz-adv-x="555" 
d="M488 -40c0 -33.333 -9.00195 -61.835 -27.002 -85.502s-43 -35.5 -75 -35.5h-72v89h13.5h15.5c2.66699 0 7.33398 0.333008 14.001 1s11.334 1.83398 14.001 3.50098l10 6.5c4 2.66699 6.83301 6.33398 8.5 11.001s2.5 10 2.5 16v34h-78v170h174v-210zM240.998 -40.002
c0 -34 -9.00195 -62.6689 -27.002 -86.002s-43.333 -35 -76 -35h-71v89h13.5h15.5c2.66699 0 7.33398 0.333008 14.001 1s11.334 1.83398 14.001 3.50098l10 6.5c4 2.66699 6.83301 6.33398 8.5 11.001s2.5 10 2.5 16v34h-78v170h174v-210z" />
    <glyph glyph-name="dagger" unicode="&#x2020;" horiz-adv-x="670" 
d="M572 423h-154v-667h-165v667h-155v140h155v177h165v-177h154v-140z" />
    <glyph glyph-name="daggerdbl" unicode="&#x2021;" horiz-adv-x="670" 
d="M572 -13h-154v-231h-165v231h-155v140h155v326h-155v140h155v147h165v-147h154v-140h-154v-326h154v-140z" />
    <glyph glyph-name="bullet" unicode="&#x2022;" horiz-adv-x="739" 
d="M522 377c0 -42 -14.833 -78.333 -44.5 -109s-65.5 -46 -107.5 -46s-78 15.333 -108 46s-45 67 -45 109c0 42.667 15 79.167 45 109.5s66.333 45.5 109 45.5c42 0 77.667 -15.333 107 -46s44 -67 44 -109z" />
    <glyph glyph-name="ellipsis" unicode="&#x2026;" horiz-adv-x="1000" 
d="M920 0h-173v170h173v-170zM587 0h-173v170h173v-170zM254 0h-173v170h173v-170z" />
    <glyph glyph-name="perthousand" unicode="&#x2030;" horiz-adv-x="1258" 
d="M1222 166c0 -49.333 -17.668 -91.833 -53.001 -127.5s-77.666 -53.5 -126.999 -53.5c-50 0 -92.667 17.667 -128 53s-53 78 -53 128s17.667 92.667 53 128s78 53 128 53s92.5 -17.667 127.5 -53s52.5 -78 52.5 -128zM821.999 166
c0 -49.333 -17.668 -91.833 -53.001 -127.5s-77.666 -53.5 -126.999 -53.5c-50 0 -92.667 17.667 -128 53s-53 78 -53 128s17.667 92.667 53 128s78 53 128 53s92.5 -17.667 127.5 -53s52.5 -78 52.5 -128zM637.998 740l-307 -740h-115l306 740h116zM395.998 574
c0 -49.333 -17.6689 -91.666 -53.002 -126.999s-77.666 -53 -126.999 -53s-91.666 17.667 -126.999 53s-53 77.666 -53 126.999c0 50 17.5 92.667 52.5 128s77.5 53 127.5 53s92.5 -17.667 127.5 -53s52.5 -78 52.5 -128zM1111 166c0 19.333 -6.66895 35.833 -20.002 49.5
s-29.666 20.5 -48.999 20.5s-35.833 -6.83301 -49.5 -20.5s-20.5 -30.167 -20.5 -49.5c0 -18.667 7 -35 21 -49s30.333 -21 49 -21s34.834 6.83301 48.501 20.5s20.5 30.167 20.5 49.5zM710.994 166c0 19.333 -6.66895 35.833 -20.002 49.5s-29.666 20.5 -48.999 20.5
s-35.833 -6.83301 -49.5 -20.5s-20.5 -30.167 -20.5 -49.5c0 -18.667 7 -35 21 -49s30.333 -21 49 -21s34.834 6.83301 48.501 20.5s20.5 30.167 20.5 49.5zM284.992 575c0 19.333 -6.83496 35.668 -20.502 49.001s-29.834 20 -48.501 20
c-19.333 0 -35.666 -6.83301 -48.999 -20.5s-20 -30.167 -20 -49.5c0 -18.667 6.83301 -34.834 20.5 -48.501s29.834 -20.5 48.501 -20.5s34.834 6.83301 48.501 20.5s20.5 30.167 20.5 49.5z" />
    <glyph glyph-name="guilsinglleft" unicode="&#x2039;" horiz-adv-x="222" 
d="M175 103l-128 127v114l128 130v-140l-51 -45l51 -47v-139z" />
    <glyph glyph-name="guilsinglright" unicode="&#x203a;" horiz-adv-x="222" 
d="M175 230l-128 -127v140l51 45l-51 47v139l128 -131v-113z" />
    <glyph glyph-name="fraction" unicode="&#x2044;" horiz-adv-x="211" 
d="M329 740l-311 -740h-136l310 740h137z" />
    <glyph glyph-name="Euro" unicode="&#x20ac;" horiz-adv-x="618" 
d="M597 212c-10 -72 -34.8369 -127.667 -74.5039 -167s-94.167 -59 -163.5 -59c-52.667 0 -97.5 12.333 -134.5 37s-64.667 56 -83 94s-31.166 83.333 -38.499 136h-93l18 96h67v21v23h-85l18 96h77c14 78.667 42 142.5 84 191.5s100 73.5 174 73.5
c65.333 0 118.333 -20.5 159 -61.5s65.334 -94.5 74.001 -160.5h-164c-5.33301 16 -14.166 29.333 -26.499 40s-26.5 16 -42.5 16c-43.333 0 -70.666 -33 -81.999 -99h206l-18 -96h-197v-23v-21h189l-18 -96h-162c13.333 -67.333 41.333 -101 84 -101c34 0 56.667 20 68 60
h164z" />
    <glyph glyph-name="litre" unicode="&#x2113;" horiz-adv-x="495" 
d="M417 33c-45.333 -34 -94.333 -50.998 -147 -50.998c-50 0 -89.667 14.667 -119 44c-15.333 16 -27.333 38.333 -36 67s-13 56.667 -13 84v19c-3.33301 -2.66699 -10.166 -8.83398 -20.499 -18.501s-18.5 -16.834 -24.5 -21.501l-40 78l85 76v181
c0 76 16.667 134.5 50 175.5s77.666 61.5 132.999 61.5c47.333 0 82 -14 104 -42s33 -60.667 33 -98c0 -46.667 -10.333 -89.5 -31 -128.5s-51 -79.833 -91 -122.5c-2.66699 -2.66699 -7.66699 -8 -15 -16s-12.333 -13 -15 -15v-100c0 -65.333 17.333 -98 52 -98
c16.667 0 34.667 8.33301 54 25zM334 565.002c0 24.667 -9.66699 37 -29 37c-23.333 0 -35 -23.333 -35 -70v-105c3.33301 2 6.33301 5.33301 9 10c16 16.667 29.167 37.5 39.5 62.5s15.5 46.833 15.5 65.5z" />
    <glyph glyph-name="trademark" unicode="&#x2122;" horiz-adv-x="944" 
d="M879 296h-117l2 301h-2l-87 -301h-84l-90 301l-2 -2l4 -299h-117v444h159l87 -277h2l86 277h159v-444zM328 634h-90v-338h-126v338h-91v106h307v-106z" />
    <glyph glyph-name="Omega" unicode="&#x2126;" horiz-adv-x="710" 
d="M662 0h-276.999v152c48 59.333 72 131.333 72 216c0 54.667 -8.66699 97.834 -26 129.501s-41.666 47.5 -72.999 47.5c-34 0 -60.333 -16.333 -79 -49s-28 -77.334 -28 -134.001c0 -84.667 24.333 -154.667 73 -210v-152h-277v152h134
c-19.333 15.333 -35.333 29.333 -48 42s-26.667 29.5 -42 50.5s-27 45.5 -35 73.5s-12 59 -12 93c0 87.333 29.5 159.333 88.5 216s135.5 85 229.5 85c97.333 0 172.166 -28 224.499 -84s78.5 -127 78.5 -213c0 -60 -11.833 -110.167 -35.5 -150.5
s-57.834 -77.833 -102.501 -112.5h135v-152z" />
    <glyph glyph-name="estimated" unicode="&#x212e;" horiz-adv-x="662" 
d="M574 271h-417.999v-186c40 -40 89.667 -60 149 -60c84 0 150 40.667 198 122c16 -9.33301 27.667 -16.333 35 -21c-31.333 -46 -65 -80.5 -101 -103.5s-80 -34.5 -132 -34.5c-80 0 -144.167 26.833 -192.5 80.5s-72.5 121.167 -72.5 202.5
c0 80.667 24 147.834 72 201.501s112 80.5 192 80.5c82 0 146.667 -26.333 194 -79s72.666 -120.334 75.999 -203.001zM454.001 307v148c-42 42 -92.333 63 -151 63c-58 0 -107 -20.667 -147 -62v-149h298z" />
    <glyph glyph-name="onethird" unicode="&#x2153;" horiz-adv-x="855" 
d="M221 296h-123v338h-78v106h201v-444zM592 740l-311 -740h-136l310 740h137zM827 132c0 -42.667 -18.6719 -76.832 -56.0049 -102.499s-78.333 -38.5 -123 -38.5c-28.667 0 -57.167 5.16699 -85.5 15.5s-49.833 25.833 -64.5 46.5
c-15.333 21.333 -24.666 49.333 -27.999 84h129c6.66699 -25.333 23.334 -38 50.001 -38c32 0 48 14.333 48 43c0 26 -22.333 39 -67 39c-5.33301 0 -12.166 -0.166992 -20.499 -0.5s-13.833 -0.5 -16.5 -0.5v90h18c44 0 66 14 66 42c0 22 -10.667 33 -32 33
c-22.667 0 -34.667 -11.667 -36 -35h-126c0.666992 46 16.834 81.333 48.501 106s70.834 37 117.501 37c39.333 0 74.5 -11 105.5 -33s46.5 -52 46.5 -90c0 -40.667 -19 -71.334 -57 -92.001c24 -8 43.833 -21.5 59.5 -40.5s23.5 -40.833 23.5 -65.5z" />
    <glyph glyph-name="twothirds" unicode="&#x2154;" horiz-adv-x="998" 
d="M376 296h-341.001v97l19 12c12 8 19.667 13 23 15s11 7 23 15s20.5 14 25.5 18l23 18c10.333 8 18.5 15 24.5 21l19.5 20.5c7 7.66699 13.167 15.167 18.5 22.5c16 22.667 24 44.667 24 66c0 27.333 -11.667 41 -35 41c-30 0 -45.667 -22.667 -47 -68h-123
c1.33301 44.667 11 80 29 106c32.667 46 82.667 69 150 69c42.667 0 80.834 -11.5 114.501 -34.5s50.5 -55.167 50.5 -96.5c0 -44 -20 -88.333 -60 -133c-22.667 -25.333 -53 -52.333 -91 -81v-2h153v-106zM739.999 740l-311 -740h-136l310 740h137zM969.999 132
c0 -42.667 -18.6719 -76.832 -56.0049 -102.499s-78.333 -38.5 -123 -38.5c-28.667 0 -57.167 5.16699 -85.5 15.5s-49.833 25.833 -64.5 46.5c-15.333 21.333 -24.666 49.333 -27.999 84h129c6.66699 -25.333 23.334 -38 50.001 -38c32 0 48 14.333 48 43
c0 26 -22.333 39 -67 39c-5.33301 0 -12.166 -0.166992 -20.499 -0.5s-13.833 -0.5 -16.5 -0.5v90h18c44 0 66 14 66 42c0 22 -10.667 33 -32 33c-22.667 0 -34.667 -11.667 -36 -35h-126c0.666992 46 16.834 81.333 48.501 106s70.834 37 117.501 37
c39.333 0 74.5 -11 105.5 -33s46.5 -52 46.5 -90c0 -40.667 -19 -71.334 -57 -92.001c24 -8 43.833 -21.5 59.5 -40.5s23.5 -40.833 23.5 -65.5z" />
    <glyph glyph-name="oneeighth" unicode="&#x215b;" horiz-adv-x="856" 
d="M221 296h-123v338h-78v106h201v-444zM592 740l-311 -740h-136l310 740h137zM828 136c0 -42.667 -17.667 -77.5 -53 -104.5s-78.333 -40.5 -129 -40.5s-94 13.5 -130 40.5s-54 61.833 -54 104.5c0 22.667 6 44 18 64s29 35.667 51 47c-27.333 20 -41 46 -41 78
c0 38 15.167 68.833 45.5 92.5s66.833 35.5 109.5 35.5s79.167 -11.833 109.5 -35.5s45.5 -54.5 45.5 -92.5c0 -34 -13.667 -61 -41 -81c46 -24.667 69 -60.667 69 -108zM697 146c0 16 -4.66797 28.666 -14.001 37.999s-22 14 -38 14s-28.667 -4.66699 -38 -14
s-14 -22 -14 -38s4.83301 -28.5 14.5 -37.5s22.834 -13.5 39.501 -13.5c14.667 0 26.667 4.83301 36 14.5s14 21.834 14 36.501zM685.999 322.999c0 10 -3.66699 18.499 -11 25.499s-17 10.5 -29 10.5c-12.667 0 -22.834 -3.66699 -30.501 -11s-11.5 -16.666 -11.5 -27.999
c0 -10 3.83301 -18.333 11.5 -25s17.167 -10 28.5 -10c12.667 0 22.834 3.66699 30.501 11s11.5 16.333 11.5 27z" />
    <glyph glyph-name="threeeighths" unicode="&#x215c;" horiz-adv-x="984" 
d="M379 428c0 -42.667 -18.6719 -76.832 -56.0049 -102.499s-78.333 -38.5 -123 -38.5c-28.667 0 -57.167 5.16699 -85.5 15.5s-49.833 25.833 -64.5 46.5c-15.333 21.333 -24.666 49.333 -27.999 84h129c6.66699 -25.333 23.334 -38 50.001 -38c32 0 48 14.333 48 43
c0 26 -22.333 39 -67 39c-5.33301 0 -12.166 -0.166992 -20.499 -0.5s-13.833 -0.5 -16.5 -0.5v90h18c44 0 66 14 66 42c0 22 -10.667 33 -32 33c-22.667 0 -34.667 -11.667 -36 -35h-126c0.666992 46 16.834 81.333 48.501 106s70.834 37 117.501 37
c39.333 0 74.5 -11 105.5 -33s46.5 -52 46.5 -90c0 -40.667 -19 -71.334 -57 -92.001c24 -8 43.833 -21.5 59.5 -40.5s23.5 -40.833 23.5 -65.5zM718.995 740.002l-311 -740h-136l310 740h137zM955.995 136.002c0 -42.667 -17.667 -77.5 -53 -104.5
s-78.333 -40.5 -129 -40.5s-94 13.5 -130 40.5s-54 61.833 -54 104.5c0 22.667 6 44 18 64s29 35.667 51 47c-27.333 20 -41 46 -41 78c0 38 15.167 68.833 45.5 92.5s66.833 35.5 109.5 35.5s79.167 -11.833 109.5 -35.5s45.5 -54.5 45.5 -92.5c0 -34 -13.667 -61 -41 -81
c46 -24.667 69 -60.667 69 -108zM824.995 146.002c0 16 -4.66797 28.666 -14.001 37.999s-22 14 -38 14s-28.667 -4.66699 -38 -14s-14 -22 -14 -38s4.83301 -28.5 14.5 -37.5s22.834 -13.5 39.501 -13.5c14.667 0 26.667 4.83301 36 14.5s14 21.834 14 36.501z
M813.994 323.001c0 10 -3.66699 18.499 -11 25.499s-17 10.5 -29 10.5c-12.667 0 -22.834 -3.66699 -30.501 -11s-11.5 -16.666 -11.5 -27.999c0 -10 3.83301 -18.333 11.5 -25s17.167 -10 28.5 -10c12.667 0 22.834 3.66699 30.501 11s11.5 16.333 11.5 27z" />
    <glyph glyph-name="fiveeighths" unicode="&#x215d;" horiz-adv-x="985" 
d="M389 451c0 -48 -17.1641 -87.333 -51.4971 -118s-77.833 -46 -130.5 -46c-46.667 0 -86.834 12.667 -120.501 38s-54.834 59.666 -63.501 102.999h125c10.667 -22 28.667 -33 54 -33c17.333 0 31.166 5 41.499 15s15.5 22.667 15.5 38c0 14 -4.66699 25.5 -14 34.5
s-23.333 13.5 -42 13.5c-24.667 0 -44.334 -9 -59.001 -27l-101 24l37 247h267v-106h-168l-9 -53c14.667 9.33301 35.334 14 62.001 14c46.667 0 84.5 -13.167 113.5 -39.5s43.5 -61.166 43.5 -104.499zM721.003 740l-311 -740h-136l310 740h137zM957.003 136
c0 -42.667 -17.667 -77.5 -53 -104.5s-78.333 -40.5 -129 -40.5s-94 13.5 -130 40.5s-54 61.833 -54 104.5c0 22.667 6 44 18 64s29 35.667 51 47c-27.333 20 -41 46 -41 78c0 38 15.167 68.833 45.5 92.5s66.833 35.5 109.5 35.5s79.167 -11.833 109.5 -35.5
s45.5 -54.5 45.5 -92.5c0 -34 -13.667 -61 -41 -81c46 -24.667 69 -60.667 69 -108zM826.003 146c0 16 -4.66797 28.666 -14.001 37.999s-22 14 -38 14s-28.667 -4.66699 -38 -14s-14 -22 -14 -38s4.83301 -28.5 14.5 -37.5s22.834 -13.5 39.501 -13.5
c14.667 0 26.667 4.83301 36 14.5s14 21.834 14 36.501zM815.002 322.999c0 10 -3.66699 18.499 -11 25.499s-17 10.5 -29 10.5c-12.667 0 -22.834 -3.66699 -30.501 -11s-11.5 -16.666 -11.5 -27.999c0 -10 3.83301 -18.333 11.5 -25s17.167 -10 28.5 -10
c12.667 0 22.834 3.66699 30.501 11s11.5 16.333 11.5 27z" />
    <glyph glyph-name="seveneighths" unicode="&#x215e;" horiz-adv-x="888" 
d="M343 645l-166 -349h-139l170 338h-181v106h316v-95zM623 740l-311 -740h-136l310 740h137zM860 136c0 -42.667 -17.667 -77.5 -53 -104.5s-78.333 -40.5 -129 -40.5s-94 13.5 -130 40.5s-54 61.833 -54 104.5c0 22.667 6 44 18 64s29 35.667 51 47
c-27.333 20 -41 46 -41 78c0 38 15.167 68.833 45.5 92.5s66.833 35.5 109.5 35.5s79.167 -11.833 109.5 -35.5s45.5 -54.5 45.5 -92.5c0 -34 -13.667 -61 -41 -81c46 -24.667 69 -60.667 69 -108zM729 146c0 16 -4.66797 28.666 -14.001 37.999s-22 14 -38 14
s-28.667 -4.66699 -38 -14s-14 -22 -14 -38s4.83301 -28.5 14.5 -37.5s22.834 -13.5 39.501 -13.5c14.667 0 26.667 4.83301 36 14.5s14 21.834 14 36.501zM717.999 322.999c0 10 -3.66699 18.499 -11 25.499s-17 10.5 -29 10.5c-12.667 0 -22.834 -3.66699 -30.501 -11
s-11.5 -16.666 -11.5 -27.999c0 -10 3.83301 -18.333 11.5 -25s17.167 -10 28.5 -10c12.667 0 22.834 3.66699 30.501 11s11.5 16.333 11.5 27z" />
    <glyph glyph-name="partialdiff" unicode="&#x2202;" horiz-adv-x="576" 
d="M570 440c0 -66.667 -7.00098 -127.999 -21.001 -183.999c-22 -83.333 -58.167 -148.833 -108.5 -196.5s-109.833 -71.5 -178.5 -71.5s-124.834 20.333 -168.501 61s-65.5 91.667 -65.5 153c0 50 7.5 94.167 22.5 132.5s34.833 68.166 59.5 89.499
s50.834 37.166 78.501 47.499s56.5 15.5 86.5 15.5c22.667 0 44.334 -4.16699 65.001 -12.5s35 -18.166 43 -29.499h1c2 16 3 29.667 3 41c0 35.333 -9.66699 63 -29 83s-45 30 -77 30c-32.667 0 -63.334 -8.33301 -92.001 -25l-34 121c38.667 26.667 90.334 40 155.001 40
c80 0 143.333 -26.167 190 -78.5s70 -124.5 70 -216.5zM366.999 322.001c-12 27.333 -29.3311 41.001 -51.998 41.001c-24.667 0 -46.834 -16.833 -66.501 -50.5s-29.5 -74.834 -29.5 -123.501c0 -40.667 14.333 -61 43 -61c19.333 0 37.166 11.167 53.499 33.5
s28.5 47.833 36.5 76.5s13 56.667 15 84z" />
    <glyph glyph-name="Delta" unicode="&#x2206;" horiz-adv-x="608" 
d="M663 0h-644v75l185 625h279l180 -625v-75zM436 153l-84 336.999l-7 28.5l-6.5 26.5c-1.66699 6.66699 -2.5 11.334 -2.5 14.001h-6c-2 -18 -6 -39.667 -12 -65l-85 -341h203z" />
    <glyph glyph-name="product" unicode="&#x220f;" horiz-adv-x="719" 
d="M659 -230h-195v764h-210v-764h-195v930h600v-930z" />
    <glyph glyph-name="summation" unicode="&#x2211;" horiz-adv-x="631" 
d="M547 -230h-522v107l225 363l-214 347v113h496v-152h-273l184 -304l-195 -322h299v-152z" />
    <glyph glyph-name="minus" unicode="&#x2212;" horiz-adv-x="600" 
d="M552 173h-504v160h504v-160z" />
    <glyph glyph-name="uni2215" unicode="&#x2215;" horiz-adv-x="211" 
d="M329 740l-311 -740h-136l310 740h137z" />
    <glyph glyph-name="uni2219" unicode="&#x2219;" horiz-adv-x="314" 
d="M244 292h-173v170h173v-170z" />
    <glyph glyph-name="radical" unicode="&#x221a;" horiz-adv-x="513" 
d="M523 729l-150 -741h-152l-101 263c-12 -8 -30 -20.667 -54 -38l-58 85l190 135l98 -271l111 567h116z" />
    <glyph glyph-name="infinity" unicode="&#x221e;" horiz-adv-x="783" 
d="M747 293c0 -58 -18.499 -105.334 -55.499 -142.001s-82.167 -55 -135.5 -55c-33.333 0 -65.5 7.83301 -96.5 23.5s-56.833 38.834 -77.5 69.501h-2c-46 -62 -104 -93 -174 -93c-48.667 0 -92.834 16.833 -132.501 50.5s-59.5 82.5 -59.5 146.5c0 60 20.167 107 60.5 141
s84.5 51 132.5 51c72 0 129.333 -31.333 172 -94h2c16 24.667 39.333 46.5 70 65.5s65.667 28.5 105 28.5c54 0 99.333 -18.5 136 -55.5s55 -82.5 55 -136.5zM611.001 292.999c0 20 -6.33398 36.668 -19.001 50.001s-30 20 -52 20c-18.667 0 -35 -5.83301 -49 -17.5
s-28.333 -29.834 -43 -54.501c24.667 -49.333 56 -74 94 -74c20.667 0 37.334 7.5 50.001 22.5s19 32.833 19 53.5zM313 291c-10.667 16 -19.499 28.333 -26.499 37s-16.5 16.834 -28.5 24.501s-24.667 11.5 -38 11.5c-19.333 0 -35.833 -7.33301 -49.5 -22
s-20.5 -31.334 -20.5 -50.001c0 -20 6.66699 -37.5 20 -52.5s30.666 -22.5 51.999 -22.5c34.667 0 65 24.667 91 74z" />
    <glyph glyph-name="integral" unicode="&#x222b;" horiz-adv-x="491" 
d="M412 604c-15.333 4.66699 -27.666 7.00098 -36.999 7.00098c-34 0 -51 -23.667 -51 -71v-544c0 -70.667 -16.5 -127.667 -49.5 -171s-86.167 -65 -159.5 -65c-44.667 0 -79 5.33301 -103 16l31 131c11.333 -4 23.666 -6 36.999 -6c34.667 0 52 23.667 52 71v540
c0 73.333 17 131.666 51 174.999s87.333 65 160 65c46 0 81 -6.33301 105 -19z" />
    <glyph glyph-name="approxequal" unicode="&#x2248;" horiz-adv-x="600" 
d="M580 369c-17.333 -22.667 -43.1689 -43.001 -77.502 -61.001s-66.166 -27 -95.499 -27c-26 0 -61 11.333 -105 34s-82 34 -114 34c-21.333 0 -43.666 -7.16699 -66.999 -21.5s-39.666 -30.166 -48.999 -47.499l-52 131c13.333 24.667 37.5 45.667 72.5 63
s68.5 26 100.5 26c26.667 0 65.167 -11.333 115.5 -34s83.5 -34 99.5 -34c19.333 0 41.166 7.5 65.499 22.5s42.5 30.833 54.5 47.5zM579.997 98.999c-17.333 -22.667 -43.1689 -43.001 -77.502 -61.001s-66.166 -27 -95.499 -27c-26 0 -61 11.333 -105 34s-82 34 -114 34
c-21.333 0 -43.666 -7.16699 -66.999 -21.5s-39.666 -30.166 -48.999 -47.499l-52 131c13.333 24.667 37.5 45.667 72.5 63s68.5 26 100.5 26c26.667 0 65.167 -11.333 115.5 -34s83.5 -34 99.5 -34c19.333 0 41.166 7.5 65.499 22.5s42.5 30.833 54.5 47.5z" />
    <glyph glyph-name="notequal" unicode="&#x2260;" horiz-adv-x="600" 
d="M518 535l-45 -86h79v-145h-143l-53 -103h196v-145h-261l-44 -86h-165l44 86h-78v145h143l53 103h-196v145h261l45 86h164z" />
    <glyph glyph-name="lessequal" unicode="&#x2264;" horiz-adv-x="600" 
d="M554 102l-508 214v154l508 214v-175l-340 -115v-2l340 -115v-175zM552 -82h-504v160h504v-160z" />
    <glyph glyph-name="greaterequal" unicode="&#x2265;" horiz-adv-x="600" 
d="M554 316l-508 -214v175l340 115v2l-340 115v175l508 -214v-154zM552 -82h-504v160h504v-160z" />
    <glyph glyph-name="lozenge" unicode="&#x25ca;" horiz-adv-x="559" 
d="M484 350l-191 -350h-83l-190 349l190 351h83zM356 350l-104 202l-104 -202l104 -202z" />
    <glyph glyph-name="A.alt01" unicode="&#xe000;" horiz-adv-x="722" 
d="M655 0h-189v107h-214l-65 -107h-227l508 740h187v-740zM466 257v205h-2l-122 -205h124z" />
    <glyph glyph-name="Aacute.alt01" unicode="&#xe001;" horiz-adv-x="722" 
d="M655 0h-189v107h-214l-65 -107h-227l508 740h187v-740zM466 257v205h-2l-122 -205h124zM413 874l240 129l53 -118l-246 -109z" />
    <glyph glyph-name="Agrave.alt01" unicode="&#xe002;" horiz-adv-x="722" 
d="M655 0h-189v107h-214l-65 -107h-227l508 740h187v-740zM466 257v205h-2l-122 -205h124zM423 1001l242 -128l-46 -97l-247 108z" />
    <glyph glyph-name="Acircumflex.alt01" unicode="&#xe003;" horiz-adv-x="722" 
d="M655 0h-189v107h-214l-65 -107h-227l508 740h187v-740zM466 257v205h-2l-122 -205h124zM613 971l160 -166h-160l-56 57l-56 -57h-162l166 166h108z" />
    <glyph glyph-name="Adieresis.alt01" unicode="&#xe004;" horiz-adv-x="722" 
d="M655 0h-189v107h-214l-65 -107h-227l508 740h187v-740zM466 257v205h-2l-122 -205h124zM522 966v-151h-159v151h159zM755 966v-151h-159v151h159z" />
    <glyph glyph-name="Atilde.alt01" unicode="&#xe005;" horiz-adv-x="722" 
d="M655 0h-189v107h-214l-65 -107h-227l508 740h187v-740zM466 257v205h-2l-122 -205h124zM677 959l54.999 -110c-39.333 -24.667 -77 -37 -113 -37c-16.667 0 -43.5 4.33301 -80.5 13s-63.5 13 -79.5 13c-25.333 0 -51 -8 -77 -24l-55 113
c40.667 23.333 77.334 35 110.001 35c18 0 45 -4.16699 81 -12.5s63 -12.5 81 -12.5c32.667 0 58.667 7.33301 78 22z" />
    <glyph glyph-name="Aring.alt01" unicode="&#xe006;" horiz-adv-x="722" 
d="M655 0h-189v107h-214l-65 -107h-227l508 740h187v-740zM466 257v205h-2l-122 -205h124zM560 1017c34.667 0 64.1689 -12.333 88.502 -37s36.5 -54.334 36.5 -89.001s-12.333 -64.334 -37 -89.001s-54.334 -37 -89.001 -37s-64.334 12.333 -89.001 37
s-37 54.334 -37 89.001s12.333 64.334 37 89.001s54.667 37 90 37zM558.002 936c-12 0 -22.166 -4.5 -30.499 -13.5s-12.5 -19.5 -12.5 -31.5s4.33301 -22.167 13 -30.5s19 -12.5 31 -12.5s22.333 4.33301 31 13s13 19 13 31c0 12.667 -4.33301 23.167 -13 31.5
s-19.334 12.5 -32.001 12.5z" />
    <glyph glyph-name="Amacron.alt01" unicode="&#xe007;" horiz-adv-x="722" 
d="M655 0h-189v107h-214l-65 -107h-227l508 740h187v-740zM466 257v205h-2l-122 -205h124zM711 819h-359v126h359v-126z" />
    <glyph glyph-name="Abreve.alt01" unicode="&#xe008;" horiz-adv-x="722" 
d="M655 0h-189v107h-214l-65 -107h-227l508 740h187v-740zM466 257v205h-2l-122 -205h124zM727 949c-2 -34.667 -14 -63.1689 -36 -85.502s-47.167 -37.666 -75.5 -45.999s-59.833 -12.5 -94.5 -12.5c-55.333 0 -102.5 11.333 -141.5 34s-60.5 59.334 -64.5 110.001h113
c18.667 -23.333 51.334 -35 98.001 -35c43.333 0 72.666 11.667 87.999 35h113z" />
    <glyph glyph-name="Aogonek.alt01" unicode="&#xe009;" horiz-adv-x="722" 
d="M663 -190c-32 -10.667 -60.6699 -15.999 -86.0029 -15.999c-32.667 0 -60.667 8.33301 -84 25s-35 40.667 -35 72c0 16 4.83301 31.333 14.5 46s19.334 26 29.001 34s22.834 17.667 39.501 29h-75v107h-214l-65 -107h-227l508 740h187v-740h-30
c-38 -21.333 -57 -44 -57 -68c0 -12.667 4.83301 -23.834 14.5 -33.501s20.834 -14.5 33.501 -14.5c11.333 0 27 4 47 12v-86zM465.997 257.001v205h-2l-122 -205h124z" />
    <glyph glyph-name="A.alt02" unicode="&#xe00a;" horiz-adv-x="722" 
d="M762 0h-227l-65 107h-214v-107h-189v740h187zM380 257l-122 205h-2v-205h124z" />
    <glyph glyph-name="Aacute.alt02" unicode="&#xe00b;" horiz-adv-x="722" 
d="M762 0h-227l-65 107h-214v-107h-189v740h187zM380 257l-122 205h-2v-205h124zM43 874l240 129l53 -118l-246 -109z" />
    <glyph glyph-name="Agrave.alt02" unicode="&#xe00c;" horiz-adv-x="722" 
d="M762 0h-227l-65 107h-214v-107h-189v740h187zM380 257l-122 205h-2v-205h124zM33 1001l242 -128l-46 -97l-247 108z" />
    <glyph glyph-name="Acircumflex.alt02" unicode="&#xe00d;" horiz-adv-x="722" 
d="M762 0h-227l-65 107h-214v-107h-189v740h187zM380 257l-122 205h-2v-205h124zM266 971l160 -166h-160l-56 57l-56 -57h-162l166 166h108z" />
    <glyph glyph-name="Adieresis.alt02" unicode="&#xe00e;" horiz-adv-x="722" 
d="M762 0h-227l-65 107h-214v-107h-189v740h187zM380 257l-122 205h-2v-205h124zM122 966v-151h-159v151h159zM355 966v-151h-159v151h159z" />
    <glyph glyph-name="Atilde.alt02" unicode="&#xe00f;" horiz-adv-x="722" 
d="M762 0h-227l-65 107h-214v-107h-189v740h187zM380 257l-122 205h-2v-205h124zM308 959l54.999 -110c-39.333 -24.667 -77 -37 -113 -37c-16.667 0 -43.5 4.33301 -80.5 13s-63.5 13 -79.5 13c-25.333 0 -51 -8 -77 -24l-55 113c40.667 23.333 77.334 35 110.001 35
c18.667 0 45.667 -4.16699 81 -12.5s62.333 -12.5 81 -12.5c32.667 0 58.667 7.33301 78 22z" />
    <glyph glyph-name="Aring.alt02" unicode="&#xe010;" horiz-adv-x="722" 
d="M762 0h-227l-65 107h-214v-107h-189v740h187zM380 257l-122 205h-2v-205h124zM160 1017c34.667 0 64.1689 -12.333 88.502 -37s36.5 -54.334 36.5 -89.001s-12.333 -64.334 -37 -89.001s-54.334 -37 -89.001 -37s-64.334 12.333 -89.001 37s-37 54.334 -37 89.001
s12.333 64.334 37 89.001s54.667 37 90 37zM158.002 936c-12 0 -22.166 -4.5 -30.499 -13.5s-12.5 -19.5 -12.5 -31.5s4.33301 -22.167 13 -30.5s19 -12.5 31 -12.5s22.333 4.33301 31 13s13 19 13 31c0 12.667 -4.33301 23.167 -13 31.5s-19.334 12.5 -32.001 12.5z" />
    <glyph glyph-name="Amacron.alt02" unicode="&#xe011;" horiz-adv-x="722" 
d="M762 0h-227l-65 107h-214v-107h-189v740h187zM380 257l-122 205h-2v-205h124zM364 819h-359v126h359v-126z" />
    <glyph glyph-name="Abreve.alt02" unicode="&#xe012;" horiz-adv-x="722" 
d="M762 0h-227l-65 107h-214v-107h-189v740h187zM380 257l-122 205h-2v-205h124zM397 949c-2 -34.667 -14 -63.1689 -36 -85.502s-47.167 -37.666 -75.5 -45.999s-59.833 -12.5 -94.5 -12.5c-55.333 0 -102.5 11.333 -141.5 34s-60.5 59.334 -64.5 110.001h113
c18.667 -23.333 51.334 -35 98.001 -35c43.333 0 72.666 11.667 87.999 35h113z" />
    <glyph glyph-name="Aogonek.alt02" unicode="&#xe013;" horiz-adv-x="722" 
d="M733 -190c-32 -10.667 -60.6699 -15.999 -86.0029 -15.999c-32.667 0 -60.667 8.33301 -84 25s-35 40.667 -35 72c0 16 4.83301 31.333 14.5 46s19.334 26 29.001 34s22.834 17.667 39.501 29h-76l-65 107h-214v-107h-189v740h187l508 -740h-67
c-38 -21.333 -57 -44 -57 -68c0 -12.667 4.83301 -23.834 14.5 -33.501s20.834 -14.5 33.501 -14.5c11.333 0 27 4 47 12v-86zM379.997 257.001l-122 205h-2v-205h124z" />
    <glyph glyph-name="A.alt03" unicode="&#xe014;" horiz-adv-x="882" 
d="M815 0h-189l1 81h-2c-48.667 -63.333 -128 -95 -238 -95c-55.333 0 -105.833 11.167 -151.5 33.5s-82.834 51.833 -111.501 88.5s-50.667 77.167 -66 121.5s-23 89.833 -23 136.5c0 111.333 33.333 203.833 100 277.5s153.334 110.5 260.001 110.5
c56 0 105 -9.66699 147 -29s69.667 -40.333 83 -63h2l-1 78h189v-740zM627 369c0 54.667 -17.833 104.834 -53.5 150.501s-84.834 68.5 -147.501 68.5c-63.333 0 -112.833 -21.333 -148.5 -64s-53.5 -93.334 -53.5 -152.001c0 -62 18.333 -114.167 55 -156.5
s86.334 -63.5 149.001 -63.5c62 0 110.667 22.667 146 68s53 95 53 149z" />
    <glyph glyph-name="Aacute.alt03" unicode="&#xe015;" horiz-adv-x="882" 
d="M815 0h-189l1 81h-2c-48.667 -63.333 -128 -95 -238 -95c-55.333 0 -105.833 11.167 -151.5 33.5s-82.834 51.833 -111.501 88.5s-50.667 77.167 -66 121.5s-23 89.833 -23 136.5c0 111.333 33.333 203.833 100 277.5s153.334 110.5 260.001 110.5
c56 0 105 -9.66699 147 -29s69.667 -40.333 83 -63h2l-1 78h189v-740zM627 369c0 54.667 -17.833 104.834 -53.5 150.501s-84.834 68.5 -147.501 68.5c-63.333 0 -112.833 -21.333 -148.5 -64s-53.5 -93.334 -53.5 -152.001c0 -62 18.333 -114.167 55 -156.5
s86.334 -63.5 149.001 -63.5c62 0 110.667 22.667 146 68s53 95 53 149zM293 874l240 129l53 -118l-246 -109z" />
    <glyph glyph-name="Agrave.alt03" unicode="&#xe016;" horiz-adv-x="882" 
d="M815 0h-189l1 81h-2c-48.667 -63.333 -128 -95 -238 -95c-55.333 0 -105.833 11.167 -151.5 33.5s-82.834 51.833 -111.501 88.5s-50.667 77.167 -66 121.5s-23 89.833 -23 136.5c0 111.333 33.333 203.833 100 277.5s153.334 110.5 260.001 110.5
c56 0 105 -9.66699 147 -29s69.667 -40.333 83 -63h2l-1 78h189v-740zM627 369c0 54.667 -17.833 104.834 -53.5 150.501s-84.834 68.5 -147.501 68.5c-63.333 0 -112.833 -21.333 -148.5 -64s-53.5 -93.334 -53.5 -152.001c0 -62 18.333 -114.167 55 -156.5
s86.334 -63.5 149.001 -63.5c62 0 110.667 22.667 146 68s53 95 53 149zM306 1001l242 -128l-46 -97l-247 108z" />
    <glyph glyph-name="Acircumflex.alt03" unicode="&#xe017;" horiz-adv-x="882" 
d="M815 0h-189l1 81h-2c-48.667 -63.333 -128 -95 -238 -95c-55.333 0 -105.833 11.167 -151.5 33.5s-82.834 51.833 -111.501 88.5s-50.667 77.167 -66 121.5s-23 89.833 -23 136.5c0 111.333 33.333 203.833 100 277.5s153.334 110.5 260.001 110.5
c56 0 105 -9.66699 147 -29s69.667 -40.333 83 -63h2l-1 78h189v-740zM627 369c0 54.667 -17.833 104.834 -53.5 150.501s-84.834 68.5 -147.501 68.5c-63.333 0 -112.833 -21.333 -148.5 -64s-53.5 -93.334 -53.5 -152.001c0 -62 18.333 -114.167 55 -156.5
s86.334 -63.5 149.001 -63.5c62 0 110.667 22.667 146 68s53 95 53 149zM486 971l160 -166h-160l-56 57l-56 -57h-162l166 166h108z" />
    <glyph glyph-name="Adieresis.alt03" unicode="&#xe018;" horiz-adv-x="882" 
d="M815 0h-189l1 81h-2c-48.667 -63.333 -128 -95 -238 -95c-55.333 0 -105.833 11.167 -151.5 33.5s-82.834 51.833 -111.501 88.5s-50.667 77.167 -66 121.5s-23 89.833 -23 136.5c0 111.333 33.333 203.833 100 277.5s153.334 110.5 260.001 110.5
c56 0 105 -9.66699 147 -29s69.667 -40.333 83 -63h2l-1 78h189v-740zM627 369c0 54.667 -17.833 104.834 -53.5 150.501s-84.834 68.5 -147.501 68.5c-63.333 0 -112.833 -21.333 -148.5 -64s-53.5 -93.334 -53.5 -152.001c0 -62 18.333 -114.167 55 -156.5
s86.334 -63.5 149.001 -63.5c62 0 110.667 22.667 146 68s53 95 53 149zM398 966v-151h-159v151h159zM631 966v-151h-159v151h159z" />
    <glyph glyph-name="Atilde.alt03" unicode="&#xe019;" horiz-adv-x="882" 
d="M815 0h-189l1 81h-2c-48.667 -63.333 -128 -95 -238 -95c-55.333 0 -105.833 11.167 -151.5 33.5s-82.834 51.833 -111.501 88.5s-50.667 77.167 -66 121.5s-23 89.833 -23 136.5c0 111.333 33.333 203.833 100 277.5s153.334 110.5 260.001 110.5
c56 0 105 -9.66699 147 -29s69.667 -40.333 83 -63h2l-1 78h189v-740zM627 369c0 54.667 -17.833 104.834 -53.5 150.501s-84.834 68.5 -147.501 68.5c-63.333 0 -112.833 -21.333 -148.5 -64s-53.5 -93.334 -53.5 -152.001c0 -62 18.333 -114.167 55 -156.5
s86.334 -63.5 149.001 -63.5c62 0 110.667 22.667 146 68s53 95 53 149zM598 959l54.999 -110c-39.333 -24.667 -77 -37 -113 -37c-16.667 0 -43.5 4.33301 -80.5 13s-63.5 13 -79.5 13c-25.333 0 -51 -8 -77 -24l-55 113c40.667 23.333 77.334 35 110.001 35
c18.667 0 45.667 -4.16699 81 -12.5s62.333 -12.5 81 -12.5c32.667 0 58.667 7.33301 78 22z" />
    <glyph glyph-name="Aring.alt03" unicode="&#xe01a;" horiz-adv-x="882" 
d="M815 0h-189l1 81h-2c-48.667 -63.333 -128 -95 -238 -95c-55.333 0 -105.833 11.167 -151.5 33.5s-82.834 51.833 -111.501 88.5s-50.667 77.167 -66 121.5s-23 89.833 -23 136.5c0 111.333 33.333 203.833 100 277.5s153.334 110.5 260.001 110.5
c56 0 105 -9.66699 147 -29s69.667 -40.333 83 -63h2l-1 78h189v-740zM627 369c0 54.667 -17.833 104.834 -53.5 150.501s-84.834 68.5 -147.501 68.5c-63.333 0 -112.833 -21.333 -148.5 -64s-53.5 -93.334 -53.5 -152.001c0 -62 18.333 -114.167 55 -156.5
s86.334 -63.5 149.001 -63.5c62 0 110.667 22.667 146 68s53 95 53 149zM432 1037c34.667 0 64.1689 -12.333 88.502 -37s36.5 -54.334 36.5 -89.001s-12.333 -64.334 -37 -89.001s-54.334 -37 -89.001 -37s-64.334 12.333 -89.001 37s-37 54.334 -37 89.001
s12.333 64.334 37 89.001s54.667 37 90 37zM430.002 956c-12 0 -22.166 -4.5 -30.499 -13.5s-12.5 -19.5 -12.5 -31.5s4.33301 -22.167 13 -30.5s19 -12.5 31 -12.5s22.333 4.33301 31 13s13 19 13 31c0 12.667 -4.33301 23.167 -13 31.5s-19.334 12.5 -32.001 12.5z" />
    <glyph glyph-name="Amacron.alt03" unicode="&#xe01b;" horiz-adv-x="882" 
d="M815 0h-189l1 81h-2c-48.667 -63.333 -128 -95 -238 -95c-55.333 0 -105.833 11.167 -151.5 33.5s-82.834 51.833 -111.501 88.5s-50.667 77.167 -66 121.5s-23 89.833 -23 136.5c0 111.333 33.333 203.833 100 277.5s153.334 110.5 260.001 110.5
c56 0 105 -9.66699 147 -29s69.667 -40.333 83 -63h2l-1 78h189v-740zM627 369c0 54.667 -17.833 104.834 -53.5 150.501s-84.834 68.5 -147.501 68.5c-63.333 0 -112.833 -21.333 -148.5 -64s-53.5 -93.334 -53.5 -152.001c0 -62 18.333 -114.167 55 -156.5
s86.334 -63.5 149.001 -63.5c62 0 110.667 22.667 146 68s53 95 53 149zM591 819h-359v126h359v-126z" />
    <glyph glyph-name="Abreve.alt03" unicode="&#xe01c;" horiz-adv-x="882" 
d="M815 0h-189l1 81h-2c-48.667 -63.333 -128 -95 -238 -95c-55.333 0 -105.833 11.167 -151.5 33.5s-82.834 51.833 -111.501 88.5s-50.667 77.167 -66 121.5s-23 89.833 -23 136.5c0 111.333 33.333 203.833 100 277.5s153.334 110.5 260.001 110.5
c56 0 105 -9.66699 147 -29s69.667 -40.333 83 -63h2l-1 78h189v-740zM627 369c0 54.667 -17.833 104.834 -53.5 150.501s-84.834 68.5 -147.501 68.5c-63.333 0 -112.833 -21.333 -148.5 -64s-53.5 -93.334 -53.5 -152.001c0 -62 18.333 -114.167 55 -156.5
s86.334 -63.5 149.001 -63.5c62 0 110.667 22.667 146 68s53 95 53 149zM617 949c-2 -34.667 -14 -63.1689 -36 -85.502s-47.167 -37.666 -75.5 -45.999s-59.833 -12.5 -94.5 -12.5c-55.333 0 -102.5 11.333 -141.5 34s-60.5 59.334 -64.5 110.001h113
c18.667 -23.333 51.334 -35 98.001 -35c43.333 0 72.666 11.667 87.999 35h113z" />
    <glyph glyph-name="Aogonek.alt03" unicode="&#xe01d;" horiz-adv-x="882" 
d="M818 -190c-32 -10.667 -60.6699 -15.999 -86.0029 -15.999c-32.667 0 -60.667 8.33301 -84 25s-35 40.667 -35 72c0 16 4.83301 31.333 14.5 46s19.334 26 29.001 34s22.834 17.667 39.501 29h-70l1 81h-2c-48.667 -63.333 -128 -95 -238 -95
c-55.333 0 -105.833 11.167 -151.5 33.5s-82.834 51.833 -111.501 88.5s-50.667 77.167 -66 121.5s-23 89.833 -23 136.5c0 111.333 33.333 203.833 100 277.5s153.334 110.5 260.001 110.5c56 0 105 -9.66699 147 -29s69.667 -40.333 83 -63h2l-1 78h189v-740h-35
c-38 -21.333 -57 -44 -57 -68c0 -12.667 4.83301 -23.834 14.5 -33.501s20.834 -14.5 33.501 -14.5c11.333 0 27 4 47 12v-86zM626.997 369.001c0 54.667 -17.833 104.834 -53.5 150.501s-84.834 68.5 -147.501 68.5c-63.333 0 -112.833 -21.333 -148.5 -64
s-53.5 -93.334 -53.5 -152.001c0 -62 18.333 -114.167 55 -156.5s86.334 -63.5 149.001 -63.5c62 0 110.667 22.667 146 68s53 95 53 149z" />
    <glyph glyph-name="C.alt01" unicode="&#xe01e;" horiz-adv-x="601" 
d="M547 8c-35.333 -14.667 -78.667 -21.999 -130 -21.999c-110 0 -200.833 38.333 -272.5 115s-107.5 166.667 -107.5 270c0 67.333 15.333 129.833 46 187.5s76 104.667 136 141s128.667 54.5 206 54.5c43.333 0 84 -7.33301 122 -22v-177c-34.667 22 -75.667 33 -123 33
c-60 0 -108 -21.833 -144 -65.5s-54 -93.834 -54 -150.501c0 -58.667 18.333 -110 55 -154s84.667 -66 144 -66c45.333 0 86 11.667 122 35v-179z" />
    <glyph glyph-name="Ccedilla.alt01" unicode="&#xe01f;" horiz-adv-x="601" 
d="M547 8c-34 -14.667 -76.333 -21.998 -127 -21.998h-3h-10l-21 -39c6 2 13 3 21 3c22 0 41.667 -7.83301 59 -23.5s26 -38.167 26 -67.5c0 -27.333 -9.83301 -51.5 -29.5 -72.5s-47.167 -31.5 -82.5 -31.5c-7.33301 0 -15.166 0.833008 -23.499 2.5s-19 5.16699 -32 10.5
s-24.5 15 -34.5 29s-16.333 31.333 -19 52h76l6 -13.5c1.33301 -3 4.33301 -6.16699 9 -9.5s10.667 -5 18 -5c11.333 0 20.166 3.5 26.499 10.5s9.5 16.167 9.5 27.5c0 10 -3.16699 18.167 -9.5 24.5s-14.5 9.5 -24.5 9.5c-10.667 0 -19.667 -5 -27 -15l-65 35l40 83
c-87.333 19.333 -158 64.666 -212 135.999s-81 151 -81 239c0 67.333 15.333 129.833 46 187.5s76 104.667 136 141s128.667 54.5 206 54.5c43.333 0 84 -7.33301 122 -22v-177c-34.667 22 -75.667 33 -123 33c-60 0 -108 -21.833 -144 -65.5s-54 -93.834 -54 -150.501
c0 -58.667 18.333 -110 55 -154s84.667 -66 144 -66c45.333 0 86 11.667 122 35v-179z" />
    <glyph glyph-name="Cacute.alt01" unicode="&#xe020;" horiz-adv-x="601" 
d="M547 8c-35.333 -14.667 -78.667 -21.999 -130 -21.999c-110 0 -200.833 38.333 -272.5 115s-107.5 166.667 -107.5 270c0 67.333 15.333 129.833 46 187.5s76 104.667 136 141s128.667 54.5 206 54.5c43.333 0 84 -7.33301 122 -22v-177c-34.667 22 -75.667 33 -123 33
c-60 0 -108 -21.833 -144 -65.5s-54 -93.834 -54 -150.501c0 -58.667 18.333 -110 55 -154s84.667 -66 144 -66c45.333 0 86 11.667 122 35v-179zM556.999 885.001l-246 -109l-47 98l240 129z" />
    <glyph glyph-name="Ccircumflex.alt01" unicode="&#xe021;" horiz-adv-x="601" 
d="M547 8c-35.333 -14.667 -78.667 -21.999 -130 -21.999c-110 0 -200.833 38.333 -272.5 115s-107.5 166.667 -107.5 270c0 67.333 15.333 129.833 46 187.5s76 104.667 136 141s128.667 54.5 206 54.5c43.333 0 84 -7.33301 122 -22v-177c-34.667 22 -75.667 33 -123 33
c-60 0 -108 -21.833 -144 -65.5s-54 -93.834 -54 -150.501c0 -58.667 18.333 -110 55 -154s84.667 -66 144 -66c45.333 0 86 11.667 122 35v-179zM566.999 805.001h-160l-46 58l-46 -58h-162l156 166h108z" />
    <glyph glyph-name="Cdotaccent.alt01" unicode="&#xe022;" horiz-adv-x="601" 
d="M547 8c-35.333 -14.667 -78.667 -21.999 -130 -21.999c-110 0 -200.833 38.333 -272.5 115s-107.5 166.667 -107.5 270c0 67.333 15.333 129.833 46 187.5s76 104.667 136 141s128.667 54.5 206 54.5c43.333 0 84 -7.33301 122 -22v-177c-34.667 22 -75.667 33 -123 33
c-60 0 -108 -21.833 -144 -65.5s-54 -93.834 -54 -150.501c0 -58.667 18.333 -110 55 -154s84.667 -66 144 -66c45.333 0 86 11.667 122 35v-179zM469.999 815.001h-159v151h159v-151z" />
    <glyph glyph-name="Ccaron.alt01" unicode="&#xe023;" horiz-adv-x="601" 
d="M547 8c-35.333 -14.667 -78.667 -21.999 -130 -21.999c-110 0 -200.833 38.333 -272.5 115s-107.5 166.667 -107.5 270c0 67.333 15.333 129.833 46 187.5s76 104.667 136 141s128.667 54.5 206 54.5c43.333 0 84 -7.33301 122 -22v-177c-34.667 22 -75.667 33 -123 33
c-60 0 -108 -21.833 -144 -65.5s-54 -93.834 -54 -150.501c0 -58.667 18.333 -110 55 -154s84.667 -66 144 -66c45.333 0 86 11.667 122 35v-179zM576.999 971.001l-155 -166h-108l-151 166h161l46 -58l46 58h161z" />
    <glyph glyph-name="E.alt01" unicode="&#xe024;" horiz-adv-x="601" 
d="M547 8c-35.333 -14.667 -78.666 -22.001 -129.999 -22.001c-108.667 0 -199.167 36.333 -271.5 109s-108.5 164.667 -108.5 276c0 112 36.667 203.833 110 275.5s166 107.5 278 107.5c43.333 0 84 -7.33301 122 -22v-177c-34.667 22 -75.667 33 -123 33
c-43.333 0 -80.833 -12 -112.5 -36s-54.834 -55 -69.501 -93h296v-166h-299c13.333 -41.333 36.5 -75.166 69.5 -101.499s71.833 -39.5 116.5 -39.5c45.333 0 86 11.667 122 35v-179z" />
    <glyph glyph-name="Eacute.alt01" unicode="&#xe025;" horiz-adv-x="601" 
d="M547 8c-35.333 -14.667 -78.666 -22.001 -129.999 -22.001c-108.667 0 -199.167 36.333 -271.5 109s-108.5 164.667 -108.5 276c0 112 36.667 203.833 110 275.5s166 107.5 278 107.5c43.333 0 84 -7.33301 122 -22v-177c-34.667 22 -75.667 33 -123 33
c-43.333 0 -80.833 -12 -112.5 -36s-54.834 -55 -69.501 -93h296v-166h-299c13.333 -41.333 36.5 -75.166 69.5 -101.499s71.833 -39.5 116.5 -39.5c45.333 0 86 11.667 122 35v-179zM258 873.999l240 129l53 -118l-246 -109z" />
    <glyph glyph-name="Egrave.alt01" unicode="&#xe026;" horiz-adv-x="601" 
d="M547 8c-35.333 -14.667 -78.666 -22.001 -129.999 -22.001c-108.667 0 -199.167 36.333 -271.5 109s-108.5 164.667 -108.5 276c0 112 36.667 203.833 110 275.5s166 107.5 278 107.5c43.333 0 84 -7.33301 122 -22v-177c-34.667 22 -75.667 33 -123 33
c-43.333 0 -80.833 -12 -112.5 -36s-54.834 -55 -69.501 -93h296v-166h-299c13.333 -41.333 36.5 -75.166 69.5 -101.499s71.833 -39.5 116.5 -39.5c45.333 0 86 11.667 122 35v-179zM279 1001l242 -128l-46 -97l-247 108z" />
    <glyph glyph-name="Ecircumflex.alt01" unicode="&#xe027;" horiz-adv-x="601" 
d="M547 8c-35.333 -14.667 -78.666 -22.001 -129.999 -22.001c-108.667 0 -199.167 36.333 -271.5 109s-108.5 164.667 -108.5 276c0 112 36.667 203.833 110 275.5s166 107.5 278 107.5c43.333 0 84 -7.33301 122 -22v-177c-34.667 22 -75.667 33 -123 33
c-43.333 0 -80.833 -12 -112.5 -36s-54.834 -55 -69.501 -93h296v-166h-299c13.333 -41.333 36.5 -75.166 69.5 -101.499s71.833 -39.5 116.5 -39.5c45.333 0 86 11.667 122 35v-179zM426 970.999l160 -166h-160l-56 57l-56 -57h-162l166 166h108z" />
    <glyph glyph-name="Edieresis.alt01" unicode="&#xe028;" horiz-adv-x="601" 
d="M547 8c-35.333 -14.667 -78.666 -22.001 -129.999 -22.001c-108.667 0 -199.167 36.333 -271.5 109s-108.5 164.667 -108.5 276c0 112 36.667 203.833 110 275.5s166 107.5 278 107.5c43.333 0 84 -7.33301 122 -22v-177c-34.667 22 -75.667 33 -123 33
c-43.333 0 -80.833 -12 -112.5 -36s-54.834 -55 -69.501 -93h296v-166h-299c13.333 -41.333 36.5 -75.166 69.5 -101.499s71.833 -39.5 116.5 -39.5c45.333 0 86 11.667 122 35v-179zM341 965.999v-151h-159v151h159zM574 965.999v-151h-159v151h159z" />
    <glyph glyph-name="Emacron.alt01" unicode="&#xe029;" horiz-adv-x="601" 
d="M547 8c-35.333 -14.667 -78.666 -22.001 -129.999 -22.001c-108.667 0 -199.167 36.333 -271.5 109s-108.5 164.667 -108.5 276c0 112 36.667 203.833 110 275.5s166 107.5 278 107.5c43.333 0 84 -7.33301 122 -22v-177c-34.667 22 -75.667 33 -123 33
c-43.333 0 -80.833 -12 -112.5 -36s-54.834 -55 -69.501 -93h296v-166h-299c13.333 -41.333 36.5 -75.166 69.5 -101.499s71.833 -39.5 116.5 -39.5c45.333 0 86 11.667 122 35v-179zM540 818.999h-359v126h359v-126z" />
    <glyph glyph-name="Ebreve.alt01" unicode="&#xe02a;" horiz-adv-x="601" 
d="M547 8c-35.333 -14.667 -78.666 -22.001 -129.999 -22.001c-108.667 0 -199.167 36.333 -271.5 109s-108.5 164.667 -108.5 276c0 112 36.667 203.833 110 275.5s166 107.5 278 107.5c43.333 0 84 -7.33301 122 -22v-177c-34.667 22 -75.667 33 -123 33
c-43.333 0 -80.833 -12 -112.5 -36s-54.834 -55 -69.501 -93h296v-166h-299c13.333 -41.333 36.5 -75.166 69.5 -101.499s71.833 -39.5 116.5 -39.5c45.333 0 86 11.667 122 35v-179zM566 948.999c-2 -34.667 -14 -63.1689 -36 -85.502s-47.167 -37.666 -75.5 -45.999
s-59.833 -12.5 -94.5 -12.5c-55.333 0 -102.5 11.333 -141.5 34s-60.5 59.334 -64.5 110.001h113c18.667 -23.333 51.334 -35 98.001 -35c43.333 0 72.666 11.667 87.999 35h113z" />
    <glyph glyph-name="Edotaccent.alt01" unicode="&#xe02b;" horiz-adv-x="601" 
d="M547 8c-35.333 -14.667 -78.666 -22.001 -129.999 -22.001c-108.667 0 -199.167 36.333 -271.5 109s-108.5 164.667 -108.5 276c0 112 36.667 203.833 110 275.5s166 107.5 278 107.5c43.333 0 84 -7.33301 122 -22v-177c-34.667 22 -75.667 33 -123 33
c-43.333 0 -80.833 -12 -112.5 -36s-54.834 -55 -69.501 -93h296v-166h-299c13.333 -41.333 36.5 -75.166 69.5 -101.499s71.833 -39.5 116.5 -39.5c45.333 0 86 11.667 122 35v-179zM470 814.999h-159v151h159v-151z" />
    <glyph glyph-name="Eogonek.alt01" unicode="&#xe02c;" horiz-adv-x="601" 
d="M549 -190c-32 -10.667 -60.667 -16.001 -86 -16.001c-32.667 0 -60.667 8.33301 -84 25s-35 40.667 -35 72c0 32.667 21 64.667 63 96c-106 2 -194.167 39 -264.5 111s-105.5 163 -105.5 273c0 112 36.667 203.833 110 275.5s166 107.5 278 107.5
c43.333 0 84 -7.33301 122 -22v-177c-34.667 22 -75.667 33 -123 33c-43.333 0 -80.833 -12 -112.5 -36s-54.834 -55 -69.501 -93h296v-166h-299c13.333 -41.333 36.5 -75.166 69.5 -101.499s71.833 -39.5 116.5 -39.5c45.333 0 86 11.667 122 35v-179
c-10 -4.66699 -24.667 -8.66699 -44 -12c-32.667 -19.333 -49 -40.666 -49 -63.999c0 -12.667 4.83301 -23.834 14.5 -33.501s20.834 -14.5 33.501 -14.5c11.333 0 27 4 47 12v-86z" />
    <glyph glyph-name="Ecaron.alt01" unicode="&#xe02d;" horiz-adv-x="601" 
d="M547 8c-35.333 -14.667 -78.666 -22.001 -129.999 -22.001c-108.667 0 -199.167 36.333 -271.5 109s-108.5 164.667 -108.5 276c0 112 36.667 203.833 110 275.5s166 107.5 278 107.5c43.333 0 84 -7.33301 122 -22v-177c-34.667 22 -75.667 33 -123 33
c-43.333 0 -80.833 -12 -112.5 -36s-54.834 -55 -69.501 -93h296v-166h-299c13.333 -41.333 36.5 -75.166 69.5 -101.499s71.833 -39.5 116.5 -39.5c45.333 0 86 11.667 122 35v-179zM571 970.999l-155 -166h-108l-151 166h161l46 -58l46 58h161z" />
    <glyph glyph-name="E.alt02" unicode="&#xe02e;" horiz-adv-x="850" 
d="M815 367c0 -16.667 -2.00098 -37.666 -6.00098 -62.999h-575c12 -45.333 35.5 -82 70.5 -110s75.833 -42 122.5 -42c64 0 116.667 27.667 158 83h206c-28.667 -74.667 -75.667 -134.834 -141 -180.501s-139.666 -68.5 -222.999 -68.5
c-114.667 0 -208.667 37.5 -282 112.5s-110 164.5 -110 268.5c0 75.333 18 142.833 54 202.5s83.333 105.334 142 137.001s122.667 47.5 192 47.5c112 0 205.333 -37.333 280 -112s112 -166.334 112 -275.001zM615.999 437.001c-10.667 37.333 -31.833 71.833 -63.5 103.5
s-74.167 47.5 -127.5 47.5c-50.667 0 -92 -14.333 -124 -43s-54.667 -64.667 -68 -108h383z" />
    <glyph glyph-name="Eacute.alt02" unicode="&#xe02f;" horiz-adv-x="850" 
d="M815 367c0 -16.667 -2.00098 -37.666 -6.00098 -62.999h-575c12 -45.333 35.5 -82 70.5 -110s75.833 -42 122.5 -42c64 0 116.667 27.667 158 83h206c-28.667 -74.667 -75.667 -134.834 -141 -180.501s-139.666 -68.5 -222.999 -68.5
c-114.667 0 -208.667 37.5 -282 112.5s-110 164.5 -110 268.5c0 75.333 18 142.833 54 202.5s83.333 105.334 142 137.001s122.667 47.5 192 47.5c112 0 205.333 -37.333 280 -112s112 -166.334 112 -275.001zM615.999 437.001c-10.667 37.333 -31.833 71.833 -63.5 103.5
s-74.167 47.5 -127.5 47.5c-50.667 0 -92 -14.333 -124 -43s-54.667 -64.667 -68 -108h383zM298 874.001l240 129l53 -118l-246 -109z" />
    <glyph glyph-name="Egrave.alt02" unicode="&#xe030;" horiz-adv-x="850" 
d="M815 367c0 -16.667 -2.00098 -37.666 -6.00098 -62.999h-575c12 -45.333 35.5 -82 70.5 -110s75.833 -42 122.5 -42c64 0 116.667 27.667 158 83h206c-28.667 -74.667 -75.667 -134.834 -141 -180.501s-139.666 -68.5 -222.999 -68.5
c-114.667 0 -208.667 37.5 -282 112.5s-110 164.5 -110 268.5c0 75.333 18 142.833 54 202.5s83.333 105.334 142 137.001s122.667 47.5 192 47.5c112 0 205.333 -37.333 280 -112s112 -166.334 112 -275.001zM615.999 437.001c-10.667 37.333 -31.833 71.833 -63.5 103.5
s-74.167 47.5 -127.5 47.5c-50.667 0 -92 -14.333 -124 -43s-54.667 -64.667 -68 -108h383zM323 1001l242 -128l-46 -97l-247 108z" />
    <glyph glyph-name="Ecircumflex.alt02" unicode="&#xe031;" horiz-adv-x="850" 
d="M815 367c0 -16.667 -2.00098 -37.666 -6.00098 -62.999h-575c12 -45.333 35.5 -82 70.5 -110s75.833 -42 122.5 -42c64 0 116.667 27.667 158 83h206c-28.667 -74.667 -75.667 -134.834 -141 -180.501s-139.666 -68.5 -222.999 -68.5
c-114.667 0 -208.667 37.5 -282 112.5s-110 164.5 -110 268.5c0 75.333 18 142.833 54 202.5s83.333 105.334 142 137.001s122.667 47.5 192 47.5c112 0 205.333 -37.333 280 -112s112 -166.334 112 -275.001zM615.999 437.001c-10.667 37.333 -31.833 71.833 -63.5 103.5
s-74.167 47.5 -127.5 47.5c-50.667 0 -92 -14.333 -124 -43s-54.667 -64.667 -68 -108h383zM479 971.001l160 -166h-160l-56 57l-56 -57h-162l166 166h108z" />
    <glyph glyph-name="Edieresis.alt02" unicode="&#xe032;" horiz-adv-x="850" 
d="M815 367c0 -16.667 -2.00098 -37.666 -6.00098 -62.999h-575c12 -45.333 35.5 -82 70.5 -110s75.833 -42 122.5 -42c64 0 116.667 27.667 158 83h206c-28.667 -74.667 -75.667 -134.834 -141 -180.501s-139.666 -68.5 -222.999 -68.5
c-114.667 0 -208.667 37.5 -282 112.5s-110 164.5 -110 268.5c0 75.333 18 142.833 54 202.5s83.333 105.334 142 137.001s122.667 47.5 192 47.5c112 0 205.333 -37.333 280 -112s112 -166.334 112 -275.001zM615.999 437.001c-10.667 37.333 -31.833 71.833 -63.5 103.5
s-74.167 47.5 -127.5 47.5c-50.667 0 -92 -14.333 -124 -43s-54.667 -64.667 -68 -108h383zM385 966.001v-151h-159v151h159zM618 966.001v-151h-159v151h159z" />
    <glyph glyph-name="Emacron.alt02" unicode="&#xe033;" horiz-adv-x="850" 
d="M815 367c0 -16.667 -2.00098 -37.666 -6.00098 -62.999h-575c12 -45.333 35.5 -82 70.5 -110s75.833 -42 122.5 -42c64 0 116.667 27.667 158 83h206c-28.667 -74.667 -75.667 -134.834 -141 -180.501s-139.666 -68.5 -222.999 -68.5
c-114.667 0 -208.667 37.5 -282 112.5s-110 164.5 -110 268.5c0 75.333 18 142.833 54 202.5s83.333 105.334 142 137.001s122.667 47.5 192 47.5c112 0 205.333 -37.333 280 -112s112 -166.334 112 -275.001zM615.999 437.001c-10.667 37.333 -31.833 71.833 -63.5 103.5
s-74.167 47.5 -127.5 47.5c-50.667 0 -92 -14.333 -124 -43s-54.667 -64.667 -68 -108h383zM605 819.001h-359v126h359v-126z" />
    <glyph glyph-name="Ebreve.alt02" unicode="&#xe034;" horiz-adv-x="850" 
d="M815 367c0 -16.667 -2.00098 -37.666 -6.00098 -62.999h-575c12 -45.333 35.5 -82 70.5 -110s75.833 -42 122.5 -42c64 0 116.667 27.667 158 83h206c-28.667 -74.667 -75.667 -134.834 -141 -180.501s-139.666 -68.5 -222.999 -68.5
c-114.667 0 -208.667 37.5 -282 112.5s-110 164.5 -110 268.5c0 75.333 18 142.833 54 202.5s83.333 105.334 142 137.001s122.667 47.5 192 47.5c112 0 205.333 -37.333 280 -112s112 -166.334 112 -275.001zM615.999 437.001c-10.667 37.333 -31.833 71.833 -63.5 103.5
s-74.167 47.5 -127.5 47.5c-50.667 0 -92 -14.333 -124 -43s-54.667 -64.667 -68 -108h383zM631 949.001c-2 -34.667 -14 -63.1689 -36 -85.502s-47.167 -37.666 -75.5 -45.999s-59.833 -12.5 -94.5 -12.5c-55.333 0 -102.5 11.333 -141.5 34s-60.5 59.334 -64.5 110.001
h113c18.667 -23.333 51.334 -35 98.001 -35c43.333 0 72.666 11.667 87.999 35h113z" />
    </font>
</defs>
</svg>
