<?xml version="1.0" standalone="no"?>
<!DOCTYPE svg PUBLIC "-//W3C//DTD SVG 1.1//EN" "http://www.w3.org/Graphics/SVG/1.1/DTD/svg11.dtd" >
<svg xmlns="http://www.w3.org/2000/svg">
<metadata></metadata>
<defs>
<font id="retina_displaythin" horiz-adv-x="1048" >
<font-face units-per-em="2048" ascent="1638" descent="-410" />
<missing-glyph horiz-adv-x="512" />
<glyph horiz-adv-x="0" />
<glyph horiz-adv-x="682" />
<glyph unicode=" "  horiz-adv-x="512" />
<glyph unicode="&#x09;" horiz-adv-x="512" />
<glyph unicode="&#xa0;" horiz-adv-x="512" />
<glyph unicode="!" horiz-adv-x="360" d="M133 0v115h94v-115h-94zM147 981v453h66v-453l-16 -680h-31z" />
<glyph unicode="&#x22;" horiz-adv-x="657" d="M90 1036l121 398h100v-2l-188 -406zM348 1036l121 398h100v-2l-188 -406z" />
<glyph unicode="#" horiz-adv-x="1249" d="M68 465v61l288 -12l70 426l-281 12v62l291 -13l76 445h63l-73 -447l336 -14l75 461h66l-78 -463l281 -12v-62l-291 11l-70 -424l283 -13v-61l-293 10l-74 -444h-65l73 448l-333 15l-76 -463h-68l78 465zM422 512l334 -14l71 426l-335 14z" />
<glyph unicode="$" horiz-adv-x="1173" d="M63 139l33 54q183 -114 389 -132l68 658q-212 56 -302.5 137.5t-90.5 224.5q0 153 124 253t326 100h17l18 190h62l-21 -194q163 -18 342 -113l-29 -55q-159 88 -323 108l-62 -604q219 -58 319.5 -152t100.5 -231q0 -73 -25 -135.5t-70 -107.5t-105.5 -77t-131.5 -47.5 t-149 -15.5h-16l-23 -223h-59l22 227q-217 20 -414 135zM225 1085q0 -120 78.5 -189t255.5 -116l64 594h-17q-178 0 -279.5 -81.5t-101.5 -207.5zM541 59h14q179 0 296.5 84t117.5 236q0 117 -87 197.5t-274 130.5z" />
<glyph unicode="%" horiz-adv-x="1443" d="M115 1085q0 160 75 260.5t185 100.5t186 -101t76 -260t-76 -258.5t-186 -99.5t-185 99.5t-75 258.5zM174 1085q0 -133 57.5 -217t143.5 -84t144.5 84t58.5 217q0 134 -58.5 220t-144.5 86t-143.5 -85.5t-57.5 -220.5zM276 6l424 723l408 725l57 -27l-424 -720l-405 -727z M807 348q0 159 76 259t186 100q109 0 184.5 -100t75.5 -259t-75.5 -259.5t-184.5 -100.5q-110 0 -186 100.5t-76 259.5zM866 348q0 -134 58.5 -218.5t144.5 -84.5t143.5 84.5t57.5 218.5q0 133 -57.5 217t-143.5 84t-144.5 -84t-58.5 -217z" />
<glyph unicode="&#x26;" horiz-adv-x="1435" d="M115 360q0 154 95.5 278.5t281.5 199.5q-125 143 -125 290q0 140 96.5 231t251.5 91q166 0 342 -96l-31 -60q-166 97 -313 97q-125 0 -202 -73.5t-77 -184.5q0 -80 39.5 -151t118.5 -157l412 -432q106 161 210 408h72v-4q-119 -273 -239 -449l329 -344v-4h-88l-282 289 q-223 -303 -508 -303q-165 0 -274 102t-109 272zM180 362q0 -139 92 -227t230 -88q250 0 461 289l-426 455q-179 -71 -268 -184.5t-89 -244.5z" />
<glyph unicode="'" horiz-adv-x="403" d="M90 1036l121 398h100v-2l-188 -406z" />
<glyph unicode="(" horiz-adv-x="831" d="M145 621q0 553 560 866l26 -39q-254 -154 -388 -354.5t-134 -472.5q0 -270 134 -471t388 -355l-26 -39q-560 310 -560 865z" />
<glyph unicode=")" horiz-adv-x="831" d="M102 -205q167 101 279.5 217.5t177 271t64.5 337.5q0 272 -133.5 472.5t-387.5 354.5l25 39q561 -313 561 -866q0 -555 -561 -865z" />
<glyph unicode="*" horiz-adv-x="675" d="M74 1219l24 69l197 -94l-4 -14zM154 977l151 160l12 -9l-104 -196zM301 1438h74l-29 -219h-14zM360 1128l11 9l151 -160l-59 -45zM381 1194l199 94l22 -69l-217 -39z" />
<glyph unicode="+" horiz-adv-x="1040" d="M109 698v60h378v387h66v-387h377v-60h-377v-387h-66v387h-378z" />
<glyph unicode="," horiz-adv-x="305" d="M0 -254q62 98 89.5 179t27.5 190h86v-9q0 -104 -44.5 -193t-131.5 -187z" />
<glyph unicode="-" horiz-adv-x="704" d="M94 598v66h516v-66h-516z" />
<glyph unicode="." horiz-adv-x="305" d="M106 0v115h93v-115h-93z" />
<glyph unicode="/" horiz-adv-x="739" d="M-14 -266l680 1894h63l-680 -1894h-63z" />
<glyph unicode="0" horiz-adv-x="1271" d="M127 717q0 177 40.5 319.5t110.5 233t161 138.5t196 48q106 0 197.5 -48t161.5 -138.5t110.5 -233t40.5 -319.5t-40.5 -319.5t-110.5 -233.5t-161.5 -139t-197.5 -48q-105 0 -196 48.5t-161 139t-110.5 233t-40.5 319.5zM195 719q0 -162 35.5 -293t97 -214.5t141 -128 t168.5 -44.5t167.5 44t139.5 126.5t97 213.5t36 292q0 162 -35.5 293.5t-97 215.5t-141.5 128.5t-170 44.5q-88 0 -166 -44t-139 -127t-97 -214t-36 -293z" />
<glyph unicode="1" horiz-adv-x="839" d="M104 0v61h306v1313l-269 -117l-24 52l297 137h61v-1385h287v-61h-658z" />
<glyph unicode="2" horiz-adv-x="1136" d="M98 47l584 612q120 122 178 221t58 205q0 131 -84.5 217.5t-233.5 86.5q-223 0 -414 -211l-45 43q208 229 461 229q182 0 281.5 -102.5t99.5 -257.5q0 -127 -60 -232.5t-192 -239.5l-534 -557h827v-61h-905z" />
<glyph unicode="3" horiz-adv-x="1110" d="M98 -14v61q400 10 608.5 109t208.5 272q0 137 -145.5 208t-447.5 75l-13 53q293 74 441.5 172t148.5 229q0 103 -89 164.5t-247 61.5q-215 0 -430 -125l-33 51q232 135 467 135q183 0 291.5 -80t108.5 -205q0 -142 -121 -237.5t-359 -173.5q250 -21 373 -98.5t123 -231.5 q0 -136 -109 -233t-305.5 -148t-470.5 -59z" />
<glyph unicode="4" horiz-adv-x="1165" d="M68 377v53l743 1016h74v-1008h223v-61h-223v-377h-68v377h-749zM152 438h665v905z" />
<glyph unicode="5" horiz-adv-x="1136" d="M135 35q397 45 607 171t210 326q0 126 -85 198.5t-240 72.5q-185 0 -404 -115l-49 25l45 721h782v-62h-720l-39 -608q198 100 391 100q180 0 282.5 -87t102.5 -238q0 -227 -224 -371.5t-649 -194.5z" />
<glyph unicode="6" horiz-adv-x="1157" d="M127 559q0 296 175.5 531t524.5 378l29 -55q-522 -223 -631 -618q74 36 170.5 61t192.5 25q208 0 332 -115t124 -322q0 -204 -125.5 -335.5t-320.5 -131.5q-211 0 -341 159.5t-130 422.5zM195 559q0 -231 110.5 -375.5t296.5 -144.5q160 0 268.5 113.5t108.5 289.5 q0 181 -108 280t-289 99q-94 0 -198.5 -30t-176.5 -70q-12 -77 -12 -162z" />
<glyph unicode="7" horiz-adv-x="1116" d="M106 1372v62h912v-62l-694 -1386l-60 28l684 1358h-842z" />
<glyph unicode="8" horiz-adv-x="1183" d="M109 375q0 278 311 377q-268 94 -268 342q0 149 123.5 253.5t316.5 104.5q194 0 317 -104t123 -254q0 -248 -268 -342q311 -98 311 -377q0 -110 -62.5 -200t-173.5 -141.5t-247 -51.5q-208 0 -345.5 112.5t-137.5 280.5zM176 387q0 -150 116 -247t300 -97q185 0 301.5 97 t116.5 247q0 145 -121 240.5t-297 95.5t-296 -95.5t-120 -240.5zM217 1081q0 -133 110 -217t265 -84t265 84t110 217q0 132 -102.5 221t-272.5 89q-169 0 -272 -89.5t-103 -220.5z" />
<glyph unicode="9" horiz-adv-x="1157" d="M113 989q0 204 125.5 335.5t320.5 131.5q211 0 341 -159.5t130 -422.5q0 -296 -175.5 -531t-524.5 -378l-29 55q268 115 422 268.5t209 348.5q-184 -84 -363 -84q-208 0 -332 114.5t-124 321.5zM178 991q0 -181 108 -280t289 -99q92 0 197 30.5t176 70.5q15 77 15 161 q0 231 -111 376t-297 145q-160 0 -268.5 -114t-108.5 -290z" />
<glyph unicode=":" horiz-adv-x="305" d="M106 0v115h93v-115h-93zM106 926v114h93v-114h-93z" />
<glyph unicode=";" horiz-adv-x="305" d="M-4 -254q62 97 88.5 178.5t26.5 190.5h88v-9q0 -104 -44.5 -193t-131.5 -187zM111 926v114h94v-114h-94z" />
<glyph unicode="&#x3c;" horiz-adv-x="1040" d="M109 696v64l804 373v-74l-725 -332l725 -330v-73z" />
<glyph unicode="=" horiz-adv-x="1040" d="M119 522v64h801v-64h-801zM119 870v64h801v-64h-801z" />
<glyph unicode="&#x3e;" horiz-adv-x="1040" d="M125 324v73l725 330l-725 332v74l807 -373v-64z" />
<glyph unicode="?" horiz-adv-x="1099" d="M78 1286q260 168 508 168q186 0 304 -90.5t118 -243.5q0 -150 -117.5 -255t-368.5 -212l-16 -352h-33l-16 395q260 102 371.5 197t111.5 225q0 125 -99 200t-259 75q-226 0 -471 -160zM444 0v115h93v-115h-93z" />
<glyph unicode="@" horiz-adv-x="1529" d="M113 371q0 223 70 425.5t188.5 348.5t281.5 232.5t342 86.5q210 0 318 -101t108 -261q0 -100 -37 -242l-182 -729h-28v111q-64 -51 -141.5 -82t-151.5 -31q-127 0 -204 81t-77 232q0 156 74.5 292t201 217t271.5 81q103 0 203 -41q8 47 8 105q0 144 -92 227.5t-273 83.5 q-167 0 -319 -83t-261 -222t-174 -329.5t-65 -397.5q0 -301 147.5 -463t417.5 -162q148 0 279 43l-27 -65q-122 -35 -256 -35q-298 0 -460 177.5t-162 500.5zM662 446q0 -125 60.5 -191.5t168.5 -66.5q66 0 145 32.5t146 86.5l157 627q-86 39 -196 39q-129 0 -241 -75.5 t-176 -197t-64 -254.5z" />
<glyph unicode="A" horiz-adv-x="1462" d="M88 0l614 1458h60l612 -1458h-74l-163 391h-813l-164 -391h-72zM348 453h764l-381 911z" />
<glyph unicode="B" horiz-adv-x="1343" d="M201 0v1434h544q202 0 313 -89t111 -235q0 -77 -31.5 -141t-86 -107.5t-118 -72t-138.5 -44.5q99 -17 175 -45t134.5 -72.5t89.5 -109t31 -147.5q0 -175 -131.5 -273t-333.5 -98h-559zM266 61h496q173 0 285 84t112 228q0 157 -149.5 248.5t-407.5 91.5h-336v-652z M266 772h338q216 0 357 89.5t141 244.5q0 123 -92.5 194.5t-268.5 71.5h-475v-600z" />
<glyph unicode="C" horiz-adv-x="1314" d="M125 715q0 207 89 376.5t247 266t352 96.5q112 0 197 -21.5t192 -68.5l-26 -59q-100 46 -184 67t-185 21q-174 0 -315 -89.5t-220 -243.5t-79 -341q0 -195 78 -349.5t219.5 -241.5t322.5 -87q90 0 177.5 24t197.5 73l26 -56q-115 -51 -207.5 -76.5t-197.5 -25.5 q-198 0 -354 94.5t-243 262t-87 378.5z" />
<glyph unicode="D" horiz-adv-x="1431" d="M201 0v1434h372q161 0 295 -47.5t231.5 -136.5t151.5 -225t54 -306q0 -225 -94 -389t-259 -247t-381 -83h-370zM266 61h309q298 0 481 175t183 479t-183.5 480.5t-486.5 176.5h-303v-1311z" />
<glyph unicode="E" horiz-adv-x="1259" d="M201 0v1434h948v-62h-883v-604h789v-61h-789v-646h891v-61h-956z" />
<glyph unicode="F" horiz-adv-x="1202" d="M201 0v1434h950v-62h-885v-655h674v-62h-674v-655h-65z" />
<glyph unicode="G" horiz-adv-x="1466" d="M125 715q0 209 85 377t243.5 265t363.5 97q216 0 434 -108l-30 -60q-216 107 -410 107q-184 0 -326 -90.5t-217 -243t-75 -340.5q0 -196 75 -349t217 -240t330 -87q114 0 224.5 28t193.5 72v504h-467v62h532v-598q-227 -129 -487 -129q-307 0 -496.5 201.5t-189.5 531.5z " />
<glyph unicode="H" horiz-adv-x="1449" d="M201 0v1434h65v-666h918v666h65v-1434h-65v707h-918v-707h-65z" />
<glyph unicode="I" horiz-adv-x="483" d="M209 0v1434h65v-1434h-65z" />
<glyph unicode="J" horiz-adv-x="960" d="M51 39l23 59q117 -53 262 -53q184 0 276.5 121t92.5 342v926h67v-926v-8q0 -238 -111 -376q-113 -140 -329 -140q-144 0 -281 55z" />
<glyph unicode="K" horiz-adv-x="1277" d="M201 0v1434h65v-670h58l804 670h99v-2l-840 -697l852 -733v-2h-100l-817 709h-56v-709h-65z" />
<glyph unicode="L" horiz-adv-x="1122" d="M201 0v1434h65v-1373h809v-61h-874z" />
<glyph unicode="M" horiz-adv-x="1871" d="M174 0l72 1434h71l621 -1348l621 1348h69l72 -1434h-66l-59 1321l-610 -1325h-56l-608 1325l-61 -1321h-66z" />
<glyph unicode="N" horiz-adv-x="1466" d="M201 0v1434h73l928 -1323v1323h66v-1434h-72l-930 1333v-1333h-65z" />
<glyph unicode="O" horiz-adv-x="1521" d="M125 715q0 211 82 381.5t228.5 267t328.5 96.5q180 0 325 -95.5t226.5 -265t81.5 -380.5q0 -158 -48.5 -296.5t-132.5 -237t-202.5 -155.5t-253.5 -57q-136 0 -254 56t-201.5 154t-131.5 236t-48 296zM193 719q0 -193 72 -349t203 -245.5t296 -89.5q163 0 292.5 90 t201 245t71.5 345q0 193 -72 349t-202.5 245.5t-294.5 89.5t-294 -90t-201.5 -245t-71.5 -345z" />
<glyph unicode="P" horiz-adv-x="1259" d="M201 0v1434h430q249 0 387.5 -110t138.5 -320q0 -231 -155.5 -352.5t-411.5 -121.5h-324v-530h-65zM266 592h330q142 0 251.5 42.5t177 136t67.5 228.5q0 181 -123 277t-346 96h-357v-780z" />
<glyph unicode="Q" horiz-adv-x="1521" d="M125 715q0 211 82 381.5t228.5 267t328.5 96.5q180 0 325 -95.5t226.5 -265t81.5 -380.5q0 -192 -69.5 -352t-192.5 -261l292 -270v-2h-98l-250 232q-145 -93 -319 -93q-136 0 -254 56t-201.5 154t-131.5 236t-48 296zM193 719q0 -193 72 -349t203 -245.5t296 -89.5 q163 0 292.5 90t201 245t71.5 345q0 193 -72 349t-202.5 245.5t-294.5 89.5t-294 -90t-201.5 -245t-71.5 -345z" />
<glyph unicode="R" horiz-adv-x="1366" d="M201 0v1434h501q230 0 355 -104t125 -286q0 -78 -26 -144.5t-68.5 -113t-102.5 -83t-122 -59t-132 -36.5q60 -22 103 -55t98 -100l403 -451v-2h-94l-360 410q-88 103 -159 142.5t-185 39.5h-271v-592h-65zM266 653h305q153 0 275.5 46t195 135t72.5 206q0 156 -107 244 t-309 88h-432v-719z" />
<glyph unicode="S" horiz-adv-x="1318" d="M104 127l35 59q239 -143 518 -143q197 0 323 89t126 233q0 127 -97 203t-350 145q-264 73 -370.5 158t-106.5 231q0 155 131.5 252.5t333.5 97.5q128 0 234.5 -27t222.5 -79l-31 -62q-223 107 -430 107q-178 0 -286.5 -80.5t-108.5 -204.5q0 -120 95.5 -191.5 t338.5 -136.5q277 -75 383 -166t106 -243q0 -171 -146 -279t-374 -108q-283 0 -547 145z" />
<glyph unicode="T" horiz-adv-x="1271" d="M51 1372v62h1170v-62h-551v-1372h-68v1372h-551z" />
<glyph unicode="U" horiz-adv-x="1435" d="M186 573v861h66v-856q0 -250 128 -394.5t339 -144.5q210 0 338.5 142.5t128.5 385.5v867h63v-865q0 -269 -143.5 -429t-388.5 -160q-244 0 -387.5 160.5t-143.5 432.5z" />
<glyph unicode="V" horiz-adv-x="1429" d="M88 1434h76l553 -1366l555 1366h69l-598 -1459h-55z" />
<glyph unicode="W" horiz-adv-x="2207" d="M98 1434h72l426 -1364l477 1364h66l479 -1364l424 1364h69l-460 -1457h-68l-477 1352l-479 -1352h-68z" />
<glyph unicode="X" horiz-adv-x="1343" d="M88 0v2l543 735l-514 695v2h82l475 -646l473 646h78v-2l-510 -693l540 -737v-2h-79l-504 688l-506 -688h-78z" />
<glyph unicode="Y" horiz-adv-x="1308" d="M43 1434h84l528 -768l529 768h82l-578 -834v-600h-67v600z" />
<glyph unicode="Z" horiz-adv-x="1280" d="M102 0v53l973 1319h-932v62h1022v-52l-975 -1321h975v-61h-1063z" />
<glyph unicode="[" horiz-adv-x="847" d="M203 -223v1689l524 -32v-52l-461 23v-1569l461 25v-51z" />
<glyph unicode="\" horiz-adv-x="739" d="M10 1628h64l680 -1894h-64z" />
<glyph unicode="]" horiz-adv-x="847" d="M123 -139l461 -25v1569l-461 -23v52l522 32v-1689l-522 33v51z" />
<glyph unicode="_" horiz-adv-x="983" d="M-4 -123h991v-61h-991v61z" />
<glyph unicode="`" horiz-adv-x="1007" d="M338 1417h111l225 -235h-64z" />
<glyph unicode="a" d="M92 297q0 133 80 213q60 60 167.5 87.5t336.5 27.5q134 0 151 -7v107q0 133 -69.5 199.5t-220.5 66.5q-160 0 -336 -78l-23 58q180 80 361 80q352 0 352 -322v-530l24 -199h-45l-39 147q-199 -163 -399 -163q-152 0 -246 83t-94 230zM154 301q0 -121 76.5 -188.5 t207.5 -67.5q196 0 389 166v352q-20 4 -155 4q-210 0 -306.5 -24t-148.5 -76q-63 -63 -63 -166z" />
<glyph unicode="b" horiz-adv-x="1105" d="M170 0v1487h63v-541q152 113 320 113q199 0 323.5 -147.5t124.5 -385.5q0 -250 -126 -397t-330 -147q-167 0 -316 106l-14 -88h-45zM233 154q153 -115 312 -115q174 2 284.5 130.5t110.5 354.5q0 215 -110 346t-285 131q-161 0 -312 -118v-729z" />
<glyph unicode="c" horiz-adv-x="956" d="M100 518q0 233 136 386t348 153q136 0 290 -64l-22 -59q-144 63 -274 63q-120 0 -215 -63t-146 -171.5t-51 -240.5q0 -209 115 -344t301 -135q129 0 274 68l23 -58q-154 -69 -304 -69q-141 0 -249.5 70t-167 191t-58.5 273z" />
<glyph unicode="d" horiz-adv-x="1105" d="M104 514q0 250 126.5 397.5t330.5 147.5q166 0 311 -105v533h64v-1487h-45l-14 96q-153 -114 -324 -114q-199 0 -324 147t-125 385zM166 516q0 -215 110 -346t285 -131q161 0 311 121v729q-154 112 -311 112q-174 -2 -284.5 -130.5t-110.5 -354.5z" />
<glyph unicode="e" d="M100 518q0 231 124 388t315 157q129 0 227 -75t147.5 -198t49.5 -272v-20h-801q6 -199 116.5 -328t286.5 -129q163 0 324 104l31 -51q-176 -112 -357 -112q-201 0 -332 147.5t-131 388.5zM162 555h739q-9 193 -109 321t-257 128q-154 0 -258 -128.5t-115 -320.5z" />
<glyph unicode="f" horiz-adv-x="714" d="M59 983v57h207v136q0 153 74.5 236t220.5 83q112 0 215 -39l-20 -57q-109 37 -201 37q-227 0 -227 -256v-140h356v-57h-356v-983h-62v983h-207z" />
<glyph unicode="g" horiz-adv-x="1105" d="M104 535q0 240 128 382t329 142q165 0 316 -107l14 88h45v-991q0 -185 -98 -282t-293 -97q-183 0 -371 80l21 60q178 -80 352 -80q325 0 325 315v92q-153 -114 -323 -114q-190 0 -317.5 143t-127.5 369zM166 539q0 -199 110 -329t279 -130q162 0 317 121v688 q-154 112 -311 112q-172 -2 -283.5 -127t-111.5 -335z" />
<glyph unicode="h" horiz-adv-x="1110" d="M170 0v1487h63v-553q172 123 363 123q171 0 263.5 -99.5t92.5 -287.5v-670h-61v664q0 162 -78.5 247.5t-226.5 85.5q-91 0 -186.5 -36t-166.5 -91v-870h-63z" />
<glyph unicode="i" horiz-adv-x="411" d="M168 1253v125h78v-125h-78zM174 0v1040h64v-1040h-64z" />
<glyph unicode="j" horiz-adv-x="411" d="M-29 -283q56 43 88.5 74.5t63 79t43 109.5t12.5 147v913h62v-913q0 -121 -29 -207t-76 -139t-129 -111zM170 1253v125h78v-125h-78z" />
<glyph unicode="k" horiz-adv-x="960" d="M170 0v1487h63v-922h50l542 475h95v-2l-578 -499l592 -537v-2h-94l-561 516h-46v-516h-63z" />
<glyph unicode="l" horiz-adv-x="411" d="M174 0v1487h64v-1487h-64z" />
<glyph unicode="m" horiz-adv-x="1804" d="M170 0v1040h45l16 -108q176 125 359 125q208 0 295 -150q221 150 403 150q172 0 266.5 -99t94.5 -286v-672h-62v666q0 162 -79.5 246.5t-229.5 84.5q-85 0 -181.5 -38t-187.5 -103q31 -79 31 -184v-672h-61v666q0 162 -77 246.5t-222 84.5q-90 0 -183 -35.5t-164 -91.5 v-870h-63z" />
<glyph unicode="n" horiz-adv-x="1110" d="M170 0v1040h45l16 -108q176 125 365 125q171 0 263.5 -99.5t92.5 -287.5v-670h-61v664q0 162 -78.5 247.5t-226.5 85.5q-91 0 -186.5 -36t-166.5 -91v-870h-63z" />
<glyph unicode="o" horiz-adv-x="1107" d="M100 520q0 235 131 389t324 154q194 0 323.5 -154t129.5 -389t-131 -389t-324 -154q-194 0 -323.5 154t-129.5 389zM164 520q0 -209 111.5 -346t279.5 -137t279.5 136.5t111.5 346.5q0 209 -111.5 346.5t-279.5 137.5t-279.5 -137t-111.5 -347z" />
<glyph unicode="p" horiz-adv-x="1105" d="M170 -324v1364h45l14 -96q155 115 324 115q199 0 323.5 -147.5t124.5 -385.5q0 -250 -126 -397t-330 -147q-169 0 -312 104v-410h-63zM233 154q153 -115 312 -115q174 2 284.5 130.5t110.5 354.5q0 215 -110 346t-285 131q-161 0 -312 -118v-729z" />
<glyph unicode="q" horiz-adv-x="1105" d="M104 514q0 250 126.5 397.5t330.5 147.5q165 0 316 -107l14 88h45v-1364h-64v420q-148 -114 -319 -114q-199 0 -324 147t-125 385zM166 516q0 -215 110 -346t285 -131q161 0 311 121v729q-154 112 -311 112q-174 -2 -284.5 -130.5t-110.5 -354.5z" />
<glyph unicode="r" horiz-adv-x="712" d="M170 0v1040h45l14 -174q190 183 439 183v-62q-238 -6 -435 -180v-807h-63z" />
<glyph unicode="s" horiz-adv-x="993" d="M98 90l31 55q180 -100 377 -100q139 0 223 58.5t84 154.5q0 86 -65.5 140.5t-245.5 103.5q-195 50 -275 114.5t-80 176.5q0 113 94.5 186.5t245.5 73.5q171 0 338 -82l-28 -58q-154 82 -312 82q-126 0 -201 -56t-75 -142q0 -88 68 -138t245 -98q204 -55 279.5 -122.5 t75.5 -176.5q0 -127 -104.5 -201.5t-268.5 -74.5q-210 0 -406 104z" />
<glyph unicode="t" horiz-adv-x="794" d="M59 983v57h195v334h63v-334h381v-57h-381v-686q0 -123 62 -188.5t174 -65.5q61 0 143 20l11 -57q-93 -22 -156 -22q-140 0 -218.5 80t-78.5 227v692h-195z" />
<glyph unicode="u" horiz-adv-x="1110" d="M156 371v669h63v-663q0 -163 78 -248.5t227 -85.5q91 0 186.5 36t166.5 91v870h63v-1040h-45l-16 109q-176 -125 -365 -125q-173 0 -265.5 99.5t-92.5 287.5z" />
<glyph unicode="v" horiz-adv-x="1042" d="M66 1040h67l391 -979l389 979h64l-428 -1063h-53z" />
<glyph unicode="w" horiz-adv-x="1667" d="M72 1040h65l320 -972l346 972h65l344 -972l320 972h63l-352 -1056h-59l-348 974l-351 -974h-59z" />
<glyph unicode="x" horiz-adv-x="1019" d="M76 0v2l399 533l-377 503v2h72l340 -458l342 458h70v-2l-377 -501l399 -535v-2h-74l-362 492l-363 -492h-69z" />
<glyph unicode="y" horiz-adv-x="1032" d="M74 1040h67l383 -927l379 927h66l-410 -983q-75 -179 -175 -263.5t-259 -123.5l-16 58q143 31 228.5 101t154.5 214z" />
<glyph unicode="z" horiz-adv-x="952" d="M84 0v47l688 936h-655v57h737v-47l-688 -936h688v-57h-770z" />
<glyph unicode="{" horiz-adv-x="1148" d="M94 594v55h56q213 0 338.5 98t125.5 242q0 183 -217 289l11 51q301 124 610 156l14 -58q-280 -28 -553 -131q86 -45 143.5 -120.5t57.5 -184.5q0 -139 -96 -235.5t-256 -132.5q160 -38 256 -134t96 -235q0 -110 -57.5 -186t-143.5 -119q267 -104 553 -133l-14 -58 q-318 36 -610 156l-11 53q217 102 217 289q0 142 -126 240t-338 98h-56z" />
<glyph unicode="|" horiz-adv-x="516" d="M229 -266v1894h58v-1894h-58z" />
<glyph unicode="}" horiz-adv-x="1148" d="M117 -184q286 29 553 133q-86 43 -143.5 119t-57.5 186q0 139 96 235t256 134q-160 36 -256 132.5t-96 235.5q0 109 57.5 184.5t143.5 120.5q-273 103 -553 131l14 58q309 -32 610 -156l11 -51q-217 -106 -217 -289q0 -144 125.5 -242t338.5 -98h56v-55h-56 q-212 0 -338 -98t-126 -240q0 -187 217 -289l-11 -53q-292 -120 -610 -156z" />
<glyph unicode="&#xa1;" horiz-adv-x="360" d="M133 1319v115h94v-115h-94zM147 0v453l17 680h31l18 -680v-453h-66z" />
<glyph unicode="&#xa2;" horiz-adv-x="966" d="M117 739q0 189 125 311.5t303 125.5l28 266h58l-29 -268q49 -3 96.5 -15t75.5 -23.5t82 -35.5l-29 -58q-64 32 -116.5 50t-116.5 22l-76 -745h33q68 0 147 21t140 54l26 -55q-171 -80 -315 -80h-35l-35 -317h-57l33 325q-154 29 -246 143.5t-92 278.5zM182 741 q0 -142 73.5 -240t207.5 -124l78 739q-151 -5 -255 -108.5t-104 -266.5z" />
<glyph unicode="&#xa3;" horiz-adv-x="1153" d="M94 53q93 75 146.5 176t70.5 248l21 209h-217v62h223l29 270q21 209 131 319q113 113 293 113q134 0 266 -51l-23 -60q-126 50 -243 50q-148 0 -242 -91q-97 -97 -115 -286l-28 -264h499v-62h-506l-20 -215q-14 -147 -60 -240.5t-129 -169.5h865v-61h-942z" />
<glyph unicode="&#xa5;" horiz-adv-x="1173" d="M76 1434h80l432 -772l434 772h76l-461 -801h360v-60h-379v-239h379v-60h-379v-274h-63v274h-381v60h381v239h-381v60h361z" />
<glyph unicode="&#xa7;" horiz-adv-x="1193" d="M106 727q0 93 90 168.5t248 130.5q-101 45 -141.5 93t-40.5 116q0 91 93.5 152t248.5 61q90 0 190 -22t177 -54l-23 -61q-75 33 -171 55.5t-175 22.5q-130 0 -202 -44t-72 -108t69 -110t269 -113q174 -55 267.5 -105t123.5 -94.5t30 -107.5q0 -181 -339 -299 q102 -46 143 -93.5t41 -113.5q0 -92 -93 -153.5t-249 -61.5q-91 0 -191 21.5t-176 53.5l23 62q75 -33 171 -55.5t175 -22.5q130 0 201 44.5t71 109.5q0 64 -68.5 110t-267.5 113q-132 41 -216 77.5t-129 74t-61 72.5t-16 81zM172 729q0 -47 28.5 -82.5t114 -77.5t244.5 -92 l109 -39q164 51 258 122t94 145q0 48 -28 83t-114 77t-245 91q-47 14 -111 37q-164 -52 -257 -121t-93 -143z" />
<glyph unicode="&#xa8;" horiz-adv-x="1007" d="M344 1182v135h84v-135h-84zM580 1182v135h84v-135h-84z" />
<glyph unicode="&#xa9;" horiz-adv-x="1605" d="M127 717q0 212 88.5 383t243.5 266.5t344 95.5t344 -95.5t243.5 -266.5t88.5 -383q0 -159 -52 -297.5t-142 -237t-215 -155t-267 -56.5t-267 56.5t-215 155t-142 237t-52 297.5zM166 717q0 -150 49 -282.5t134 -225.5t203 -147t251 -54t251 54t203 147t134 225.5 t49 282.5t-49 282t-134 225.5t-203 147t-251 53.5t-251 -53.5t-203 -147t-134 -225.5t-49 -282zM465 723q0 162 102 266.5t258 104.5q132 0 244 -64l-25 -51q-100 59 -221 59q-127 0 -212 -88t-85 -225q0 -142 84 -229.5t215 -87.5q111 0 226 61l26 -49q-122 -68 -252 -68 q-158 0 -259 102.5t-101 268.5z" />
<glyph unicode="&#xaa;" horiz-adv-x="851" d="M123 551v51h600v-51h-600zM137 961q0 99 79.5 158t250.5 59q4 0 84 -1t84 -1v59q0 77 -43.5 117.5t-140.5 40.5q-110 0 -236 -52l-20 52q128 51 256 51q241 0 241 -207v-338l17 -125h-43l-29 90q-135 -98 -275 -98q-101 0 -163 52t-62 143zM195 965q0 -67 45.5 -107.5 t126.5 -40.5q63 0 136 29t132 76v202q-4 0 -86 1t-86 1q-136 0 -202 -44.5t-66 -116.5z" />
<glyph unicode="&#xab;" horiz-adv-x="1054" d="M106 612v39l408 393l29 -26l-338 -385l338 -385l-29 -29zM496 612v39l409 393l29 -26l-340 -385l340 -385l-29 -29z" />
<glyph unicode="&#xad;" horiz-adv-x="704" d="M94 598v66h516v-66h-516z" />
<glyph unicode="&#xae;" horiz-adv-x="856" d="M96 1104q0 148 95 249t237 101q141 0 236.5 -101t95.5 -249q0 -150 -95.5 -251t-236.5 -101q-142 0 -237 100.5t-95 251.5zM127 1104q0 -137 87 -231.5t214 -94.5t214 94.5t87 231.5q0 136 -86.5 228.5t-214.5 92.5t-214.5 -92.5t-86.5 -228.5zM305 940v342h137 q57 0 89 -25t32 -67q0 -81 -102 -109q23 -11 43 -34l104 -107h-55l-92 96q-19 19 -34 25t-42 6h-41v-127h-39zM344 1104h55q56 0 90.5 22.5t34.5 59.5q0 59 -86 59h-94v-141z" />
<glyph unicode="&#xaf;" horiz-adv-x="1007" d="M266 1196v61h473v-61h-473z" />
<glyph unicode="&#xb0;" horiz-adv-x="913" d="M115 1108q0 143 98.5 242.5t243.5 99.5q146 0 245 -99.5t99 -242.5q0 -142 -99.5 -241t-244.5 -99t-243.5 99t-98.5 241zM176 1108q0 -120 80.5 -202.5t200.5 -82.5t200 82.5t80 202.5q0 121 -80 204t-200 83q-121 0 -201 -83t-80 -204z" />
<glyph unicode="&#xb4;" horiz-adv-x="1007" d="M332 1182l227 235h111l-275 -235h-63z" />
<glyph unicode="&#xb6;" horiz-adv-x="1134" d="M100 991q0 209 139.5 326t378.5 117h318v-1434h-68v1372h-252v-813q-151 -3 -267 46t-182.5 148.5t-66.5 237.5z" />
<glyph unicode="&#xb7;" horiz-adv-x="305" d="M106 670v114h93v-114h-93z" />
<glyph unicode="&#xb8;" horiz-adv-x="1007" d="M371 -250q105 9 148.5 27t43.5 51q0 26 -28 36t-97 7l-18 25l69 118h70l-53 -90q129 -9 129 -92q0 -61 -63 -91.5t-189 -41.5z" />
<glyph unicode="&#xba;" horiz-adv-x="851" d="M111 1102q0 150 88.5 247t226.5 97t226.5 -97t88.5 -247t-88.5 -248t-226.5 -98t-226.5 98t-88.5 248zM121 551v51h610v-51h-610zM168 1102q0 -125 73 -210t185 -85q111 0 183.5 84.5t72.5 210.5q0 124 -72.5 208.5t-183.5 84.5q-112 0 -185 -84.5t-73 -208.5z" />
<glyph unicode="&#xbb;" horiz-adv-x="1054" d="M123 248l338 383l-338 387l29 26l407 -393v-39l-407 -393zM512 248l338 383l-338 387l29 26l407 -393v-39l-407 -393z" />
<glyph unicode="&#xbf;" horiz-adv-x="1099" d="M90 313q0 150 117 255t368 212l17 353h33l16 -396q-260 -102 -371.5 -197t-111.5 -225q0 -125 99 -199.5t259 -74.5q226 0 471 160l33 -54q-259 -167 -508 -167q-186 0 -304 90t-118 243zM561 1319v115h92v-115h-92z" />
<glyph unicode="&#xc0;" horiz-adv-x="1462" d="M88 0l614 1458h60l612 -1458h-74l-163 391h-813l-164 -391h-72zM348 453h764l-381 911zM426 1755h121l231 -194h-73z" />
<glyph unicode="&#xc1;" horiz-adv-x="1462" d="M88 0l614 1458h60l612 -1458h-74l-163 391h-813l-164 -391h-72zM348 453h764l-381 911zM684 1561l231 194h119l-276 -194h-74z" />
<glyph unicode="&#xc2;" horiz-adv-x="1462" d="M88 0l614 1458h60l612 -1458h-74l-163 391h-813l-164 -391h-72zM348 453h764l-381 911zM500 1561l194 194h70l194 -194h-71l-158 127l-158 -127h-71z" />
<glyph unicode="&#xc3;" horiz-adv-x="1462" d="M88 0l614 1458h60l612 -1458h-74l-163 391h-813l-164 -391h-72zM348 453h764l-381 911zM471 1581q39 85 70.5 118.5t81.5 33.5q25 0 50.5 -11.5t80.5 -44.5q46 -31 65 -40t39 -9q21 0 39.5 22t48.5 85l55 -21q-39 -83 -70.5 -117t-80.5 -34q-25 0 -51.5 11.5t-79.5 45.5 q-45 29 -65.5 38t-39.5 9q-21 0 -39.5 -21.5t-48.5 -84.5z" />
<glyph unicode="&#xc4;" horiz-adv-x="1462" d="M88 0l614 1458h60l612 -1458h-74l-163 391h-813l-164 -391h-72zM348 453h764l-381 911zM553 1561v125h90v-125h-90zM813 1561v125h92v-125h-92z" />
<glyph unicode="&#xc5;" horiz-adv-x="1462" d="M88 0l590 1403q-43 14 -69.5 48.5t-26.5 78.5q0 57 42.5 96t106.5 39q66 0 109 -39t43 -96q0 -44 -27.5 -79.5t-71.5 -49.5l590 -1401h-74l-163 391h-813l-164 -391h-72zM348 453h764l-381 911zM633 1530q0 -37 28 -63.5t70 -26.5q43 0 70.5 26t27.5 64q0 39 -27 64.5 t-71 25.5q-42 0 -70 -26t-28 -64z" />
<glyph unicode="&#xc6;" horiz-adv-x="2166" d="M45 0l967 1434h1044v-62h-882v-604h790v-61h-790v-646h892v-61h-958v383h-727l-256 -383h-80zM422 444h686v930h-61z" />
<glyph unicode="&#xc7;" horiz-adv-x="1331" d="M125 715q0 207 89 376.5t247 266t352 96.5q112 0 197 -21.5t192 -68.5l-26 -59q-100 46 -184 67t-185 21q-174 0 -315 -89.5t-220 -243.5t-79 -341q0 -195 78 -349.5t219.5 -241.5t322.5 -87q90 0 177.5 24t197.5 72l26 -55q-115 -51 -207.5 -76.5t-197.5 -25.5 q-25 0 -37 2l-33 -58q129 -9 129 -92q0 -61 -63 -91.5t-189 -41.5l-12 51q106 9 149.5 27t43.5 51q0 26 -28 36t-97 7l-19 25l54 92q-260 35 -421 235.5t-161 491.5z" />
<glyph unicode="&#xc8;" horiz-adv-x="1259" d="M201 0v1434h948v-62h-883v-604h789v-61h-789v-646h891v-61h-956zM373 1741h121l231 -195h-74z" />
<glyph unicode="&#xc9;" horiz-adv-x="1259" d="M201 0v1434h948v-62h-883v-604h789v-61h-789v-646h891v-61h-956zM631 1546l231 195h119l-276 -195h-74z" />
<glyph unicode="&#xca;" horiz-adv-x="1259" d="M201 0v1434h948v-62h-883v-604h789v-61h-789v-646h891v-61h-956zM446 1546l195 195h70l194 -195h-71l-158 127l-158 -127h-72z" />
<glyph unicode="&#xcb;" horiz-adv-x="1259" d="M201 0v1434h948v-62h-883v-604h789v-61h-789v-646h891v-61h-956zM500 1546v125h90v-125h-90zM760 1546v125h92v-125h-92z" />
<glyph unicode="&#xcc;" horiz-adv-x="483" d="M-61 1741h120l232 -195h-74zM209 0v1434h65v-1434h-65z" />
<glyph unicode="&#xcd;" horiz-adv-x="483" d="M197 1546l231 195h119l-277 -195h-73zM209 0v1434h65v-1434h-65z" />
<glyph unicode="&#xce;" horiz-adv-x="483" d="M12 1546l195 195h69l195 -195h-72l-157 127l-158 -127h-72zM209 0v1434h65v-1434h-65z" />
<glyph unicode="&#xcf;" horiz-adv-x="483" d="M66 1546v125h90v-125h-90zM209 0v1434h65v-1434h-65zM326 1546v125h92v-125h-92z" />
<glyph unicode="&#xd0;" horiz-adv-x="1449" d="M43 707v61h174v666h373q162 0 296 -47.5t231.5 -136.5t151.5 -225t54 -306q0 -225 -94.5 -389t-259 -247t-379.5 -83h-373v707h-174zM285 61h309q195 0 344 76.5t234 226t85 351.5q0 304 -184 480.5t-485 176.5h-303v-604h391v-61h-391v-646z" />
<glyph unicode="&#xd1;" horiz-adv-x="1466" d="M201 0v1434h73l928 -1323v1323h66v-1434h-72l-930 1333v-1333h-65zM473 1556q39 85 70.5 118.5t81.5 33.5q25 0 51 -11.5t80 -43.5q46 -31 65 -40t39 -9q21 0 39.5 21.5t48.5 84.5l56 -20q-39 -83 -71 -117.5t-81 -34.5q-25 0 -51.5 11.5t-79.5 45.5q-45 29 -65.5 38 t-39.5 9q-21 0 -39.5 -21.5t-48.5 -84.5z" />
<glyph unicode="&#xd2;" horiz-adv-x="1521" d="M125 715q0 211 82 381.5t228.5 267t328.5 96.5q180 0 325 -95.5t226.5 -265t81.5 -380.5q0 -158 -48.5 -296.5t-132.5 -237t-202.5 -155.5t-253.5 -57q-136 0 -254 56t-201.5 154t-131.5 236t-48 296zM193 719q0 -193 72 -349t203 -245.5t296 -89.5q163 0 292.5 90 t201 245t71.5 345q0 193 -72 349t-202.5 245.5t-294.5 89.5t-294 -90t-201.5 -245t-71.5 -345zM455 1755h120l232 -194h-74z" />
<glyph unicode="&#xd3;" horiz-adv-x="1521" d="M125 715q0 211 82 381.5t228.5 267t328.5 96.5q180 0 325 -95.5t226.5 -265t81.5 -380.5q0 -158 -48.5 -296.5t-132.5 -237t-202.5 -155.5t-253.5 -57q-136 0 -254 56t-201.5 154t-131.5 236t-48 296zM193 719q0 -193 72 -349t203 -245.5t296 -89.5q163 0 292.5 90 t201 245t71.5 345q0 193 -72 349t-202.5 245.5t-294.5 89.5t-294 -90t-201.5 -245t-71.5 -345zM713 1561l231 194h119l-277 -194h-73z" />
<glyph unicode="&#xd4;" horiz-adv-x="1521" d="M125 715q0 211 82 381.5t228.5 267t328.5 96.5q180 0 325 -95.5t226.5 -265t81.5 -380.5q0 -158 -48.5 -296.5t-132.5 -237t-202.5 -155.5t-253.5 -57q-136 0 -254 56t-201.5 154t-131.5 236t-48 296zM193 719q0 -193 72 -349t203 -245.5t296 -89.5q163 0 292.5 90 t201 245t71.5 345q0 193 -72 349t-202.5 245.5t-294.5 89.5t-294 -90t-201.5 -245t-71.5 -345zM530 1561l195 194h70l194 -194h-71l-158 127l-158 -127h-72z" />
<glyph unicode="&#xd5;" horiz-adv-x="1521" d="M125 715q0 211 82 381.5t228.5 267t328.5 96.5q180 0 325 -95.5t226.5 -265t81.5 -380.5q0 -158 -48.5 -296.5t-132.5 -237t-202.5 -155.5t-253.5 -57q-136 0 -254 56t-201.5 154t-131.5 236t-48 296zM193 719q0 -193 72 -349t203 -245.5t296 -89.5q163 0 292.5 90 t201 245t71.5 345q0 193 -72 349t-202.5 245.5t-294.5 89.5t-294 -90t-201.5 -245t-71.5 -345zM500 1581q39 85 70 118.5t81 33.5q25 0 50.5 -11.5t80.5 -44.5q46 -31 65.5 -40t39.5 -9q21 0 39.5 22t48.5 85l55 -21q-39 -83 -70.5 -117t-80.5 -34q-25 0 -51.5 11.5 t-79.5 45.5q-45 29 -65.5 38t-39.5 9q-21 0 -39.5 -21.5t-48.5 -84.5z" />
<glyph unicode="&#xd6;" horiz-adv-x="1521" d="M125 715q0 211 82 381.5t228.5 267t328.5 96.5q180 0 325 -95.5t226.5 -265t81.5 -380.5q0 -158 -48.5 -296.5t-132.5 -237t-202.5 -155.5t-253.5 -57q-136 0 -254 56t-201.5 154t-131.5 236t-48 296zM193 719q0 -193 72 -349t203 -245.5t296 -89.5q163 0 292.5 90 t201 245t71.5 345q0 193 -72 349t-202.5 245.5t-294.5 89.5t-294 -90t-201.5 -245t-71.5 -345zM584 1561v125h90v-125h-90zM844 1561v125h92v-125h-92z" />
<glyph unicode="&#xd7;" horiz-adv-x="1040" d="M150 401l325 326l-325 324l47 47l323 -326l326 326l43 -45l-324 -326l324 -324l-45 -45l-324 324l-325 -324z" />
<glyph unicode="&#xd8;" horiz-adv-x="1521" d="M125 715q0 211 82 381.5t228.5 267t328.5 96.5q222 0 385 -141l160 223h77l-192 -268q97 -101 150 -244t53 -311q0 -158 -48.5 -296.5t-132.5 -237t-202.5 -155.5t-253.5 -57q-223 0 -387 142l-160 -224h-78l191 269q-95 101 -148 244t-53 311zM193 719q0 -153 45 -283 t129 -223l745 1051q-148 135 -352 135q-164 0 -294 -90t-201.5 -245t-71.5 -345zM410 170q148 -135 354 -135q163 0 292.5 90t201 245t71.5 345q0 151 -46 282t-130 224z" />
<glyph unicode="&#xd9;" horiz-adv-x="1435" d="M186 573v861h66v-856q0 -250 128 -394.5t339 -144.5q210 0 338.5 142.5t128.5 385.5v867h63v-865q0 -269 -143.5 -429t-388.5 -160q-244 0 -387.5 160.5t-143.5 432.5zM414 1731h121l231 -195h-74z" />
<glyph unicode="&#xda;" horiz-adv-x="1435" d="M186 573v861h66v-856q0 -250 128 -394.5t339 -144.5q210 0 338.5 142.5t128.5 385.5v867h63v-865q0 -269 -143.5 -429t-388.5 -160q-244 0 -387.5 160.5t-143.5 432.5zM672 1536l231 195h119l-277 -195h-73z" />
<glyph unicode="&#xdb;" horiz-adv-x="1435" d="M186 573v861h66v-856q0 -250 128 -394.5t339 -144.5q210 0 338.5 142.5t128.5 385.5v867h63v-865q0 -269 -143.5 -429t-388.5 -160q-244 0 -387.5 160.5t-143.5 432.5zM487 1536l195 195h70l194 -195h-72l-157 127l-158 -127h-72z" />
<glyph unicode="&#xdc;" horiz-adv-x="1435" d="M186 573v861h66v-856q0 -250 128 -394.5t339 -144.5q210 0 338.5 142.5t128.5 385.5v867h63v-865q0 -269 -143.5 -429t-388.5 -160q-244 0 -387.5 160.5t-143.5 432.5zM541 1536v125h90v-125h-90zM801 1536v125h92v-125h-92z" />
<glyph unicode="&#xdd;" horiz-adv-x="1308" d="M43 1434h84l528 -768l529 768h82l-578 -834v-600h-67v600zM606 1536l232 195h118l-276 -195h-74z" />
<glyph unicode="&#xde;" horiz-adv-x="1273" d="M201 0v1434h65v-254h365q249 0 387.5 -111t138.5 -321q0 -154 -74 -262t-200 -159t-293 -51h-324v-276h-65zM266 338h330q142 0 251.5 42t177 135t67.5 228q0 183 -122.5 279t-346.5 96h-357v-780z" />
<glyph unicode="&#xdf;" horiz-adv-x="1327" d="M66 983v57h206v23q0 183 108.5 298.5t311.5 115.5q183 0 297.5 -95.5t114.5 -240.5t-98 -243t-283 -159q250 -77 373 -185t123 -265q0 -136 -94.5 -219.5t-245.5 -83.5q-147 0 -314 75l25 54q151 -70 291 -70q124 0 199 68t75 176q0 137 -127.5 241t-400.5 181v55 q415 112 415 371q0 121 -95.5 201.5t-258.5 80.5q-167 0 -260.5 -98.5t-93.5 -253.5v-1067h-62v983h-206z" />
<glyph unicode="&#xe0;" d="M92 297q0 133 80 213q60 60 167.5 87.5t336.5 27.5q134 0 151 -7v107q0 133 -69.5 199.5t-220.5 66.5q-160 0 -336 -78l-23 58q180 80 361 80q352 0 352 -322v-530l24 -199h-45l-39 147q-199 -163 -399 -163q-152 0 -246 83t-94 230zM154 301q0 -121 76.5 -188.5 t207.5 -67.5q196 0 389 166v352q-20 4 -155 4q-210 0 -306.5 -24t-148.5 -76q-63 -63 -63 -166zM246 1423h110l226 -235h-64z" />
<glyph unicode="&#xe1;" d="M92 297q0 133 80 213q60 60 167.5 87.5t336.5 27.5q134 0 151 -7v107q0 133 -69.5 199.5t-220.5 66.5q-160 0 -336 -78l-23 58q180 80 361 80q352 0 352 -322v-530l24 -199h-45l-39 147q-199 -163 -399 -163q-152 0 -246 83t-94 230zM154 301q0 -121 76.5 -188.5 t207.5 -67.5q196 0 389 166v352q-20 4 -155 4q-210 0 -306.5 -24t-148.5 -76q-63 -63 -63 -166zM485 1188l228 235h110l-274 -235h-64z" />
<glyph unicode="&#xe2;" d="M92 297q0 133 80 213q60 60 167.5 87.5t336.5 27.5q134 0 151 -7v107q0 133 -69.5 199.5t-220.5 66.5q-160 0 -336 -78l-23 58q180 80 361 80q352 0 352 -322v-530l24 -199h-45l-39 147q-199 -163 -399 -163q-152 0 -246 83t-94 230zM154 301q0 -121 76.5 -188.5 t207.5 -67.5q196 0 389 166v352q-20 4 -155 4q-210 0 -306.5 -24t-148.5 -76q-63 -63 -63 -166zM311 1188l187 235h67l189 -235h-60l-162 168l-161 -168h-60z" />
<glyph unicode="&#xe3;" d="M92 297q0 133 80 213q60 60 167.5 87.5t336.5 27.5q134 0 151 -7v107q0 133 -69.5 199.5t-220.5 66.5q-160 0 -336 -78l-23 58q180 80 361 80q352 0 352 -322v-530l24 -199h-45l-39 147q-199 -163 -399 -163q-152 0 -246 83t-94 230zM154 301q0 -121 76.5 -188.5 t207.5 -67.5q196 0 389 166v352q-20 4 -155 4q-210 0 -306.5 -24t-148.5 -76q-63 -63 -63 -166zM283 1204q39 86 70 120t79 34q25 0 49.5 -11.5t77.5 -46.5q47 -30 64 -38.5t32 -8.5q23 0 44 23t49 86l51 -19q-39 -86 -70.5 -120.5t-79.5 -34.5q-25 0 -50.5 12t-76.5 47 q-47 30 -64 38.5t-32 8.5q-23 0 -43.5 -22.5t-48.5 -85.5z" />
<glyph unicode="&#xe4;" d="M92 297q0 133 80 213q60 60 167.5 87.5t336.5 27.5q134 0 151 -7v107q0 133 -69.5 199.5t-220.5 66.5q-160 0 -336 -78l-23 58q180 80 361 80q352 0 352 -322v-530l24 -199h-45l-39 147q-199 -163 -399 -163q-152 0 -246 83t-94 230zM154 301q0 -121 76.5 -188.5 t207.5 -67.5q196 0 389 166v352q-20 4 -155 4q-210 0 -306.5 -24t-148.5 -76q-63 -63 -63 -166zM373 1188v135h84v-135h-84zM608 1188v135h84v-135h-84z" />
<glyph unicode="&#xe5;" d="M92 297q0 133 80 213q60 60 167.5 87.5t336.5 27.5q134 0 151 -7v107q0 133 -69.5 199.5t-220.5 66.5q-160 0 -336 -78l-23 58q180 80 361 80q352 0 352 -322v-530l24 -199h-45l-39 147q-199 -163 -399 -163q-152 0 -246 83t-94 230zM154 301q0 -121 76.5 -188.5 t207.5 -67.5q196 0 389 166v352q-20 4 -155 4q-210 0 -306.5 -24t-148.5 -76q-63 -63 -63 -166zM393 1305q0 57 39 95t100 38q60 0 100 -38t40 -95q0 -56 -40 -95t-100 -39q-61 0 -100 39t-39 95zM442 1305q0 -38 25 -64.5t65 -26.5q39 0 65 27t26 64q0 39 -26 65.5 t-65 26.5q-40 0 -65 -26.5t-25 -65.5z" />
<glyph unicode="&#xe6;" horiz-adv-x="1773" d="M92 297q0 133 80 213q60 60 167.5 87.5t336.5 27.5q134 0 151 -7v107q0 133 -69.5 199.5t-220.5 66.5q-159 0 -336 -78l-23 58q180 80 359 80q317 0 344 -267q54 128 154 203.5t229 75.5t227 -75t147.5 -198t49.5 -272v-20h-801q6 -198 117.5 -328.5t285.5 -130.5 q160 0 324 106l31 -51q-179 -114 -355 -114q-122 0 -221.5 57t-161.5 162q-240 -215 -473 -215q-154 0 -248 83t-94 230zM154 301q0 -123 76.5 -189.5t209.5 -66.5q217 0 439 203q-54 120 -54 270v45q-62 4 -153 4q-210 0 -306.5 -24t-148.5 -76q-63 -63 -63 -166zM887 555 h741q-11 193 -111 321t-257 128q-154 0 -258 -128.5t-115 -320.5z" />
<glyph unicode="&#xe7;" horiz-adv-x="956" d="M100 518q0 233 136 386t348 153q136 0 290 -64l-22 -59q-144 63 -274 63q-120 0 -215 -63t-146 -171.5t-51 -240.5q0 -209 115 -344t301 -135q129 0 274 68l23 -58q-154 -69 -304 -69h-16l-35 -60q129 -9 129 -92q0 -61 -63 -91.5t-189 -41.5l-12 51q106 9 149.5 27 t43.5 51q0 26 -28 36t-97 7l-19 25l56 96q-179 29 -286.5 173.5t-107.5 352.5z" />
<glyph unicode="&#xe8;" d="M100 518q0 231 124 388t315 157q129 0 227 -75t147.5 -198t49.5 -272v-20h-801q6 -199 116.5 -328t286.5 -129q163 0 324 104l31 -51q-176 -112 -357 -112q-201 0 -332 147.5t-131 388.5zM162 555h739q-9 193 -109 321t-257 128q-154 0 -258 -128.5t-115 -320.5z M254 1423h111l225 -235h-64z" />
<glyph unicode="&#xe9;" d="M100 518q0 231 124 388t315 157q129 0 227 -75t147.5 -198t49.5 -272v-20h-801q6 -199 116.5 -328t286.5 -129q163 0 324 104l31 -51q-176 -112 -357 -112q-201 0 -332 147.5t-131 388.5zM162 555h739q-9 193 -109 321t-257 128q-154 0 -258 -128.5t-115 -320.5z M494 1188l227 235h110l-274 -235h-63z" />
<glyph unicode="&#xea;" d="M100 518q0 231 124 388t315 157q129 0 227 -75t147.5 -198t49.5 -272v-20h-801q6 -199 116.5 -328t286.5 -129q163 0 324 104l31 -51q-176 -112 -357 -112q-201 0 -332 147.5t-131 388.5zM162 555h739q-9 193 -109 321t-257 128q-154 0 -258 -128.5t-115 -320.5z M319 1188l187 235h67l189 -235h-60l-161 168l-162 -168h-60z" />
<glyph unicode="&#xeb;" d="M100 518q0 231 124 388t315 157q129 0 227 -75t147.5 -198t49.5 -272v-20h-801q6 -199 116.5 -328t286.5 -129q163 0 324 104l31 -51q-176 -112 -357 -112q-201 0 -332 147.5t-131 388.5zM162 555h739q-9 193 -109 321t-257 128q-154 0 -258 -128.5t-115 -320.5z M381 1188v135h84v-135h-84zM616 1188v135h84v-135h-84z" />
<glyph unicode="&#xec;" horiz-adv-x="411" d="M-82 1417h111l225 -235h-64zM174 0v1040h64v-1040h-64z" />
<glyph unicode="&#xed;" horiz-adv-x="411" d="M160 1182l227 235h111l-275 -235h-63zM174 0v1040h64v-1040h-64z" />
<glyph unicode="&#xee;" horiz-adv-x="411" d="M-14 1182l186 235h68l188 -235h-59l-162 168l-162 -168h-59zM174 0v1040h64v-1040h-64z" />
<glyph unicode="&#xef;" horiz-adv-x="411" d="M47 1182v135h84v-135h-84zM174 0v1040h64v-1040h-64zM283 1182v135h84v-135h-84z" />
<glyph unicode="&#xf0;" horiz-adv-x="1105" d="M100 469q0 215 122.5 354.5t314.5 139.5q176 0 368 -125q-61 242 -262 407l-205 -155h-102l256 194q-134 93 -320 154l25 57q209 -73 346 -172l213 164h102l-264 -203q299 -250 299 -670q0 -176 -56 -319t-163 -228t-246 -85q-195 0 -311.5 136t-116.5 351zM164 471 q0 -190 98.5 -310t265.5 -120q118 0 211 76.5t143 206t50 286.5q0 80 -12 150q-105 75 -195 110t-190 35q-165 0 -268 -124t-103 -310z" />
<glyph unicode="&#xf1;" horiz-adv-x="1110" d="M170 0v1040h45l16 -108q176 125 365 125q171 0 263.5 -99.5t92.5 -287.5v-670h-61v664q0 162 -78.5 247.5t-226.5 85.5q-91 0 -186.5 -36t-166.5 -91v-870h-63zM305 1204q38 85 70 119.5t80 34.5q25 0 49.5 -11.5t77.5 -46.5q47 -30 64 -38.5t32 -8.5q23 0 43.5 23 t48.5 86l51 -19q-39 -86 -70 -120.5t-79 -34.5q-25 0 -50.5 12t-76.5 47q-47 30 -64 38.5t-32 8.5q-23 0 -44 -22.5t-49 -85.5z" />
<glyph unicode="&#xf2;" horiz-adv-x="1107" d="M100 520q0 235 131 389t324 154q194 0 323.5 -154t129.5 -389t-131 -389t-324 -154q-194 0 -323.5 154t-129.5 389zM164 520q0 -209 111.5 -346t279.5 -137t279.5 136.5t111.5 346.5q0 209 -111.5 346.5t-279.5 137.5t-279.5 -137t-111.5 -347zM266 1423h111l225 -235 h-63z" />
<glyph unicode="&#xf3;" horiz-adv-x="1107" d="M100 520q0 235 131 389t324 154q194 0 323.5 -154t129.5 -389t-131 -389t-324 -154q-194 0 -323.5 154t-129.5 389zM164 520q0 -209 111.5 -346t279.5 -137t279.5 136.5t111.5 346.5q0 209 -111.5 346.5t-279.5 137.5t-279.5 -137t-111.5 -347zM506 1188l227 235h111 l-275 -235h-63z" />
<glyph unicode="&#xf4;" horiz-adv-x="1107" d="M100 520q0 235 131 389t324 154q194 0 323.5 -154t129.5 -389t-131 -389t-324 -154q-194 0 -323.5 154t-129.5 389zM164 520q0 -209 111.5 -346t279.5 -137t279.5 136.5t111.5 346.5q0 209 -111.5 346.5t-279.5 137.5t-279.5 -137t-111.5 -347zM332 1188l186 235h68 l188 -235h-59l-162 168l-162 -168h-59z" />
<glyph unicode="&#xf5;" horiz-adv-x="1107" d="M100 520q0 235 131 389t324 154q194 0 323.5 -154t129.5 -389t-131 -389t-324 -154q-194 0 -323.5 154t-129.5 389zM164 520q0 -209 111.5 -346t279.5 -137t279.5 136.5t111.5 346.5q0 209 -111.5 346.5t-279.5 137.5t-279.5 -137t-111.5 -347zM303 1204q38 85 70 119.5 t80 34.5q25 0 49.5 -11.5t77.5 -46.5q47 -30 64 -38.5t32 -8.5q23 0 43.5 23t48.5 86l51 -19q-39 -86 -70 -120.5t-79 -34.5q-25 0 -50.5 12t-76.5 47q-46 29 -64 38t-33 9q-23 0 -43.5 -22.5t-48.5 -85.5z" />
<glyph unicode="&#xf6;" horiz-adv-x="1107" d="M100 520q0 235 131 389t324 154q194 0 323.5 -154t129.5 -389t-131 -389t-324 -154q-194 0 -323.5 154t-129.5 389zM164 520q0 -209 111.5 -346t279.5 -137t279.5 136.5t111.5 346.5q0 209 -111.5 346.5t-279.5 137.5t-279.5 -137t-111.5 -347zM393 1188v135h84v-135h-84 zM629 1188v135h84v-135h-84z" />
<glyph unicode="&#xf7;" horiz-adv-x="1040" d="M109 696v64h821v-64h-821zM469 328v114h100v-114h-100zM469 1014v114h100v-114h-100z" />
<glyph unicode="&#xf8;" horiz-adv-x="1107" d="M100 -111l148 220q-148 158 -148 411q0 235 131 389t324 154q145 0 260 -92l119 180h74l-150 -221q71 -74 110.5 -179.5t39.5 -230.5q0 -235 -131 -389t-324 -154q-149 0 -260 91l-119 -179h-74zM164 520q0 -221 121 -358l497 758q-100 84 -227 84q-168 0 -279.5 -137 t-111.5 -347zM326 121q100 -84 227 -84q168 0 280.5 136.5t112.5 346.5q0 107 -33 200.5t-92 158.5z" />
<glyph unicode="&#xf9;" horiz-adv-x="1110" d="M156 371v669h63v-663q0 -163 78 -248.5t227 -85.5q91 0 186.5 36t166.5 91v870h63v-1040h-45l-16 109q-176 -125 -365 -125q-173 0 -265.5 99.5t-92.5 287.5zM260 1407h111l225 -236h-64z" />
<glyph unicode="&#xfa;" horiz-adv-x="1110" d="M156 371v669h63v-663q0 -163 78 -248.5t227 -85.5q91 0 186.5 36t166.5 91v870h63v-1040h-45l-16 109q-176 -125 -365 -125q-173 0 -265.5 99.5t-92.5 287.5zM500 1171l227 236h111l-275 -236h-63z" />
<glyph unicode="&#xfb;" horiz-adv-x="1110" d="M156 371v669h63v-663q0 -163 78 -248.5t227 -85.5q91 0 186.5 36t166.5 91v870h63v-1040h-45l-16 109q-176 -125 -365 -125q-173 0 -265.5 99.5t-92.5 287.5zM326 1171l186 236h68l188 -236h-59l-162 168l-162 -168h-59z" />
<glyph unicode="&#xfc;" horiz-adv-x="1110" d="M156 371v669h63v-663q0 -163 78 -248.5t227 -85.5q91 0 186.5 36t166.5 91v870h63v-1040h-45l-16 109q-176 -125 -365 -125q-173 0 -265.5 99.5t-92.5 287.5zM387 1171v136h84v-136h-84zM623 1171v136h84v-136h-84z" />
<glyph unicode="&#xfd;" horiz-adv-x="1032" d="M74 1040h67l383 -927l379 927h66l-410 -983q-75 -179 -175 -263.5t-259 -123.5l-16 58q143 31 228.5 101t154.5 214zM473 1171l227 236h111l-274 -236h-64z" />
<glyph unicode="&#xfe;" horiz-adv-x="1105" d="M170 -324v1811h63v-541q152 113 320 113q199 0 323.5 -147.5t124.5 -385.5q0 -250 -126 -397t-330 -147q-169 0 -312 104v-410h-63zM233 154q153 -115 312 -115q174 2 284.5 130.5t110.5 354.5q0 215 -110 346t-285 131q-161 0 -312 -118v-729z" />
<glyph unicode="&#xff;" horiz-adv-x="1032" d="M74 1040h67l383 -927l379 927h66l-410 -983q-75 -179 -175 -263.5t-259 -123.5l-16 58q143 31 228.5 101t154.5 214zM360 1171v136h84v-136h-84zM596 1171v136h84v-136h-84z" />
<glyph unicode="&#x152;" horiz-adv-x="2224" d="M127 715q0 226 94.5 390t259 246.5t379.5 82.5h1256v-62h-883v-604h788v-61h-788v-646h891v-61h-1264q-215 0 -379.5 82t-259 245t-94.5 388zM195 719q0 -304 183 -481t484 -177h303v1311h-309q-195 0 -343.5 -76.5t-233 -225.5t-84.5 -351z" />
<glyph unicode="&#x153;" horiz-adv-x="1892" d="M100 518q0 240 131 392.5t324 152.5q147 0 261.5 -96t160.5 -258q42 160 149.5 257t255.5 97q98 0 179 -43.5t134.5 -118.5t83 -173.5t29.5 -209.5v-20h-802q6 -198 117.5 -328.5t285.5 -130.5q160 0 324 106l30 -51q-176 -114 -354 -114q-158 0 -274 94t-160 258 q-44 -163 -158.5 -259t-263.5 -96q-191 0 -322 153t-131 388zM164 522q0 -212 112 -348.5t279 -136.5q166 0 278.5 136t112.5 345q0 211 -113 348.5t-280 137.5q-166 0 -277.5 -136.5t-111.5 -345.5zM1006 555h741q-6 126 -52 227t-128.5 161.5t-188.5 60.5 q-154 0 -257.5 -128.5t-114.5 -320.5z" />
<glyph unicode="&#x178;" horiz-adv-x="1308" d="M43 1434h84l528 -768l529 768h82l-578 -834v-600h-67v600zM477 1536v125h90v-125h-90zM737 1536v125h92v-125h-92z" />
<glyph unicode="&#x2c6;" horiz-adv-x="1007" d="M283 1182l186 235h68l188 -235h-59l-162 168l-162 -168h-59z" />
<glyph unicode="&#x2dc;" horiz-adv-x="1007" d="M246 1198q39 86 70 120t79 34q25 0 49.5 -11.5t77.5 -46.5q47 -30 64 -38.5t32 -8.5q23 0 44 23t49 86l51 -19q-39 -86 -70.5 -120.5t-79.5 -34.5q-25 0 -50.5 12t-76.5 47q-47 30 -64 38.5t-32 8.5q-23 0 -43.5 -22.5t-48.5 -85.5z" />
<glyph unicode="&#x2000;" horiz-adv-x="877" />
<glyph unicode="&#x2001;" horiz-adv-x="1755" />
<glyph unicode="&#x2002;" horiz-adv-x="877" />
<glyph unicode="&#x2003;" horiz-adv-x="1755" />
<glyph unicode="&#x2004;" horiz-adv-x="585" />
<glyph unicode="&#x2005;" horiz-adv-x="438" />
<glyph unicode="&#x2006;" horiz-adv-x="292" />
<glyph unicode="&#x2007;" horiz-adv-x="292" />
<glyph unicode="&#x2008;" horiz-adv-x="219" />
<glyph unicode="&#x2009;" horiz-adv-x="351" />
<glyph unicode="&#x200a;" horiz-adv-x="97" />
<glyph unicode="&#x2010;" horiz-adv-x="704" d="M94 598v66h516v-66h-516z" />
<glyph unicode="&#x2011;" horiz-adv-x="704" d="M94 598v66h516v-66h-516z" />
<glyph unicode="&#x2012;" horiz-adv-x="704" d="M94 598v66h516v-66h-516z" />
<glyph unicode="&#x2013;" horiz-adv-x="1028" d="M94 600v62h840v-62h-840z" />
<glyph unicode="&#x2014;" horiz-adv-x="1710" d="M94 600v62h1522v-62h-1522z" />
<glyph unicode="&#x2018;" horiz-adv-x="329" d="M80 1430v8h86q0 -107 27.5 -189t89.5 -180l-27 -18q-86 95 -131 185.5t-45 193.5z" />
<glyph unicode="&#x2019;" horiz-adv-x="329" d="M47 1069q61 97 88 179t27 190h88v-8q0 -103 -45 -193.5t-131 -185.5z" />
<glyph unicode="&#x201a;" horiz-adv-x="305" d="M0 -254q62 98 89.5 179t27.5 190h86v-9q0 -104 -44.5 -193t-131.5 -187z" />
<glyph unicode="&#x201c;" horiz-adv-x="583" d="M80 1430v8h86q0 -107 27.5 -189t89.5 -180l-27 -18q-86 95 -131 185.5t-45 193.5zM334 1430v8h86q0 -107 27.5 -189t89.5 -180l-27 -18q-86 95 -131 185.5t-45 193.5z" />
<glyph unicode="&#x201d;" horiz-adv-x="583" d="M74 1069q61 96 87.5 178t26.5 191h86v-8q0 -103 -44.5 -194t-129.5 -185zM328 1069q61 96 87.5 178t26.5 191h86v-8q0 -103 -44.5 -194t-129.5 -185z" />
<glyph unicode="&#x201e;" horiz-adv-x="561" d="M0 -254q62 98 89.5 179t27.5 190h86v-9q0 -104 -44.5 -193t-131.5 -187zM256 -254q63 97 90 178t27 191h86v-9q0 -104 -44.5 -193t-131.5 -187z" />
<glyph unicode="&#x2022;" horiz-adv-x="813" d="M178 727q0 95 67.5 162t162.5 67q94 0 161.5 -67t67.5 -162t-67.5 -162t-161.5 -67q-95 0 -162.5 67t-67.5 162z" />
<glyph unicode="&#x2026;" horiz-adv-x="903" d="M106 0v115h93v-115h-93zM406 0v115h92v-115h-92zM705 0v115h92v-115h-92z" />
<glyph unicode="&#x202f;" horiz-adv-x="351" />
<glyph unicode="&#x2039;" horiz-adv-x="665" d="M106 612v39l408 393l29 -26l-338 -385l338 -385l-29 -29z" />
<glyph unicode="&#x203a;" horiz-adv-x="665" d="M123 248l338 383l-338 387l29 26l407 -393v-39l-407 -393z" />
<glyph unicode="&#x205f;" horiz-adv-x="438" />
<glyph unicode="&#x20ac;" horiz-adv-x="1191" d="M59 516v59h183q-9 68 -9 142q0 60 7 135h-181v59h189q42 257 196 397t385 140q138 0 271 -45l-19 -64q-132 47 -254 47q-206 0 -340.5 -122t-173.5 -353h656v-59h-664q-6 -64 -6 -133q0 -84 8 -144h662v-59h-654q41 -229 174 -349t336 -120q127 0 256 47l19 -59 q-125 -49 -273 -49q-231 0 -383 137t-194 393h-191z" />
<glyph unicode="&#x2122;" horiz-adv-x="1167" d="M59 1391v43h392v-43h-172v-418h-48v418h-172zM541 973l24 461h62l188 -410l182 410h64l24 -461h-45l-20 401l-182 -401h-50l-182 401l-20 -401h-45z" />
<glyph unicode="&#x25fc;" horiz-adv-x="1044" d="M0 0v1044h1044v-1044h-1044z" />
<glyph unicode="&#xfb01;" horiz-adv-x="1126" d="M59 983v57h207v136q0 153 74.5 236t220.5 83q91 0 174 -27v-63q-91 31 -180 31q-227 0 -227 -256v-140h356v-57h-356v-983h-62v983h-207zM881 1253v125h77v-125h-77zM889 0v1040h61v-1040h-61z" />
<glyph unicode="&#xfb02;" horiz-adv-x="1126" d="M59 983v57h207v136q0 153 74.5 236t220.5 83q91 0 174 -27v-63q-91 31 -180 31q-227 0 -227 -256v-140h356v-57h-356v-983h-62v983h-207zM889 0v1487h61v-1487h-61z" />
</font>
</defs>
</svg>
