<?xml version="1.0" standalone="no"?>
<!DOCTYPE svg PUBLIC "-//W3C//DTD SVG 1.1//EN" "http://www.w3.org/Graphics/SVG/1.1/DTD/svg11.dtd" >
<svg xmlns="http://www.w3.org/2000/svg">
<metadata></metadata>
<defs>
<font id="retina_displayblack" horiz-adv-x="1515" >
<font-face units-per-em="2048" ascent="1638" descent="-410" />
<missing-glyph horiz-adv-x="509" />
<glyph horiz-adv-x="0" />
<glyph horiz-adv-x="682" />
<glyph unicode=" "  horiz-adv-x="509" />
<glyph unicode="&#x09;" horiz-adv-x="509" />
<glyph unicode="&#xa0;" horiz-adv-x="509" />
<glyph unicode="!" horiz-adv-x="569" d="M70 1030v404h430v-404l-101 -577h-229zM88 0v356h393v-356h-393z" />
<glyph unicode="&#x22;" horiz-adv-x="1034" d="M51 860l121 574h391v-4l-321 -623zM500 860l121 574h391v-4l-322 -623z" />
<glyph unicode="#" horiz-adv-x="1288" d="M45 354v228l256 -11l49 310l-231 10v229l266 -10l53 332h201l-53 -340l235 -8l56 348h202l-57 -357l221 -8v-229l-256 10l-49 -311l231 -8v-228l-268 11l-51 -330h-203l53 336l-235 10l-53 -346h-203l55 354zM502 563l233 -8l49 309l-235 10z" />
<glyph unicode="$" horiz-adv-x="1153" d="M10 117l99 311q169 -84 335 -117l48 260q-201 49 -297.5 156.5t-96.5 255.5q0 203 133.5 323t391.5 130l26 155h205l-29 -166q149 -24 299 -84l-94 -305q-136 59 -282 86l-48 -258q207 -49 315.5 -149t108.5 -266q0 -216 -142.5 -329.5t-410.5 -121.5l-41 -234h-206 l43 246q-179 32 -357 107zM451 1016q0 -38 20 -65t80 -50l41 232q-141 -13 -141 -117zM602 297q86 6 129 34t43 83q0 40 -29.5 68.5t-101.5 52.5z" />
<glyph unicode="%" horiz-adv-x="1454" d="M31 1079q0 169 94.5 270t236.5 101q140 0 235 -101.5t95 -269.5t-95 -268t-235 -100q-142 0 -236.5 99.5t-94.5 268.5zM182 61l494 691l438 708l156 -86l-492 -688l-440 -713zM250 1079q0 -85 30 -129.5t82 -44.5q51 0 81 45t30 129q0 86 -30 131t-81 45q-52 0 -82 -45 t-30 -131zM762 354q0 169 95 270t237 101q140 0 234.5 -101.5t94.5 -269.5t-94.5 -269t-234.5 -101q-142 0 -237 100.5t-95 269.5zM981 354q0 -86 30.5 -131t82.5 -45q51 0 80.5 45t29.5 131q0 84 -29.5 129t-80.5 45q-52 0 -82.5 -45t-30.5 -129z" />
<glyph unicode="&#x26;" horiz-adv-x="1417" d="M16 397q0 287 299 463q-90 131 -90 254q0 155 114.5 246.5t334.5 91.5q242 0 479 -113l-123 -329q-194 98 -311 98q-78 0 -78 -57q0 -20 7.5 -37t27.5 -49l250 -322q46 78 67 178h379v-4q-36 -132 -85 -238.5t-138 -222.5l274 -356h-444l-90 113q-188 -136 -422 -136 q-203 0 -327 112t-124 308zM403 436q0 -60 34 -93.5t87 -33.5q86 0 166 62l-188 243q-99 -87 -99 -178z" />
<glyph unicode="'" horiz-adv-x="581" d="M51 860l121 574h408v-4l-324 -627z" />
<glyph unicode="(" horiz-adv-x="808" d="M63 621q0 282 145 496t439 370l129 -197q-193 -146 -276.5 -299.5t-83.5 -369.5q0 -218 83 -372.5t277 -297.5l-129 -199q-294 157 -439 372t-145 497z" />
<glyph unicode=")" horiz-adv-x="808" d="M33 -49q194 145 277 299.5t83 370.5q0 219 -82.5 373t-277.5 296l129 199q295 -157 440.5 -372t145.5 -496q0 -557 -586 -867z" />
<glyph unicode="*" horiz-adv-x="704" d="M57 1153l60 184l188 -139l-14 -45h-234zM111 989l192 137l37 -26l-72 -223zM256 1438h195l-76 -224h-45zM367 1100l34 26l193 -137l-158 -112zM399 1198l189 139l59 -184h-233z" />
<glyph unicode="+" horiz-adv-x="1140" d="M80 584v286h338v353h303v-353h338v-286h-338v-353h-303v353h-338z" />
<glyph unicode="," horiz-adv-x="512" d="M-39 -195q70 129 97.5 259.5t27.5 341.5h371v-21q0 -125 -24 -227t-73 -183t-107 -142.5t-142 -127.5z" />
<glyph unicode="-" horiz-adv-x="688" d="M59 457v323h570v-323h-570z" />
<glyph unicode="." horiz-adv-x="512" d="M66 0v406h380v-406h-380z" />
<glyph unicode="/" horiz-adv-x="806" d="M-86 -266l680 1894h270l-678 -1894h-272z" />
<glyph unicode="0" horiz-adv-x="1300" d="M49 717q0 356 163.5 550.5t436.5 194.5q275 0 438.5 -194.5t163.5 -550.5q0 -359 -163.5 -552.5t-438.5 -193.5q-134 0 -244 48.5t-189.5 141t-123 234.5t-43.5 322zM449 719q0 -410 202 -410q201 0 201 406q0 409 -203 409q-98 0 -149 -95.5t-51 -309.5z" />
<glyph unicode="1" horiz-adv-x="999" d="M49 1331l391 111h285v-1112h242v-330h-910v330h260v702l-200 -45z" />
<glyph unicode="2" horiz-adv-x="1159" d="M16 285l545 516q65 60 93 101.5t28 84.5q0 47 -30.5 77t-86.5 30q-72 0 -154.5 -41.5t-197.5 -132.5l-186 307q258 231 587 231q231 0 360.5 -114.5t129.5 -303.5q0 -140 -68.5 -251.5t-234.5 -247.5l-201 -189h524v-352h-1042z" />
<glyph unicode="3" horiz-adv-x="1126" d="M31 1327q146 64 286.5 96.5t305.5 32.5q222 0 340 -87t118 -243q0 -131 -78 -214.5t-243 -143.5q185 -30 260.5 -105t75.5 -214q0 -120 -69.5 -205.5t-209.5 -139.5t-328.5 -82t-449.5 -38v325q256 13 395.5 35t189.5 52.5t50 80.5q0 38 -30.5 60t-120 35t-253.5 14 l-34 250q176 53 266 88.5t125 66t35 68.5q0 76 -115 76q-73 0 -186 -28t-224 -77z" />
<glyph unicode="4" horiz-adv-x="1245" d="M18 561l517 881h534v-885h158v-311h-158v-246h-393v246h-649zM367 549h317v549z" />
<glyph unicode="5" horiz-adv-x="1165" d="M53 305q203 16 338 40t204 57.5t95.5 68.5t26.5 82q0 49 -29.5 74.5t-81.5 25.5q-58 0 -111 -24t-122 -74l-301 117l45 762h981v-332h-662l-14 -217q133 76 301 76q184 0 289.5 -104t105.5 -298q0 -118 -40.5 -208t-118 -155t-202.5 -110t-283 -71.5t-370 -41.5z" />
<glyph unicode="6" horiz-adv-x="1187" d="M43 590q0 326 181 542.5t554 337.5l164 -309q-352 -117 -481 -266q150 61 289 61q180 0 294.5 -117.5t114.5 -336.5q0 -244 -150.5 -386.5t-400.5 -142.5q-267 0 -416 158t-149 459zM420 537q0 -117 50.5 -182.5t137.5 -65.5q79 0 126.5 49.5t47.5 144.5t-48.5 139 t-133.5 44q-93 0 -178 -33q-2 -27 -2 -96z" />
<glyph unicode="7" horiz-adv-x="1132" d="M53 1077v357h1039v-387l-605 -1080l-397 115l574 995h-611z" />
<glyph unicode="8" horiz-adv-x="1230" d="M41 401q0 127 62 209.5t190 128.5q-110 51 -163.5 128t-53.5 196q0 80 34.5 150.5t100 125.5t170 87t235.5 32q129 0 234 -32t171 -87t101 -126t35 -150q0 -119 -54.5 -196t-164.5 -128q130 -47 191 -128.5t61 -209.5q0 -187 -154.5 -306.5t-419.5 -119.5 q-269 0 -422 119t-153 307zM416 440q0 -80 55 -126t145 -46q88 0 143.5 46t55.5 126q0 82 -54 128t-145 46q-92 0 -146 -46t-54 -128zM438 1022q0 -74 49 -117t129 -43q79 0 128 43t49 117q0 65 -49 105t-128 40t-128.5 -40t-49.5 -105z" />
<glyph unicode="9" horiz-adv-x="1187" d="M29 932q0 244 150.5 386t400.5 142q267 0 416 -157.5t149 -458.5q0 -326 -181 -543t-554 -338l-164 309q356 120 479 265q-148 -60 -287 -60q-180 0 -294.5 118t-114.5 337zM406 950q0 -182 182 -182q85 0 176 31q4 58 4 98q0 117 -50.5 182.5t-137.5 65.5 q-79 0 -126.5 -50t-47.5 -145z" />
<glyph unicode=":" horiz-adv-x="512" d="M66 0v406h380v-406h-380zM66 690v408h380v-408h-380z" />
<glyph unicode=";" horiz-adv-x="512" d="M-47 -195q69 127 95 257t26 344h381v-21q0 -125 -25 -227t-76 -183t-109 -142t-143 -128zM72 690v408h383v-408h-383z" />
<glyph unicode="&#x3c;" horiz-adv-x="1140" d="M84 578v296l958 414v-325l-620 -236l620 -233v-328z" />
<glyph unicode="=" horiz-adv-x="1140" d="M92 373v274h957v-274h-957zM92 805v274h957v-274h-957z" />
<glyph unicode="&#x3e;" horiz-adv-x="1140" d="M98 166v326l621 233l-621 233v330l957 -414v-296z" />
<glyph unicode="?" horiz-adv-x="1093" d="M4 1284q293 172 594 172q223 0 349 -102.5t126 -290.5q0 -177 -108.5 -282.5t-346.5 -176.5l-30 -151h-230l-61 350q225 72 301 118t76 105q0 86 -109 86q-174 0 -422 -135zM274 0v356h394v-356h-394z" />
<glyph unicode="@" horiz-adv-x="1507" d="M49 422q0 222 77.5 418.5t207 332.5t302 214.5t359.5 78.5q243 0 361.5 -105.5t118.5 -301.5q0 -115 -37 -260l-166 -668h-197l-59 96q-62 -52 -115.5 -74t-120.5 -22q-124 0 -205 89.5t-81 256.5q0 115 39 215t111.5 175.5t184.5 119t250 43.5q40 0 80 -4q4 14 4 47 q0 195 -231 195q-131 0 -254.5 -66.5t-215.5 -179t-148 -270.5t-56 -330q0 -141 41.5 -249t117 -175.5t178 -102t228.5 -34.5q142 0 254 33l-53 -177q-105 -24 -248 -24q-341 0 -534 190.5t-193 538.5zM817 510q0 -71 34.5 -107t92.5 -36q34 0 55 8l107 426q-10 2 -19 2 q-120 0 -195 -85t-75 -208z" />
<glyph unicode="A" horiz-adv-x="1531" d="M4 0l516 1442h494l514 -1442h-436l-70 221h-516l-70 -221h-432zM612 559h301l-149 475z" />
<glyph unicode="B" horiz-adv-x="1366" d="M96 0v1434h633q291 0 430 -96.5t139 -272.5q0 -133 -70 -210.5t-196 -113.5q147 -34 225 -111t78 -216q0 -196 -156.5 -305t-463.5 -109h-619zM504 315h209q96 0 144 37.5t48 106.5q0 133 -190 133h-211v-277zM504 874h194q168 0 168 127q0 115 -170 115h-192v-242z" />
<glyph unicode="C" horiz-adv-x="1304" d="M47 717q0 172 56 312t155 233t236 143.5t299 50.5q241 0 464 -82l-77 -370q-190 77 -361 77q-165 0 -256.5 -93t-91.5 -267q0 -181 95.5 -275t269.5 -94q158 0 344 74l82 -358q-219 -91 -463 -91q-227 0 -395 83.5t-262.5 251.5t-94.5 405z" />
<glyph unicode="D" horiz-adv-x="1464" d="M96 0v1434h473q191 0 343.5 -41.5t266.5 -126t176 -223t62 -322.5q0 -150 -41 -270.5t-116 -204t-182.5 -139.5t-237.5 -81.5t-285 -25.5h-459zM510 360h76q202 0 304.5 83.5t102.5 273.5t-101 273t-304 83h-78v-713z" />
<glyph unicode="E" horiz-adv-x="1306" d="M96 0v1434h1137v-340h-729v-195h645v-334h-645v-223h745v-342h-1153z" />
<glyph unicode="F" horiz-adv-x="1249" d="M96 0v1434h1116v-355h-702v-231h539v-352h-539v-496h-414z" />
<glyph unicode="G" horiz-adv-x="1447" d="M47 717q0 184 59 327t163.5 232t242.5 134.5t303 45.5q266 0 506 -104l-115 -344q-100 42 -189.5 64t-199.5 22q-171 0 -258.5 -97.5t-87.5 -289.5q0 -388 348 -388q89 0 160 23v205h-260v313h653v-747q-117 -57 -270.5 -95t-306.5 -38q-358 0 -553 188.5t-195 548.5z " />
<glyph unicode="H" horiz-adv-x="1486" d="M96 0v1434h416v-506h463v506h416v-1434h-416v541h-463v-541h-416z" />
<glyph unicode="I" horiz-adv-x="620" d="M102 0v1434h416v-1434h-416z" />
<glyph unicode="J" horiz-adv-x="1050" d="M20 31l74 354q124 -39 228 -39q113 0 170 53.5t57 171.5v863h416v-844v-30q0 -578 -576 -578q-201 0 -369 49z" />
<glyph unicode="K" horiz-adv-x="1433" d="M96 0v1434h416v-594l414 594h501l-516 -695l537 -739h-506l-430 631v-631h-416z" />
<glyph unicode="L" horiz-adv-x="1161" d="M96 0v1434h416v-1061h612v-373h-1028z" />
<glyph unicode="M" horiz-adv-x="1916" d="M57 0l84 1434h578l233 -834l236 834h588l84 -1434h-410l-47 870l-252 -870h-401l-252 877l-47 -877h-394z" />
<glyph unicode="N" horiz-adv-x="1497" d="M96 0v1434h455l463 -783l-2 99v684h389v-1434h-440l-476 803h-2l4 -98v-705h-391z" />
<glyph unicode="O" d="M47 715q0 228 88.5 397t249.5 258.5t375 89.5q322 0 515 -199t193 -542q0 -344 -194.5 -545t-517.5 -201q-322 0 -515.5 200t-193.5 542zM471 719q0 -187 78 -288t211 -101q132 0 208 99t76 286t-77 288t-209 101q-133 0 -210 -99t-77 -286z" />
<glyph unicode="P" horiz-adv-x="1310" d="M96 0v1434h525q663 0 663 -512q0 -277 -171 -413t-492 -136h-111v-373h-414zM510 705h108q136 0 193 49t57 149t-57.5 146.5t-192.5 46.5h-108v-391z" />
<glyph unicode="Q" d="M47 719q0 340 194.5 540.5t518.5 200.5q322 0 515 -199t193 -538t-192 -537l293 -327v-4h-527l-122 143q-85 -16 -164 -16q-322 0 -515.5 199t-193.5 538zM471 719q0 -187 78 -288t211 -101q132 0 208 99t76 286t-77 288t-209 101q-133 0 -210 -99t-77 -286z" />
<glyph unicode="R" horiz-adv-x="1409" d="M96 0v1434h598q321 0 478 -114.5t157 -332.5q0 -321 -342 -426q66 -31 112 -74.5t105 -130.5l232 -350v-6h-482l-190 315q-46 70 -96.5 98.5t-130.5 28.5h-31v-442h-410zM506 764h172q119 0 174 44t55 132q0 80 -54 121t-175 41h-172v-338z" />
<glyph unicode="S" horiz-adv-x="1306" d="M20 109l109 335q116 -56 261.5 -91.5t287.5 -35.5q107 0 148.5 24t41.5 71q0 46 -49 75t-190 64q-149 30 -245.5 63.5t-166.5 84.5t-100.5 122t-30.5 172q0 218 151.5 339.5t432.5 121.5q295 0 538 -108l-106 -334q-95 45 -221.5 73.5t-245.5 28.5q-143 0 -143 -80 q0 -27 14.5 -44t66.5 -36.5t156 -42.5q149 -31 246 -65.5t167.5 -87t101 -126t30.5 -177.5q0 -239 -159 -358.5t-456 -119.5q-169 0 -336 36.5t-303 95.5z" />
<glyph unicode="T" horiz-adv-x="1343" d="M31 1063v371h1282v-371h-432v-1063h-416v1063h-434z" />
<glyph unicode="U" horiz-adv-x="1464" d="M84 592v842h418v-856q0 -132 63.5 -191t169.5 -59q236 0 236 250v856h409v-836q0 -133 -31 -238.5t-87.5 -177t-138 -118.5t-178.5 -68t-214 -21q-147 0 -262.5 34.5t-203 107t-134.5 192.5t-47 283z" />
<glyph unicode="V" horiz-adv-x="1490" d="M4 1434h455l291 -918l292 918h445l-514 -1442h-453z" />
<glyph unicode="W" horiz-adv-x="2215" d="M12 1434h445l188 -865l244 865h452l240 -861l191 861h432l-379 -1440h-459l-260 880l-258 -880h-459z" />
<glyph unicode="X" horiz-adv-x="1452" d="M2 0v4l467 735l-449 691v4h467l242 -406l240 406h461v-4l-447 -691l467 -735v-4h-471l-256 436l-258 -436h-463z" />
<glyph unicode="Y" horiz-adv-x="1409" d="M-14 1430v4h458l263 -535l264 535h452v-4l-512 -924v-506h-415v506z" />
<glyph unicode="Z" horiz-adv-x="1325" d="M49 0v346l670 739h-633v349h1182v-347l-668 -739h668v-348h-1219z" />
<glyph unicode="[" horiz-adv-x="829" d="M102 -219v1689l676 -36v-215l-356 14v-1215l356 15v-215z" />
<glyph unicode="\" horiz-adv-x="806" d="M-59 1628h272l678 -1894h-270z" />
<glyph unicode="]" horiz-adv-x="829" d="M53 33l355 -15v1215l-355 -14v215l676 36v-1689l-676 37v215z" />
<glyph unicode="_" horiz-adv-x="1060" d="M-4 -84h1069v-139h-1069v139z" />
<glyph unicode="`" horiz-adv-x="1024" d="M205 1391h444l156 -236h-250z" />
<glyph unicode="a" horiz-adv-x="1157" d="M35 324q0 149 88 237q107 107 334 107q92 0 237 -23v33q0 69 -37.5 103t-132.5 34q-164 0 -338 -74l-82 283q234 92 484 92q256 0 373.5 -96.5t117.5 -310.5v-471l31 -238h-344l-45 94q-155 -112 -326 -112q-170 0 -265 87t-95 255zM391 350q0 -59 38 -88t103 -29 q87 0 162 43v179q-98 12 -153 12q-84 0 -121 -37q-29 -29 -29 -80z" />
<glyph unicode="b" horiz-adv-x="1220" d="M80 0v1487h391v-469q125 96 274 96q192 0 313.5 -146.5t121.5 -418.5q0 -268 -125.5 -417.5t-325.5 -149.5q-90 0 -159.5 29.5t-135.5 82.5l-49 -94h-305zM471 342q73 -45 150 -45q88 0 136 63.5t48 190.5q0 124 -46.5 187t-129.5 63q-81 0 -158 -62v-397z" />
<glyph unicode="c" horiz-adv-x="1013" d="M37 549q0 259 157 414t420 155q188 0 367 -74l-82 -327q-153 67 -272 67q-105 0 -165.5 -63.5t-60.5 -167.5q0 -114 59.5 -177t170.5 -63q110 0 276 74l82 -311q-205 -96 -399 -96q-254 0 -403.5 154t-149.5 415z" />
<glyph unicode="d" horiz-adv-x="1220" d="M41 549q0 268 128 416.5t335 148.5q127 0 246 -61v434h391v-1487h-305l-58 106q-69 -61 -140.5 -92.5t-168.5 -31.5q-90 0 -167.5 36.5t-136 106t-91.5 178.5t-33 246zM416 547q0 -124 46.5 -187t129.5 -63q82 0 158 61v398q-73 45 -150 45q-88 0 -136 -63.5t-48 -190.5z " />
<glyph unicode="e" horiz-adv-x="1132" d="M39 543q0 134 40.5 243.5t112 182t169.5 112t212 39.5q244 0 385.5 -158t141.5 -440v-98h-699q22 -168 254 -168q70 0 154 21t158 59l94 -244q-93 -53 -210 -81.5t-230 -28.5q-275 0 -428.5 140t-153.5 421zM401 647h338q-9 93 -52 142t-116 49q-72 0 -116.5 -49.5 t-53.5 -141.5z" />
<glyph unicode="f" horiz-adv-x="841" d="M18 762v299h162v53q0 186 100.5 285.5t321.5 99.5q182 0 309 -43l-51 -274q-99 26 -178 26q-119 0 -119 -110v-37h256v-299h-252v-762h-387v762h-162z" />
<glyph unicode="g" horiz-adv-x="1220" d="M41 567q0 250 125 399.5t326 149.5q90 0 159 -29.5t135 -82.5l50 94h305v-940q0 -136 -38.5 -232.5t-113 -153t-173.5 -82.5t-230 -26q-251 0 -480 68l54 258q211 -64 370 -64q112 0 167 37.5t55 122.5v35q-110 -82 -256 -82q-207 0 -331 137t-124 391zM416 565 q0 -115 46 -173t130 -58q82 0 158 61v361q-73 45 -150 45q-88 0 -136 -59t-48 -177z" />
<glyph unicode="h" horiz-adv-x="1210" d="M80 0v1487h391v-488q172 115 332 115q163 0 248.5 -88.5t85.5 -261.5v-764h-394v668q0 102 -96 102q-79 0 -176 -65v-705h-391z" />
<glyph unicode="i" horiz-adv-x="555" d="M74 1184v258h407v-258h-407zM82 0v1098h391v-1098h-391z" />
<glyph unicode="j" horiz-adv-x="555" d="M-72 -164q92 100 123 181t31 235v846h391v-854q0 -118 -12.5 -200t-46 -149t-79.5 -117.5t-124 -113.5zM74 1184v258h407v-258h-407z" />
<glyph unicode="k" horiz-adv-x="1206" d="M80 0v1487h391v-830l283 441h454l-374 -527l387 -571h-461l-289 483v-483h-391z" />
<glyph unicode="l" horiz-adv-x="555" d="M82 0v1487h391v-1487h-391z" />
<glyph unicode="m" horiz-adv-x="1855" d="M80 0v1098h305l61 -117q89 64 173 98.5t180 34.5q199 0 278 -135q186 135 373 135q161 0 246.5 -88.5t85.5 -261.5v-764h-393v668q0 102 -93 102q-73 0 -170 -65v-705h-393v668q0 102 -90 102q-75 0 -172 -65v-705h-391z" />
<glyph unicode="n" horiz-adv-x="1210" d="M80 0v1098h305l61 -117q183 133 357 133q163 0 248.5 -88.5t85.5 -261.5v-764h-394v668q0 102 -96 102q-79 0 -176 -65v-705h-391z" />
<glyph unicode="o" horiz-adv-x="1179" d="M39 547q0 265 154.5 419t398.5 154q242 0 395.5 -153.5t153.5 -417.5q0 -175 -72.5 -306t-196.5 -198.5t-282 -67.5q-119 0 -220.5 39t-174.5 111t-114.5 180t-41.5 240zM395 549q0 -116 53 -184t144 -68q89 0 140.5 66.5t51.5 183.5t-52.5 185.5t-143.5 68.5t-142 -67 t-51 -185z" />
<glyph unicode="p" horiz-adv-x="1220" d="M80 -324v1422h305l57 -107q69 61 141 93t169 32q90 0 167.5 -36.5t136 -106t91.5 -178.5t33 -246q0 -268 -128 -417.5t-335 -149.5q-123 0 -246 63v-369h-391zM471 342q73 -45 150 -45q88 0 136 63.5t48 190.5q0 124 -46.5 187t-129.5 63q-81 0 -158 -62v-397z" />
<glyph unicode="q" horiz-adv-x="1220" d="M41 549q0 268 125.5 417.5t325.5 149.5q90 0 159 -29.5t135 -82.5l50 94h305v-1422h-391v404q-127 -98 -275 -98q-192 0 -313 147.5t-121 419.5zM416 547q0 -124 46.5 -187t129.5 -63q82 0 158 61v398q-73 45 -150 45q-88 0 -136 -63.5t-48 -190.5z" />
<glyph unicode="r" horiz-adv-x="839" d="M80 0v1098h299l67 -185q72 104 158 156q82 49 192 49h13v-399q-184 0 -338 -103v-616h-391z" />
<glyph unicode="s" horiz-adv-x="1060" d="M10 92l96 293q103 -49 225 -81t224 -32q117 0 117 52q0 26 -33 39t-156 38q-86 18 -145.5 36t-114 45.5t-86.5 63t-50.5 87t-18.5 119.5q0 168 121 267t348 99q255 0 460 -94l-92 -287q-216 88 -379 88q-96 0 -96 -43q0 -23 32.5 -37t149.5 -40q241 -55 331.5 -130.5 t90.5 -230.5q0 -182 -122 -273t-355 -91q-148 0 -293 29.5t-254 82.5z" />
<glyph unicode="t" horiz-adv-x="876" d="M18 799v299h152v280h387v-280h272v-299h-272v-385q0 -113 119 -113q71 0 153 29v-303q-118 -41 -266 -41q-199 0 -296 85.5t-97 288.5v439h-152z" />
<glyph unicode="u" horiz-adv-x="1210" d="M76 334v764h391v-668q0 -102 98 -102q77 0 174 65v705h391v-1098h-305l-61 117q-89 -64 -172.5 -99.5t-183.5 -35.5q-163 0 -247.5 89.5t-84.5 262.5z" />
<glyph unicode="v" horiz-adv-x="1171" d="M-2 1098h405l189 -670l182 670h397l-370 -1106h-430z" />
<glyph unicode="w" horiz-adv-x="1759" d="M8 1098h391l123 -606l164 606h393l162 -606l125 606h385l-293 -1102h-407l-174 604l-168 -604h-410z" />
<glyph unicode="x" horiz-adv-x="1200" d="M4 0l358 561l-348 537h426l160 -287l160 287h426l-350 -537l360 -561h-424l-174 301l-168 -301h-426z" />
<glyph unicode="y" horiz-adv-x="1169" d="M14 1098h406l182 -668l174 668h398l-283 -840q-36 -104 -67.5 -174.5t-75.5 -132t-92.5 -100.5t-123.5 -74.5t-163.5 -60t-216.5 -50.5l-89 324q192 48 297 100z" />
<glyph unicode="z" horiz-adv-x="1097" d="M45 0v303l506 498h-471v297h967v-301l-506 -500h503v-297h-999z" />
<glyph unicode="{" horiz-adv-x="1155" d="M49 535v182l4 2q215 43 305.5 101t90.5 143q0 107 -170 174l28 182q144 53 351 98t421 66l27 -221q-244 -19 -440 -68q155 -83 155 -227q0 -52 -20.5 -96t-55.5 -78.5t-89 -65.5t-113 -54.5t-137 -47.5q98 -29 169 -59.5t129 -71t87.5 -93t29.5 -116.5q0 -142 -155 -228 q212 -49 440 -67l-27 -221q-215 21 -422 65.5t-350 97.5l-28 183q170 70 170 174q0 85 -90.5 143t-305.5 103h-4z" />
<glyph unicode="|" horiz-adv-x="579" d="M164 -266v1894h252v-1894h-252z" />
<glyph unicode="}" horiz-adv-x="1155" d="M49 -10q228 18 440 67q-155 88 -155 228q0 64 30 116.5t89 93.5t130 71.5t169 60.5q-99 30 -170 60.5t-130 71t-88.5 92.5t-29.5 116q0 143 155 227q-196 49 -440 68l29 221q213 -21 420 -66t350 -98l29 -182q-170 -67 -170 -174q0 -85 90 -143t305 -101l4 -2v-182h-4 q-215 -45 -305 -103t-90 -143q0 -104 170 -174l-29 -183q-143 -53 -349.5 -97.5t-420.5 -65.5z" />
<glyph unicode="&#xa1;" horiz-adv-x="569" d="M70 0v403l100 578h229l101 -578v-403h-430zM88 1077v357h393v-357h-393z" />
<glyph unicode="&#xa2;" horiz-adv-x="999" d="M43 733q0 216 140.5 359.5t396.5 152.5l32 197h205l-39 -213q88 -14 185 -53l-84 -283q-101 45 -168 57l-76 -436q105 3 244 64l82 -273q-185 -74 -359 -80l-39 -233h-205l45 252q-166 42 -263 169t-97 320zM389 731q0 -131 88 -184l70 403q-75 -19 -116.5 -76.5 t-41.5 -142.5z" />
<glyph unicode="&#xa3;" horiz-adv-x="1200" d="M57 256q53 59 84.5 121.5t59.5 173.5h-144v305h209l31 135q44 208 156 320q143 143 405 143q167 0 305 -49l-71 -342q-110 35 -203 35q-102 0 -160 -58q-44 -47 -59 -120l-15 -64h318v-305h-387l-6 -33q-21 -101 -76 -180h620v-338h-1001z" />
<glyph unicode="&#xa5;" horiz-adv-x="1302" d="M-10 1434h442l221 -494l221 494h439l-424 -768h285v-189h-320v-112h320v-189h-320v-176h-405v176h-320v189h320v112h-320v189h283z" />
<glyph unicode="&#xa7;" horiz-adv-x="1173" d="M41 717q0 92 41.5 155t132.5 121q-41 58 -41 150q0 133 108.5 222t299.5 89q225 0 442 -82l-80 -262q-224 78 -350 78q-70 0 -70 -35q0 -14 11 -23.5t54.5 -27.5t141.5 -51q230 -76 316 -147.5t86 -184.5q0 -92 -43 -156.5t-134 -120.5q43 -61 43 -149 q0 -133 -108.5 -222t-300.5 -89q-226 0 -440 81l79 263q221 -78 351 -78q67 0 67 35q0 14 -11 23.5t-54 27.5t-140 51q-231 76 -316 147t-85 185zM377 768q0 -22 11.5 -36t52 -33t128.5 -50l168 -61q58 40 58 80q0 23 -11 36.5t-51 32t-129 49.5q-84 26 -170 62 q-57 -40 -57 -80z" />
<glyph unicode="&#xa8;" horiz-adv-x="1024" d="M186 1155v266h277v-266h-277zM561 1155v266h277v-266h-277z" />
<glyph unicode="&#xa9;" horiz-adv-x="1519" d="M59 717q0 160 53 299t146 237t223 154.5t279 56.5q200 0 360.5 -96t251 -267t90.5 -384q0 -159 -53 -298t-145.5 -237.5t-223 -155.5t-280.5 -57q-149 0 -279 57t-223 155.5t-146 237.5t-53 298zM156 717q0 -187 77.5 -337.5t215.5 -235.5t311 -85t311 85t215.5 235.5 t77.5 337.5q0 188 -77.5 338t-215.5 234.5t-311 84.5t-311 -84.5t-215.5 -234.5t-77.5 -338zM391 723q0 187 113.5 296t294.5 109q137 0 260 -65l-68 -203q-90 51 -180 51q-79 0 -123.5 -50t-44.5 -136q0 -90 47 -140t131 -50q80 0 170 49l70 -197q-124 -70 -258 -70 q-188 0 -300 106.5t-112 299.5z" />
<glyph unicode="&#xaa;" horiz-adv-x="815" d="M61 524v127h695v-127h-695zM76 967q0 102 68.5 155.5t191.5 53.5q74 0 143 -15v19q0 43 -22 64.5t-78 21.5q-95 0 -205 -45l-49 174q144 53 293 53q160 0 233.5 -60t73.5 -192v-281l20 -145h-217l-24 57q-95 -65 -205 -65q-104 0 -163.5 53.5t-59.5 151.5zM301 983 q0 -37 23.5 -54.5t62.5 -17.5q44 0 92 25v108q-61 9 -88 9q-43 0 -66.5 -18t-23.5 -52z" />
<glyph unicode="&#xab;" horiz-adv-x="1165" d="M51 522v193l441 372l129 -118l-261 -351l261 -346l-129 -120zM545 522v193l438 372l129 -118l-258 -351l258 -346l-129 -120z" />
<glyph unicode="&#xad;" horiz-adv-x="688" d="M59 457v323h570v-323h-570z" />
<glyph unicode="&#xae;" horiz-adv-x="763" d="M41 1102q0 150 98.5 251t243.5 101q143 0 241.5 -101t98.5 -251t-98.5 -251t-241.5 -101q-145 0 -243.5 101t-98.5 251zM88 1102q0 -134 83 -221.5t212 -87.5q127 0 210 87.5t83 221.5q0 133 -83 221t-210 88q-128 0 -211.5 -88t-83.5 -221zM217 924v376h168 q89 0 133.5 -31t44.5 -85q0 -48 -26.5 -73.5t-71.5 -39.5q33 -13 59 -53l66 -92v-2h-141l-58 86q-12 18 -21 23t-30 5v-114h-123zM340 1126h39q59 0 59 41q0 39 -57 39h-41v-80z" />
<glyph unicode="&#xaf;" horiz-adv-x="1024" d="M201 1163v178h624v-178h-624z" />
<glyph unicode="&#xb0;" horiz-adv-x="854" d="M55 1083q0 159 108.5 266t264.5 107q157 0 264 -105.5t107 -263.5q0 -159 -108 -266.5t-265 -107.5q-158 0 -264.5 105.5t-106.5 264.5zM268 1085q0 -74 45 -125t115 -51q69 0 113.5 49.5t44.5 124.5q0 74 -45 125.5t-113 51.5q-70 0 -115 -50t-45 -125z" />
<glyph unicode="&#xb4;" horiz-adv-x="1024" d="M221 1155l156 236h442l-350 -236h-248z" />
<glyph unicode="&#xb6;" horiz-adv-x="1103" d="M23 997q0 205 144 321t392 116h445v-1434h-244v1206h-211v-639q-234 -3 -380 111t-146 319z" />
<glyph unicode="&#xb7;" horiz-adv-x="512" d="M66 524v406h380v-406h-380z" />
<glyph unicode="&#xb8;" horiz-adv-x="1024" d="M319 -256q108 7 148.5 19t40.5 34q0 45 -102 19l-56 57l111 154h157l-69 -93q94 -1 135 -29t41 -81q0 -168 -391 -184z" />
<glyph unicode="&#xba;" horiz-adv-x="819" d="M66 1104q0 157 97 252.5t249 95.5q150 0 246 -93.5t96 -250.5t-97 -251.5t-249 -94.5q-150 0 -246 93t-96 249zM76 524v127h667v-127h-667zM295 1108q0 -70 30.5 -111t84.5 -41q53 0 83.5 39.5t30.5 108.5q0 70 -30.5 110.5t-83.5 40.5q-54 0 -84.5 -39t-30.5 -108z" />
<glyph unicode="&#xbb;" horiz-adv-x="1165" d="M53 270l260 348l-260 349l129 120l441 -370v-193l-441 -372zM547 270l258 348l-258 349l129 120l438 -370v-193l-438 -372z" />
<glyph unicode="&#xbf;" horiz-adv-x="1093" d="M20 371q0 177 108.5 282t346.5 176l31 152h229l62 -350q-225 -72 -301 -118t-76 -105q0 -86 108 -86q174 0 422 135l140 -307q-295 -173 -594 -173q-223 0 -349.5 103t-126.5 291zM426 1077v357h393v-357h-393z" />
<glyph unicode="&#xc0;" horiz-adv-x="1531" d="M4 0l516 1442h494l514 -1442h-436l-70 221h-516l-70 -221h-432zM283 1716h475l170 -209h-310zM612 559h301l-149 475z" />
<glyph unicode="&#xc1;" horiz-adv-x="1531" d="M4 0l516 1442h494l514 -1442h-436l-70 221h-516l-70 -221h-432zM602 1507l172 209h475l-338 -209h-309zM612 559h301l-149 475z" />
<glyph unicode="&#xc2;" horiz-adv-x="1531" d="M4 0l516 1442h494l514 -1442h-436l-70 221h-516l-70 -221h-432zM389 1507v2l205 226h340l205 -226v-2h-256l-121 80l-121 -80h-252zM612 559h301l-149 475z" />
<glyph unicode="&#xc3;" horiz-adv-x="1531" d="M4 0l516 1442h494l514 -1442h-436l-70 221h-516l-70 -221h-432zM362 1540q41 140 99 197t131 57q42 0 80 -10t100 -39q104 -43 139 -43q32 0 56 19.5t47 74.5l172 -47q-41 -140 -99 -197t-131 -57q-71 0 -180 47q-99 45 -139 45q-32 0 -54.5 -19.5t-47.5 -74.5zM612 559 h301l-149 475z" />
<glyph unicode="&#xc4;" horiz-adv-x="1531" d="M4 0l516 1442h494l514 -1442h-436l-70 221h-516l-70 -221h-432zM422 1507v260h280v-260h-280zM612 559h301l-149 475zM825 1507v260h281v-260h-281z" />
<glyph unicode="&#xc5;" horiz-adv-x="1531" d="M4 0l514 1444h31q-23 41 -23 84q0 90 68.5 146.5t173.5 56.5q107 0 175.5 -56.5t68.5 -146.5q0 -39 -25 -84h29l512 -1444h-436l-70 221h-516l-70 -221h-432zM612 559h301l-149 475zM635 1528q0 -50 37.5 -81.5t95.5 -31.5q59 0 97 31t38 82q0 50 -38 81t-97 31 q-58 0 -95.5 -31t-37.5 -81z" />
<glyph unicode="&#xc6;" horiz-adv-x="2306" d="M-10 0l913 1434h1327v-340h-702v-195h620v-334h-620v-223h719v-342h-1125v227h-549l-143 -227h-440zM784 563h338v539z" />
<glyph unicode="&#xc7;" horiz-adv-x="1304" d="M47 717q0 172 56 312t155 233t236 143.5t299 50.5q241 0 464 -82l-77 -370q-190 77 -361 77q-165 0 -256.5 -93t-91.5 -267q0 -181 95.5 -275t269.5 -94q158 0 344 74l82 -358q-208 -88 -453 -91l-33 -43q94 -1 135 -29t41 -81q0 -168 -391 -184l-14 104q108 7 148 19 t40 34q0 45 -102 19l-55 57l81 115q-286 36 -449 223.5t-163 505.5z" />
<glyph unicode="&#xc8;" horiz-adv-x="1306" d="M96 0v1434h1137v-340h-729v-195h645v-334h-645v-223h745v-342h-1153zM188 1702h476l170 -209h-310z" />
<glyph unicode="&#xc9;" horiz-adv-x="1306" d="M96 0v1434h1137v-340h-729v-195h645v-334h-645v-223h745v-342h-1153zM508 1493l172 209h475l-338 -209h-309z" />
<glyph unicode="&#xca;" horiz-adv-x="1306" d="M96 0v1434h1137v-340h-729v-195h645v-334h-645v-223h745v-342h-1153zM295 1493v2l205 225h340l204 -225v-2h-256l-120 80l-121 -80h-252z" />
<glyph unicode="&#xcb;" horiz-adv-x="1306" d="M96 0v1434h1137v-340h-729v-195h645v-334h-645v-223h745v-342h-1153zM328 1493v260h280v-260h-280zM731 1493v260h281v-260h-281z" />
<glyph unicode="&#xcc;" horiz-adv-x="620" d="M-172 1702h475l170 -209h-309zM102 0v1434h416v-1434h-416z" />
<glyph unicode="&#xcd;" horiz-adv-x="620" d="M102 0v1434h416v-1434h-416zM147 1493l172 209h476l-338 -209h-310z" />
<glyph unicode="&#xce;" horiz-adv-x="620" d="M-66 1493v2l205 225h340l205 -225v-2h-256l-121 80l-121 -80h-252zM102 0v1434h416v-1434h-416z" />
<glyph unicode="&#xcf;" horiz-adv-x="620" d="M-33 1493v260h281v-260h-281zM102 0v1434h416v-1434h-416zM371 1493v260h280v-260h-280z" />
<glyph unicode="&#xd0;" horiz-adv-x="1492" d="M29 565v334h96v535h473q151 0 279 -25.5t234 -81t179.5 -138.5t114.5 -201.5t41 -266.5q0 -187 -62.5 -327t-179 -225.5t-272 -127t-350.5 -41.5h-457v565h-96zM535 360h77q203 0 306.5 83.5t103.5 273.5q0 189 -102 272.5t-304 83.5h-81v-178h192v-326h-192v-209z" />
<glyph unicode="&#xd1;" horiz-adv-x="1497" d="M96 0v1434h455l463 -783l-2 99v684h389v-1434h-440l-476 803h-2l4 -98v-705h-391zM348 1528q41 140 99 197t131 57q42 0 80 -10t100 -39q104 -43 139 -43q32 0 55.5 19.5t46.5 74.5l172 -47q-41 -140 -98.5 -197t-130.5 -57q-71 0 -180 47q-99 45 -139 45 q-32 0 -55 -19.5t-48 -74.5z" />
<glyph unicode="&#xd2;" d="M47 715q0 228 88.5 397t249.5 258.5t375 89.5q322 0 515 -199t193 -542q0 -344 -194.5 -545t-517.5 -201q-322 0 -515.5 200t-193.5 542zM274 1716h476l170 -209h-310zM471 719q0 -187 78 -288t211 -101q132 0 208 99t76 286t-77 288t-209 101q-133 0 -210 -99t-77 -286z " />
<glyph unicode="&#xd3;" d="M47 715q0 228 88.5 397t249.5 258.5t375 89.5q322 0 515 -199t193 -542q0 -344 -194.5 -545t-517.5 -201q-322 0 -515.5 200t-193.5 542zM471 719q0 -187 78 -288t211 -101q132 0 208 99t76 286t-77 288t-209 101q-133 0 -210 -99t-77 -286zM594 1507l172 209h475 l-338 -209h-309z" />
<glyph unicode="&#xd4;" d="M47 715q0 228 88.5 397t249.5 258.5t375 89.5q322 0 515 -199t193 -542q0 -344 -194.5 -545t-517.5 -201q-322 0 -515.5 200t-193.5 542zM381 1507v2l205 226h340l204 -226v-2h-256l-120 80l-121 -80h-252zM471 719q0 -187 78 -288t211 -101q132 0 208 99t76 286t-77 288 t-209 101q-133 0 -210 -99t-77 -286z" />
<glyph unicode="&#xd5;" d="M47 715q0 228 88.5 397t249.5 258.5t375 89.5q322 0 515 -199t193 -542q0 -344 -194.5 -545t-517.5 -201q-322 0 -515.5 200t-193.5 542zM354 1540q41 140 99 197t131 57q42 0 80 -10t100 -39q104 -43 139 -43q32 0 56 19.5t47 74.5l172 -47q-41 -140 -99 -197t-131 -57 q-71 0 -180 47q-99 45 -139 45q-32 0 -55 -19.5t-48 -74.5zM471 719q0 -187 78 -288t211 -101q132 0 208 99t76 286t-77 288t-209 101q-133 0 -210 -99t-77 -286z" />
<glyph unicode="&#xd6;" d="M47 715q0 228 88.5 397t249.5 258.5t375 89.5q322 0 515 -199t193 -542q0 -344 -194.5 -545t-517.5 -201q-322 0 -515.5 200t-193.5 542zM414 1507v260h280v-260h-280zM471 719q0 -187 78 -288t211 -101q132 0 208 99t76 286t-77 288t-209 101q-133 0 -210 -99t-77 -286z M817 1507v260h281v-260h-281z" />
<glyph unicode="&#xd7;" horiz-adv-x="1140" d="M76 444l284 283l-284 279l215 215l278 -285l283 285l213 -213l-285 -281l285 -278l-217 -216l-279 285l-280 -285z" />
<glyph unicode="&#xd8;" d="M20 -109l216 287q-189 201 -189 537q0 228 88.5 397t249.5 258.5t375 89.5q197 0 354 -80l121 162h262l-217 -287q188 -201 188 -536q0 -344 -194.5 -545t-517.5 -201q-206 0 -357 80l-118 -162h-261zM467 719q0 -127 33 -209l397 561q-61 37 -139 37q-135 0 -213 -100.5 t-78 -288.5zM614 365q59 -39 146 -39q134 0 211.5 100.5t77.5 288.5q0 129 -37 213z" />
<glyph unicode="&#xd9;" horiz-adv-x="1464" d="M84 592v842h418v-856q0 -132 63.5 -191t169.5 -59q236 0 236 250v856h409v-836q0 -133 -31 -238.5t-87.5 -177t-138 -118.5t-178.5 -68t-214 -21q-147 0 -262.5 34.5t-203 107t-134.5 192.5t-47 283zM250 1702h475l170 -209h-309z" />
<glyph unicode="&#xda;" horiz-adv-x="1464" d="M84 592v842h418v-856q0 -132 63.5 -191t169.5 -59q236 0 236 250v856h409v-836q0 -133 -31 -238.5t-87.5 -177t-138 -118.5t-178.5 -68t-214 -21q-147 0 -262.5 34.5t-203 107t-134.5 192.5t-47 283zM569 1493l172 209h476l-338 -209h-310z" />
<glyph unicode="&#xdb;" horiz-adv-x="1464" d="M84 592v842h418v-856q0 -132 63.5 -191t169.5 -59q236 0 236 250v856h409v-836q0 -133 -31 -238.5t-87.5 -177t-138 -118.5t-178.5 -68t-214 -21q-147 0 -262.5 34.5t-203 107t-134.5 192.5t-47 283zM356 1493v2l205 225h340l205 -225v-2h-256l-121 80l-121 -80h-252z " />
<glyph unicode="&#xdc;" horiz-adv-x="1464" d="M84 592v842h418v-856q0 -132 63.5 -191t169.5 -59q236 0 236 250v856h409v-836q0 -133 -31 -238.5t-87.5 -177t-138 -118.5t-178.5 -68t-214 -21q-147 0 -262.5 34.5t-203 107t-134.5 192.5t-47 283zM389 1493v260h281v-260h-281zM793 1493v260h280v-260h-280z" />
<glyph unicode="&#xdd;" horiz-adv-x="1409" d="M-14 1430v4h458l263 -535l264 535h452v-4l-512 -924v-506h-415v506zM541 1493l172 209h475l-338 -209h-309z" />
<glyph unicode="&#xde;" horiz-adv-x="1325" d="M96 0v1434h414v-179h113q661 0 661 -512q0 -277 -171 -412.5t-492 -135.5h-111v-195h-414zM510 526h108q136 0 193 49.5t57 149.5t-57.5 146.5t-192.5 46.5h-108v-392z" />
<glyph unicode="&#xdf;" horiz-adv-x="1411" d="M23 762v299h161q2 210 140.5 324t429.5 114q257 0 401.5 -109.5t144.5 -289.5q0 -244 -243 -359q167 -61 245 -153.5t78 -239.5q0 -177 -115 -271.5t-307 -94.5q-152 0 -307 45l49 284q100 -32 193 -32q115 0 115 94q0 69 -76.5 126t-241.5 107v242q119 45 177.5 94.5 t58.5 118.5q0 59 -41.5 92t-122.5 33q-93 0 -143 -45t-50 -131v-1010h-385v762h-161z" />
<glyph unicode="&#xe0;" horiz-adv-x="1157" d="M35 324q0 149 88 237q107 107 334 107q92 0 237 -23v33q0 69 -37.5 103t-132.5 34q-164 0 -338 -74l-82 283q234 92 484 92q256 0 373.5 -96.5t117.5 -310.5v-471l31 -238h-344l-45 94q-155 -112 -326 -112q-170 0 -265 87t-95 255zM131 1403h444l156 -236h-250zM391 350 q0 -59 38 -88t103 -29q87 0 162 43v179q-98 12 -153 12q-84 0 -121 -37q-29 -29 -29 -80z" />
<glyph unicode="&#xe1;" horiz-adv-x="1157" d="M35 324q0 149 88 237q107 107 334 107q92 0 237 -23v33q0 69 -37.5 103t-132.5 34q-164 0 -338 -74l-82 283q234 92 484 92q256 0 373.5 -96.5t117.5 -310.5v-471l31 -238h-344l-45 94q-155 -112 -326 -112q-170 0 -265 87t-95 255zM391 350q0 -59 38 -88t103 -29 q87 0 162 43v179q-98 12 -153 12q-84 0 -121 -37q-29 -29 -29 -80zM436 1167l156 236h442l-350 -236h-248z" />
<glyph unicode="&#xe2;" horiz-adv-x="1157" d="M35 324q0 149 88 237q107 107 334 107q92 0 237 -23v33q0 69 -37.5 103t-132.5 34q-164 0 -338 -74l-82 283q234 92 484 92q256 0 373.5 -96.5t117.5 -310.5v-471l31 -238h-344l-45 94q-155 -112 -326 -112q-170 0 -265 87t-95 255zM236 1167v2l210 250h273l209 -250v-2 h-226l-122 90l-123 -90h-221zM391 350q0 -59 38 -88t103 -29q87 0 162 43v179q-98 12 -153 12q-84 0 -121 -37q-29 -29 -29 -80z" />
<glyph unicode="&#xe3;" horiz-adv-x="1157" d="M35 324q0 149 88 237q107 107 334 107q92 0 237 -23v33q0 69 -37.5 103t-132.5 34q-164 0 -338 -74l-82 283q234 92 484 92q256 0 373.5 -96.5t117.5 -310.5v-471l31 -238h-344l-45 94q-155 -112 -326 -112q-170 0 -265 87t-95 255zM205 1196q40 144 94 204t121 60 q38 0 73.5 -10.5t96.5 -38.5q93 -45 133 -45q29 0 49 19t47 77l160 -43q-42 -144 -95.5 -204t-119.5 -60q-38 0 -73.5 10.5t-96.5 38.5q-93 45 -133 45q-29 0 -50 -19.5t-46 -76.5zM391 350q0 -59 38 -88t103 -29q87 0 162 43v179q-98 12 -153 12q-84 0 -121 -37 q-29 -29 -29 -80z" />
<glyph unicode="&#xe4;" horiz-adv-x="1157" d="M35 324q0 149 88 237q107 107 334 107q92 0 237 -23v33q0 69 -37.5 103t-132.5 34q-164 0 -338 -74l-82 283q234 92 484 92q256 0 373.5 -96.5t117.5 -310.5v-471l31 -238h-344l-45 94q-155 -112 -326 -112q-170 0 -265 87t-95 255zM256 1167v267h276v-267h-276zM391 350 q0 -59 38 -88t103 -29q87 0 162 43v179q-98 12 -153 12q-84 0 -121 -37q-29 -29 -29 -80zM631 1167v267h276v-267h-276z" />
<glyph unicode="&#xe5;" horiz-adv-x="1157" d="M35 324q0 149 88 237q107 107 334 107q92 0 237 -23v33q0 69 -37.5 103t-132.5 34q-164 0 -338 -74l-82 283q234 92 484 92q256 0 373.5 -96.5t117.5 -310.5v-471l31 -238h-344l-45 94q-155 -112 -326 -112q-170 0 -265 87t-95 255zM354 1370q0 91 65 152t163 61 q99 0 163 -61t64 -152q0 -90 -64 -151.5t-163 -61.5q-98 0 -163 61.5t-65 151.5zM391 350q0 -59 38 -88t103 -29q87 0 162 43v179q-98 12 -153 12q-84 0 -121 -37q-29 -29 -29 -80zM459 1370q0 -53 35.5 -87t87.5 -34t87.5 34t35.5 87t-35.5 88t-87.5 35t-87.5 -35 t-35.5 -88z" />
<glyph unicode="&#xe6;" horiz-adv-x="1775" d="M35 324q0 149 88 237q107 107 334 107q92 0 237 -23v33q0 69 -37.5 103t-132.5 34q-164 0 -338 -74l-82 283q105 41 231.5 66.5t244.5 25.5q250 0 342 -115q129 119 323 119q224 0 361 -159.5t137 -438.5v-98h-701q25 -168 256 -168q153 0 310 80l96 -244 q-95 -53 -212 -81.5t-230 -28.5q-266 0 -414 127q-204 -127 -406 -127q-186 0 -296.5 87.5t-110.5 254.5zM391 350q0 -56 38.5 -85t102.5 -29q99 0 189 55q-28 76 -37 164q-90 12 -143 12q-84 0 -121 -37q-29 -29 -29 -80zM1042 647h338q-9 93 -52 142t-116 49 q-72 0 -115.5 -49.5t-54.5 -141.5z" />
<glyph unicode="&#xe7;" horiz-adv-x="1013" d="M37 549q0 259 157 414t420 155q188 0 367 -74l-82 -327q-153 67 -272 67q-105 0 -165.5 -63.5t-60.5 -167.5q0 -114 59.5 -177t170.5 -63q110 0 276 74l82 -311q-178 -84 -346 -94l-35 -48q94 -1 135 -29t41 -81q0 -168 -391 -184l-14 104q108 7 148 19t40 34 q0 45 -102 19l-55 57l79 113q-210 29 -331 179t-121 384z" />
<glyph unicode="&#xe8;" horiz-adv-x="1132" d="M39 543q0 134 40.5 243.5t112 182t169.5 112t212 39.5q244 0 385.5 -158t141.5 -440v-98h-699q22 -168 254 -168q70 0 154 21t158 59l94 -244q-93 -53 -210 -81.5t-230 -28.5q-275 0 -428.5 140t-153.5 421zM123 1403h444l156 -236h-250zM401 647h338q-9 93 -52 142 t-116 49q-72 0 -116.5 -49.5t-53.5 -141.5z" />
<glyph unicode="&#xe9;" horiz-adv-x="1132" d="M39 543q0 134 40.5 243.5t112 182t169.5 112t212 39.5q244 0 385.5 -158t141.5 -440v-98h-699q22 -168 254 -168q70 0 154 21t158 59l94 -244q-93 -53 -210 -81.5t-230 -28.5q-275 0 -428.5 140t-153.5 421zM401 647h338q-9 93 -52 142t-116 49q-72 0 -116.5 -49.5 t-53.5 -141.5zM428 1167l156 236h442l-350 -236h-248z" />
<glyph unicode="&#xea;" horiz-adv-x="1132" d="M39 543q0 134 40.5 243.5t112 182t169.5 112t212 39.5q244 0 385.5 -158t141.5 -440v-98h-699q22 -168 254 -168q70 0 154 21t158 59l94 -244q-93 -53 -210 -81.5t-230 -28.5q-275 0 -428.5 140t-153.5 421zM227 1167v2l211 250h273l209 -250v-2h-226l-123 90l-122 -90 h-222zM401 647h338q-9 93 -52 142t-116 49q-72 0 -116.5 -49.5t-53.5 -141.5z" />
<glyph unicode="&#xeb;" horiz-adv-x="1132" d="M39 543q0 134 40.5 243.5t112 182t169.5 112t212 39.5q244 0 385.5 -158t141.5 -440v-98h-699q22 -168 254 -168q70 0 154 21t158 59l94 -244q-93 -53 -210 -81.5t-230 -28.5q-275 0 -428.5 140t-153.5 421zM248 1167v267h276v-267h-276zM401 647h338q-9 93 -52 142 t-116 49q-72 0 -116.5 -49.5t-53.5 -141.5zM623 1167v267h276v-267h-276z" />
<glyph unicode="&#xec;" horiz-adv-x="555" d="M-176 1391h444l156 -236h-250zM82 0v1098h391v-1098h-391z" />
<glyph unicode="&#xed;" horiz-adv-x="555" d="M82 0v1098h391v-1098h-391zM131 1155l156 236h442l-350 -236h-248z" />
<glyph unicode="&#xee;" horiz-adv-x="555" d="M-70 1155v2l211 250h273l209 -250v-2h-226l-123 90l-122 -90h-222zM82 0v1098h391v-1098h-391z" />
<glyph unicode="&#xef;" horiz-adv-x="555" d="M-49 1155v266h276v-266h-276zM82 0v1098h391v-1098h-391zM326 1155v266h276v-266h-276z" />
<glyph unicode="&#xf0;" horiz-adv-x="1148" d="M37 485q0 231 122.5 361.5t336.5 130.5q110 0 223 -37q-35 88 -115 145l-53 -51h-301l153 148q-63 21 -167 47l147 272q159 -37 262 -82l70 68h327l-200 -182q137 -111 200.5 -272.5t63.5 -383.5q0 -316 -146.5 -494t-404.5 -178q-238 0 -378 137t-140 371zM391 489 q0 -95 42.5 -146.5t121.5 -51.5q94 0 148.5 84t54.5 268v21q-91 36 -178 36q-86 0 -137.5 -54.5t-51.5 -156.5z" />
<glyph unicode="&#xf1;" horiz-adv-x="1210" d="M80 0v1098h305l61 -117q183 133 357 133q163 0 248.5 -88.5t85.5 -261.5v-764h-394v668q0 102 -96 102q-79 0 -176 -65v-705h-391zM229 1196q40 144 94 204t121 60q38 0 73.5 -10.5t96.5 -38.5q93 -45 134 -45q29 0 49 19t47 77l160 -43q-42 -144 -95.5 -204t-120.5 -60 q-38 0 -73.5 10.5t-96.5 38.5q-93 45 -133 45q-29 0 -50 -19.5t-46 -76.5z" />
<glyph unicode="&#xf2;" horiz-adv-x="1179" d="M39 547q0 265 154.5 419t398.5 154q242 0 395.5 -153.5t153.5 -417.5q0 -175 -72.5 -306t-196.5 -198.5t-282 -67.5q-119 0 -220.5 39t-174.5 111t-114.5 180t-41.5 240zM137 1403h445l155 -236h-250zM395 549q0 -116 53 -184t144 -68q89 0 140.5 66.5t51.5 183.5 t-52.5 185.5t-143.5 68.5t-142 -67t-51 -185z" />
<glyph unicode="&#xf3;" horiz-adv-x="1179" d="M39 547q0 265 154.5 419t398.5 154q242 0 395.5 -153.5t153.5 -417.5q0 -175 -72.5 -306t-196.5 -198.5t-282 -67.5q-119 0 -220.5 39t-174.5 111t-114.5 180t-41.5 240zM395 549q0 -116 53 -184t144 -68q89 0 140.5 66.5t51.5 183.5t-52.5 185.5t-143.5 68.5t-142 -67 t-51 -185zM442 1167l156 236h442l-350 -236h-248z" />
<glyph unicode="&#xf4;" horiz-adv-x="1179" d="M39 547q0 265 154.5 419t398.5 154q242 0 395.5 -153.5t153.5 -417.5q0 -175 -72.5 -306t-196.5 -198.5t-282 -67.5q-119 0 -220.5 39t-174.5 111t-114.5 180t-41.5 240zM242 1167v2l211 250h272l209 -250v-2h-225l-123 90l-123 -90h-221zM395 549q0 -116 53 -184 t144 -68q89 0 140.5 66.5t51.5 183.5t-52.5 185.5t-143.5 68.5t-142 -67t-51 -185z" />
<glyph unicode="&#xf5;" horiz-adv-x="1179" d="M39 547q0 265 154.5 419t398.5 154q242 0 395.5 -153.5t153.5 -417.5q0 -175 -72.5 -306t-196.5 -198.5t-282 -67.5q-119 0 -220.5 39t-174.5 111t-114.5 180t-41.5 240zM211 1196q40 144 94 204t121 60q38 0 73.5 -10.5t96.5 -38.5q93 -45 133 -45q29 0 49 19t47 77 l160 -43q-42 -144 -95.5 -204t-119.5 -60q-38 0 -73.5 10.5t-96.5 38.5q-93 45 -133 45q-29 0 -50 -19.5t-46 -76.5zM395 549q0 -116 53 -184t144 -68q89 0 140.5 66.5t51.5 183.5t-52.5 185.5t-143.5 68.5t-142 -67t-51 -185z" />
<glyph unicode="&#xf6;" horiz-adv-x="1179" d="M39 547q0 265 154.5 419t398.5 154q242 0 395.5 -153.5t153.5 -417.5q0 -175 -72.5 -306t-196.5 -198.5t-282 -67.5q-119 0 -220.5 39t-174.5 111t-114.5 180t-41.5 240zM262 1167v267h277v-267h-277zM395 549q0 -116 53 -184t144 -68q89 0 140.5 66.5t51.5 183.5 t-52.5 185.5t-143.5 68.5t-142 -67t-51 -185zM637 1167v267h276v-267h-276z" />
<glyph unicode="&#xf7;" horiz-adv-x="1140" d="M80 584v286l489 -6l490 6v-286l-490 4zM410 172v289h319v-289h-319zM410 991v289h319v-289h-319z" />
<glyph unicode="&#xf8;" horiz-adv-x="1179" d="M37 -104l156 233q-154 157 -154 418q0 265 154.5 419t398.5 154q126 0 235 -45l82 125h236l-158 -233q154 -154 154 -418q0 -175 -72.5 -306t-196.5 -198.5t-282 -67.5q-124 0 -238 46l-80 -127h-235zM395 549q0 -72 21 -127l237 369q-30 12 -65 12q-91 0 -142 -67.5 t-51 -186.5zM524 305q33 -10 68 -10q89 0 140.5 67.5t51.5 184.5q0 71 -22 129z" />
<glyph unicode="&#xf9;" horiz-adv-x="1210" d="M76 334v764h391v-668q0 -102 98 -102q77 0 174 65v705h391v-1098h-305l-61 117q-89 -64 -172.5 -99.5t-183.5 -35.5q-163 0 -247.5 89.5t-84.5 262.5zM150 1391h444l156 -236h-250z" />
<glyph unicode="&#xfa;" horiz-adv-x="1210" d="M76 334v764h391v-668q0 -102 98 -102q77 0 174 65v705h391v-1098h-305l-61 117q-89 -64 -172.5 -99.5t-183.5 -35.5q-163 0 -247.5 89.5t-84.5 262.5zM457 1155l155 236h443l-350 -236h-248z" />
<glyph unicode="&#xfb;" horiz-adv-x="1210" d="M76 334v764h391v-668q0 -102 98 -102q77 0 174 65v705h391v-1098h-305l-61 117q-89 -64 -172.5 -99.5t-183.5 -35.5q-163 0 -247.5 89.5t-84.5 262.5zM256 1155v2l211 250h272l209 -250v-2h-225l-123 90l-123 -90h-221z" />
<glyph unicode="&#xfc;" horiz-adv-x="1210" d="M76 334v764h391v-668q0 -102 98 -102q77 0 174 65v705h391v-1098h-305l-61 117q-89 -64 -172.5 -99.5t-183.5 -35.5q-163 0 -247.5 89.5t-84.5 262.5zM276 1155v266h277v-266h-277zM651 1155v266h277v-266h-277z" />
<glyph unicode="&#xfd;" horiz-adv-x="1169" d="M14 1098h406l182 -668l174 668h398l-283 -840q-36 -104 -67.5 -174.5t-75.5 -132t-92.5 -100.5t-123.5 -74.5t-163.5 -60t-216.5 -50.5l-89 324q192 48 297 100zM446 1155l156 236h442l-350 -236h-248z" />
<glyph unicode="&#xfe;" horiz-adv-x="1220" d="M80 -324v1811h391v-469q125 96 274 96q192 0 313.5 -146.5t121.5 -418.5q0 -268 -128 -417.5t-335 -149.5q-123 0 -246 63v-369h-391zM471 342q73 -45 150 -45q88 0 136 63.5t48 190.5q0 124 -46.5 187t-129.5 63q-81 0 -158 -62v-397z" />
<glyph unicode="&#xff;" horiz-adv-x="1169" d="M14 1098h406l182 -668l174 668h398l-283 -840q-36 -104 -67.5 -174.5t-75.5 -132t-92.5 -100.5t-123.5 -74.5t-163.5 -60t-216.5 -50.5l-89 324q192 48 297 100zM266 1155v266h277v-266h-277zM641 1155v266h277v-266h-277z" />
<glyph unicode="&#x152;" horiz-adv-x="2138" d="M47 713q0 187 62.5 327t179 225.5t272 127t350.5 41.5h1153v-340h-702v-195h620v-334h-620v-223h719v-342h-1186q-151 0 -279 25.5t-234 81t-179.5 138.5t-114.5 201.5t-41 266.5zM471 717q0 -203 102 -292t304 -89h75v762h-71q-203 0 -306.5 -88.5t-103.5 -292.5z" />
<glyph unicode="&#x153;" horiz-adv-x="1878" d="M39 547q0 132 41 241t114 181t173 111.5t217 39.5q241 0 379 -153q135 153 368 153q237 0 375.5 -158t138.5 -440v-98h-698q22 -168 254 -168q154 0 311 80l94 -244q-93 -53 -209 -81.5t-229 -28.5q-277 0 -414 143q-139 -148 -374 -148q-238 0 -389.5 153.5 t-151.5 416.5zM395 549q0 -116 53 -184t144 -68q89 0 140.5 66.5t51.5 183.5t-52.5 185.5t-143.5 68.5t-142 -67t-51 -185zM1147 647h338q-9 93 -52 142t-116 49q-72 0 -116.5 -49.5t-53.5 -141.5z" />
<glyph unicode="&#x178;" horiz-adv-x="1409" d="M-14 1430v4h458l263 -535l264 535h452v-4l-512 -924v-506h-415v506zM360 1493v260h281v-260h-281zM764 1493v260h280v-260h-280z" />
<glyph unicode="&#x2c6;" horiz-adv-x="1024" d="M166 1155v2l211 250h272l209 -250v-2h-225l-123 90l-123 -90h-221z" />
<glyph unicode="&#x2dc;" horiz-adv-x="1024" d="M125 1184q40 144 94 204t121 60q38 0 73.5 -10.5t96.5 -38.5q93 -45 133 -45q29 0 49 19t47 77l160 -43q-42 -144 -95.5 -204t-119.5 -60q-38 0 -73.5 10.5t-96.5 38.5q-93 45 -133 45q-29 0 -50 -19.5t-46 -76.5z" />
<glyph unicode="&#x2000;" horiz-adv-x="898" />
<glyph unicode="&#x2001;" horiz-adv-x="1796" />
<glyph unicode="&#x2002;" horiz-adv-x="898" />
<glyph unicode="&#x2003;" horiz-adv-x="1796" />
<glyph unicode="&#x2004;" horiz-adv-x="598" />
<glyph unicode="&#x2005;" horiz-adv-x="449" />
<glyph unicode="&#x2006;" horiz-adv-x="299" />
<glyph unicode="&#x2007;" horiz-adv-x="299" />
<glyph unicode="&#x2008;" horiz-adv-x="224" />
<glyph unicode="&#x2009;" horiz-adv-x="359" />
<glyph unicode="&#x200a;" horiz-adv-x="99" />
<glyph unicode="&#x2010;" horiz-adv-x="688" d="M59 457v323h570v-323h-570z" />
<glyph unicode="&#x2011;" horiz-adv-x="688" d="M59 457v323h570v-323h-570z" />
<glyph unicode="&#x2012;" horiz-adv-x="688" d="M59 457v323h570v-323h-570z" />
<glyph unicode="&#x2013;" horiz-adv-x="980" d="M59 461v315h863v-315h-863z" />
<glyph unicode="&#x2014;" horiz-adv-x="1646" d="M59 461v315h1528v-315h-1528z" />
<glyph unicode="&#x2018;" horiz-adv-x="542" d="M33 1411v23h370q0 -210 28 -339.5t97 -260.5l-149 -101q-84 66 -142 127.5t-107 142.5t-73 182t-24 226z" />
<glyph unicode="&#x2019;" horiz-adv-x="542" d="M14 834q69 131 97 260.5t28 339.5h371v-23q0 -125 -24 -226t-73 -182t-107 -142.5t-142 -127.5z" />
<glyph unicode="&#x201a;" horiz-adv-x="509" d="M-41 -195q69 130 97 261t28 340h371v-21q0 -125 -24 -227t-73 -183t-107 -142.5t-142 -127.5z" />
<glyph unicode="&#x201c;" horiz-adv-x="978" d="M33 1409v25h350q0 -212 27 -343t96 -264l-139 -94q-85 70 -141.5 132t-103 142.5t-68 179t-21.5 222.5zM494 1409v25h348q0 -210 27.5 -341.5t95.5 -265.5l-140 -94q-84 70 -140 132t-102 142.5t-67.5 179t-21.5 222.5z" />
<glyph unicode="&#x201d;" horiz-adv-x="978" d="M14 827q68 134 95.5 265.5t27.5 341.5h350v-25q0 -124 -22 -222.5t-68 -179t-102.5 -142.5t-140.5 -132zM475 827q67 133 94 264.5t27 342.5h350v-25q0 -124 -21.5 -222.5t-68 -179t-103 -142.5t-141.5 -132z" />
<glyph unicode="&#x201e;" horiz-adv-x="950" d="M-37 -201q69 132 96 264t27 343h350v-25q0 -124 -21.5 -222.5t-68 -179t-103 -142.5t-141.5 -132zM424 -201q68 134 95.5 266t27.5 341h348v-25q0 -124 -21.5 -222.5t-68 -179t-102.5 -142.5t-140 -132z" />
<glyph unicode="&#x2022;" horiz-adv-x="993" d="M160 727q0 140 98.5 239t237.5 99q140 0 239 -99.5t99 -238.5t-99 -237.5t-239 -98.5t-238 98.5t-98 237.5z" />
<glyph unicode="&#x2026;" horiz-adv-x="1497" d="M66 0v391h368v-391h-368zM565 0v391h369v-391h-369zM1063 0v391h371v-391h-371z" />
<glyph unicode="&#x202f;" horiz-adv-x="359" />
<glyph unicode="&#x2039;" horiz-adv-x="673" d="M51 522v193l441 372l129 -118l-261 -351l261 -346l-129 -120z" />
<glyph unicode="&#x203a;" horiz-adv-x="673" d="M53 270l260 348l-260 349l129 120l441 -370v-193l-441 -372z" />
<glyph unicode="&#x205f;" horiz-adv-x="449" />
<glyph unicode="&#x20ac;" horiz-adv-x="1288" d="M27 469v193h133v55v53h-133v195h159q57 238 232 363.5t471 125.5q183 0 362 -55l-59 -346q-165 47 -283 47q-221 0 -297 -135h471v-195h-520q-2 -18 -2 -53q0 -39 2 -55h520v-193h-471q79 -135 297 -135q124 0 283 47l59 -346q-182 -55 -364 -55q-591 0 -703 489h-157z " />
<glyph unicode="&#x2122;" horiz-adv-x="1226" d="M47 1307v127h455v-127h-154v-357h-147v357h-154zM545 950l28 484h199l82 -277l82 277h201l28 -484h-143l-14 279l-86 -279h-138l-86 279l-14 -279h-139z" />
<glyph unicode="&#x25fc;" horiz-adv-x="1095" d="M0 0v1096h1096v-1096h-1096z" />
<glyph unicode="&#xfb01;" horiz-adv-x="1396" d="M18 762v299h162v53q0 186 100.5 285.5t321.5 99.5q120 0 240 -24v-287q-92 20 -160 20q-119 0 -119 -110v-37h256v-299h-252v-762h-387v762h-162zM915 1184v258h408v-258h-408zM924 0v1098h391v-1098h-391z" />
<glyph unicode="&#xfb02;" horiz-adv-x="1396" d="M18 762v299h162v53q0 186 100.5 285.5t321.5 99.5q120 0 240 -24v-287q-92 20 -160 20q-119 0 -119 -110v-37h256v-299h-252v-762h-387v762h-162zM924 0v1487h391v-1487h-391z" />
</font>
</defs>
</svg>
