<?xml version="1.0" standalone="no"?>
<!DOCTYPE svg PUBLIC "-//W3C//DTD SVG 1.1//EN" "http://www.w3.org/Graphics/SVG/1.1/DTD/svg11.dtd" >
<svg xmlns="http://www.w3.org/2000/svg">
<metadata></metadata>
<defs>
<font id="retina_displaysemibold" horiz-adv-x="1093" >
<font-face units-per-em="2048" ascent="1638" descent="-410" />
<missing-glyph horiz-adv-x="509" />
<glyph horiz-adv-x="0" />
<glyph horiz-adv-x="682" />
<glyph unicode=" "  horiz-adv-x="509" />
<glyph unicode="&#x09;" horiz-adv-x="509" />
<glyph unicode="&#xa0;" horiz-adv-x="509" />
<glyph unicode="!" horiz-adv-x="475" d="M104 1008v426h267v-426l-64 -623h-139zM109 0v248h258v-248h-258z" />
<glyph unicode="&#x22;" horiz-adv-x="864" d="M68 940l122 494h261v-4l-265 -525zM430 940l123 494h260v-4l-262 -525z" />
<glyph unicode="#" horiz-adv-x="1269" d="M53 403v154l273 -12l59 364l-256 11v151l281 -10l61 383h139l-63 -389l282 -11l64 400h141l-65 -406l248 -8v-153l-273 10l-59 -363l256 -10v-154l-281 11l-61 -381h-140l62 387l-281 10l-63 -397h-141l65 403zM465 541l280 -13l60 365l-283 10z" />
<glyph unicode="$" horiz-adv-x="1161" d="M35 127l67 195q174 -94 357 -123l63 438q-208 51 -302.5 147t-94.5 242q0 182 130.5 294t367.5 116l24 170h139l-26 -179q154 -22 321 -96l-65 -194q-146 73 -297 98l-60 -414q213 -53 318.5 -150.5t105.5 -250.5q0 -201 -142 -310t-386 -112l-33 -227h-139l35 235 q-194 28 -383 121zM348 1047q0 -73 45.5 -119.5t157.5 -79.5l57 395q-128 -4 -194 -58t-66 -138zM569 190q134 2 213.5 54t79.5 153q0 74 -53.5 125t-179.5 88z" />
<glyph unicode="%" horiz-adv-x="1449" d="M68 1083q0 163 86.5 264t212.5 101q127 0 214 -101t87 -264q0 -164 -87 -265t-214 -101t-213 100.5t-86 265.5zM215 1083q0 -106 43 -169.5t109 -63.5q67 0 110 63t43 170t-43 169.5t-110 62.5q-66 0 -109 -63t-43 -169zM225 37l461 704l424 715l113 -59l-461 -703 l-426 -717zM782 350q0 165 86.5 266t212.5 101t212.5 -101t86.5 -266q0 -163 -86.5 -263.5t-212.5 -100.5t-212.5 100.5t-86.5 263.5zM930 350q0 -106 42.5 -168.5t108.5 -62.5q67 0 109.5 62t42.5 169t-42.5 170.5t-109.5 63.5q-66 0 -108.5 -63.5t-42.5 -170.5z" />
<glyph unicode="&#x26;" horiz-adv-x="1425" d="M59 381q0 299 334 471q-104 136 -104 268q0 149 105.5 240.5t297.5 91.5q211 0 418 -106l-82 -209q-182 98 -311 98q-78 0 -124 -41.5t-46 -106.5q0 -47 22 -87.5t70 -98.5l319 -375q78 119 136 285h239v-2q-88 -261 -229 -453l299 -354v-2h-285l-168 188 q-206 -206 -469 -206q-187 0 -304.5 107.5t-117.5 291.5zM303 403q0 -96 60 -154.5t151 -58.5q157 0 299 158l-297 352q-109 -60 -161 -137t-52 -160z" />
<glyph unicode="'" horiz-adv-x="499" d="M68 940l122 494h269v-4l-262 -527z" />
<glyph unicode="(" horiz-adv-x="819" d="M100 621q0 556 574 866l82 -125q-221 -150 -326.5 -325.5t-105.5 -415.5q0 -241 105.5 -416.5t326.5 -323.5l-82 -127q-574 310 -574 867z" />
<glyph unicode=")" horiz-adv-x="819" d="M63 -119q221 149 327 324.5t106 415.5q0 242 -106 417t-327 324l82 127q574 -313 574 -868q0 -557 -574 -867z" />
<glyph unicode="*" horiz-adv-x="692" d="M66 1182l43 133l192 -119l-10 -31zM129 983l174 147l27 -18l-86 -211zM276 1438h140l-54 -221h-32zM362 1112l25 18l174 -147l-112 -82zM391 1196l193 119l43 -133l-226 -17z" />
<glyph unicode="+" d="M94 635v184h355v369h196v-369h356v-184h-356v-369h-196v369h-355z" />
<glyph unicode="," horiz-adv-x="417" d="M-20 -221q66 117 93 224.5t27 270.5h242v-16q0 -178 -67.5 -302t-200.5 -241z" />
<glyph unicode="-" horiz-adv-x="696" d="M76 520v207h545v-207h-545z" />
<glyph unicode="." horiz-adv-x="417" d="M84 0v274h252v-274h-252z" />
<glyph unicode="/" horiz-adv-x="776" d="M-53 -266l680 1894h176l-678 -1894h-178z" />
<glyph unicode="0" horiz-adv-x="1286" d="M84 717q0 178 42 319.5t117 233.5t177 140t223 48q122 0 224 -48t177.5 -140t117.5 -233.5t42 -319.5q0 -179 -42 -321t-117.5 -233.5t-177.5 -139.5t-224 -48t-223.5 48t-176.5 139.5t-117 233.5t-42 321zM334 719q0 -261 86 -397t225 -136q136 0 222.5 134.5 t86.5 394.5q0 261 -87 396.5t-226 135.5q-136 0 -221.5 -134t-85.5 -394z" />
<glyph unicode="1" horiz-adv-x="927" d="M80 0v209h278v977l-231 -78l-47 213l348 123h184v-1235h262v-209h-794z" />
<glyph unicode="2" horiz-adv-x="1148" d="M53 178l561 559q90 86 132 154.5t42 140.5q0 83 -55 139t-151 56q-93 0 -184 -47.5t-197 -143.5l-123 189q236 229 530 229q209 0 326 -109t117 -282q0 -134 -65.5 -243t-215.5 -245l-352 -354h661v-221h-981z" />
<glyph unicode="3" horiz-adv-x="1118" d="M61 1323q269 131 537 131q204 0 317 -83.5t113 -225.5q0 -137 -97 -226t-294 -155q214 -28 310.5 -104.5t96.5 -221.5q0 -112 -66 -195.5t-194.5 -138t-306 -83.5t-411.5 -37v206q260 11 419 44.5t228 87t69 133.5q0 63 -45 102.5t-154 61t-290 22.5l-25 162 q272 75 386 144t114 159q0 68 -56.5 105.5t-158.5 37.5q-89 0 -201 -30t-217 -82z" />
<glyph unicode="4" horiz-adv-x="1210" d="M41 502l616 942h328v-942h189v-197h-189v-305h-246v305h-694zM270 500h475v708z" />
<glyph unicode="5" horiz-adv-x="1150" d="M90 182q265 25 430.5 76.5t234 121t68.5 163.5q0 85 -54.5 131.5t-152.5 46.5q-134 0 -311 -107l-188 76l45 744h891v-209h-686l-27 -396q162 89 342 89q182 0 286.5 -96.5t104.5 -272.5q0 -259 -234 -396.5t-716 -179.5z" />
<glyph unicode="6" horiz-adv-x="1175" d="M80 575q0 631 721 895l102 -196q-443 -169 -555 -428q162 76 328 76q194 0 313 -116.5t119 -328.5q0 -228 -139.5 -365t-366.5 -137q-241 0 -381.5 158t-140.5 442zM317 547q0 -168 78 -269.5t211 -101.5q115 0 189.5 79t74.5 210q0 134 -75.5 202t-204.5 68 q-131 0 -264 -63q-9 -58 -9 -125z" />
<glyph unicode="7" horiz-adv-x="1124" d="M78 1210v224h981v-240l-645 -1219l-246 76l623 1159h-713z" />
<glyph unicode="8" horiz-adv-x="1210" d="M72 389q0 261 278 356q-241 96 -241 330q0 159 133.5 269t361.5 110t362 -110t134 -269q0 -234 -240 -330q279 -96 279 -356q0 -179 -147.5 -294t-387.5 -115q-241 0 -386.5 114.5t-145.5 294.5zM307 416q0 -110 83 -180t214 -70q132 0 215.5 70t83.5 180 q0 111 -84 179.5t-215 68.5q-129 0 -213 -68.5t-84 -179.5zM340 1049q0 -101 75.5 -162.5t188.5 -61.5t189.5 62t76.5 162q0 96 -72.5 157.5t-193.5 61.5q-120 0 -192 -62t-72 -157z" />
<glyph unicode="9" horiz-adv-x="1175" d="M66 956q0 228 139 365t366 137q241 0 382 -158t141 -442q0 -631 -721 -895l-103 197q438 168 555 426q-169 -74 -327 -74q-194 0 -313 116t-119 328zM303 969q0 -134 76 -202.5t205 -68.5q133 0 264 62q8 78 8 127q0 168 -78 269t-211 101q-115 0 -189.5 -78.5 t-74.5 -209.5z" />
<glyph unicode=":" horiz-adv-x="417" d="M84 0v274h252v-274h-252zM84 797v274h252v-274h-252z" />
<glyph unicode=";" horiz-adv-x="417" d="M-29 -221q66 115 92.5 222.5t26.5 272.5h250v-16q0 -177 -69 -301t-205 -242zM90 797v274h252v-274h-252z" />
<glyph unicode="&#x3c;" d="M96 631v192l889 396v-213l-668 -279l668 -276v-215z" />
<glyph unicode="=" d="M104 440v178h887v-178h-887zM104 834v180h887v-180h-887z" />
<glyph unicode="&#x3e;" d="M111 236v213l667 278l-667 277v215l888 -396v-192z" />
<glyph unicode="?" horiz-adv-x="1095" d="M37 1284q277 170 555 170q206 0 328 -97.5t122 -269.5q0 -164 -112 -268.5t-355 -191.5l-24 -242h-141l-41 371q241 85 333.5 152.5t92.5 158.5q0 79 -60 125.5t-162 46.5q-200 0 -444 -147zM350 0v248h258v-248h-258z" />
<glyph unicode="@" horiz-adv-x="1517" d="M78 397q0 223 74 422.5t198 340.5t292.5 223.5t352.5 82.5q227 0 341 -105t114 -284q0 -108 -37 -250l-174 -696h-121l-31 102q-126 -102 -262 -102q-126 0 -205 85t-79 245q0 155 70.5 284.5t201.5 207t297 77.5q72 0 135 -18q6 34 6 71q0 115 -72.5 180.5t-220.5 65.5 q-98 0 -192.5 -33.5t-175.5 -93.5t-149.5 -146t-117 -187.5t-75.5 -222t-27 -245.5q0 -288 150 -438.5t413 -150.5q152 0 267 36l-41 -124q-117 -31 -252 -31q-322 0 -501 184t-179 520zM748 481q0 -96 46 -145t126 -49q81 0 161 57l129 518q-49 17 -98 17 q-102 0 -186.5 -56t-131 -147t-46.5 -195z" />
<glyph unicode="A" horiz-adv-x="1501" d="M41 0l561 1450h297l559 -1450h-272l-111 297h-655l-109 -297h-270zM498 510h499l-249 678z" />
<glyph unicode="B" horiz-adv-x="1355" d="M143 0v1434h594q250 0 376 -93.5t126 -255.5q0 -73 -24.5 -131.5t-69 -99t-98.5 -67.5t-121 -44q173 -35 266.5 -117t93.5 -231q0 -188 -145 -291.5t-406 -103.5h-592zM397 201h338q132 0 207.5 58t75.5 161q0 106 -93 165.5t-261 59.5h-267v-444zM397 827h258 q146 0 232 59.5t86 162.5q0 86 -64.5 134t-191.5 48h-320v-404z" />
<glyph unicode="C" horiz-adv-x="1308" d="M82 715q0 219 93 388t256 260t370 91q125 0 225.5 -21.5t206.5 -64.5l-55 -229q-192 82 -365 82q-209 0 -338 -139t-129 -363q0 -231 130 -368.5t349 -137.5q157 0 359 82l55 -221q-218 -94 -436 -94q-160 0 -293 51t-228 144.5t-147.5 232t-52.5 307.5z" />
<glyph unicode="D" horiz-adv-x="1449" d="M143 0v1434h428q176 0 320.5 -44.5t251 -131.5t165 -224.5t58.5 -314.5q0 -178 -59 -316t-166.5 -226t-254 -132.5t-325.5 -44.5h-418zM399 225h183q244 0 383 124t139 366t-138 367.5t-386 125.5h-181v-983z" />
<glyph unicode="E" horiz-adv-x="1284" d="M143 0v1434h1051v-215h-797v-379h711v-211h-711v-414h811v-215h-1065z" />
<glyph unicode="F" horiz-adv-x="1228" d="M143 0v1434h1043v-222h-787v-424h600v-221h-600v-567h-256z" />
<glyph unicode="G" horiz-adv-x="1456" d="M82 715q0 229 94.5 397.5t259.5 255t379 86.5q241 0 475 -104l-78 -217q-208 96 -399 96q-217 0 -342 -141t-125 -375q0 -243 125 -380.5t346 -137.5q153 0 277 57v340h-355v199h598v-680q-110 -59 -249 -94t-285 -35q-335 0 -528 193.5t-193 539.5z" />
<glyph unicode="H" horiz-adv-x="1470" d="M143 0v1434h258v-578h668v578h258v-1434h-258v614h-668v-614h-258z" />
<glyph unicode="I" horiz-adv-x="557" d="M150 0v1434h260v-1434h-260z" />
<glyph unicode="J" horiz-adv-x="1009" d="M35 35l49 221q130 -47 244 -47q144 0 217 84.5t73 249.5v891h259v-881v-24q0 -261 -125 -400q-131 -145 -390 -145q-181 0 -327 51z" />
<glyph unicode="K" horiz-adv-x="1363" d="M143 0v1434h258v-629h25l590 629h321v-2l-663 -695l680 -735v-2h-324l-604 666h-25v-666h-258z" />
<glyph unicode="L" horiz-adv-x="1142" d="M143 0v1434h258v-1203h701v-231h-959z" />
<glyph unicode="M" horiz-adv-x="1896" d="M111 0l77 1434h351l407 -1076l408 1076h354l80 -1434h-256l-55 1090l-410 -1092h-246l-411 1092l-54 -1090h-245z" />
<glyph unicode="N" horiz-adv-x="1482" d="M143 0v1434h283l672 -1026l-2 55v971h245v-1434h-274l-682 1042l2 -55v-987h-244z" />
<glyph unicode="O" horiz-adv-x="1517" d="M82 715q0 333 189 539t491 206q197 0 350 -91.5t238.5 -260.5t85.5 -389q0 -333 -189 -539.5t-489 -206.5t-488 205t-188 537zM346 719q0 -236 114.5 -379t301.5 -143q184 0 298 142.5t114 375.5q0 235 -115.5 378.5t-300.5 143.5t-298.5 -142.5t-113.5 -375.5z" />
<glyph unicode="P" horiz-adv-x="1286" d="M143 0v1434h482q294 0 448 -120t154 -356q0 -256 -165 -385t-456 -129h-207v-444h-256zM399 653h209q174 0 267.5 73.5t93.5 219.5q0 275 -348 275h-222v-568z" />
<glyph unicode="Q" horiz-adv-x="1517" d="M82 717q0 331 189.5 537t490.5 206q299 0 486.5 -204.5t187.5 -534.5q0 -179 -58 -325t-164 -246l291 -302v-2h-334l-165 174q-121 -43 -248 -43q-148 0 -273.5 54t-214 150t-138.5 234t-50 302zM346 719q0 -236 114.5 -379t301.5 -143q184 0 298 142.5t114 375.5 q0 235 -115.5 378.5t-300.5 143.5t-298.5 -142.5t-113.5 -375.5z" />
<glyph unicode="R" horiz-adv-x="1390" d="M143 0v1434h555q280 0 423 -109.5t143 -312.5q0 -94 -32.5 -169.5t-90.5 -125.5t-124 -82t-147 -53q64 -26 108.5 -65t102.5 -118l310 -395v-4h-308l-266 358q-64 85 -124.5 118.5t-155.5 33.5h-140v-510h-254zM397 713h232q172 0 272 72t100 200q0 238 -315 238h-289 v-510z" />
<glyph unicode="S" horiz-adv-x="1312" d="M57 117l76 211q112 -60 251.5 -96.5t285.5 -36.5q147 0 226 52.5t79 143.5q0 83 -70.5 133.5t-261.5 100.5q-143 33 -235.5 67.5t-157.5 83t-93 113t-28 153.5q0 188 142 299t388 111q264 0 502 -106l-74 -211q-224 104 -448 104q-123 0 -189.5 -47.5t-66.5 -124.5 t66 -123t258 -94q290 -67 405 -160.5t115 -273.5q0 -209 -153 -322.5t-419 -113.5q-314 0 -598 137z" />
<glyph unicode="T" horiz-adv-x="1310" d="M39 1202v232h1233v-232h-488v-1202h-258v1202h-487z" />
<glyph unicode="U" horiz-adv-x="1452" d="M131 584v850h258v-856q0 -186 92.5 -283.5t245.5 -97.5q155 0 247.5 96.5t92.5 279.5v861h254v-850q0 -299 -160 -453t-436 -154q-275 0 -434.5 154.5t-159.5 452.5z" />
<glyph unicode="V" horiz-adv-x="1464" d="M41 1434h285l409 -1127l410 1127h276l-553 -1450h-272z" />
<glyph unicode="W" horiz-adv-x="2211" d="M51 1434h277l295 -1098l350 1098h276l348 -1100l297 1100h267l-414 -1446h-285l-356 1097l-358 -1097h-283z" />
<glyph unicode="X" horiz-adv-x="1402" d="M41 0v2l500 735l-478 695v2h293l346 -514l347 514h288v-2l-475 -693l500 -737v-2h-295l-369 549l-368 -549h-289z" />
<glyph unicode="Y" horiz-adv-x="1363" d="M12 1432v2h289l383 -639l383 639h285v-2l-541 -883v-549h-258v549z" />
<glyph unicode="Z" horiz-adv-x="1304" d="M74 0v213l805 1001h-766v220h1108v-213l-805 -1002h805v-219h-1147z" />
<glyph unicode="[" horiz-adv-x="837" d="M147 -221v1689l607 -34v-142l-402 19v-1374l402 18v-141z" />
<glyph unicode="\" horiz-adv-x="776" d="M-29 1628h179l679 -1894h-178z" />
<glyph unicode="]" horiz-adv-x="837" d="M84 -45l403 -18v1374l-403 -19v142l606 34v-1689l-606 35v141z" />
<glyph unicode="_" horiz-adv-x="1026" d="M-4 -102h1034v-103h-1034v103z" />
<glyph unicode="`" horiz-adv-x="1015" d="M264 1403h293l188 -236h-165z" />
<glyph unicode="a" horiz-adv-x="1107" d="M61 311q0 144 84 228q57 55 150.5 81.5t259.5 26.5q131 0 199 -14v65q0 98 -53 147.5t-173 49.5q-156 0 -335 -76l-56 180q216 86 428 86q220 0 325 -88.5t105 -277.5v-500l27 -219h-209l-43 117q-172 -133 -358 -133q-162 0 -256.5 84.5t-94.5 242.5zM285 328 q0 -87 55 -134t149 -47q135 0 265 99v256q-52 10 -154 10q-119 0 -178.5 -16t-93.5 -50q-43 -43 -43 -118z" />
<glyph unicode="b" horiz-adv-x="1169" d="M121 0v1487h244v-502q136 105 292 105q197 0 320 -147t123 -404q0 -260 -126 -408.5t-327 -148.5q-163 0 -305 108l-35 -90h-186zM365 256q108 -74 213 -74h8q128 0 204 93t76 264q0 163 -75.5 257.5t-198.5 94.5q-120 0 -227 -88v-547z" />
<glyph unicode="c" horiz-adv-x="987" d="M66 535q0 249 146.5 403t387.5 154q165 0 332 -72l-53 -205q-157 66 -275 66q-139 0 -224 -96.5t-85 -245.5q0 -157 84 -253t229 -96q112 0 277 72l53 -196q-178 -84 -354 -84q-235 0 -376.5 152t-141.5 401z" />
<glyph unicode="d" horiz-adv-x="1169" d="M70 532q0 261 127 409.5t333 148.5q140 0 275 -82v479h244v-1487h-189l-39 102q-142 -120 -315 -120q-191 0 -313.5 147.5t-122.5 402.5zM303 535q0 -165 75 -259t200 -94q118 0 227 86v547q-111 76 -223 76q-126 -2 -202.5 -94.5t-76.5 -261.5z" />
<glyph unicode="e" d="M66 530q0 252 138 408t353 156q221 0 351 -157.5t130 -416.5v-63h-745q9 -134 95 -215.5t226 -81.5q157 0 318 90l65 -158q-185 -110 -403 -110q-240 0 -384 143.5t-144 404.5zM293 606h520q-11 138 -79.5 221.5t-178.5 83.5q-109 0 -180 -84.5t-82 -220.5z" />
<glyph unicode="f" horiz-adv-x="784" d="M37 862v189h180v90q0 171 90 263.5t277 92.5q145 0 266 -41l-37 -176q-107 31 -188 31q-168 0 -168 -176v-84h301v-189h-299v-862h-242v862h-180z" />
<glyph unicode="g" horiz-adv-x="1169" d="M70 553q0 246 125.5 391.5t326.5 145.5q162 0 305 -109l33 90h189v-962q0 -441 -482 -441q-219 0 -432 72l39 170q191 -72 365 -72q268 0 268 230v61q-135 -98 -289 -98q-198 0 -323 140t-125 382zM303 553q0 -153 75 -243.5t197 -90.5q119 0 230 88v508q-111 76 -223 76 q-126 -2 -202.5 -90.5t-76.5 -247.5z" />
<glyph unicode="h" horiz-adv-x="1165" d="M121 0v1487h244v-518q167 118 344 118q168 0 256 -92.5t88 -273.5v-721h-244v666q0 101 -48.5 153.5t-142.5 52.5q-62 0 -130 -26t-123 -68v-778h-244z" />
<glyph unicode="i" horiz-adv-x="491" d="M117 1214v199h258v-199h-258zM123 0v1071h244v-1071h-244z" />
<glyph unicode="j" horiz-adv-x="491" d="M-51 -217q101 94 138.5 175t37.5 237v876h244v-881q0 -139 -28 -233.5t-78 -156t-144 -134.5zM117 1214v199h260v-199h-260z" />
<glyph unicode="k" horiz-adv-x="1095" d="M121 0v1487h244v-871h22l399 455h291l-465 -514l480 -555v-2h-295l-412 498h-20v-498h-244z" />
<glyph unicode="l" horiz-adv-x="491" d="M123 0v1487h244v-1487h-244z" />
<glyph unicode="m" horiz-adv-x="1832" d="M121 0v1071h188l41 -113q179 129 355 129q205 0 284 -141q205 141 387 141q166 0 255 -92t89 -272v-723h-243v666q0 101 -48.5 153.5t-140.5 52.5q-121 0 -260 -100q14 -40 14 -82v-690h-243v666q0 101 -47.5 153.5t-137.5 52.5q-61 0 -127.5 -26t-121.5 -68v-778h-244z " />
<glyph unicode="n" horiz-adv-x="1165" d="M121 0v1071h188l41 -113q176 129 359 129q168 0 256 -92.5t88 -273.5v-721h-244v666q0 101 -48.5 153.5t-142.5 52.5q-62 0 -130 -26t-123 -68v-778h-244z" />
<glyph unicode="o" horiz-adv-x="1146" d="M66 535q0 251 143.5 405t365.5 154q220 0 363 -153t143 -404t-144 -405.5t-364 -154.5q-223 0 -365 153t-142 405zM291 537q0 -158 79 -257.5t205 -99.5q124 0 202.5 98.5t78.5 256.5t-79 258t-204 100q-126 0 -204 -99t-78 -257z" />
<glyph unicode="p" horiz-adv-x="1169" d="M121 -324v1395h186l39 -100q147 119 316 119q193 0 315.5 -147.5t122.5 -403.5q0 -260 -127.5 -408.5t-333.5 -148.5q-141 0 -274 81v-387h-244zM365 256q108 -74 213 -74h8q128 0 204 93t76 264q0 163 -75.5 257.5t-198.5 94.5q-120 0 -227 -88v-547z" />
<glyph unicode="q" horiz-adv-x="1169" d="M70 532q0 260 125.5 409t326.5 149q162 0 305 -109l33 90h189v-1395h-244v410q-135 -104 -295 -104q-195 0 -317.5 147t-122.5 403zM303 535q0 -165 75 -259t200 -94q118 0 227 86v547q-111 76 -223 76q-126 -2 -202.5 -94.5t-76.5 -261.5z" />
<glyph unicode="r" horiz-adv-x="782" d="M121 0v1071h184l43 -180q158 194 386 194h11v-245q-209 -3 -380 -138v-702h-244z" />
<glyph unicode="s" horiz-adv-x="1030" d="M49 92l68 184q93 -48 203.5 -77t211.5 -29q94 0 148.5 33t54.5 90q0 54 -48 85.5t-195 67.5q-104 24 -172.5 48.5t-120 62t-74.5 89.5t-23 124q0 144 110 232t302 88q216 0 406 -91l-64 -182q-187 84 -348 84q-84 0 -130 -31t-46 -82q0 -52 48 -82t191 -67 q224 -54 308 -125.5t84 -206.5q0 -158 -114 -241.5t-317 -83.5q-128 0 -255 29.5t-228 80.5z" />
<glyph unicode="t" horiz-adv-x="839" d="M37 883v188h170v305h242v-305h321v-188h-321v-523q0 -87 45 -130.5t127 -43.5q69 0 149 25l4 -195q-102 -30 -217 -30q-173 0 -261.5 83t-88.5 261v553h-170z" />
<glyph unicode="u" horiz-adv-x="1165" d="M111 350v721h243v-665q0 -101 49.5 -154t143.5 -53q121 0 254 94v778h243v-1071h-188l-41 113q-179 -129 -360 -129q-167 0 -255.5 93t-88.5 273z" />
<glyph unicode="v" horiz-adv-x="1112" d="M29 1071h252l280 -823l277 823h247l-399 -1085h-258z" />
<glyph unicode="w" horiz-adv-x="1718" d="M37 1071h246l209 -784l247 784h244l248 -784l211 784h239l-319 -1081h-252l-252 776l-250 -776h-252z" />
<glyph unicode="x" horiz-adv-x="1118" d="M37 0v2l375 547l-361 522h266l242 -362l242 362h266l-362 -520l378 -549v-2h-266l-260 387l-256 -387h-264z" />
<glyph unicode="y" horiz-adv-x="1107" d="M41 1071h254l272 -784l267 784h247l-340 -903q-37 -101 -75 -171t-84.5 -123.5t-110.5 -90.5t-142 -64t-190 -51l-55 203q112 25 191.5 71t142.5 126z" />
<glyph unicode="z" horiz-adv-x="1032" d="M63 0v188l588 695h-555v188h865v-186l-588 -697h585v-188h-895z" />
<glyph unicode="{" horiz-adv-x="1153" d="M70 561v125l26 2q213 24 319.5 100t106.5 187q0 141 -190 225l20 123q306 120 699 160l22 -148q-258 -21 -491 -96q176 -92 176 -262q0 -246 -389 -354q389 -104 389 -353q0 -167 -176 -262q238 -73 491 -96l-22 -148q-393 40 -699 160l-20 123q190 84 190 227 q0 111 -106.5 187t-319.5 100h-26z" />
<glyph unicode="|" horiz-adv-x="550" d="M193 -266v1894h165v-1894h-165z" />
<glyph unicode="}" horiz-adv-x="1153" d="M80 -88q250 23 489 96q-174 96 -174 262q0 248 387 355q-387 104 -387 352q0 169 174 262q-234 75 -489 96l20 148q392 -39 699 -160l20 -123q-190 -86 -190 -225q0 -111 106.5 -187t319.5 -100l28 -2v-125h-28q-213 -24 -319.5 -100t-106.5 -187q0 -141 190 -227 l-20 -123q-307 -121 -699 -160z" />
<glyph unicode="&#xa1;" horiz-adv-x="475" d="M104 0v426l64 623h139l64 -623v-426h-267zM109 1186v248h258v-248h-258z" />
<glyph unicode="&#xa2;" horiz-adv-x="983" d="M76 735q0 205 132.5 339t354.5 140l31 228h139l-33 -236q100 -16 213 -65l-57 -180q-114 52 -194 61l-84 -573h4q128 0 278 67l58 -172q-188 -82 -355 -82l-37 -270h-139l41 284q-161 36 -256.5 157.5t-95.5 301.5zM295 737q0 -98 44 -169.5t128 -100.5l80 559 q-112 -12 -182 -90.5t-70 -198.5z" />
<glyph unicode="&#xa3;" horiz-adv-x="1177" d="M74 164q72 68 114 150t66 218l12 80h-184v195h215l31 197q35 206 145 319q129 129 354 129q157 0 289 -49l-51 -215q-125 41 -221 41q-123 0 -197 -74q-66 -69 -84 -194l-24 -154h403v-195h-434l-19 -114q-13 -97 -43.5 -162t-83.5 -123h732v-213h-975z" />
<glyph unicode="&#xa5;" horiz-adv-x="1243" d="M29 1434h278l316 -619l317 619h274l-438 -783h320v-131h-348v-170h348v-129h-348v-221h-252v221h-349v129h349v170h-349v131h318z" />
<glyph unicode="&#xa7;" horiz-adv-x="1181" d="M70 721q0 91 58 157.5t173 125.5q-88 68 -88 180q0 115 101.5 191.5t277.5 76.5q199 0 407 -80l-53 -172q-203 78 -350 78q-78 0 -119 -24.5t-41 -63.5q0 -40 49.5 -70.5t214.5 -85.5q166 -54 255 -102.5t123 -98t34 -120.5q0 -90 -58 -157t-173 -126q88 -68 88 -178 q0 -115 -101.5 -191.5t-277.5 -76.5q-211 0 -408 79l54 170q210 -77 350 -77q79 0 119 25t40 63q0 40 -49.5 70t-214.5 87q-165 53 -255 102t-123 98.5t-33 119.5zM285 750q0 -33 18.5 -56.5t80 -53.5t181.5 -69l154 -55q90 42 134 82.5t44 85.5q0 33 -19 56.5t-80.5 53 t-181.5 68.5q-63 19 -155 56q-176 -80 -176 -168z" />
<glyph unicode="&#xa8;" horiz-adv-x="1015" d="M256 1167v207h190v-207h-190zM569 1167v207h191v-207h-191z" />
<glyph unicode="&#xa9;" horiz-adv-x="1558" d="M88 717q0 213 90 383.5t248 266t352 95.5q146 0 274 -56t219.5 -154t144 -237t52.5 -298t-52.5 -297.5t-144 -237t-219.5 -155t-274 -56.5q-145 0 -273 56.5t-219.5 155t-144.5 237t-53 297.5zM160 717q0 -194 80 -349.5t221.5 -243t316.5 -87.5q176 0 318 87.5 t222.5 243t80.5 349.5t-80.5 350t-222.5 244t-318 88q-175 0 -316.5 -88t-221.5 -244t-80 -350zM424 723q0 176 108.5 282.5t278.5 106.5q129 0 252 -63l-49 -136q-94 56 -197 56q-101 0 -164 -67.5t-63 -176.5q0 -114 63.5 -181t169.5 -67q94 0 195 53l49 -129 q-118 -67 -254 -67q-174 0 -281.5 104.5t-107.5 284.5z" />
<glyph unicode="&#xaa;" horiz-adv-x="831" d="M88 535v94h653v-94h-653zM102 965q0 99 74 155t219 56q98 0 154 -9v37q0 58 -31 87.5t-106 29.5q-106 0 -219 -45l-37 117q140 53 276 53q143 0 211 -57t68 -175v-305l18 -137h-139l-27 72q-114 -80 -235 -80q-103 0 -164.5 53t-61.5 148zM252 975q0 -50 34.5 -78.5 t92.5 -28.5q38 0 85.5 17t84.5 43v151q-27 6 -125 6q-86 0 -129 -30t-43 -80z" />
<glyph unicode="&#xab;" horiz-adv-x="1116" d="M76 563v123l426 381l84 -78l-295 -364l295 -365l-84 -78zM522 563v123l426 381l84 -78l-295 -364l295 -365l-84 -78z" />
<glyph unicode="&#xad;" horiz-adv-x="696" d="M76 520v207h545v-207h-545z" />
<glyph unicode="&#xae;" horiz-adv-x="804" d="M66 1102q0 151 96 251.5t241 100.5q143 0 239.5 -101t96.5 -251t-96.5 -251t-239.5 -101q-145 0 -241 100.5t-96 251.5zM106 1102q0 -136 84 -226t213 -90q127 0 212 90.5t85 225.5t-85 225t-212 90q-129 0 -213 -90t-84 -225zM256 932v360h154q76 0 114.5 -28.5 t38.5 -77.5q0 -84 -100 -111q31 -16 53 -45l82 -98h-102l-74 90q-13 17 -26 23t-36 6h-18v-119h-86zM342 1116h47q40 0 64 16t24 44q0 49 -71 49h-64v-109z" />
<glyph unicode="&#xaf;" horiz-adv-x="1015" d="M229 1178v127h557v-127h-557z" />
<glyph unicode="&#xb0;" horiz-adv-x="880" d="M82 1094q0 152 103.5 255t254.5 103q153 0 256 -102t103 -254t-104 -255.5t-255 -103.5q-152 0 -255 102.5t-103 254.5zM227 1096q0 -95 61 -160.5t152 -65.5q93 0 153 64.5t60 159.5q0 96 -60.5 160.5t-152.5 64.5t-152.5 -63.5t-60.5 -159.5z" />
<glyph unicode="&#xb4;" horiz-adv-x="1015" d="M270 1167l189 236h293l-316 -236h-166z" />
<glyph unicode="&#xb6;" horiz-adv-x="1118" d="M57 995q0 205 143 322t386 117h387v-1434h-164v1280h-229v-717q-233 -3 -378 111.5t-145 320.5z" />
<glyph unicode="&#xb7;" horiz-adv-x="417" d="M84 590v274h252v-274h-252z" />
<glyph unicode="&#xb8;" horiz-adv-x="1015" d="M342 -252q106 7 148 22t42 42q0 46 -112 30l-39 41l92 137h119l-64 -90q82 -3 119 -28.5t37 -73.5q0 -144 -328 -160z" />
<glyph unicode="&#xba;" horiz-adv-x="833" d="M86 1104q0 153 93.5 249.5t238.5 96.5q144 0 237 -95.5t93 -248.5q0 -154 -94 -251t-238 -97q-146 0 -238 96t-92 250zM96 535v94h641v-94h-641zM238 1106q0 -95 50 -156t128 -61q79 0 129.5 60.5t50.5 154.5t-50.5 154.5t-129.5 60.5q-78 0 -128 -59.5t-50 -153.5z" />
<glyph unicode="&#xbb;" horiz-adv-x="1116" d="M84 260l295 365l-295 364l84 78l426 -381v-123l-426 -381zM530 260l295 365l-295 364l84 78l426 -381v-123l-426 -381z" />
<glyph unicode="&#xbf;" horiz-adv-x="1095" d="M53 346q0 164 112.5 269t354.5 192l25 242h141l41 -371q-241 -85 -333.5 -152.5t-92.5 -158.5q0 -79 60 -125.5t161 -46.5q201 0 445 147l92 -192q-277 -170 -555 -170q-206 0 -328.5 97.5t-122.5 268.5zM487 1186v248h258v-248h-258z" />
<glyph unicode="&#xc0;" horiz-adv-x="1501" d="M41 0l561 1450h297l559 -1450h-272l-111 297h-655l-109 -297h-270zM346 1735h316l198 -203h-203zM498 510h499l-249 678z" />
<glyph unicode="&#xc1;" horiz-adv-x="1501" d="M41 0l561 1450h297l559 -1450h-272l-111 297h-655l-109 -297h-270zM498 510h499l-249 678zM637 1532l199 203h315l-311 -203h-203z" />
<glyph unicode="&#xc2;" horiz-adv-x="1501" d="M41 0l561 1450h297l559 -1450h-272l-111 297h-655l-109 -297h-270zM438 1532l201 213h217l201 -213h-172l-140 100l-137 -100h-170zM498 510h499l-249 678z" />
<glyph unicode="&#xc3;" horiz-adv-x="1501" d="M41 0l561 1450h297l559 -1450h-272l-111 297h-655l-109 -297h-270zM412 1559q40 114 85.5 160t108.5 46q33 0 66 -10.5t92 -40.5q85 -45 123 -45q28 0 49 19.5t47 78.5l121 -34q-40 -113 -87 -160t-108 -47q-58 0 -157 51q-85 45 -125 45q-27 0 -48.5 -20t-46.5 -78z M498 510h499l-249 678z" />
<glyph unicode="&#xc4;" horiz-adv-x="1501" d="M41 0l561 1450h297l559 -1450h-272l-111 297h-655l-109 -297h-270zM481 1532v199h195v-199h-195zM498 510h499l-249 678zM819 1532v199h197v-199h-197z" />
<glyph unicode="&#xc5;" horiz-adv-x="1501" d="M41 0l549 1427q-39 42 -39 101q0 76 57 125t144 49q88 0 145 -49t57 -125q0 -62 -43 -105l547 -1423h-272l-111 297h-655l-109 -297h-270zM498 510h499l-249 678zM635 1528q0 -44 33 -73.5t84 -29.5q52 0 85 29t33 74q0 46 -32.5 74t-85.5 28q-51 0 -84 -28.5t-33 -73.5z " />
<glyph unicode="&#xc6;" horiz-adv-x="2242" d="M14 0l938 1434h1200v-215h-784v-379h696v-211h-696v-414h797v-215h-1049v297h-631l-192 -297h-279zM621 508h495v717h-31z" />
<glyph unicode="&#xc7;" horiz-adv-x="1316" d="M82 715q0 219 93 388t256 260t370 91q125 0 225.5 -21.5t206.5 -64.5l-55 -229q-192 82 -365 82q-209 0 -338 -139t-129 -363q0 -231 130 -368.5t349 -137.5q157 0 359 82l55 -221q-218 -94 -436 -94h-10l-35 -50q81 -3 118 -28.5t37 -73.5q0 -144 -327 -160l-15 80 q106 7 148.5 22t42.5 42q0 46 -113 30l-39 41l70 105q-274 37 -436 229.5t-162 497.5z" />
<glyph unicode="&#xc8;" horiz-adv-x="1284" d="M143 0v1434h1051v-215h-797v-379h711v-211h-711v-414h811v-215h-1065zM270 1720h316l198 -202h-202z" />
<glyph unicode="&#xc9;" horiz-adv-x="1284" d="M143 0v1434h1051v-215h-797v-379h711v-211h-711v-414h811v-215h-1065zM561 1518l199 202h315l-311 -202h-203z" />
<glyph unicode="&#xca;" horiz-adv-x="1284" d="M143 0v1434h1051v-215h-797v-379h711v-211h-711v-414h811v-215h-1065zM362 1518l201 213h217l201 -213h-172l-139 100l-138 -100h-170z" />
<glyph unicode="&#xcb;" horiz-adv-x="1284" d="M143 0v1434h1051v-215h-797v-379h711v-211h-711v-414h811v-215h-1065zM406 1518v198h194v-198h-194zM743 1518v198h197v-198h-197z" />
<glyph unicode="&#xcc;" horiz-adv-x="557" d="M-123 1720h316l198 -202h-203zM150 0v1434h260v-1434h-260z" />
<glyph unicode="&#xcd;" horiz-adv-x="557" d="M150 0v1434h260v-1434h-260zM168 1518l199 202h315l-311 -202h-203z" />
<glyph unicode="&#xce;" horiz-adv-x="557" d="M-31 1518l201 213h217l201 -213h-172l-140 100l-137 -100h-170zM150 0v1434h260v-1434h-260z" />
<glyph unicode="&#xcf;" horiz-adv-x="557" d="M12 1518v198h195v-198h-195zM150 0v1434h260v-1434h-260zM350 1518v198h197v-198h-197z" />
<glyph unicode="&#xd0;" horiz-adv-x="1472" d="M35 629v211h131v594h428q177 0 322 -44.5t251.5 -131.5t165 -224.5t58.5 -314.5q0 -178 -59 -316t-166.5 -226t-254 -132.5t-325.5 -44.5h-420v629h-131zM422 225h182q244 0 383 124t139 366t-138 367.5t-384 125.5h-182v-370h283v-207h-283v-406z" />
<glyph unicode="&#xd1;" horiz-adv-x="1482" d="M143 0v1434h283l672 -1026l-2 55v971h245v-1434h-274l-682 1042l2 -55v-987h-244zM403 1542q40 114 86 160.5t109 46.5q33 0 66 -10.5t92 -40.5q85 -45 123 -45q28 0 49 19.5t47 78.5l121 -35q-40 -113 -87 -160t-108 -47q-57 0 -158 52q-85 45 -125 45q-27 0 -48 -20.5 t-46 -78.5z" />
<glyph unicode="&#xd2;" horiz-adv-x="1517" d="M82 715q0 333 189 539t491 206q197 0 350 -91.5t238.5 -260.5t85.5 -389q0 -333 -189 -539.5t-489 -206.5t-488 205t-188 537zM346 719q0 -236 114.5 -379t301.5 -143q184 0 298 142.5t114 375.5q0 235 -115.5 378.5t-300.5 143.5t-298.5 -142.5t-113.5 -375.5zM354 1735 h316l198 -203h-202z" />
<glyph unicode="&#xd3;" horiz-adv-x="1517" d="M82 715q0 333 189 539t491 206q197 0 350 -91.5t238.5 -260.5t85.5 -389q0 -333 -189 -539.5t-489 -206.5t-488 205t-188 537zM346 719q0 -236 114.5 -379t301.5 -143q184 0 298 142.5t114 375.5q0 235 -115.5 378.5t-300.5 143.5t-298.5 -142.5t-113.5 -375.5zM647 1532 l199 203h315l-311 -203h-203z" />
<glyph unicode="&#xd4;" horiz-adv-x="1517" d="M82 715q0 333 189 539t491 206q197 0 350 -91.5t238.5 -260.5t85.5 -389q0 -333 -189 -539.5t-489 -206.5t-488 205t-188 537zM346 719q0 -236 114.5 -379t301.5 -143q184 0 298 142.5t114 375.5q0 235 -115.5 378.5t-300.5 143.5t-298.5 -142.5t-113.5 -375.5zM449 1532 l200 213h217l201 -213h-172l-139 100l-138 -100h-169z" />
<glyph unicode="&#xd5;" horiz-adv-x="1517" d="M82 715q0 333 189 539t491 206q197 0 350 -91.5t238.5 -260.5t85.5 -389q0 -333 -189 -539.5t-489 -206.5t-488 205t-188 537zM346 719q0 -236 114.5 -379t301.5 -143q184 0 298 142.5t114 375.5q0 235 -115.5 378.5t-300.5 143.5t-298.5 -142.5t-113.5 -375.5zM420 1559 q40 114 85.5 160t108.5 46q33 0 66 -10.5t92 -40.5q85 -45 123 -45q28 0 49 19.5t47 78.5l121 -34q-40 -113 -86.5 -160t-107.5 -47q-59 0 -158 51q-85 45 -125 45q-27 0 -48 -20t-46 -78z" />
<glyph unicode="&#xd6;" horiz-adv-x="1517" d="M82 715q0 333 189 539t491 206q197 0 350 -91.5t238.5 -260.5t85.5 -389q0 -333 -189 -539.5t-489 -206.5t-488 205t-188 537zM346 719q0 -236 114.5 -379t301.5 -143q184 0 298 142.5t114 375.5q0 235 -115.5 378.5t-300.5 143.5t-298.5 -142.5t-113.5 -375.5zM492 1532 v199h194v-199h-194zM829 1532v199h197v-199h-197z" />
<glyph unicode="&#xd7;" d="M109 426l303 301l-303 299l139 139l299 -303l301 303l137 -137l-303 -301l303 -299l-139 -139l-299 303l-301 -303z" />
<glyph unicode="&#xd8;" horiz-adv-x="1517" d="M72 -109l204 279q-194 207 -194 545q0 333 189 539t491 206q212 0 368 -104l138 186h178l-207 -276q95 -99 146 -239t51 -308q0 -333 -189 -539.5t-489 -206.5q-212 0 -373 105l-135 -187h-178zM344 719q0 -210 92 -350l557 790q-104 80 -235 80q-185 0 -299.5 -143 t-114.5 -377zM522 276q101 -81 240 -81q184 0 299 143t115 377q0 208 -95 350z" />
<glyph unicode="&#xd9;" horiz-adv-x="1452" d="M131 584v850h258v-856q0 -186 92.5 -283.5t245.5 -97.5q155 0 247.5 96.5t92.5 279.5v861h254v-850q0 -299 -160 -453t-436 -154q-275 0 -434.5 154.5t-159.5 452.5zM322 1716h315l199 -203h-203z" />
<glyph unicode="&#xda;" horiz-adv-x="1452" d="M131 584v850h258v-856q0 -186 92.5 -283.5t245.5 -97.5q155 0 247.5 96.5t92.5 279.5v861h254v-850q0 -299 -160 -453t-436 -154q-275 0 -434.5 154.5t-159.5 452.5zM614 1513l199 203h315l-311 -203h-203z" />
<glyph unicode="&#xdb;" horiz-adv-x="1452" d="M131 584v850h258v-856q0 -186 92.5 -283.5t245.5 -97.5q155 0 247.5 96.5t92.5 279.5v861h254v-850q0 -299 -160 -453t-436 -154q-275 0 -434.5 154.5t-159.5 452.5zM416 1513l200 213h218l200 -213h-172l-139 101l-137 -101h-170z" />
<glyph unicode="&#xdc;" horiz-adv-x="1452" d="M131 584v850h258v-856q0 -186 92.5 -283.5t245.5 -97.5q155 0 247.5 96.5t92.5 279.5v861h254v-850q0 -299 -160 -453t-436 -154q-275 0 -434.5 154.5t-159.5 452.5zM459 1513v199h194v-199h-194zM797 1513v199h196v-199h-196z" />
<glyph unicode="&#xdd;" horiz-adv-x="1363" d="M12 1432v2h289l383 -639l383 639h285v-2l-541 -883v-549h-258v549zM569 1513l199 203h315l-311 -203h-203z" />
<glyph unicode="&#xde;" horiz-adv-x="1302" d="M143 0v1434h256v-213h228q293 0 446.5 -120t153.5 -356q0 -256 -165 -385t-456 -129h-207v-231h-256zM399 440h209q174 0 267.5 74t93.5 219q0 275 -348 275h-222v-568z" />
<glyph unicode="&#xdf;" horiz-adv-x="1374" d="M41 862v189h182v8q0 200 125 315t377 115q224 0 355.5 -103.5t131.5 -267.5q0 -256 -307 -379q205 -67 303.5 -166.5t98.5 -250.5q0 -158 -105.5 -248t-279.5 -90q-153 0 -310 59l39 180q130 -51 236 -51q86 0 137 43.5t51 118.5q0 100 -99.5 178.5t-313.5 140.5v158 q317 101 317 283q0 87 -66.5 141.5t-183.5 54.5q-127 0 -196.5 -69t-69.5 -187v-1034h-240v862h-182z" />
<glyph unicode="&#xe0;" horiz-adv-x="1107" d="M61 311q0 144 84 228q57 55 150.5 81.5t259.5 26.5q131 0 199 -14v65q0 98 -53 147.5t-173 49.5q-156 0 -335 -76l-56 180q216 86 428 86q220 0 325 -88.5t105 -277.5v-500l27 -219h-209l-43 117q-172 -133 -358 -133q-162 0 -256.5 84.5t-94.5 242.5zM182 1411h293 l189 -235h-166zM285 328q0 -87 55 -134t149 -47q135 0 265 99v256q-52 10 -154 10q-119 0 -178.5 -16t-93.5 -50q-43 -43 -43 -118z" />
<glyph unicode="&#xe1;" horiz-adv-x="1107" d="M61 311q0 144 84 228q57 55 150.5 81.5t259.5 26.5q131 0 199 -14v65q0 98 -53 147.5t-173 49.5q-156 0 -335 -76l-56 180q216 86 428 86q220 0 325 -88.5t105 -277.5v-500l27 -219h-209l-43 117q-172 -133 -358 -133q-162 0 -256.5 84.5t-94.5 242.5zM285 328 q0 -87 55 -134t149 -47q135 0 265 99v256q-52 10 -154 10q-119 0 -178.5 -16t-93.5 -50q-43 -43 -43 -118zM457 1176l188 235h293l-315 -235h-166z" />
<glyph unicode="&#xe2;" horiz-adv-x="1107" d="M61 311q0 144 84 228q57 55 150.5 81.5t259.5 26.5q131 0 199 -14v65q0 98 -53 147.5t-173 49.5q-156 0 -335 -76l-56 180q216 86 428 86q220 0 325 -88.5t105 -277.5v-500l27 -219h-209l-43 117q-172 -133 -358 -133q-162 0 -256.5 84.5t-94.5 242.5zM268 1176v2 l201 241h180l201 -241v-2h-152l-139 124l-141 -124h-150zM285 328q0 -87 55 -134t149 -47q135 0 265 99v256q-52 10 -154 10q-119 0 -178.5 -16t-93.5 -50q-43 -43 -43 -118z" />
<glyph unicode="&#xe3;" horiz-adv-x="1107" d="M61 311q0 144 84 228q57 55 150.5 81.5t259.5 26.5q131 0 199 -14v65q0 98 -53 147.5t-173 49.5q-156 0 -335 -76l-56 180q216 86 428 86q220 0 325 -88.5t105 -277.5v-500l27 -219h-209l-43 117q-172 -133 -358 -133q-162 0 -256.5 84.5t-94.5 242.5zM238 1198 q39 117 83 166t103 49q33 0 62.5 -10.5t88.5 -42.5q81 -45 115 -45q27 0 47 20.5t47 79.5l113 -31q-40 -118 -83.5 -166.5t-102.5 -48.5q-32 0 -62.5 11.5t-87.5 42.5q-52 28 -74 36.5t-43 8.5q-27 0 -47 -21t-47 -82zM285 328q0 -87 55 -134t149 -47q135 0 265 99v256 q-52 10 -154 10q-119 0 -178.5 -16t-93.5 -50q-43 -43 -43 -118z" />
<glyph unicode="&#xe4;" horiz-adv-x="1107" d="M61 311q0 144 84 228q57 55 150.5 81.5t259.5 26.5q131 0 199 -14v65q0 98 -53 147.5t-173 49.5q-156 0 -335 -76l-56 180q216 86 428 86q220 0 325 -88.5t105 -277.5v-500l27 -219h-209l-43 117q-172 -133 -358 -133q-162 0 -256.5 84.5t-94.5 242.5zM285 328 q0 -87 55 -134t149 -47q135 0 265 99v256q-52 10 -154 10q-119 0 -178.5 -16t-93.5 -50q-43 -43 -43 -118zM307 1176v206h191v-206h-191zM621 1176v206h190v-206h-190z" />
<glyph unicode="&#xe5;" horiz-adv-x="1107" d="M61 311q0 144 84 228q57 55 150.5 81.5t259.5 26.5q131 0 199 -14v65q0 98 -53 147.5t-173 49.5q-156 0 -335 -76l-56 180q216 86 428 86q220 0 325 -88.5t105 -277.5v-500l27 -219h-209l-43 117q-172 -133 -358 -133q-162 0 -256.5 84.5t-94.5 242.5zM285 328 q0 -87 55 -134t149 -47q135 0 265 99v256q-52 10 -154 10q-119 0 -178.5 -16t-93.5 -50q-43 -43 -43 -118zM371 1339q0 75 53.5 126t134.5 51t135 -51t54 -126t-54 -125.5t-135 -50.5t-134.5 50.5t-53.5 125.5zM451 1339q0 -46 31 -77t77 -31t77.5 31t31.5 77t-31.5 77.5 t-77.5 31.5t-77 -31.5t-31 -77.5z" />
<glyph unicode="&#xe6;" horiz-adv-x="1773" d="M61 311q0 144 84 228q57 55 150.5 81.5t259.5 26.5q131 0 199 -14v65q0 98 -53 147.5t-173 49.5q-156 0 -335 -76l-56 180q216 86 424 86q268 0 346 -159q126 168 346 168q210 0 337.5 -158.5t127.5 -415.5v-63h-745q9 -135 94 -217t227 -82q155 0 316 92l67 -158 q-188 -112 -403 -112q-263 0 -404 163q-213 -159 -432 -159q-172 0 -274.5 85t-102.5 242zM285 328q0 -86 56 -132t151 -46q154 0 301 118q-45 106 -48 236q-78 8 -145 8q-119 0 -178.5 -16t-93.5 -50q-43 -43 -43 -118zM973 606h518q-9 138 -77.5 221.5t-180.5 83.5 q-109 0 -179 -84t-81 -221z" />
<glyph unicode="&#xe7;" horiz-adv-x="987" d="M66 535q0 249 146.5 403t387.5 154q165 0 332 -72l-53 -205q-157 66 -275 66q-139 0 -224 -96.5t-85 -245.5q0 -157 84 -253t229 -96q112 0 277 72l53 -196q-164 -79 -334 -84l-35 -52q82 -3 119 -28.5t37 -73.5q0 -144 -328 -160l-14 80q106 7 148 22t42 42 q0 46 -112 30l-39 41l70 105q-196 29 -311 176.5t-115 370.5z" />
<glyph unicode="&#xe8;" d="M66 530q0 252 138 408t353 156q221 0 351 -157.5t130 -416.5v-63h-745q9 -134 95 -215.5t226 -81.5q157 0 318 90l65 -158q-185 -110 -403 -110q-240 0 -384 143.5t-144 404.5zM182 1411h293l189 -235h-166zM293 606h520q-11 138 -79.5 221.5t-178.5 83.5 q-109 0 -180 -84.5t-82 -220.5z" />
<glyph unicode="&#xe9;" d="M66 530q0 252 138 408t353 156q221 0 351 -157.5t130 -416.5v-63h-745q9 -134 95 -215.5t226 -81.5q157 0 318 90l65 -158q-185 -110 -403 -110q-240 0 -384 143.5t-144 404.5zM293 606h520q-11 138 -79.5 221.5t-178.5 83.5q-109 0 -180 -84.5t-82 -220.5zM457 1176 l188 235h293l-315 -235h-166z" />
<glyph unicode="&#xea;" d="M66 530q0 252 138 408t353 156q221 0 351 -157.5t130 -416.5v-63h-745q9 -134 95 -215.5t226 -81.5q157 0 318 90l65 -158q-185 -110 -403 -110q-240 0 -384 143.5t-144 404.5zM268 1176v2l201 241h180l201 -241v-2h-152l-139 124l-141 -124h-150zM293 606h520 q-11 138 -79.5 221.5t-178.5 83.5q-109 0 -180 -84.5t-82 -220.5z" />
<glyph unicode="&#xeb;" d="M66 530q0 252 138 408t353 156q221 0 351 -157.5t130 -416.5v-63h-745q9 -134 95 -215.5t226 -81.5q157 0 318 90l65 -158q-185 -110 -403 -110q-240 0 -384 143.5t-144 404.5zM293 606h520q-11 138 -79.5 221.5t-178.5 83.5q-109 0 -180 -84.5t-82 -220.5zM307 1176v206 h191v-206h-191zM621 1176v206h190v-206h-190z" />
<glyph unicode="&#xec;" horiz-adv-x="491" d="M-133 1403h293l188 -236h-166zM123 0v1071h244v-1071h-244z" />
<glyph unicode="&#xed;" horiz-adv-x="491" d="M123 0v1071h244v-1071h-244zM143 1167l189 236h293l-316 -236h-166z" />
<glyph unicode="&#xee;" horiz-adv-x="491" d="M-45 1167v2l201 242h180l201 -242v-2h-152l-139 125l-142 -125h-149zM123 0v1071h244v-1071h-244z" />
<glyph unicode="&#xef;" horiz-adv-x="491" d="M-6 1167v207h190v-207h-190zM123 0v1071h244v-1071h-244zM307 1167v207h191v-207h-191z" />
<glyph unicode="&#xf0;" horiz-adv-x="1130" d="M66 477q0 224 122 359t326 135q143 0 287 -72q-46 155 -183 260l-118 -100h-213l202 176q-89 45 -237 88l92 176q176 -49 309 -123l125 111h228l-230 -193q279 -226 279 -661q0 -296 -138 -474.5t-374 -178.5q-220 0 -348.5 135.5t-128.5 361.5zM289 481q0 -137 67 -220 t187 -83q131 0 212 120.5t81 330.5q0 14 -1 40t-1 38q-148 86 -275 86q-121 0 -195.5 -86t-74.5 -226z" />
<glyph unicode="&#xf1;" horiz-adv-x="1165" d="M121 0v1071h188l41 -113q176 129 359 129q168 0 256 -92.5t88 -273.5v-721h-244v666q0 101 -48.5 153.5t-142.5 52.5q-62 0 -130 -26t-123 -68v-778h-244zM262 1198q39 116 83.5 165.5t103.5 49.5q33 0 62.5 -10.5t88.5 -42.5q81 -45 115 -45q27 0 47 20.5t47 79.5 l113 -31q-40 -118 -84 -166.5t-103 -48.5q-31 0 -61.5 11t-87.5 43q-52 28 -74 36.5t-43 8.5q-27 0 -47 -21t-47 -82z" />
<glyph unicode="&#xf2;" horiz-adv-x="1146" d="M66 535q0 251 143.5 405t365.5 154q220 0 363 -153t143 -404t-144 -405.5t-364 -154.5q-223 0 -365 153t-142 405zM195 1411h292l189 -235h-166zM291 537q0 -158 79 -257.5t205 -99.5q124 0 202.5 98.5t78.5 256.5t-79 258t-204 100q-126 0 -204 -99t-78 -257z" />
<glyph unicode="&#xf3;" horiz-adv-x="1146" d="M66 535q0 251 143.5 405t365.5 154q220 0 363 -153t143 -404t-144 -405.5t-364 -154.5q-223 0 -365 153t-142 405zM291 537q0 -158 79 -257.5t205 -99.5q124 0 202.5 98.5t78.5 256.5t-79 258t-204 100q-126 0 -204 -99t-78 -257zM471 1176l188 235h293l-315 -235h-166z " />
<glyph unicode="&#xf4;" horiz-adv-x="1146" d="M66 535q0 251 143.5 405t365.5 154q220 0 363 -153t143 -404t-144 -405.5t-364 -154.5q-223 0 -365 153t-142 405zM281 1176v2l200 241h181l200 -241v-2h-151l-140 124l-141 -124h-149zM291 537q0 -158 79 -257.5t205 -99.5q124 0 202.5 98.5t78.5 256.5t-79 258 t-204 100q-126 0 -204 -99t-78 -257z" />
<glyph unicode="&#xf5;" horiz-adv-x="1146" d="M66 535q0 251 143.5 405t365.5 154q220 0 363 -153t143 -404t-144 -405.5t-364 -154.5q-223 0 -365 153t-142 405zM252 1198q39 117 83 166t103 49q33 0 63.5 -11t88.5 -42q81 -45 115 -45q27 0 47 20.5t47 79.5l112 -31q-40 -118 -83.5 -166.5t-102.5 -48.5 q-32 0 -62.5 11.5t-87.5 42.5q-53 28 -74 36.5t-42 8.5q-27 0 -47 -21t-47 -82zM291 537q0 -158 79 -257.5t205 -99.5q124 0 202.5 98.5t78.5 256.5t-79 258t-204 100q-126 0 -204 -99t-78 -257z" />
<glyph unicode="&#xf6;" horiz-adv-x="1146" d="M66 535q0 251 143.5 405t365.5 154q220 0 363 -153t143 -404t-144 -405.5t-364 -154.5q-223 0 -365 153t-142 405zM291 537q0 -158 79 -257.5t205 -99.5q124 0 202.5 98.5t78.5 256.5t-79 258t-204 100q-126 0 -204 -99t-78 -257zM319 1176v206h191v-206h-191zM633 1176 v206h190v-206h-190z" />
<glyph unicode="&#xf7;" d="M94 633v186l453 -2l454 2v-186l-454 4zM436 242v211h221v-211h-221zM436 1001v211h221v-211h-221z" />
<glyph unicode="&#xf8;" horiz-adv-x="1146" d="M66 -106l151 225q-151 157 -151 416q0 251 143.5 405t365.5 154q136 0 248 -64l97 148h163l-155 -228q153 -153 153 -413q0 -251 -144 -405.5t-364 -154.5q-135 0 -249 62l-97 -145h-161zM291 537q0 -144 63 -238l359 553q-62 41 -140 41q-126 0 -204 -98t-78 -258z M434 219q62 -41 141 -41q123 0 202 99.5t79 257.5q0 143 -63 237z" />
<glyph unicode="&#xf9;" horiz-adv-x="1165" d="M111 350v721h243v-665q0 -101 49.5 -154t143.5 -53q121 0 254 94v778h243v-1071h-188l-41 113q-179 -129 -360 -129q-167 0 -255.5 93t-88.5 273zM199 1399h293l188 -236h-166z" />
<glyph unicode="&#xfa;" horiz-adv-x="1165" d="M111 350v721h243v-665q0 -101 49.5 -154t143.5 -53q121 0 254 94v778h243v-1071h-188l-41 113q-179 -129 -360 -129q-167 0 -255.5 93t-88.5 273zM475 1163l189 236h292l-315 -236h-166z" />
<glyph unicode="&#xfb;" horiz-adv-x="1165" d="M111 350v721h243v-665q0 -101 49.5 -154t143.5 -53q121 0 254 94v778h243v-1071h-188l-41 113q-179 -129 -360 -129q-167 0 -255.5 93t-88.5 273zM285 1163v2l200 242h181l200 -242v-2h-151l-140 125l-141 -125h-149z" />
<glyph unicode="&#xfc;" horiz-adv-x="1165" d="M111 350v721h243v-665q0 -101 49.5 -154t143.5 -53q121 0 254 94v778h243v-1071h-188l-41 113q-179 -129 -360 -129q-167 0 -255.5 93t-88.5 273zM324 1163v207h190v-207h-190zM637 1163v207h190v-207h-190z" />
<glyph unicode="&#xfd;" horiz-adv-x="1107" d="M41 1071h254l272 -784l267 784h247l-340 -903q-37 -101 -75 -171t-84.5 -123.5t-110.5 -90.5t-142 -64t-190 -51l-55 203q112 25 191.5 71t142.5 126zM457 1163l188 236h293l-315 -236h-166z" />
<glyph unicode="&#xfe;" horiz-adv-x="1169" d="M121 -324v1811h244v-502q136 105 292 105q197 0 320 -147t123 -404q0 -260 -127.5 -408.5t-333.5 -148.5q-141 0 -274 81v-387h-244zM365 256q112 -77 221 -74q128 0 204 93t76 264q0 163 -75.5 257.5t-198.5 94.5q-120 0 -227 -88v-547z" />
<glyph unicode="&#xff;" horiz-adv-x="1107" d="M41 1071h254l272 -784l267 784h247l-340 -903q-37 -101 -75 -171t-84.5 -123.5t-110.5 -90.5t-142 -64t-190 -51l-55 203q112 25 191.5 71t142.5 126zM307 1163v207h191v-207h-191zM621 1163v207h190v-207h-190z" />
<glyph unicode="&#x152;" horiz-adv-x="2177" d="M84 715q0 178 59 316t166.5 225.5t253 132.5t324.5 45h1200v-215h-784v-379h696v-211h-696v-414h796v-215h-1220q-176 0 -320.5 44.5t-251 131.5t-165 224.5t-58.5 314.5zM346 719q0 -249 138 -377.5t386 -128.5h179v1008h-181q-245 0 -383.5 -126.5t-138.5 -375.5z" />
<glyph unicode="&#x153;" horiz-adv-x="1884" d="M66 535q0 252 143 405.5t362 153.5q129 0 232 -56.5t166 -160.5q62 104 160.5 160.5t224.5 56.5q218 0 346.5 -157.5t128.5 -416.5v-63h-746q9 -135 94.5 -217t227.5 -82q152 0 317 92l66 -158q-188 -112 -402 -112q-296 0 -423 210q-63 -102 -166 -157.5t-230 -55.5 q-218 0 -359.5 153t-141.5 405zM291 537q0 -159 79.5 -258t204.5 -99q124 0 202.5 98t78.5 257t-80 258.5t-205 99.5q-124 0 -202 -98.5t-78 -257.5zM1083 606h519q-9 138 -77 221.5t-179 83.5q-109 0 -180.5 -84.5t-82.5 -220.5z" />
<glyph unicode="&#x178;" horiz-adv-x="1363" d="M12 1432v2h289l383 -639l383 639h285v-2l-541 -883v-549h-258v549zM414 1513v199h194v-199h-194zM752 1513v199h196v-199h-196z" />
<glyph unicode="&#x2c6;" horiz-adv-x="1015" d="M217 1167v2l201 242h180l201 -242v-2h-152l-139 125l-141 -125h-150z" />
<glyph unicode="&#x2dc;" horiz-adv-x="1015" d="M178 1190q39 116 83.5 165.5t103.5 49.5q33 0 62.5 -10.5t88.5 -42.5q81 -45 115 -45q27 0 47 20.5t47 79.5l113 -31q-40 -118 -84 -166.5t-103 -48.5q-32 0 -62.5 11t-86.5 42q-54 28 -75 37t-42 9q-27 0 -47 -21t-47 -82z" />
<glyph unicode="&#x2000;" horiz-adv-x="883" />
<glyph unicode="&#x2001;" horiz-adv-x="1767" />
<glyph unicode="&#x2002;" horiz-adv-x="883" />
<glyph unicode="&#x2003;" horiz-adv-x="1767" />
<glyph unicode="&#x2004;" horiz-adv-x="589" />
<glyph unicode="&#x2005;" horiz-adv-x="441" />
<glyph unicode="&#x2006;" horiz-adv-x="294" />
<glyph unicode="&#x2007;" horiz-adv-x="294" />
<glyph unicode="&#x2008;" horiz-adv-x="220" />
<glyph unicode="&#x2009;" horiz-adv-x="353" />
<glyph unicode="&#x200a;" horiz-adv-x="98" />
<glyph unicode="&#x2010;" horiz-adv-x="696" d="M76 520v207h545v-207h-545z" />
<glyph unicode="&#x2011;" horiz-adv-x="696" d="M76 520v207h545v-207h-545z" />
<glyph unicode="&#x2012;" horiz-adv-x="696" d="M76 520v207h545v-207h-545z" />
<glyph unicode="&#x2013;" horiz-adv-x="1001" d="M76 524v201h850v-201h-850z" />
<glyph unicode="&#x2014;" horiz-adv-x="1675" d="M76 524v201h1523v-201h-1523z" />
<glyph unicode="&#x2018;" horiz-adv-x="446" d="M53 1419v17h244q0 -164 27.5 -272t93.5 -224l-94 -66q-65 58 -110.5 111t-84 119t-57.5 144t-19 171z" />
<glyph unicode="&#x2019;" horiz-adv-x="446" d="M29 940q66 116 93.5 224t27.5 272h243v-17q0 -122 -36 -223.5t-91 -172t-143 -149.5z" />
<glyph unicode="&#x201a;" horiz-adv-x="417" d="M-23 -221q67 116 94 223.5t27 271.5h244v-16q0 -93 -19 -171t-57 -144t-83.5 -118.5t-110.5 -109.5z" />
<glyph unicode="&#x201c;" horiz-adv-x="800" d="M53 1417v19h232q0 -163 27.5 -272t93.5 -228l-91 -62q-133 120 -197.5 243.5t-64.5 299.5zM422 1417v19h231q0 -164 27 -273t92 -227l-88 -62q-133 120 -197.5 243.5t-64.5 299.5z" />
<glyph unicode="&#x201d;" horiz-adv-x="800" d="M41 936q65 118 92 227t27 273h231v-19q0 -176 -64.5 -299.5t-197.5 -243.5zM408 936q65 117 91.5 226t26.5 274h232v-19q0 -176 -64.5 -299.5t-197.5 -243.5z" />
<glyph unicode="&#x201e;" horiz-adv-x="776" d="M-20 -225q65 118 92.5 227t27.5 272h230v-16q0 -178 -64 -300.5t-198 -242.5zM348 -225q65 118 92 226.5t27 272.5h231v-16q0 -122 -33.5 -221t-87 -170.5t-141.5 -151.5z" />
<glyph unicode="&#x2022;" horiz-adv-x="911" d="M168 727q0 120 84.5 204.5t204.5 84.5q119 0 202.5 -84.5t83.5 -204.5t-83.5 -204.5t-202.5 -84.5q-120 0 -204.5 84.5t-84.5 204.5z" />
<glyph unicode="&#x2026;" horiz-adv-x="1228" d="M84 0v266h244v-266h-244zM492 0v266h245v-266h-245zM901 0v266h246v-266h-246z" />
<glyph unicode="&#x202f;" horiz-adv-x="353" />
<glyph unicode="&#x2039;" horiz-adv-x="669" d="M76 563v123l426 381l84 -78l-295 -364l295 -365l-84 -78z" />
<glyph unicode="&#x203a;" horiz-adv-x="669" d="M84 260l295 365l-295 364l84 78l426 -381v-123l-426 -381z" />
<glyph unicode="&#x205f;" horiz-adv-x="441" />
<glyph unicode="&#x20ac;" horiz-adv-x="1245" d="M41 489v134h154q-2 31 -2 94q0 59 2 90h-154v133h172q50 248 214.5 379t432.5 131q170 0 322 -49l-39 -219q-143 47 -271 47q-320 0 -403 -289h563v-133h-586q-4 -58 -4 -90q0 -65 4 -94h586v-134h-561q82 -284 399 -284q134 0 273 47l39 -217q-148 -51 -322 -51 q-266 0 -431 128.5t-216 376.5h-172z" />
<glyph unicode="&#x2122;" horiz-adv-x="1200" d="M51 1346v88h428v-88h-164v-385h-100v385h-164zM543 961l26 473h138l129 -340l129 340h137l26 -473h-98l-18 337l-127 -337h-99l-131 342l-16 -342h-96z" />
<glyph unicode="&#x25fc;" horiz-adv-x="1075" d="M0 0v1075h1075v-1075h-1075z" />
<glyph unicode="&#xfb01;" horiz-adv-x="1273" d="M37 862v189h180v90q0 171 90 263.5t277 92.5q106 0 211 -24v-189q-102 27 -170 27q-168 0 -168 -176v-84h301v-189h-299v-862h-242v862h-180zM899 1214v199h260v-199h-260zM907 0v1071h244v-1071h-244z" />
<glyph unicode="&#xfb02;" horiz-adv-x="1273" d="M37 862v189h180v90q0 171 90 263.5t277 92.5q106 0 211 -24v-189q-102 27 -170 27q-168 0 -168 -176v-84h301v-189h-299v-862h-242v862h-180zM907 0v1487h244v-1487h-244z" />
</font>
</defs>
</svg>
